<svg width="70" height="19" viewBox="0 0 70 19" fill="none" xmlns="http://www.w3.org/2000/svg">
<path d="M66.591 8.44633C65.7854 8.14711 64.9236 8.02969 64.0673 8.10246C63.2111 8.17523 62.3815 8.43639 61.6379 8.86727C60.8944 9.29814 60.2553 9.88805 59.7664 10.5948C59.2775 11.3015 58.9509 12.1076 58.81 12.9553C58.7156 13.5036 58.7156 14.064 58.81 14.6123C58.276 14.9583 57.333 15.5243 57.568 13.9883C58.055 10.8033 58.442 8.60533 58.937 5.68833C59.024 5.17233 59.037 4.99633 58.521 5.00633C57.756 5.02233 57.769 4.99233 56.673 4.99233C55.514 4.99233 55.311 4.72233 55.122 6.07033C55.093 6.27933 54.968 7.16334 54.922 7.37034L54.694 5.35234C54.631 5.01234 54.682 4.87633 54.343 4.79033C54.05 4.71633 53.758 4.63134 53.461 4.58034C51.025 4.15634 48.528 5.16733 47.68 7.23033C47.58 7.47933 47.542 7.65333 47.466 7.86233L47.116 5.25133C47.061 4.96433 47.035 4.86633 46.735 4.79033C46.435 4.71433 46.122 4.63134 45.825 4.58034C43.389 4.15634 40.96 5.13833 40.185 7.23033C39.798 8.27633 40.07 8.33034 38.474 8.35634C38.358 8.35634 38.117 8.46733 38.097 8.56333C37.932 9.34433 37.806 10.1343 37.656 10.9893H39.256C39.05 12.1723 38.956 13.1713 38.756 14.3363C38.236 14.5203 37.18 15.3363 36.35 14.8013C36.2806 14.5939 36.2561 14.374 36.278 14.1563C36.415 13.3473 36.573 12.5413 36.711 11.7323C36.8095 11.4082 36.842 11.0675 36.8066 10.7306C36.7712 10.3936 36.6686 10.0671 36.5049 9.77051C36.3412 9.47386 36.1197 9.21305 35.8535 9.00347C35.5873 8.7939 35.2817 8.63981 34.955 8.55033C34.0574 8.20331 33.0953 8.05524 32.135 8.11634C30.7637 8.12945 29.428 8.55413 28.301 9.33534C27.97 9.57634 27.912 9.79634 28.201 10.1133C28.4837 10.4236 28.7462 10.7516 28.987 11.0953C29.229 11.4463 29.433 11.4723 29.807 11.2313C30.1691 10.954 30.5912 10.7652 31.0393 10.6802C31.4875 10.5951 31.9494 10.616 32.388 10.7413C32.54 10.7642 32.6837 10.8256 32.8052 10.9198C32.9268 11.0139 33.0222 11.1376 33.0823 11.2791C33.1425 11.4206 33.1654 11.5752 33.1489 11.728C33.1324 11.8809 33.077 12.027 32.988 12.1523C32.5421 12.068 32.0922 12.0066 31.64 11.9683C30.1696 11.7971 28.6901 12.2021 27.512 13.0983C27.4241 13.1731 27.3403 13.2526 27.261 13.3363C26.771 13.8459 26.2194 14.2923 25.619 14.6653C25.4284 14.7448 25.2146 14.7476 25.022 14.673C24.8295 14.5985 24.6733 14.4524 24.586 14.2653C24.386 13.8833 24.212 13.4273 24.025 13.0333C24.45 12.7723 24.882 12.5453 25.271 12.2593C25.9125 11.7512 26.3915 11.0667 26.6493 10.29C26.9071 9.5133 26.9324 8.6782 26.722 7.88734C26.301 6.31834 25.101 5.76933 23.64 5.57033C23.457 5.54533 16.235 5.52033 16.235 5.52033C16.3911 5.57126 16.5216 5.68046 16.5993 5.8252C16.677 5.96993 16.6959 6.13905 16.652 6.29733C16.125 9.01133 15.042 16.1203 15.042 16.1203C14.9536 16.7758 14.6455 17.3818 14.168 17.8393C14.168 17.8393 17.64 17.8233 17.842 17.8313C18.314 17.8493 18.432 17.6613 18.497 17.2463C18.689 16.0083 18.924 14.7763 19.141 13.5463C19.3592 13.4776 19.5954 13.4945 19.8016 13.5937C20.0078 13.6929 20.1685 13.8669 20.251 14.0803C20.58 14.7373 20.851 15.4243 21.132 16.1033C21.2555 16.4508 21.4481 16.7696 21.6981 17.0407C21.948 17.3118 22.2503 17.5296 22.5866 17.6808C22.9229 17.832 23.2863 17.9137 23.655 17.9208C24.0237 17.928 24.3901 17.8605 24.732 17.7223C25.932 17.3223 26.344 15.5983 26.432 15.4123C26.6029 16.2229 27.0724 16.9395 27.7473 17.4199C28.4222 17.9003 29.2531 18.1093 30.075 18.0053C31.1041 18.0022 32.112 17.7127 32.986 17.1693C33.218 17.3734 33.4836 17.5358 33.771 17.6493C36.622 18.5853 38.48 15.5003 38.48 15.5003C38.48 15.5003 38.293 17.1093 38.14 17.8383C39.327 17.8383 40.516 17.8463 41.648 17.8223C41.738 17.8223 41.933 17.5543 41.958 17.4223C42.186 16.2043 42.336 14.9823 42.55 13.7623C42.712 12.8443 43.043 10.9893 43.043 10.9893H46.777L45.657 17.8373C45.657 17.8373 47.997 17.8453 49.151 17.8213C49.241 17.8213 49.379 17.5533 49.404 17.4213C49.632 16.2033 49.838 14.9813 50.053 13.7613C50.215 12.8433 50.379 11.9253 50.546 10.9883C51.262 10.9883 51.86 11.0013 52.514 10.9783C52.5742 10.989 52.6361 10.9869 52.6955 10.972C52.7549 10.9572 52.8105 10.9301 52.8587 10.8923C52.9069 10.8546 52.9466 10.8071 52.9753 10.753C53.0039 10.6989 53.0209 10.6394 53.025 10.5783C53.186 9.79834 53.384 8.32834 53.384 8.32834H51.017C51.317 7.39134 52.693 7.14333 53.606 7.33433C54.0258 7.39969 54.4345 7.52356 54.82 7.70233C54.82 7.70233 54.12 12.5873 53.638 14.9633C53.266 16.7973 54.095 17.9533 55.921 18.0983C56.2316 18.1007 56.5417 18.0702 56.846 18.0073C57.3573 17.8816 57.8258 17.6217 58.2032 17.2545C58.5806 16.8873 58.8533 16.426 58.993 15.9183C59.171 15.4183 59.635 17.4183 61.998 17.9593C62.977 18.2117 64.0024 18.2254 64.9878 17.9992C65.9733 17.773 66.89 17.3135 67.661 16.6593C67.7404 16.5858 67.7973 16.4912 67.8249 16.3865C67.8525 16.2819 67.8498 16.1715 67.817 16.0683L67.54 13.9563H68.372C68.653 13.9563 68.853 13.9103 68.947 13.6063C69.3178 12.6108 69.278 11.5088 68.8363 10.5427C68.3947 9.57652 67.5874 8.82534 66.592 8.45434L66.591 8.44633ZM21.777 11.0023C20.987 11.0123 20.938 10.9903 19.55 10.9933C19.715 10.0383 19.801 9.22334 19.95 8.33834C20.411 8.33834 21.137 8.30233 22.16 8.34733C22.3728 8.35523 22.5773 8.43219 22.7426 8.5666C22.9079 8.701 23.0249 8.88555 23.076 9.09234C23.1521 9.30441 23.177 9.5315 23.1486 9.75503C23.1202 9.97857 23.0393 10.1922 22.9125 10.3785C22.7857 10.5648 22.6167 10.7184 22.4191 10.8268C22.2216 10.9353 22.0012 10.9954 21.776 11.0023H21.777ZM31.176 15.8583C30.758 15.8293 30.352 15.7363 30.207 15.2503C30.1454 15.0215 30.1697 14.778 30.2753 14.5658C30.3808 14.3536 30.5603 14.1873 30.78 14.0983C31.309 13.8493 32.614 13.8923 32.613 14.3873C32.6013 14.7678 32.4472 15.13 32.1814 15.4024C31.9155 15.6748 31.557 15.8375 31.177 15.8583H31.176ZM46.197 8.31734H43.519C43.819 7.36634 44.334 7.09333 45.442 7.18033C46.1594 7.25585 46.8449 7.51673 47.431 7.93733C47.431 8.31933 46.95 8.31734 46.198 8.31734H46.197ZM63.422 10.8173C63.6845 10.646 63.9931 10.5587 64.3065 10.5673C64.6199 10.5759 64.9232 10.6799 65.176 10.8653C65.3851 11.0194 65.5418 11.2341 65.625 11.4802C65.7082 11.7263 65.7137 11.992 65.641 12.2413H62.413C62.4532 11.94 62.566 11.6529 62.7418 11.4049C62.9176 11.1568 63.151 10.9552 63.422 10.8173ZM63.422 15.3803C63.0906 15.3084 62.7927 15.1281 62.5753 14.8678C62.358 14.6075 62.2336 14.2822 62.222 13.9433C62.46 13.9433 65.903 13.9433 67.37 13.9433C66.9203 14.5363 66.3092 14.9871 65.6098 15.2414C64.9104 15.4958 64.1525 15.543 63.427 15.3773" fill="#232323"/>
<path d="M7.28584 16.3172L7.90084 12.4782C7.9236 12.171 8.05367 11.8815 8.26829 11.6605C8.48291 11.4395 8.76841 11.301 9.07484 11.2692C9.22825 11.2647 9.38071 11.2946 9.52105 11.3568C9.66139 11.4189 9.78603 11.5116 9.88584 11.6282C9.94308 11.4446 10.0424 11.2769 10.1758 11.1384C10.3093 10.9999 10.4733 10.8944 10.6546 10.8305C10.836 10.7665 11.0298 10.7457 11.2207 10.7698C11.4115 10.7939 11.5941 10.8622 11.7538 10.9692C11.7538 10.9692 10.8958 7.57423 10.6948 6.65923C10.6168 6.30723 10.4948 5.25923 11.5948 5.27323C12.2038 5.28223 12.4538 5.54923 12.6538 6.25223C12.8998 7.11723 13.7538 10.8952 13.7538 10.8952C13.7538 10.8952 14.3248 6.81423 14.5068 6.26623C14.568 6.07741 14.6744 5.90643 14.8168 5.7682C14.9592 5.62997 15.1333 5.5287 15.3238 5.47323C15.395 4.42912 15.0846 3.39469 14.4504 2.56222C13.8163 1.72974 12.9014 1.15586 11.8758 0.947227C10.3078 0.524401 8.657 0.515036 7.08428 0.920046C5.51156 1.32506 4.0706 2.13062 2.90184 3.25823C2.82889 3.3057 2.76823 3.36979 2.72481 3.44523C2.6814 3.52067 2.65648 3.60532 2.65209 3.69225C2.6477 3.77918 2.66397 3.86591 2.69956 3.94534C2.73515 4.02477 2.78905 4.09464 2.85684 4.14923C3.36384 4.74923 3.85684 5.34923 4.35084 5.95823C4.93584 6.67123 4.93084 6.66623 5.60784 6.03723C6.30797 5.26037 7.24719 4.73921 8.27684 4.55623C8.6196 4.48877 8.97467 4.52472 9.29695 4.65951C9.61923 4.79429 9.89417 5.02184 10.0868 5.31323C10.2516 5.59643 10.3179 5.92619 10.2756 6.25106C10.2333 6.57594 10.0846 6.87768 9.85284 7.10923C9.4772 7.63111 9.0408 8.10645 8.55284 8.52523C6.33984 10.3302 4.10184 12.1022 1.87784 13.8922C1.72184 14.0182 1.50984 14.1672 1.47784 14.3362C1.24684 15.4532 1.06084 16.6212 0.839844 17.8592C1.63984 17.8592 7.82584 17.7872 7.82584 17.7872C7.58693 17.6355 7.40461 17.4093 7.30701 17.1436C7.20942 16.878 7.20198 16.5876 7.28584 16.3172Z" fill="#232323"/>
</svg>
