<svg id="Logo_Header" data-name="Logo Header" xmlns="http://www.w3.org/2000/svg" xmlns:xlink="http://www.w3.org/1999/xlink" width="153.906" height="39.481" viewBox="0 0 153.906 39.481">
  <defs>
    <clipPath id="clip-path">
      <rect id="Rectangle_11" data-name="Rectangle 11" width="153.906" height="39.481" fill="#fff"/>
    </clipPath>
  </defs>
  <g id="Group_1" data-name="Group 1" clip-path="url(#clip-path)">
    <path id="Path_1" data-name="Path 1" d="M227.762,40.777a13.133,13.133,0,0,0-17.528,10.157,11.008,11.008,0,0,0,.007,3.733c-1.2.779-3.328,2.054-2.8-1.406,1.1-7.174,1.97-12.126,3.083-18.7.2-1.162.225-1.559-.937-1.535-1.724.036-1.694-.031-4.162-.031-2.612,0-3.068-.607-3.493,2.427-.066.471-.347,2.463-.447,2.927l-.514-4.545c-.141-.767-.027-1.072-.791-1.265-.66-.167-1.317-.358-1.986-.474-5.487-.954-11.111,1.322-13.023,5.969-.231.561-.311.953-.483,1.424l-.789-5.882c-.123-.647-.182-.867-.857-1.038-.66-.167-1.38-.358-2.05-.474-5.488-.954-10.96,1.257-12.7,5.969-.872,2.356-.258,2.478-3.854,2.538-.261,0-.8.251-.848.466-.371,1.76-.656,3.538-.993,5.465H166.2c-.464,2.664-.667,4.915-1.124,7.54-1.171.414-3.551,2.243-5.42,1.047a3.482,3.482,0,0,1-.162-1.453c.309-1.822.664-3.637.976-5.459.623-3.642-.578-5.816-3.957-7.167a14.978,14.978,0,0,0-6.352-.978,15.419,15.419,0,0,0-8.637,2.745c-.745.543-.876,1.038-.234,1.752a22.141,22.141,0,0,1,1.77,2.213c.545.79,1.006.849,1.847.307a6.586,6.586,0,0,1,5.814-1.1c1.574.519,2.136,1.709,1.344,3.178a29.888,29.888,0,0,0-3.036-.414c-3.361-.133-6.622.28-9.3,2.545a7.244,7.244,0,0,0-.566.536,19.158,19.158,0,0,1-3.7,2.993,1.81,1.81,0,0,1-2.326-.894c-.454-.86-.842-1.888-1.263-2.776.957-.589,1.931-1.1,2.807-1.744a9.457,9.457,0,0,0,3.269-9.849C137,35.981,134.3,34.744,131.01,34.3c-.412-.056-16.682-.113-16.682-.113a1.437,1.437,0,0,1,.939,1.749c-1.187,6.113-3.628,22.128-3.628,22.128a6.579,6.579,0,0,1-1.969,3.872s7.821-.035,8.275-.018c1.064.041,1.33-.382,1.475-1.318.433-2.789.962-5.564,1.452-8.336a2.022,2.022,0,0,1,2.5,1.2c.742,1.479,1.343,3.029,1.984,4.557a6.158,6.158,0,0,0,8.12,3.647c2.7-.91,3.63-4.784,3.84-5.2s.471,6.1,8.207,5.841a12.49,12.49,0,0,0,6.559-1.883,6.041,6.041,0,0,0,1.768,1.081c6.422,2.108,10.608-4.842,10.608-4.842s-.421,3.624-.765,5.266c2.673,0,5.353.017,7.9-.036.2,0,.641-.6.7-.906.513-2.744.851-5.5,1.334-8.245.364-2.068,1.111-6.247,1.111-6.247l8.411.008-2.541,15.427s5.27.018,7.871-.036c.2,0,.514-.6.57-.906.513-2.744.978-5.5,1.462-8.245.364-2.068.735-4.135,1.111-6.247,1.613,0,2.961.03,4.434-.022a.982.982,0,0,0,1.151-.911c.362-1.758.808-5.069.808-5.069H192.68c.669-2.11,3.775-2.669,5.832-2.24a10.245,10.245,0,0,1,2.734.829s-1.577,11-2.663,16.357c-.837,4.13,1.029,6.736,5.142,7.062a9.919,9.919,0,0,0,2.083-.2,6.667,6.667,0,0,0,4.836-4.705c.4-1.117,1.446,3.387,6.77,4.6a14.228,14.228,0,0,0,12.757-2.926,1.283,1.283,0,0,0,.35-1.331l-.625-4.757c.624,0,1.249,0,1.873,0s1.082-.1,1.3-.789c1.323-4.251.069-9.631-5.3-11.607M126.81,46.517c-1.779.022-1.89-.028-5.016-.019.372-2.151.566-3.987.91-5.98,1.038,0,2.674-.08,4.978.019a2.21,2.21,0,0,1,2.064,1.678c.726,3.143-1.653,4.287-2.936,4.3m21.182,10.939c-.942-.066-1.856-.274-2.183-1.369a2.186,2.186,0,0,1,1.29-2.594c1.191-.56,4.13-.463,4.129.65a3.424,3.424,0,0,1-3.236,3.314M181.83,40.487H175.8c.679-2.143,1.835-2.758,4.331-2.561a9.367,9.367,0,0,1,4.48,1.706c0,.86-1.082.856-2.778.856m38.8,5.632a3.471,3.471,0,0,1,3.951.109,2.856,2.856,0,0,1,1.048,3.1h-7.271a4.225,4.225,0,0,1,2.273-3.208m.008,10.28a3.433,3.433,0,0,1-2.714-3.236c.536,0,8.292,0,11.6.005a8.713,8.713,0,0,1-8.882,3.231" transform="translate(-79.646 -23.125)" fill="#fff"/>
    <path id="Path_2" data-name="Path 2" d="M14.52,35.386l1.385-8.648a2.958,2.958,0,0,1,2.645-2.724,2.316,2.316,0,0,1,1.827.809c1.252-3.233,4.208-1.485,4.208-1.485s-1.932-7.647-2.386-9.71c-.175-.793-.446-3.157,2.017-3.123,1.372.019,1.934.622,2.385,2.205.554,1.948,2.48,10.459,2.48,10.459s1.287-9.193,1.7-10.427a2.74,2.74,0,0,1,1.84-1.787c.291-4.8-2.605-8.825-7.756-10.2C17.206-1.277,10.517.888,4.645,5.967a1.242,1.242,0,0,0-.1,2.006c1.142,1.342,2.248,2.714,3.366,4.076,1.317,1.606,1.306,1.6,2.831.179,1.726-1.6,3.552-3.075,6.012-3.336a3.968,3.968,0,0,1,4.077,1.7c.93,1.455.367,2.844-.528,4.036a18.262,18.262,0,0,1-2.938,3.19C12.391,21.9,7.348,25.889,2.339,29.922c-.352.284-.83.62-.908,1C.917,33.438.5,36.069,0,38.859c1.811-.006,15.737-.161,15.737-.161S14.1,37.91,14.52,35.386" transform="translate(0 0)" fill="#fff"/>
  </g>
</svg>
