<svg width="113" height="80" viewBox="0 0 113 80" fill="none" xmlns="http://www.w3.org/2000/svg">
<path fill-rule="evenodd" clip-rule="evenodd" d="M83.2405 3.12913C83.6062 3.90872 84.2072 4.554 84.9588 4.97414C85.7105 5.39427 86.575 5.56811 87.4306 5.47117C85.6378 5.15169 85.6391 2.87723 84.6892 1.68655C84.1341 1.04545 83.4215 0.559989 82.6217 0.277953C81.8219 -0.00408335 80.9625 -0.0729675 80.128 0.0780819C81.8348 0.323837 82.4356 1.66689 83.2417 3.12913" fill="white"/>
<path fill-rule="evenodd" clip-rule="evenodd" d="M85.7842 7.34833C84.3613 7.89145 83.2038 9.85134 81.4995 9.21484C82.1872 9.73295 83.02 10.0224 83.8807 10.0425C84.7415 10.0625 85.5868 9.81218 86.2979 9.32666C87.7085 8.49232 88.8906 7.6629 90.4437 8.25025C90.7184 8.51089 91.0214 8.74004 91.3469 8.93345C90.0628 7.64201 91.3703 5.78042 91.2781 4.26411C91.191 3.42124 90.8861 2.61552 90.3934 1.92613C89.9007 1.23673 89.2371 0.687378 88.4679 0.332031C89.7212 1.51657 89.4435 2.95792 89.2629 4.618C89.1566 5.25706 89.2013 5.91212 89.3933 6.53085C89.5853 7.14958 89.9194 7.71483 90.3688 8.18144C89.7378 7.66724 88.9865 7.32181 88.1855 7.17759C87.3844 7.03337 86.5598 7.09508 85.7892 7.35693" fill="white"/>
<path fill-rule="evenodd" clip-rule="evenodd" d="M94.6384 12.4667C94.0155 11.7629 93.2241 11.2288 92.3385 10.9144C91.4528 10.6 90.5018 10.5155 89.5746 10.669C87.8445 11.0192 86.1512 13.0369 84.3228 11.985C85.0099 12.7081 85.9063 13.1977 86.886 13.3848C87.8657 13.572 88.8795 13.4473 89.7847 13.0283C91.5554 12.3438 93.0643 11.6213 94.7268 12.5884C94.991 12.9388 95.2935 13.2586 95.6288 13.5419C94.4086 11.8216 96.2567 9.94403 96.441 8.18934C96.5048 7.2084 96.3117 6.22776 95.8807 5.34426C95.4497 4.46075 94.7958 3.70491 93.9834 3.15137C95.1901 4.74877 94.5978 6.33881 94.0756 8.2004C93.8333 8.90624 93.7585 9.65869 93.8568 10.3984C93.9551 11.1382 94.2239 11.8449 94.642 12.463" fill="white"/>
<path fill-rule="evenodd" clip-rule="evenodd" d="M93.7105 14.9325C92.0074 14.9903 90.0745 16.6442 88.5005 15.3516C89.04 16.1498 89.8163 16.7586 90.7201 17.0924C91.6239 17.4261 92.6097 17.4679 93.5385 17.2119C95.3337 16.8433 96.8856 16.3936 98.3147 17.5806C98.5104 17.9559 98.7474 18.3083 99.0213 18.6312C98.1316 16.7991 100.191 15.3049 100.644 13.662C100.86 12.7382 100.831 11.7742 100.56 10.865C100.29 9.95577 99.7874 9.13263 99.1023 8.47656C99.9981 10.1846 99.181 11.6099 98.3872 13.2995C98.044 13.9333 97.8529 14.6382 97.8288 15.3585C97.8047 16.0789 97.9483 16.795 98.2484 17.4503C97.7669 16.6812 97.0982 16.0469 96.3047 15.6067C95.5113 15.1666 94.6191 14.9351 93.7117 14.9338" fill="white"/>
<path fill-rule="evenodd" clip-rule="evenodd" d="M96.7985 19.6867C95.0144 19.452 92.7141 20.8368 91.2998 19.2173C91.7225 20.1409 92.4239 20.9088 93.3054 21.4133C94.187 21.9177 95.2045 22.1334 96.2149 22.03C98.149 21.9562 99.8422 21.7584 101.13 23.2428C101.269 23.6681 101.455 24.0765 101.684 24.4605C101.077 22.3974 103.481 21.1993 104.239 19.5675C104.623 18.6429 104.761 17.6342 104.637 16.6405C104.513 15.6468 104.133 14.7025 103.533 13.9004C104.17 15.8357 103.071 17.1775 101.951 18.7983C101.484 19.3996 101.164 20.1011 101.014 20.8474C100.865 21.5937 100.891 22.3645 101.091 23.099C100.723 22.2142 100.137 21.4372 99.3871 20.8408C98.6372 20.2445 97.7483 19.8482 96.8035 19.6891" fill="white"/>
<path fill-rule="evenodd" clip-rule="evenodd" d="M103.077 29.7885C102.84 28.7737 102.35 27.8356 101.652 27.062C100.954 26.2883 100.071 25.7044 99.0856 25.3649C97.2129 24.7923 94.4949 25.8675 93.2661 23.8756C93.5546 24.944 94.1708 25.895 95.0281 26.5948C95.8853 27.2946 96.9404 27.7081 98.0448 27.777C100.134 28.0436 101.988 28.1358 103.1 29.9581C103.172 30.4392 103.298 30.9107 103.476 31.3638C103.193 29.0414 105.989 28.1849 107.095 26.5716C108.267 24.8599 108.335 22.8041 107.353 20.3613C107.689 22.5522 106.269 23.8019 104.772 25.3366C104.163 25.8975 103.692 26.5922 103.397 27.3661C103.102 28.1399 102.991 28.9717 103.073 29.7959" fill="white"/>
<path fill-rule="evenodd" clip-rule="evenodd" d="M104.039 36.6855C103.976 35.6376 103.647 34.6229 103.085 33.7367C102.522 32.8505 101.743 32.1219 100.822 31.6193C99.0632 30.7432 96.1953 31.3588 95.3081 29.1851C95.4172 30.2902 95.8701 31.3333 96.603 32.1676C97.3359 33.0019 98.3119 33.5854 99.3938 33.836C101.418 34.4504 103.237 34.8423 104.036 36.8293C104.029 37.3175 104.076 37.8051 104.176 38.2829C104.281 35.9372 107.188 35.5514 108.549 34.1358C109.992 32.6342 110.399 30.6129 109.83 28.0312C109.8 30.2553 108.191 31.2519 106.458 32.5298C105.759 32.9863 105.176 33.5999 104.756 34.3216C104.336 35.0434 104.09 35.8533 104.039 36.6867" fill="white"/>
<path fill-rule="evenodd" clip-rule="evenodd" d="M103.713 43.9446C103.831 42.7979 103.656 41.6399 103.205 40.5791C102.754 39.5183 102.041 38.5894 101.132 37.8794C99.3801 36.6089 96.1496 36.7576 95.5795 34.2324C95.4978 35.4534 95.8009 36.6693 96.4463 37.709C97.0917 38.7488 98.0468 39.56 99.1773 40.0285C101.266 41.0583 103.172 41.8201 103.681 44.1253C103.584 44.6548 103.547 45.1935 103.57 45.7313C104.108 43.2 107.34 43.3081 109.078 42.0155C110.921 40.6454 111.728 38.5208 111.577 35.6111C111.142 38.0232 109.21 38.8145 107.096 39.8897C106.257 40.2577 105.515 40.8156 104.929 41.5193C104.343 42.223 103.928 43.0533 103.718 43.9446" fill="white"/>
<path fill-rule="evenodd" clip-rule="evenodd" d="M108.413 49.8598C110.617 48.7281 111.853 46.6084 112.215 43.4836C111.323 45.9756 109.124 46.4757 106.685 47.2449C105.727 47.488 104.838 47.9503 104.088 48.5953C103.339 49.2403 102.749 50.0504 102.366 50.962C102.902 48.0387 102.366 45.7446 100.69 44.0427C99.0496 42.3777 95.582 41.9612 95.4234 39.1719C95.1194 40.4579 95.2262 41.8069 95.7287 43.0291C96.2313 44.2513 97.1043 45.2852 98.225 45.9854C100.268 47.4538 102.157 48.6039 102.295 51.1463C102.098 51.6931 101.963 52.2602 101.892 52.8371C102.915 50.237 106.337 50.9263 108.418 49.8585" fill="white"/>
<path fill-rule="evenodd" clip-rule="evenodd" d="M104.722 54.344C103.737 54.4262 102.784 54.736 101.939 55.249C101.093 55.762 100.378 56.4642 99.8504 57.3004C100.86 54.505 100.711 52.1543 99.3367 50.1994C97.9925 48.2862 94.6416 47.3056 94.9439 44.5273C94.432 45.7458 94.3151 47.0941 94.6095 48.3825C94.904 49.6709 95.5951 50.8344 96.5855 51.7095C98.3586 53.4937 100.038 54.94 99.7496 57.4725C99.4654 57.9782 99.2384 58.514 99.0726 59.0699C100.51 56.6738 103.773 57.9173 106 57.2058C108.361 56.4526 109.932 54.5652 110.8 51.5412C109.51 53.8525 107.26 53.9828 104.722 54.3403" fill="white"/>
<path fill-rule="evenodd" clip-rule="evenodd" d="M101.621 61.0258C100.636 60.9445 99.6447 61.0931 98.7264 61.4599C97.808 61.8266 96.9873 62.4015 96.3289 63.1393C97.785 60.5491 98.0246 58.2046 96.9912 56.0505C95.9799 53.9419 92.8355 52.4232 93.5924 49.7334C92.887 50.851 92.5499 52.1616 92.6283 53.4808C92.7068 54.8001 93.197 56.0615 94.0298 57.0876C95.4847 59.1397 96.9039 60.8427 96.2023 63.2929C95.8387 63.7459 95.5267 64.238 95.2721 64.7601C97.0846 62.6331 100.098 64.3914 102.413 64.0621C104.87 63.707 106.726 62.1047 108.078 59.2699C106.426 61.3379 104.184 61.0959 101.624 61.0295" fill="white"/>
<path fill-rule="evenodd" clip-rule="evenodd" d="M97.4682 67.1038C96.5095 66.8616 95.5077 66.8451 94.5416 67.0558C93.5755 67.2664 92.6714 67.6985 91.9006 68.3178C93.7634 66.0028 94.3852 63.7296 93.7204 61.4367C93.0704 59.1917 90.2184 57.1753 91.4079 54.6465C90.5282 55.6327 89.9799 56.87 89.8401 58.1842C89.7004 59.4983 89.9762 60.8232 90.6288 61.9724C91.7261 64.2358 92.8406 66.1503 91.7495 68.4505C91.3158 68.8373 90.9267 69.2713 90.5895 69.7444C92.7276 67.9443 95.41 70.1806 97.7471 70.2359C100.226 70.29 102.324 69.0158 104.126 66.4366C102.16 68.2036 99.9847 67.5965 97.4682 67.1099" fill="white"/>
<path fill-rule="evenodd" clip-rule="evenodd" d="M92.3625 72.4149C91.5616 72.0712 90.7001 71.8911 89.8286 71.8852C88.9571 71.8793 88.0932 72.0477 87.2877 72.3805C87.8505 71.6051 88.1823 71.0928 88.1823 71.0928V71.0817C88.73 70.4035 89.1374 69.6232 89.3811 68.7862C89.6247 67.9492 89.6996 67.0721 89.6015 66.2059C89.3299 63.8835 86.849 61.426 88.4378 59.127C87.4077 59.9551 86.6632 61.0853 86.309 62.3587C85.9547 63.6321 86.0087 64.9845 86.4632 66.2256C87.0125 68.0958 87.6109 69.7595 87.1747 71.3864C85.447 73.6302 81.295 78.415 76.4843 79.634C77.2892 79.9216 78.1515 80.0114 78.9984 79.8957C81.7165 79.1068 84.6655 75.8014 86.4681 73.4741C88.3936 73.3672 90.2515 75.1944 92.1205 75.5434C94.5559 76.0041 96.8365 75.0936 99.0372 72.8401C96.8021 74.2593 94.7611 73.3021 92.3601 72.4088" fill="white"/>
<path fill-rule="evenodd" clip-rule="evenodd" d="M25.3763 71.3872C24.9401 69.7603 25.5385 68.0965 26.0877 66.2263C26.5422 64.9854 26.5961 63.6332 26.2418 62.36C25.8876 61.0869 25.1431 59.9568 24.1131 59.1289C25.7019 61.4279 23.2222 63.8855 22.9494 66.2079C22.8513 67.0743 22.9262 67.9515 23.1698 68.7887C23.4134 69.626 23.821 70.4064 24.3687 71.0849V71.0959C24.3687 71.0959 24.7004 71.6083 25.2632 72.3837C24.4578 72.0509 23.5939 71.8823 22.7225 71.888C21.851 71.8937 20.9894 72.0735 20.1884 72.4169C17.7874 73.3114 15.7464 74.2674 13.5112 72.8482C15.712 75.0956 17.9926 76.0061 20.428 75.5515C22.3006 75.1976 24.1586 73.3753 26.0804 73.4822C27.8842 75.8095 30.8333 79.1149 33.5501 79.9038C34.397 80.0197 35.2593 79.9299 36.0642 79.642C31.2547 78.4231 27.1015 73.6371 25.3738 71.3945" fill="white"/>
<path fill-rule="evenodd" clip-rule="evenodd" d="M22.1065 8.25718C23.6597 7.66983 24.8418 8.50294 26.2524 9.33359C26.9634 9.81911 27.8088 10.0695 28.6696 10.0494C29.5303 10.0293 30.3631 9.73988 31.0508 9.22177C29.3403 9.85705 28.189 7.89715 26.7599 7.34912C25.9892 7.08715 25.1646 7.02538 24.3635 7.16961C23.5624 7.31383 22.8112 7.65932 22.1803 8.17363C22.6297 7.70701 22.9637 7.14177 23.1557 6.52304C23.3478 5.90431 23.3924 5.24925 23.2861 4.61018C23.1055 2.95011 22.8278 1.50876 24.0812 0.324219C23.3119 0.679565 22.6483 1.22892 22.1556 1.91832C21.6629 2.60771 21.3581 3.41342 21.271 4.2563C21.1776 5.77629 22.485 7.63788 21.2021 8.92564C21.5277 8.73225 21.8306 8.5031 22.1053 8.24244" fill="white"/>
<path fill-rule="evenodd" clip-rule="evenodd" d="M29.3105 3.12919C30.1165 1.66695 30.7174 0.327585 32.4242 0.0781434C31.5898 -0.0729277 30.7305 -0.00417638 29.9307 0.277633C29.131 0.559443 28.4183 1.0446 27.863 1.68538C26.9131 2.87606 26.9131 5.15175 25.1216 5.47001C25.9772 5.56694 26.8417 5.39311 27.5934 4.97297C28.345 4.55284 28.946 3.90756 29.3117 3.12796" fill="white"/>
<path fill-rule="evenodd" clip-rule="evenodd" d="M16.923 13.5421C17.2583 13.2589 17.5608 12.9391 17.8249 12.5886C19.4874 11.6215 20.9964 12.3428 22.767 13.0285C23.6721 13.4476 24.6858 13.5725 25.6655 13.3856C26.6453 13.1987 27.5418 12.7094 28.2289 11.9865C26.4005 13.0383 24.7073 11.0194 22.9772 10.6692C22.05 10.5158 21.099 10.6002 20.2133 10.9146C19.3276 11.229 18.5363 11.7632 17.9134 12.4669C18.3315 11.8488 18.6002 11.142 18.6985 10.4023C18.7968 9.6626 18.722 8.91015 18.4798 8.20431C17.9576 6.34271 17.3654 4.74776 18.572 3.15527C17.7597 3.70882 17.1057 4.46466 16.6747 5.34816C16.2438 6.23167 16.0506 7.2123 16.1145 8.19325C16.2976 9.94794 18.1469 11.8255 16.9267 13.5458" fill="white"/>
<path fill-rule="evenodd" clip-rule="evenodd" d="M13.5289 18.6326C13.8029 18.3099 14.0399 17.9575 14.2355 17.582C15.6658 16.3963 17.2165 16.8448 19.0117 17.2134C19.9407 17.4693 20.9265 17.4273 21.8303 17.0933C22.7341 16.7593 23.5103 16.1502 24.0497 15.3518C22.4756 16.6445 20.5416 14.9905 18.8385 14.9328C17.9311 14.934 17.0389 15.1655 16.2454 15.6056C15.4519 16.0458 14.7832 16.6801 14.3018 17.4493C14.6018 16.794 14.7454 16.0779 14.7213 15.3576C14.6972 14.6372 14.5061 13.9324 14.163 13.2985C13.3692 11.609 12.5521 10.1836 13.4478 8.47559C12.7625 9.13153 12.2598 9.95461 11.9892 10.8638C11.7186 11.7731 11.6894 12.7371 11.9045 13.661C12.3579 15.3027 14.4173 16.7981 13.5289 18.6302" fill="white"/>
<path fill-rule="evenodd" clip-rule="evenodd" d="M10.8673 24.461C11.0969 24.077 11.2828 23.6686 11.4215 23.2433C12.7043 21.7601 14.3988 21.9567 16.3366 22.0305C17.347 22.1339 18.3644 21.9182 19.246 21.4138C20.1276 20.9093 20.8289 20.1414 21.2517 19.2178C19.8374 20.8373 17.5359 19.4513 15.7529 19.6872C14.8081 19.8462 13.9191 20.2425 13.1693 20.8389C12.4195 21.4353 11.8333 22.2123 11.4657 23.097C11.6651 22.3625 11.6912 21.5917 11.5419 20.8454C11.3927 20.0991 11.0721 19.3977 10.6056 18.7963C9.48493 17.1743 8.3864 15.8325 9.02291 13.8984C8.42354 14.7006 8.04332 15.6449 7.91965 16.6386C7.79598 17.6322 7.93313 18.641 8.31759 19.5655C9.07574 21.1974 11.4792 22.3917 10.8722 24.4585" fill="white"/>
<path fill-rule="evenodd" clip-rule="evenodd" d="M9.07532 31.3553C9.25277 30.9022 9.3789 30.4307 9.45132 29.9496C10.5572 28.1273 12.4164 28.0363 14.5065 27.7685C15.611 27.6996 16.666 27.2861 17.5233 26.5863C18.3805 25.8865 18.9967 24.9355 19.2852 23.8671C18.0564 25.859 15.3384 24.7838 13.4657 25.3564C12.4804 25.6957 11.5972 26.2795 10.899 27.0532C10.2007 27.8269 9.71025 28.7651 9.47344 29.78C9.55479 28.9561 9.44362 28.1245 9.14871 27.3509C8.85381 26.5772 8.38322 25.8827 7.77405 25.322C6.28109 23.7811 4.86062 22.5376 5.19362 20.3467C4.2106 22.7907 4.27941 24.8452 5.45166 26.5569C6.55756 28.1727 9.35302 29.0292 9.0704 31.3491" fill="white"/>
<path fill-rule="evenodd" clip-rule="evenodd" d="M8.37701 38.2832C8.47775 37.8054 8.52474 37.3178 8.51709 36.8295C9.31702 34.8426 11.1356 34.4457 13.1594 33.8362C14.2412 33.5856 15.2173 33.0021 15.9502 32.1678C16.6831 31.3335 17.136 30.2904 17.2451 29.1853C16.3579 31.359 13.4899 30.7446 11.7316 31.6195C10.8099 32.1221 10.0312 32.8507 9.46843 33.7369C8.90571 34.6232 8.5775 35.6379 8.51463 36.6858C8.46304 35.8523 8.21743 35.0424 7.79736 34.3207C7.3773 33.5989 6.79441 32.9853 6.09517 32.5288C4.3626 31.2509 2.75291 30.2544 2.72342 28.0303C2.15449 30.6107 2.56122 32.6333 4.0038 34.1348C5.36528 35.5516 8.27256 35.9362 8.37701 38.2819" fill="white"/>
<path fill-rule="evenodd" clip-rule="evenodd" d="M3.47778 42.0096C5.21404 43.3023 8.44572 43.1941 8.98515 45.7254C9.00834 45.1876 8.97124 44.6489 8.87456 44.1194C9.38327 41.8142 11.2891 41.0475 13.378 40.0227C14.5085 39.5541 15.4636 38.7429 16.109 37.7032C16.7544 36.6635 17.0576 35.4476 16.9759 34.2266C16.4057 36.7505 13.1765 36.603 11.423 37.8735C10.515 38.5834 9.8019 39.5121 9.35059 40.5727C8.89928 41.6333 8.7245 42.791 8.84261 43.9376C8.63216 43.0462 8.21748 42.2159 7.63128 41.5122C7.04507 40.8085 6.30338 40.2506 5.46471 39.8826C3.34999 38.8074 1.41836 38.0173 0.983371 35.604C0.83346 38.5137 1.64199 40.642 3.4827 42.0084" fill="white"/>
<path fill-rule="evenodd" clip-rule="evenodd" d="M4.13825 49.8595C6.21857 50.9285 9.6407 50.238 10.6643 52.8381C10.5935 52.2612 10.4584 51.694 10.2612 51.1473C10.3939 48.6012 12.2875 47.4511 14.3309 45.9864C15.4517 45.2862 16.3247 44.2523 16.8273 43.0301C17.3298 41.8079 17.4366 40.4589 17.1325 39.1729C16.974 41.9634 13.5077 42.3787 11.866 44.0437C10.1887 45.7456 9.65422 48.0409 10.19 50.9642C9.8072 50.0511 9.21725 49.2396 8.46677 48.5938C7.71629 47.9481 6.82587 47.4858 5.86591 47.2435C3.42188 46.4742 1.2236 45.9754 0.336426 43.4822C0.693999 46.6069 1.93383 48.7266 4.13825 49.8583" fill="white"/>
<path fill-rule="evenodd" clip-rule="evenodd" d="M13.4764 59.0738C13.3109 58.5178 13.0839 57.982 12.7994 57.4764C12.5106 54.9439 14.1904 53.4976 15.9635 51.7134C16.9537 50.8383 17.6447 49.6746 17.9392 48.3863C18.2337 47.098 18.1168 45.7497 17.6051 44.5312C17.9086 47.3095 14.5565 48.2901 13.2123 50.2033C11.8385 52.1582 11.6886 54.504 12.6986 57.3043C12.171 56.468 11.4562 55.7657 10.6107 55.2528C9.76519 54.74 8.81207 54.4306 7.82654 54.3491C5.28912 53.9928 3.03432 53.8576 1.74902 51.55C2.61531 54.574 4.18691 56.4651 6.54739 57.2146C8.77515 57.9249 12.0375 56.6814 13.4752 59.0787" fill="white"/>
<path fill-rule="evenodd" clip-rule="evenodd" d="M17.2797 64.7611C17.0251 64.2389 16.7132 63.7468 16.3495 63.2939C15.6479 60.8437 17.0659 59.1406 18.522 57.0886C19.3548 56.0625 19.845 54.8011 19.9235 53.4818C20.0019 52.1626 19.6648 50.852 18.9594 49.7344C19.7151 52.4254 16.5719 53.9442 15.5606 56.0515C14.5272 58.2068 14.7668 60.55 16.2229 63.1403C15.5645 62.4025 14.7438 61.8276 13.8254 61.4609C12.9071 61.0941 11.9161 60.9455 10.9306 61.0268C8.3686 61.0932 6.12854 61.334 4.47461 59.2672C5.82626 62.1069 7.68785 63.7092 10.1405 64.0594C12.4543 64.3949 15.4672 62.6304 17.2809 64.7574" fill="white"/>
<path fill-rule="evenodd" clip-rule="evenodd" d="M21.9636 69.7435C21.6275 69.2705 21.2397 68.8365 20.8074 68.4495C19.7113 66.1481 20.8307 64.2349 21.928 61.9715C22.5806 60.8223 22.8565 59.4974 22.7167 58.1832C22.577 56.869 22.0287 55.6318 21.149 54.6455C22.3384 57.1756 19.4864 59.192 18.8364 61.4357C18.1716 63.7311 18.7934 66.0031 20.6562 68.3169C19.8854 67.6975 18.9814 67.2655 18.0153 67.0548C17.0492 66.8441 16.0473 66.8606 15.0887 67.1028C12.5733 67.5943 10.4021 68.1964 8.43115 66.4294C10.2325 69.0099 12.3313 70.2829 14.8097 70.2288C17.1444 70.1785 19.8293 67.9421 21.9673 69.7373" fill="white"/>
<path d="M34.0763 35H34.8963L31.9063 28.01L28.8363 35H29.6563L30.4563 33.12H33.2963L34.0763 35ZM30.7463 32.42L31.8863 29.75L33.0063 32.42H30.7463ZM36.5771 28.33H35.8371V32.62C35.8371 33.18 35.8971 33.72 36.2571 34.22C36.6571 34.77 37.3571 35.12 38.2071 35.12C39.0571 35.12 39.7571 34.77 40.1571 34.22C40.5171 33.72 40.5771 33.18 40.5771 32.62V28.33H39.8371V32.42C39.8371 32.98 39.8371 33.59 39.3071 34.04C39.0371 34.27 38.5771 34.42 38.2071 34.42C37.8371 34.42 37.3771 34.27 37.1071 34.04C36.5771 33.59 36.5771 32.98 36.5771 32.42V28.33ZM45.5619 29.03V28.33H41.5819V29.03H43.2019V35H43.9419V29.03H45.5619ZM47.2997 28.33H46.5597V35H47.2997V31.74H50.7197V35H51.4597V28.33H50.7197V31.04H47.2997V28.33ZM56.2908 35.12C58.2208 35.12 59.7608 33.65 59.7608 31.67C59.7608 29.68 58.2108 28.22 56.2908 28.22C54.3708 28.22 52.8208 29.68 52.8208 31.67C52.8208 33.65 54.3608 35.12 56.2908 35.12ZM56.2908 28.92C57.7908 28.92 59.0008 30.14 59.0008 31.67C59.0008 33.2 57.7908 34.42 56.2908 34.42C54.7908 34.42 53.5808 33.2 53.5808 31.67C53.5808 30.14 54.7908 28.92 56.2908 28.92ZM61.1203 28.33V35H61.8603V32.08H62.0503L64.0803 35H64.9803L62.8603 32.02C63.8703 31.95 64.5403 31.2 64.5403 30.18C64.5403 29.47 64.2003 28.96 63.8103 28.7C63.3103 28.36 62.6403 28.33 62.1903 28.33H61.1203ZM61.8603 29.03H62.3103C62.6303 29.03 62.9703 29.05 63.2703 29.22C63.6903 29.46 63.8003 29.83 63.8003 30.2C63.8003 30.98 63.2503 31.42 62.3303 31.42H61.8603V29.03ZM66.1398 28.33V35H66.8798V28.33H66.1398ZM72.8607 28.33H68.4507V29.03H71.6207L67.9807 35H72.7607V34.3H69.2207L72.8607 28.33ZM77.4221 28.33H73.9621V35H77.4221V34.3H74.7021V31.71H77.3421V31.01H74.7021V29.03H77.4221V28.33ZM78.7863 35H80.1363C81.3263 35 81.9663 34.75 82.5763 34.23C83.0563 33.82 83.7463 33.07 83.7463 31.67C83.7463 30.47 83.2163 29.62 82.6063 29.11C81.7663 28.4 80.8163 28.33 80.1463 28.33H78.7863V35ZM79.5263 29.03H80.1763C81.8663 29.03 82.9863 30.07 82.9863 31.67C82.9863 32.62 82.5863 33.28 82.0863 33.7C81.4363 34.24 80.7063 34.3 80.1763 34.3H79.5263V29.03ZM28.2479 48H30.0979L27.5879 41.33H25.6979L23.1379 48H24.9679L25.4179 46.88H27.8379L28.2479 48ZM25.8979 45.56L26.6279 43.4L27.3779 45.56H25.8979ZM30.5675 47.4C31.0475 47.73 31.4675 47.89 31.5775 47.93C32.0675 48.11 32.4675 48.15 32.8875 48.15C33.5975 48.15 34.2875 48.04 34.8575 47.47C35.3375 46.99 35.4875 46.4 35.4875 45.79C35.4875 45.33 35.3975 44.96 35.0575 44.6C34.7075 44.22 34.2675 44.07 33.8475 43.94L33.3175 43.78C32.9075 43.66 32.7875 43.54 32.7375 43.48C32.6675 43.39 32.6475 43.3 32.6475 43.18C32.6475 43.03 32.7175 42.92 32.8175 42.82C32.9875 42.66 33.2175 42.62 33.3875 42.62C33.6175 42.62 34.0075 42.66 34.5275 43.07L35.2175 41.72C34.5875 41.39 33.8175 41.18 33.1575 41.18C32.3475 41.18 31.7875 41.47 31.4475 41.81C31.1575 42.1 30.8375 42.6 30.8375 43.42C30.8375 43.76 30.8775 44.23 31.2175 44.6C31.4875 44.9 31.8975 45.05 32.1775 45.14L32.6275 45.28C33.0575 45.41 33.3175 45.48 33.4875 45.63C33.6275 45.75 33.6775 45.9 33.6775 46.03C33.6775 46.2 33.6075 46.35 33.5075 46.45C33.3975 46.57 33.1875 46.68 32.8375 46.68C32.2375 46.68 31.6775 46.35 31.3075 46L30.5675 47.4ZM36.2804 47.4C36.7604 47.73 37.1804 47.89 37.2904 47.93C37.7804 48.11 38.1804 48.15 38.6004 48.15C39.3104 48.15 40.0004 48.04 40.5704 47.47C41.0504 46.99 41.2004 46.4 41.2004 45.79C41.2004 45.33 41.1104 44.96 40.7704 44.6C40.4204 44.22 39.9804 44.07 39.5604 43.94L39.0304 43.78C38.6204 43.66 38.5004 43.54 38.4504 43.48C38.3804 43.39 38.3604 43.3 38.3604 43.18C38.3604 43.03 38.4304 42.92 38.5304 42.82C38.7004 42.66 38.9304 42.62 39.1004 42.62C39.3304 42.62 39.7204 42.66 40.2404 43.07L40.9304 41.72C40.3004 41.39 39.5304 41.18 38.8704 41.18C38.0604 41.18 37.5004 41.47 37.1604 41.81C36.8704 42.1 36.5504 42.6 36.5504 43.42C36.5504 43.76 36.5904 44.23 36.9304 44.6C37.2004 44.9 37.6104 45.05 37.8904 45.14L38.3404 45.28C38.7704 45.41 39.0304 45.48 39.2004 45.63C39.3404 45.75 39.3904 45.9 39.3904 46.03C39.3904 46.2 39.3204 46.35 39.2204 46.45C39.1104 46.57 38.9004 46.68 38.5504 46.68C37.9504 46.68 37.3904 46.35 37.0204 46L36.2804 47.4ZM49.3533 44.67C49.3533 43.78 49.0133 42.84 48.3033 42.17C47.6233 41.52 46.6633 41.18 45.6733 41.18C44.6833 41.18 43.7233 41.52 43.0433 42.17C42.3333 42.84 41.9933 43.78 41.9933 44.67C41.9933 45.55 42.3333 46.48 43.0433 47.16C43.7233 47.81 44.6833 48.15 45.6733 48.15C46.6633 48.15 47.6233 47.81 48.3033 47.16C49.0133 46.48 49.3533 45.55 49.3533 44.67ZM45.6733 42.86C46.1333 42.86 46.6433 43.04 47.0133 43.39C47.3233 43.69 47.5533 44.15 47.5533 44.67C47.5533 45.18 47.3233 45.64 47.0133 45.95C46.7033 46.26 46.2633 46.47 45.6733 46.47C45.0933 46.47 44.6433 46.25 44.3233 45.94C44.0733 45.7 43.7933 45.29 43.7933 44.7C43.7933 44.23 43.9633 43.74 44.3233 43.39C44.6833 43.03 45.1933 42.86 45.6733 42.86ZM55.2473 45.77C54.6373 46.44 53.9973 46.47 53.7373 46.47C53.2473 46.47 52.7873 46.28 52.4973 46.01C52.1473 45.68 51.9573 45.17 51.9573 44.71C51.9573 44.24 52.1273 43.72 52.5373 43.34C52.8573 43.05 53.2373 42.9 53.7373 42.9C54.0273 42.9 54.6873 42.94 55.2473 43.63V41.56C54.5273 41.27 54.0073 41.22 53.6873 41.22C52.6473 41.22 51.7573 41.66 51.1673 42.26C50.5673 42.87 50.1573 43.77 50.1573 44.72C50.1573 45.59 50.5173 46.5 51.1673 47.15C51.7173 47.69 52.5873 48.15 53.7473 48.15C54.1773 48.15 54.5573 48.07 55.2473 47.82V45.77ZM56.346 41.33V48H58.076V41.33H56.346ZM63.9608 48H65.8108L63.3008 41.33H61.4108L58.8508 48H60.6808L61.1308 46.88H63.5508L63.9608 48ZM61.6108 45.56L62.3408 43.4L63.0908 45.56H61.6108ZM70.5204 42.8V41.33H65.9504V42.8H67.3704V48H69.1004V42.8H70.5204ZM71.2874 41.33V48H73.0174V41.33H71.2874ZM81.4822 44.67C81.4822 43.78 81.1422 42.84 80.4322 42.17C79.7522 41.52 78.7922 41.18 77.8022 41.18C76.8122 41.18 75.8522 41.52 75.1722 42.17C74.4622 42.84 74.1222 43.78 74.1222 44.67C74.1222 45.55 74.4622 46.48 75.1722 47.16C75.8522 47.81 76.8122 48.15 77.8022 48.15C78.7922 48.15 79.7522 47.81 80.4322 47.16C81.1422 46.48 81.4822 45.55 81.4822 44.67ZM77.8022 42.86C78.2622 42.86 78.7722 43.04 79.1422 43.39C79.4522 43.69 79.6822 44.15 79.6822 44.67C79.6822 45.18 79.4522 45.64 79.1422 45.95C78.8322 46.26 78.3922 46.47 77.8022 46.47C77.2222 46.47 76.7722 46.25 76.4522 45.94C76.2022 45.7 75.9222 45.29 75.9222 44.7C75.9222 44.23 76.0922 43.74 76.4522 43.39C76.8122 43.03 77.3222 42.86 77.8022 42.86ZM84.3162 48V43.92L87.5062 48H89.2362V41.33H87.5062V45.41L84.3162 41.33H82.5862V48H84.3162Z" fill="white"/>
</svg>
