<svg width="113" height="80" viewBox="0 0 113 80" fill="none" xmlns="http://www.w3.org/2000/svg">
<path fill-rule="evenodd" clip-rule="evenodd" d="M83.1862 3.176C83.5519 3.9556 84.1529 4.60088 84.9046 5.02101C85.6562 5.44115 86.5207 5.61498 87.3763 5.51805C85.5835 5.19857 85.5848 2.9241 84.6349 1.73342C84.0798 1.09233 83.3672 0.606864 82.5675 0.324828C81.7677 0.0427917 80.9082 -0.0260925 80.0737 0.124957C81.7805 0.370712 82.3814 1.71376 83.1874 3.176" fill="white"/>
<path fill-rule="evenodd" clip-rule="evenodd" d="M85.73 7.39521C84.3071 7.93833 83.1496 9.89822 81.4453 9.26171C82.133 9.77983 82.9658 10.0693 83.8265 10.0893C84.6873 10.1094 85.5326 9.85905 86.2437 9.37353C87.6543 8.5392 88.8364 7.70977 90.3896 8.29713C90.6642 8.55776 90.9672 8.78691 91.2927 8.98032C90.0087 7.68888 91.3161 5.82729 91.2239 4.31098C91.1368 3.46811 90.8319 2.6624 90.3392 1.973C89.8465 1.28361 89.1829 0.734253 88.4137 0.378906C89.667 1.56344 89.3893 3.0048 89.2087 4.66487C89.1024 5.30394 89.1471 5.959 89.3391 6.57772C89.5311 7.19645 89.8652 7.7617 90.3146 8.22832C89.6836 7.71412 88.9323 7.36869 88.1313 7.22447C87.3302 7.08024 86.5056 7.14196 85.735 7.40381" fill="white"/>
<path fill-rule="evenodd" clip-rule="evenodd" d="M94.5842 12.5136C93.9613 11.8098 93.17 11.2757 92.2843 10.9613C91.3987 10.6468 90.4477 10.5624 89.5204 10.7159C87.7903 11.0661 86.0971 13.0837 84.2687 12.0319C84.9557 12.755 85.8521 13.2446 86.8319 13.4317C87.8116 13.6188 88.8254 13.4941 89.7305 13.0751C91.5012 12.3907 93.0102 11.6682 94.6727 12.6352C94.9368 12.9857 95.2394 13.3055 95.5746 13.5888C94.3544 11.8685 96.2025 9.99091 96.3868 8.23622C96.4507 7.25527 96.2576 6.27464 95.8266 5.39113C95.3956 4.50762 94.7417 3.75179 93.9293 3.19824C95.136 4.79565 94.5437 6.38568 94.0214 8.24728C93.7792 8.95311 93.7043 9.70557 93.8026 10.4453C93.9009 11.185 94.1697 11.8918 94.5879 12.5099" fill="white"/>
<path fill-rule="evenodd" clip-rule="evenodd" d="M93.6563 14.9794C91.9532 15.0372 90.0203 16.6911 88.4463 15.3984C88.9858 16.1966 89.7621 16.8055 90.6659 17.1392C91.5697 17.473 92.5555 17.5148 93.4843 17.2588C95.2795 16.8902 96.8314 16.4404 98.2605 17.6274C98.4562 18.0028 98.6932 18.3552 98.9671 18.678C98.0774 16.8459 100.137 15.3517 100.59 13.7089C100.806 12.785 100.777 11.8211 100.506 10.9119C100.236 10.0026 99.7332 9.1795 99.0481 8.52344C99.9439 10.2314 99.1268 11.6568 98.333 13.3464C97.9898 13.9802 97.7987 14.6851 97.7746 15.4054C97.7505 16.1258 97.8941 16.8419 98.1942 17.4972C97.7127 16.7281 97.044 16.0938 96.2505 15.6536C95.4571 15.2135 94.5649 14.9819 93.6575 14.9806" fill="white"/>
<path fill-rule="evenodd" clip-rule="evenodd" d="M96.7443 19.7336C94.9602 19.4989 92.6599 20.8837 91.2456 19.2642C91.6683 20.1877 92.3697 20.9557 93.2513 21.4601C94.1328 21.9646 95.1503 22.1803 96.1607 22.0768C98.0948 22.0031 99.788 21.8053 101.076 23.2896C101.215 23.7149 101.4 24.1234 101.63 24.5074C101.023 22.4442 103.426 21.2462 104.185 19.6144C104.569 18.6898 104.706 17.6811 104.583 16.6874C104.459 15.6937 104.079 14.7493 103.479 13.9473C104.116 15.8826 103.017 17.2244 101.897 18.8452C101.43 19.4465 101.109 20.1479 100.96 20.8943C100.811 21.6406 100.837 22.4114 101.036 23.1459C100.669 22.2611 100.083 21.4841 99.3329 20.8877C98.583 20.2913 97.6941 19.8951 96.7493 19.736" fill="white"/>
<path fill-rule="evenodd" clip-rule="evenodd" d="M103.02 29.8354C102.783 28.8206 102.293 27.8825 101.595 27.1088C100.897 26.3352 100.014 25.7513 99.0289 25.4118C97.1563 24.8392 94.4382 25.9143 93.2095 23.9225C93.498 24.9908 94.1142 25.9418 94.9714 26.6417C95.8286 27.3415 96.8837 27.755 97.9882 27.8239C100.077 28.0905 101.931 28.1827 103.043 30.0049C103.116 30.4861 103.242 30.9576 103.419 31.4107C103.137 29.0883 105.932 28.2318 107.038 26.6184C108.21 24.9067 108.278 22.851 107.296 20.4082C107.633 22.5991 106.212 23.8488 104.716 25.3835C104.106 25.9443 103.636 26.6391 103.341 27.413C103.046 28.1868 102.935 29.0186 103.016 29.8427" fill="white"/>
<path fill-rule="evenodd" clip-rule="evenodd" d="M103.984 36.7324C103.921 35.6845 103.593 34.6698 103.031 33.7836C102.468 32.8974 101.689 32.1687 100.767 31.6661C99.009 30.79 96.1411 31.4056 95.2539 29.2319C95.363 30.3371 95.8159 31.3802 96.5488 32.2145C97.2817 33.0488 98.2577 33.6323 99.3396 33.8829C101.363 34.4972 103.183 34.8892 103.982 36.8762C103.974 37.3644 104.021 37.852 104.122 38.3298C104.226 35.9841 107.134 35.5982 108.495 34.1827C109.938 32.6811 110.344 30.6598 109.776 28.0781C109.746 30.3022 108.136 31.2987 106.404 32.5767C105.705 33.0332 105.122 33.6468 104.702 34.3685C104.282 35.0902 104.036 35.9001 103.984 36.7336" fill="white"/>
<path fill-rule="evenodd" clip-rule="evenodd" d="M103.659 43.9915C103.777 42.8448 103.602 41.6868 103.151 40.626C102.7 39.5652 101.986 38.6363 101.078 37.9263C99.3259 36.6557 96.0954 36.8044 95.5253 34.2793C95.4436 35.5003 95.7467 36.7162 96.3921 37.7559C97.0375 38.7956 97.9926 39.6068 99.1231 40.0754C101.212 41.1051 103.118 41.867 103.627 44.1722C103.53 44.7017 103.493 45.2404 103.516 45.7782C104.054 43.2469 107.286 43.355 109.023 42.0624C110.867 40.6923 111.674 38.5677 111.523 35.658C111.088 38.0701 109.156 38.8614 107.041 39.9366C106.203 40.3046 105.461 40.8625 104.875 41.5662C104.289 42.2699 103.874 43.1001 103.663 43.9915" fill="white"/>
<path fill-rule="evenodd" clip-rule="evenodd" d="M108.359 49.9066C110.563 48.7749 111.799 46.6553 112.16 43.5305C111.268 46.0225 109.07 46.5226 106.631 47.2918C105.673 47.5349 104.784 47.9972 104.034 48.6422C103.285 49.2872 102.695 50.0973 102.312 51.0088C102.848 48.0856 102.312 45.7915 100.636 44.0896C98.9954 42.4246 95.5278 42.0081 95.3692 39.2188C95.0652 40.5048 95.172 41.8538 95.6745 43.076C96.1771 44.2982 97.0501 45.3321 98.1708 46.0323C100.214 47.5007 102.103 48.6508 102.241 51.1931C102.044 51.74 101.908 52.3071 101.838 52.884C102.861 50.2839 106.283 50.9732 108.364 49.9054" fill="white"/>
<path fill-rule="evenodd" clip-rule="evenodd" d="M104.668 54.3909C103.683 54.4731 102.73 54.7828 101.884 55.2958C101.039 55.8089 100.324 56.5111 99.7962 57.3473C100.806 54.5519 100.656 52.2012 99.2825 50.2462C97.9383 48.333 94.5874 47.3525 94.8897 44.5742C94.3778 45.7927 94.2609 47.141 94.5553 48.4293C94.8498 49.7177 95.5409 50.8813 96.5313 51.7564C98.3044 53.5406 99.9842 54.9868 99.6954 57.5193C99.4112 58.0251 99.1842 58.5608 99.0184 59.1168C100.456 56.7206 103.718 57.9642 105.946 57.2527C108.307 56.4995 109.878 54.6121 110.746 51.5881C109.456 53.8994 107.206 54.0296 104.668 54.3872" fill="white"/>
<path fill-rule="evenodd" clip-rule="evenodd" d="M101.567 61.0727C100.581 60.9914 99.5905 61.14 98.6722 61.5068C97.7538 61.8735 96.9331 62.4484 96.2747 63.1862C97.7308 60.5959 97.9704 58.2514 96.937 56.0974C95.9257 53.9888 92.7813 52.4701 93.5382 49.7803C92.8328 50.8979 92.4957 52.2085 92.5741 53.5277C92.6526 54.847 93.1428 56.1084 93.9756 57.1345C95.4305 59.1865 96.8497 60.8896 96.1481 63.3398C95.7845 63.7927 95.4725 64.2848 95.2179 64.8069C97.0304 62.6799 100.043 64.4383 102.358 64.109C104.816 63.7539 106.671 62.1516 108.024 59.3168C106.372 61.3848 104.13 61.1427 101.569 61.0764" fill="white"/>
<path fill-rule="evenodd" clip-rule="evenodd" d="M97.414 67.1507C96.4553 66.9084 95.4535 66.892 94.4874 67.1027C93.5213 67.3133 92.6172 67.7453 91.8464 68.3647C93.7092 66.0497 94.331 63.7765 93.6662 61.4836C93.0162 59.2386 90.1642 57.2222 91.3537 54.6934C90.474 55.6796 89.9257 56.9169 89.7859 58.231C89.6462 59.5452 89.922 60.8701 90.5746 62.0193C91.6719 64.2827 92.7864 66.1971 91.6953 68.4974C91.2616 68.8841 90.8725 69.3181 90.5353 69.7913C92.6734 67.9912 95.3558 70.2275 97.6929 70.2828C100.171 70.3369 102.27 69.0626 104.071 66.4834C102.105 68.2504 99.9305 67.6434 97.414 67.1568" fill="white"/>
<path fill-rule="evenodd" clip-rule="evenodd" d="M92.3084 72.4618C91.5075 72.1181 90.646 71.938 89.7745 71.9321C88.903 71.9262 88.0391 72.0946 87.2336 72.4274C87.7964 71.652 88.1281 71.1396 88.1281 71.1396V71.1286C88.6758 70.4504 89.0833 69.6701 89.3269 68.8331C89.5706 67.9961 89.6455 67.119 89.5474 66.2528C89.2758 63.9304 86.7949 61.4729 88.3837 59.1738C87.3536 60.0019 86.609 61.1322 86.2548 62.4056C85.9006 63.679 85.9545 65.0313 86.4091 66.2724C86.9583 68.1426 87.5567 69.8064 87.1205 71.4333C85.3929 73.677 81.2408 78.4619 76.4302 79.6808C77.2351 79.9685 78.0974 80.0583 78.9443 79.9426C81.6623 79.1537 84.6114 75.8483 86.414 73.521C88.3395 73.4141 90.1974 75.2413 92.0663 75.5902C94.5018 76.051 96.7824 75.1405 98.9831 72.887C96.748 74.3062 94.707 73.349 92.306 72.4556" fill="white"/>
<path fill-rule="evenodd" clip-rule="evenodd" d="M25.3221 71.434C24.8859 69.8071 25.4843 68.1434 26.0335 66.2732C26.488 65.0323 26.5419 63.6801 26.1876 62.4069C25.8334 61.1337 25.0889 60.0037 24.0589 59.1758C25.6477 61.4748 23.168 63.9324 22.8952 66.2548C22.7971 67.1211 22.872 67.9984 23.1156 68.8356C23.3592 69.6728 23.7668 70.4533 24.3145 71.1317V71.1428C24.3145 71.1428 24.6462 71.6552 25.209 72.4306C24.4036 72.0977 23.5397 71.9292 22.6683 71.9349C21.7968 71.9406 20.9352 72.1204 20.1342 72.4638C17.7332 73.3583 15.6922 74.3143 13.457 72.895C15.6578 75.1425 17.9384 76.053 20.3738 75.5984C22.2465 75.2445 24.1044 73.4222 26.0262 73.5291C27.83 75.8564 30.7791 79.1618 33.4959 79.9507C34.3428 80.0665 35.2051 79.9768 36.01 79.6889C31.2005 78.47 27.0473 73.6839 25.3196 71.4414" fill="white"/>
<path fill-rule="evenodd" clip-rule="evenodd" d="M22.0523 8.30406C23.6055 7.71671 24.7876 8.54982 26.1982 9.38047C26.9092 9.86598 27.7546 10.1163 28.6154 10.0963C29.4761 10.0762 30.3089 9.78676 30.9966 9.26865C29.2861 9.90392 28.1348 7.94403 26.7057 7.396C25.935 7.13403 25.1104 7.07226 24.3093 7.21648C23.5082 7.36071 22.757 7.7062 22.1261 8.2205C22.5755 7.75389 22.9095 7.18864 23.1015 6.56991C23.2936 5.95118 23.3382 5.29612 23.2319 4.65706C23.0513 2.99698 22.7736 1.55563 24.027 0.371094C23.2577 0.72644 22.5941 1.2758 22.1014 1.96519C21.6087 2.65459 21.3039 3.4603 21.2168 4.30317C21.1234 5.82316 22.4308 7.68476 21.1479 8.97251C21.4735 8.77913 21.7764 8.54997 22.0511 8.28931" fill="white"/>
<path fill-rule="evenodd" clip-rule="evenodd" d="M29.2563 3.17607C30.0623 1.71382 30.6632 0.37446 32.37 0.125018C31.5356 -0.0260527 30.6763 0.0426986 29.8765 0.324508C29.0768 0.606318 28.3641 1.09148 27.8088 1.73226C26.8589 2.92294 26.8589 5.19863 25.0674 5.51688C25.923 5.61382 26.7875 5.43998 27.5392 5.01985C28.2908 4.59971 28.8918 3.95443 29.2575 3.17484" fill="white"/>
<path fill-rule="evenodd" clip-rule="evenodd" d="M16.8688 13.589C17.2041 13.3058 17.5066 12.986 17.7707 12.6354C19.4332 11.6684 20.9422 12.3897 22.7128 13.0753C23.6179 13.4945 24.6316 13.6194 25.6113 13.4325C26.5911 13.2456 27.4876 12.7563 28.1747 12.0333C26.3463 13.0852 24.6531 11.0663 22.923 10.7161C21.9958 10.5626 21.0448 10.6471 20.1591 10.9615C19.2734 11.2759 18.4821 11.81 17.8592 12.5138C18.2773 11.8957 18.546 11.1889 18.6443 10.4492C18.7426 9.70947 18.6678 8.95703 18.4257 8.25118C17.9034 6.38959 17.3112 4.79464 18.5178 3.20215C17.7055 3.75569 17.0515 4.51153 16.6205 5.39504C16.1896 6.27855 15.9964 7.25918 16.0603 8.24012C16.2434 9.99481 18.0927 11.8724 16.8725 13.5927" fill="white"/>
<path fill-rule="evenodd" clip-rule="evenodd" d="M13.4747 18.6795C13.7487 18.3567 13.9857 18.0043 14.1813 17.6289C15.6116 16.4431 17.1623 16.8916 18.9575 17.2603C19.8865 17.5162 20.8723 17.4741 21.7761 17.1402C22.6799 16.8062 23.4561 16.1971 23.9955 15.3987C22.4214 16.6913 20.4874 15.0374 18.7843 14.9797C17.8769 14.9808 16.9847 15.2123 16.1912 15.6525C15.3977 16.0926 14.729 16.727 14.2476 17.4962C14.5476 16.8409 14.6912 16.1248 14.6671 15.4044C14.643 14.6841 14.4519 13.9792 14.1088 13.3454C13.315 11.6558 12.4979 10.2305 13.3936 8.52246C12.7083 9.1784 12.2056 10.0015 11.935 10.9107C11.6644 11.8199 11.6352 12.784 11.8503 13.7079C12.3037 15.3495 14.3631 16.8449 13.4747 18.677" fill="white"/>
<path fill-rule="evenodd" clip-rule="evenodd" d="M10.8131 24.5079C11.0427 24.1239 11.2286 23.7155 11.3673 23.2901C12.6501 21.807 14.3446 22.0036 16.2824 22.0773C17.2928 22.1808 18.3102 21.9651 19.1918 21.4606C20.0734 20.9562 20.7748 20.1882 21.1975 19.2647C19.7832 20.8842 17.4817 19.4981 15.6987 19.7341C14.7539 19.8931 13.8649 20.2894 13.1151 20.8858C12.3653 21.4822 11.7791 22.2591 11.4115 23.1439C11.6109 22.4094 11.637 21.6386 11.4877 20.8923C11.3385 20.146 11.0179 19.4445 10.5514 18.8432C9.43073 17.2212 8.3322 15.8794 8.96871 13.9453C8.36934 14.7474 7.98912 15.6918 7.86545 16.6855C7.74178 17.6791 7.87893 18.6878 8.26339 19.6124C9.02155 21.2442 11.425 22.4386 10.818 24.5054" fill="white"/>
<path fill-rule="evenodd" clip-rule="evenodd" d="M9.02112 31.4021C9.19857 30.9491 9.3247 30.4776 9.39712 29.9964C10.503 28.1742 12.3622 28.0832 14.4523 27.8154C15.5568 27.7465 16.6118 27.333 17.4691 26.6332C18.3263 25.9333 18.9425 24.9823 19.231 23.914C18.0022 25.9058 15.2842 24.8307 13.4115 25.4033C12.4262 25.7426 11.543 26.3264 10.8448 27.1001C10.1465 27.8738 9.65605 28.812 9.41924 29.8269C9.50059 29.0029 9.38942 28.1714 9.09452 27.3977C8.79961 26.6241 8.32902 25.9296 7.71985 25.3689C6.22689 23.828 4.80642 22.5845 5.13942 20.3936C4.1564 22.8376 4.22521 24.8921 5.39746 26.6038C6.50336 28.2196 9.29882 29.0761 9.0162 31.396" fill="white"/>
<path fill-rule="evenodd" clip-rule="evenodd" d="M8.32293 38.33C8.42368 37.8522 8.47066 37.3646 8.46301 36.8764C9.26294 34.8895 11.0815 34.4926 13.1053 33.8831C14.1872 33.6325 15.1632 33.049 15.8961 32.2147C16.629 31.3804 17.0819 30.3373 17.191 29.2322C16.3038 31.4059 13.4359 30.7915 11.6775 31.6664C10.7558 32.169 9.97708 32.8976 9.41436 33.7838C8.85163 34.67 8.52342 35.6847 8.46055 36.7326C8.40897 35.8992 8.16335 35.0893 7.74328 34.3675C7.32322 33.6458 6.74033 33.0322 6.0411 32.5757C4.30852 31.2978 2.69883 30.3012 2.66934 28.0771C2.10042 30.6576 2.50714 32.6801 3.94972 34.1817C5.3112 35.5985 8.21848 35.9831 8.32293 38.3288" fill="white"/>
<path fill-rule="evenodd" clip-rule="evenodd" d="M3.42554 42.0565C5.16179 43.3492 8.39347 43.241 8.9329 45.7723C8.95609 45.2345 8.919 44.6958 8.82231 44.1663C9.33102 41.8611 11.2369 41.0944 13.3258 40.0696C14.4562 39.601 15.4114 38.7898 16.0568 37.7501C16.7021 36.7103 17.0053 35.4944 16.9236 34.2734C16.3535 36.7973 13.1243 36.6499 11.3708 37.9204C10.4627 38.6303 9.74965 39.559 9.29834 40.6196C8.84704 41.6801 8.67225 42.8379 8.79036 43.9844C8.57991 43.0931 8.16523 42.2628 7.57903 41.5591C6.99283 40.8554 6.25114 40.2975 5.41246 39.9295C3.29774 38.8543 1.36611 38.0642 0.931125 35.6509C0.781214 38.5606 1.58975 40.6889 3.43045 42.0553" fill="white"/>
<path fill-rule="evenodd" clip-rule="evenodd" d="M4.08405 49.9064C6.16437 50.9754 9.58651 50.2848 10.6101 52.8849C10.5393 52.308 10.4042 51.7409 10.207 51.1941C10.3397 48.6481 12.2333 47.498 14.2767 46.0333C15.3975 45.3331 16.2705 44.2992 16.7731 43.077C17.2756 41.8548 17.3824 40.5058 17.0783 39.2197C16.9198 42.0103 13.4535 42.4256 11.8118 44.0906C10.1345 45.7924 9.60002 48.0878 10.1358 51.0111C9.753 50.098 9.16305 49.2865 8.41257 48.6407C7.66209 47.9949 6.77167 47.5326 5.81171 47.2903C3.36768 46.5211 1.1694 46.0222 0.282227 43.529C0.6398 46.6538 1.87963 48.7734 4.08405 49.9051" fill="white"/>
<path fill-rule="evenodd" clip-rule="evenodd" d="M13.4222 59.1207C13.2567 58.5646 13.0297 58.0288 12.7452 57.5232C12.4564 54.9907 14.1362 53.5445 15.9093 51.7603C16.8995 50.8851 17.5905 49.7215 17.885 48.4332C18.1795 47.1448 18.0626 45.7966 17.5509 44.5781C17.8544 47.3564 14.5023 48.3369 13.1581 50.2501C11.7843 52.2051 11.6344 54.5508 12.6444 57.3512C12.1168 56.5149 11.402 55.8125 10.5565 55.2997C9.71099 54.7868 8.75787 54.4775 7.77234 54.396C5.23492 54.0397 2.98012 53.9045 1.69482 51.5969C2.56111 54.6209 4.13271 56.512 6.49319 57.2615C8.72095 57.9718 11.9833 56.7282 13.421 59.1256" fill="white"/>
<path fill-rule="evenodd" clip-rule="evenodd" d="M17.226 64.8079C16.9714 64.2858 16.6594 63.7937 16.2958 63.3408C15.5941 60.8906 17.0121 59.1875 18.4682 57.1355C19.3011 56.1094 19.7913 54.848 19.8697 53.5287C19.9482 52.2095 19.611 50.8988 18.9057 49.7812C19.6614 52.4723 16.5182 53.991 15.5069 56.0984C14.4735 58.2537 14.7131 60.5969 16.1692 63.1872C15.5108 62.4494 14.6901 61.8745 13.7717 61.5078C12.8534 61.141 11.8624 60.9924 10.8769 61.0737C8.31489 61.14 6.07483 61.3809 4.4209 59.3141C5.77255 62.1538 7.63414 63.7561 10.0868 64.1063C12.4006 64.4418 15.4135 62.6772 17.2272 64.8042" fill="white"/>
<path fill-rule="evenodd" clip-rule="evenodd" d="M21.9094 69.7903C21.5733 69.3174 21.1855 68.8834 20.7532 68.4964C19.6571 66.1949 20.7765 64.2817 21.8738 62.0183C22.5264 60.8691 22.8023 59.5442 22.6625 58.2301C22.5228 56.9159 21.9745 55.6786 21.0948 54.6924C22.2842 57.2224 19.4322 59.2388 18.7822 61.4826C18.1174 63.7779 18.7392 66.05 20.602 68.3637C19.8312 67.7444 18.9272 67.3123 17.9611 67.1017C16.995 66.891 15.9931 66.9075 15.0345 67.1497C12.5192 67.6412 10.3479 68.2433 8.37695 66.4763C10.1783 69.0567 12.2771 70.3298 14.7555 70.2757C17.0902 70.2253 19.7751 67.9889 21.9131 69.7842" fill="white"/>
<path d="M40.1153 32.0189H42.0953C42.0753 32.4389 41.9453 32.7589 41.8253 32.9689C41.4453 33.6389 40.6753 34.0889 39.7853 34.0889C38.5253 34.0889 37.0753 33.1689 37.0753 31.3489C37.0753 29.7989 38.1953 28.5889 39.8053 28.5889C40.6053 28.5889 41.1053 28.8889 41.4253 29.1489C41.6453 29.3289 41.8653 29.5689 42.0553 29.8389L42.6053 29.3389C42.4153 29.0789 42.1353 28.7789 41.8353 28.5489C41.1853 28.0489 40.4353 27.8889 39.7953 27.8889C37.8053 27.8889 36.3153 29.3989 36.3153 31.3389C36.3153 33.2789 37.7953 34.7889 39.7753 34.7889C41.3053 34.7889 42.0553 33.8589 42.2553 33.5889C42.6753 33.0189 42.8953 32.2189 42.8953 31.4789V31.3189H40.1153V32.0189ZM48.7134 34.6689H49.5334L46.5434 27.6789L43.4734 34.6689H44.2934L45.0934 32.7889H47.9334L48.7134 34.6689ZM45.3834 32.0889L46.5234 29.4189L47.6434 32.0889H45.3834ZM51.0041 34.6689L51.6641 30.0289L53.9041 34.9489L56.1741 30.0289L56.8041 34.6689H57.5641L56.5241 27.6189L53.9141 33.2589L51.3541 27.6289L50.2441 34.6689H51.0041ZM59.1069 27.9989V34.6689H59.8469V27.9989H59.1069ZM62.3078 34.6689V29.5189L67.5078 34.9689V27.9989H66.7678V33.1689L61.5678 27.7189V34.6689H62.3078ZM72.6641 32.0189H74.6441C74.6241 32.4389 74.4941 32.7589 74.3741 32.9689C73.9941 33.6389 73.2241 34.0889 72.3341 34.0889C71.0741 34.0889 69.6241 33.1689 69.6241 31.3489C69.6241 29.7989 70.7441 28.5889 72.3541 28.5889C73.1541 28.5889 73.6541 28.8889 73.9741 29.1489C74.1941 29.3289 74.4141 29.5689 74.6041 29.8389L75.1541 29.3389C74.9641 29.0789 74.6841 28.7789 74.3841 28.5489C73.7341 28.0489 72.9841 27.8889 72.3441 27.8889C70.3541 27.8889 68.8641 29.3989 68.8641 31.3389C68.8641 33.2789 70.3441 34.7889 72.3241 34.7889C73.8541 34.7889 74.6041 33.8589 74.8041 33.5889C75.2241 33.0189 75.4441 32.2189 75.4441 31.4789V31.3189H72.6641V32.0189ZM35.2873 47.6689H37.1373L34.6273 40.9989H32.7373L30.1773 47.6689H32.0073L32.4573 46.5489H34.8773L35.2873 47.6689ZM32.9373 45.2289L33.6673 43.0689L34.4173 45.2289H32.9373ZM40.7269 45.4589C41.2469 45.4589 41.8669 45.3889 42.3869 44.8789C42.9069 44.3689 42.9769 43.7489 42.9769 43.2189C42.9769 42.6589 42.8769 42.0989 42.3569 41.5989C41.8469 41.1089 41.2469 40.9989 40.6669 40.9989H37.9069V47.6689H39.6369V45.4589H40.7269ZM39.6369 42.3989H40.2269C40.4469 42.3989 40.7669 42.4289 40.9669 42.6389C41.1469 42.8189 41.1669 43.0589 41.1669 43.2389C41.1669 43.3989 41.1569 43.6689 40.9469 43.8489C40.7369 44.0389 40.3969 44.0589 40.2169 44.0589H39.6369V42.3989ZM46.7132 45.4589C47.2332 45.4589 47.8532 45.3889 48.3732 44.8789C48.8932 44.3689 48.9632 43.7489 48.9632 43.2189C48.9632 42.6589 48.8632 42.0989 48.3432 41.5989C47.8332 41.1089 47.2332 40.9989 46.6532 40.9989H43.8932V47.6689H45.6232V45.4589H46.7132ZM45.6232 42.3989H46.2132C46.4332 42.3989 46.7532 42.4289 46.9532 42.6389C47.1332 42.8189 47.1532 43.0589 47.1532 43.2389C47.1532 43.3989 47.1432 43.6689 46.9332 43.8489C46.7232 44.0389 46.3832 44.0589 46.2032 44.0589H45.6232V42.3989ZM49.8795 40.9989V47.6689H51.6095V45.1089L53.2695 47.6689H55.4195L53.3295 44.9389C53.6395 44.8789 53.9895 44.7289 54.2495 44.4789C54.5795 44.1589 54.7795 43.6589 54.7795 43.0889C54.7795 42.5589 54.5895 41.9789 54.2095 41.5889C53.7195 41.0789 53.0795 40.9989 52.5795 40.9989H49.8795ZM51.6095 42.3389H51.9395C52.3195 42.3389 52.6095 42.4389 52.7695 42.5989C52.9195 42.7389 52.9995 42.9589 52.9995 43.1589C52.9995 43.3689 52.9095 43.5889 52.7795 43.7189C52.5695 43.9189 52.1995 43.9889 51.9395 43.9889H51.6095V42.3389ZM63.209 44.3389C63.209 43.4489 62.869 42.5089 62.159 41.8389C61.479 41.1889 60.519 40.8489 59.529 40.8489C58.539 40.8489 57.579 41.1889 56.899 41.8389C56.189 42.5089 55.849 43.4489 55.849 44.3389C55.849 45.2189 56.189 46.1489 56.899 46.8289C57.579 47.4789 58.539 47.8189 59.529 47.8189C60.519 47.8189 61.479 47.4789 62.159 46.8289C62.869 46.1489 63.209 45.2189 63.209 44.3389ZM59.529 42.5289C59.989 42.5289 60.499 42.7089 60.869 43.0589C61.179 43.3589 61.409 43.8189 61.409 44.3389C61.409 44.8489 61.179 45.3089 60.869 45.6189C60.559 45.9289 60.119 46.1389 59.529 46.1389C58.949 46.1389 58.499 45.9189 58.179 45.6089C57.929 45.3689 57.649 44.9589 57.649 44.3689C57.649 43.8989 57.819 43.4089 58.179 43.0589C58.539 42.6989 59.049 42.5289 59.529 42.5289ZM63.3592 40.9989L66.1592 47.6689H67.5092L70.3492 40.9989H68.4692L66.8492 45.0589L65.2492 40.9989H63.3592ZM75.0333 47.6689H76.8833L74.3733 40.9989H72.4833L69.9233 47.6689H71.7533L72.2033 46.5489H74.6233L75.0333 47.6689ZM72.6833 45.2289L73.4133 43.0689L74.1633 45.2289H72.6833ZM77.653 40.9989V47.6689H81.463V46.1989H79.383V40.9989H77.653Z" fill="white"/>
</svg>
