<svg width="112" height="80" viewBox="0 0 112 80" fill="none" xmlns="http://www.w3.org/2000/svg">
<path fill-rule="evenodd" clip-rule="evenodd" d="M82.904 3.12913C83.2697 3.90872 83.8707 4.554 84.6223 4.97414C85.374 5.39427 86.2385 5.56811 87.0941 5.47117C85.3013 5.15169 85.3026 2.87723 84.3527 1.68655C83.7976 1.04545 83.085 0.559989 82.2852 0.277953C81.4855 -0.00408335 80.626 -0.0729675 79.7915 0.0780819C81.4983 0.323837 82.0991 1.66689 82.9052 3.12913" fill="white"/>
<path fill-rule="evenodd" clip-rule="evenodd" d="M85.4478 7.34833C84.0249 7.89145 82.8674 9.85134 81.1631 9.21484C81.8507 9.73295 82.6835 10.0224 83.5443 10.0425C84.405 10.0625 85.2504 9.81218 85.9614 9.32666C87.3721 8.49232 88.5542 7.6629 90.1073 8.25025C90.382 8.51089 90.685 8.74004 91.0105 8.93345C89.7264 7.64201 91.0338 5.78042 90.9417 4.26411C90.8546 3.42124 90.5497 2.61552 90.057 1.92613C89.5643 1.23673 88.9007 0.687378 88.1315 0.332031C89.3848 1.51657 89.1071 2.95792 88.9265 4.618C88.8202 5.25706 88.8649 5.91212 89.0569 6.53085C89.2489 7.14958 89.583 7.71483 90.0324 8.18144C89.4014 7.66724 88.6501 7.32181 87.849 7.17759C87.048 7.03337 86.2234 7.09508 85.4527 7.35693" fill="white"/>
<path fill-rule="evenodd" clip-rule="evenodd" d="M94.302 12.4667C93.6791 11.7629 92.8878 11.2288 92.0021 10.9144C91.1164 10.6 90.1654 10.5155 89.2382 10.669C87.5081 11.0192 85.8149 13.0369 83.9865 11.985C84.6735 12.7081 85.5699 13.1977 86.5496 13.3848C87.5294 13.572 88.5431 13.4473 89.4483 13.0283C91.219 12.3438 92.7279 11.6213 94.3905 12.5884C94.6546 12.9388 94.9572 13.2586 95.2924 13.5419C94.0722 11.8216 95.9203 9.94403 96.1046 8.18934C96.1684 7.2084 95.9753 6.22776 95.5443 5.34426C95.1134 4.46075 94.4594 3.70491 93.6471 3.15137C94.8537 4.74877 94.2614 6.33881 93.7392 8.2004C93.497 8.90624 93.4221 9.65869 93.5204 10.3984C93.6187 11.1382 93.8875 11.8449 94.3057 12.463" fill="white"/>
<path fill-rule="evenodd" clip-rule="evenodd" d="M93.3741 14.9325C91.671 14.9903 89.7381 16.6442 88.1641 15.3516C88.7036 16.1498 89.4799 16.7586 90.3837 17.0924C91.2875 17.4261 92.2732 17.4679 93.202 17.2119C94.9973 16.8433 96.5492 16.3936 97.9783 17.5806C98.174 17.9559 98.411 18.3083 98.6848 18.6312C97.7952 16.7991 99.8546 15.3049 100.308 13.662C100.523 12.7382 100.494 11.7742 100.224 10.865C99.9535 9.95577 99.451 9.13263 98.7659 8.47656C99.6617 10.1846 98.8446 11.6099 98.0508 13.2995C97.7076 13.9333 97.5164 14.6382 97.4923 15.3585C97.4682 16.0789 97.6119 16.795 97.9119 17.4503C97.4305 16.6812 96.7617 16.0469 95.9683 15.6067C95.1748 15.1666 94.2826 14.9351 93.3753 14.9338" fill="white"/>
<path fill-rule="evenodd" clip-rule="evenodd" d="M96.4621 19.6867C94.6779 19.452 92.3777 20.8368 90.9634 19.2173C91.3861 20.1409 92.0875 20.9088 92.969 21.4133C93.8506 21.9177 94.8681 22.1334 95.8785 22.03C97.8126 21.9562 99.5058 21.7584 100.794 23.2428C100.932 23.6681 101.118 24.0765 101.348 24.4605C100.741 22.3974 103.144 21.1993 103.902 19.5675C104.287 18.6429 104.424 17.6342 104.3 16.6405C104.177 15.6468 103.797 14.7025 103.197 13.9004C103.834 15.8357 102.735 17.1775 101.614 18.7983C101.148 19.3996 100.827 20.1011 100.678 20.8474C100.529 21.5937 100.555 22.3645 100.754 23.099C100.387 22.2142 99.8005 21.4372 99.0506 20.8408C98.3008 20.2445 97.4118 19.8482 96.467 19.6891" fill="white"/>
<path fill-rule="evenodd" clip-rule="evenodd" d="M102.738 29.7885C102.501 28.7737 102.011 27.8356 101.313 27.062C100.615 26.2883 99.7319 25.7044 98.7467 25.3649C96.8741 24.7923 94.156 25.8675 92.9272 23.8756C93.2158 24.944 93.832 25.895 94.6892 26.5948C95.5464 27.2946 96.6015 27.7081 97.706 27.777C99.7949 28.0436 101.649 28.1358 102.761 29.9581C102.833 30.4392 102.96 30.9107 103.137 31.3638C102.855 29.0414 105.65 28.1849 106.756 26.5716C107.928 24.8599 107.996 22.8041 107.014 20.3613C107.351 22.5522 105.93 23.8019 104.434 25.3366C103.824 25.8975 103.353 26.5922 103.059 27.3661C102.764 28.1399 102.653 28.9717 102.734 29.7959" fill="white"/>
<path fill-rule="evenodd" clip-rule="evenodd" d="M103.702 36.6855C103.639 35.6376 103.311 34.6229 102.748 33.7367C102.186 32.8505 101.407 32.1219 100.485 31.6193C98.7268 30.7432 95.8589 31.3588 94.9717 29.1851C95.0808 30.2902 95.5336 31.3333 96.2665 32.1676C96.9994 33.0019 97.9755 33.5854 99.0573 33.836C101.081 34.4504 102.901 34.8423 103.7 36.8293C103.692 37.3175 103.739 37.8051 103.84 38.2829C103.944 35.9372 106.851 35.5514 108.213 34.1358C109.656 32.6342 110.062 30.6129 109.493 28.0312C109.464 30.2553 107.854 31.2519 106.122 32.5298C105.422 32.9863 104.839 33.5999 104.419 34.3216C103.999 35.0434 103.754 35.8533 103.702 36.6867" fill="white"/>
<path fill-rule="evenodd" clip-rule="evenodd" d="M103.376 43.9446C103.495 42.7979 103.32 41.6399 102.869 40.5791C102.417 39.5183 101.704 38.5894 100.796 37.8794C99.0437 36.6089 95.8132 36.7576 95.243 34.2324C95.1613 35.4534 95.4645 36.6693 96.1099 37.709C96.7553 38.7488 97.7104 39.56 98.8409 40.0285C100.93 41.0583 102.836 41.8201 103.344 44.1253C103.248 44.6548 103.211 45.1935 103.234 45.7313C103.772 43.2 107.004 43.3081 108.741 42.0155C110.584 40.6454 111.392 38.5208 111.24 35.6111C110.805 38.0232 108.874 38.8145 106.759 39.8897C105.92 40.2577 105.179 40.8156 104.593 41.5193C104.006 42.223 103.592 43.0533 103.381 43.9446" fill="white"/>
<path fill-rule="evenodd" clip-rule="evenodd" d="M108.076 49.8598C110.281 48.7281 111.517 46.6084 111.878 43.4836C110.986 45.9756 108.788 46.4757 106.349 47.2449C105.39 47.488 104.501 47.9503 103.752 48.5953C103.002 49.2403 102.413 50.0504 102.03 50.962C102.565 48.0387 102.03 45.7446 100.354 44.0427C98.7131 42.3777 95.2455 41.9612 95.087 39.1719C94.783 40.4579 94.8897 41.8069 95.3923 43.0291C95.8948 44.2513 96.7679 45.2852 97.8886 45.9854C99.9321 47.4538 101.821 48.6039 101.958 51.1463C101.761 51.6931 101.626 52.2602 101.555 52.8371C102.579 50.237 106.001 50.9263 108.081 49.8585" fill="white"/>
<path fill-rule="evenodd" clip-rule="evenodd" d="M104.386 54.344C103.401 54.4262 102.448 54.736 101.602 55.249C100.757 55.762 100.042 56.4642 99.5139 57.3004C100.524 54.505 100.374 52.1543 99.0003 50.1994C97.656 48.2862 94.3051 47.3056 94.6074 44.5273C94.0955 45.7458 93.9786 47.0941 94.2731 48.3825C94.5676 49.6709 95.2587 50.8344 96.2491 51.7095C98.0222 53.4937 99.7019 54.94 99.4132 57.4725C99.129 57.9782 98.9019 58.514 98.7361 59.0699C100.174 56.6738 103.436 57.9173 105.664 57.2058C108.024 56.4526 109.596 54.5652 110.464 51.5412C109.173 53.8525 106.923 53.9828 104.386 54.3403" fill="white"/>
<path fill-rule="evenodd" clip-rule="evenodd" d="M101.285 61.0258C100.299 60.9445 99.3083 61.0931 98.39 61.4599C97.4716 61.8266 96.6509 62.4015 95.9924 63.1393C97.4485 60.5491 97.6882 58.2046 96.6548 56.0505C95.6435 53.9419 92.4991 52.4232 93.256 49.7334C92.5506 50.851 92.2134 52.1616 92.2919 53.4808C92.3704 54.8001 92.8605 56.0615 93.6934 57.0876C95.1483 59.1397 96.5675 60.8427 95.8659 63.2929C95.5023 63.7459 95.1903 64.238 94.9357 64.7601C96.7482 62.6331 99.7611 64.3914 102.076 64.0621C104.534 63.707 106.389 62.1047 107.742 59.2699C106.089 61.3379 103.848 61.0959 101.287 61.0295" fill="white"/>
<path fill-rule="evenodd" clip-rule="evenodd" d="M97.1317 67.1038C96.1731 66.8616 95.1713 66.8451 94.2052 67.0558C93.239 67.2664 92.335 67.6985 91.5642 68.3178C93.427 66.0028 94.0488 63.7296 93.384 61.4367C92.734 59.1917 89.882 57.1753 91.0715 54.6465C90.1918 55.6327 89.6434 56.87 89.5037 58.1842C89.3639 59.4983 89.6398 60.8232 90.2924 61.9724C91.3897 64.2358 92.5042 66.1503 91.413 68.4505C90.9794 68.8373 90.5903 69.2713 90.2531 69.7444C92.3911 67.9443 95.0736 70.1806 97.4107 70.2359C99.8891 70.29 101.988 69.0158 103.789 66.4366C101.823 68.2036 99.6483 67.5965 97.1317 67.1099" fill="white"/>
<path fill-rule="evenodd" clip-rule="evenodd" d="M92.0262 72.4149C91.2253 72.0712 90.3637 71.8911 89.4922 71.8852C88.6207 71.8793 87.7569 72.0477 86.9514 72.3805C87.5141 71.6051 87.8459 71.0928 87.8459 71.0928V71.0817C88.3936 70.4035 88.8011 69.6232 89.0447 68.7862C89.2884 67.9492 89.3633 67.0721 89.2651 66.2059C88.9936 63.8835 86.5127 61.426 88.1015 59.127C87.0713 59.9551 86.3268 61.0853 85.9726 62.3587C85.6184 63.6321 85.6723 64.9845 86.1268 66.2256C86.6761 68.0958 87.2745 69.7595 86.8383 71.3864C85.1106 73.6302 80.9586 78.415 76.1479 79.634C76.9528 79.9216 77.8152 80.0114 78.662 79.8957C81.3801 79.1068 84.3291 75.8014 86.1317 73.4741C88.0572 73.3672 89.9151 75.1944 91.7841 75.5434C94.2195 76.0041 96.5001 75.0936 98.7009 72.8401C96.4657 74.2593 94.4248 73.3021 92.0237 72.4088" fill="white"/>
<path fill-rule="evenodd" clip-rule="evenodd" d="M25.0399 71.3872C24.6036 69.7603 25.202 68.0965 25.7513 66.2263C26.2057 64.9854 26.2596 63.6332 25.9054 62.36C25.5512 61.0869 24.8067 59.9568 23.7767 59.1289C25.3655 61.4279 22.8858 63.8855 22.613 66.2079C22.5148 67.0743 22.5897 67.9515 22.8334 68.7887C23.077 69.626 23.4845 70.4064 24.0323 71.0849V71.0959C24.0323 71.0959 24.364 71.6083 24.9268 72.3837C24.1214 72.0509 23.2575 71.8823 22.386 71.888C21.5145 71.8937 20.653 72.0735 19.852 72.4169C17.4509 73.3114 15.4099 74.2674 13.1748 72.8482C15.3755 75.0956 17.6561 76.0061 20.0916 75.5515C21.9642 75.1976 23.8221 73.3753 25.7439 73.4822C27.5478 75.8095 30.4968 79.1149 33.2137 79.9038C34.0605 80.0197 34.9229 79.9299 35.7277 79.642C30.9183 78.4231 26.7651 73.6371 25.0374 71.3945" fill="white"/>
<path fill-rule="evenodd" clip-rule="evenodd" d="M21.7706 8.25718C23.3238 7.66983 24.5058 8.50294 25.9165 9.33359C26.6275 9.81911 27.4729 10.0695 28.3336 10.0494C29.1944 10.0293 30.0272 9.73988 30.7148 9.22177C29.0044 9.85705 27.853 7.89715 26.424 7.34912C25.6533 7.08715 24.8287 7.02538 24.0276 7.16961C23.2265 7.31383 22.4752 7.65932 21.8443 8.17363C22.2937 7.70701 22.6278 7.14177 22.8198 6.52304C23.0118 5.90431 23.0565 5.24925 22.9502 4.61018C22.7696 2.95011 22.4919 1.50876 23.7452 0.324219C22.976 0.679565 22.3124 1.22892 21.8197 1.91832C21.327 2.60771 21.0221 3.41342 20.935 4.2563C20.8416 5.77629 22.1491 7.63788 20.8662 8.92564C21.1918 8.73225 21.4947 8.5031 21.7694 8.24244" fill="white"/>
<path fill-rule="evenodd" clip-rule="evenodd" d="M28.974 3.12919C29.7801 1.66695 30.381 0.327585 32.0878 0.0781434C31.2534 -0.0729277 30.394 -0.00417638 29.5943 0.277633C28.7945 0.559443 28.0819 1.0446 27.5265 1.68538C26.5767 2.87606 26.5767 5.15175 24.7852 5.47001C25.6408 5.56694 26.5053 5.39311 27.2569 4.97297C28.0086 4.55284 28.6096 3.90756 28.9753 3.12796" fill="white"/>
<path fill-rule="evenodd" clip-rule="evenodd" d="M16.5861 13.5421C16.9214 13.2589 17.2239 12.9391 17.488 12.5886C19.1505 11.6215 20.6595 12.3428 22.4301 13.0285C23.3352 13.4476 24.3489 13.5725 25.3286 13.3856C26.3083 13.1987 27.2048 12.7094 27.892 11.9865C26.0636 13.0383 24.3704 11.0194 22.6403 10.6692C21.713 10.5158 20.762 10.6002 19.8764 10.9146C18.9907 11.229 18.1994 11.7632 17.5765 12.4669C17.9945 11.8488 18.2633 11.142 18.3616 10.4023C18.4599 9.6626 18.3851 8.91015 18.1429 8.20431C17.6207 6.34271 17.0284 4.74776 18.2351 3.15527C17.4227 3.70882 16.7688 4.46466 16.3378 5.34816C15.9068 6.23167 15.7137 7.2123 15.7776 8.19325C15.9606 9.94794 17.8099 11.8255 16.5898 13.5458" fill="white"/>
<path fill-rule="evenodd" clip-rule="evenodd" d="M13.1925 18.6326C13.4664 18.3099 13.7034 17.9575 13.8991 17.582C15.3294 16.3963 16.8801 16.8448 18.6753 17.2134C19.6042 17.4693 20.5901 17.4273 21.4939 17.0933C22.3977 16.7593 23.1739 16.1502 23.7133 15.3518C22.1392 16.6445 20.2051 14.9905 18.502 14.9328C17.5947 14.934 16.7025 15.1655 15.909 15.6056C15.1155 16.0458 14.4468 16.6801 13.9654 17.4493C14.2654 16.794 14.409 16.0779 14.3849 15.3576C14.3608 14.6372 14.1697 13.9324 13.8266 13.2985C13.0328 11.609 12.2156 10.1836 13.1114 8.47559C12.4261 9.13153 11.9234 9.95461 11.6528 10.8638C11.3822 11.7731 11.353 12.7371 11.5681 13.661C12.0215 15.3027 14.0809 16.7981 13.1925 18.6302" fill="white"/>
<path fill-rule="evenodd" clip-rule="evenodd" d="M10.5309 24.461C10.7605 24.077 10.9464 23.6686 11.0851 23.2433C12.3679 21.7601 14.0624 21.9567 16.0001 22.0305C17.0106 22.1339 18.028 21.9182 18.9096 21.4138C19.7911 20.9093 20.4925 20.1414 20.9152 19.2178C19.5009 20.8373 17.1994 19.4513 15.4165 19.6872C14.4717 19.8462 13.5827 20.2425 12.8329 20.8389C12.083 21.4353 11.4969 22.2123 11.1293 23.097C11.3287 22.3625 11.3548 21.5917 11.2055 20.8454C11.0562 20.0991 10.7357 19.3977 10.2691 18.7963C9.1485 17.1743 8.04998 15.8325 8.68648 13.8984C8.08712 14.7006 7.70689 15.6449 7.58322 16.6386C7.45955 17.6322 7.5967 18.641 7.98117 19.5655C8.73932 21.1974 11.1428 22.3917 10.5358 24.4585" fill="white"/>
<path fill-rule="evenodd" clip-rule="evenodd" d="M8.7384 31.3553C8.91586 30.9022 9.04198 30.4307 9.11441 29.9496C10.2203 28.1273 12.0794 28.0363 14.1696 27.7685C15.2741 27.6996 16.3291 27.2861 17.1863 26.5863C18.0436 25.8865 18.6598 24.9355 18.9483 23.8671C17.7195 25.859 15.0015 24.7838 13.1288 25.3564C12.1434 25.6957 11.2603 26.2795 10.5621 27.0532C9.86383 27.8269 9.37334 28.7651 9.13653 29.78C9.21787 28.9561 9.10671 28.1245 8.8118 27.3509C8.51689 26.5772 8.0463 25.8827 7.43713 25.322C5.94417 23.7811 4.52371 22.5376 4.85671 20.3467C3.87369 22.7907 3.9425 24.8452 5.11475 26.5569C6.22065 28.1727 9.01611 29.0292 8.73349 31.3491" fill="white"/>
<path fill-rule="evenodd" clip-rule="evenodd" d="M8.0407 38.2832C8.14145 37.8054 8.18844 37.3178 8.18078 36.8295C8.98071 34.8426 10.7993 34.4457 12.8231 33.8362C13.9049 33.5856 14.881 33.0021 15.6139 32.1678C16.3468 31.3335 16.7997 30.2904 16.9088 29.1853C16.0216 31.359 13.1536 30.7446 11.3953 31.6195C10.4736 32.1221 9.69485 32.8507 9.13213 33.7369C8.56941 34.6232 8.2412 35.6379 8.17832 36.6858C8.12674 35.8523 7.88112 35.0424 7.46106 34.3207C7.04099 33.5989 6.4581 32.9853 5.75887 32.5288C4.0263 31.2509 2.4166 30.2544 2.38711 28.0303C1.81819 30.6107 2.22491 32.6333 3.66749 34.1348C5.02898 35.5516 7.93626 35.9362 8.0407 38.2819" fill="white"/>
<path fill-rule="evenodd" clip-rule="evenodd" d="M3.1438 42.0096C4.88006 43.3023 8.11173 43.1941 8.65116 45.7254C8.67435 45.1876 8.63726 44.6489 8.54057 44.1194C9.04929 41.8142 10.9551 41.0475 13.044 40.0227C14.1745 39.5541 15.1296 38.7429 15.775 37.7032C16.4204 36.6635 16.7236 35.4476 16.6419 34.2266C16.0717 36.7505 12.8425 36.603 11.0891 37.8735C10.181 38.5834 9.46791 39.5121 9.01661 40.5727C8.5653 41.6333 8.39052 42.791 8.50863 43.9376C8.29818 43.0462 7.88349 42.2159 7.29729 41.5122C6.71109 40.8085 5.9694 40.2506 5.13073 39.8826C3.01601 38.8074 1.08437 38.0173 0.649386 35.604C0.499476 38.5137 1.30801 40.642 3.14871 42.0084" fill="white"/>
<path fill-rule="evenodd" clip-rule="evenodd" d="M3.80183 49.8595C5.88214 50.9285 9.30428 50.238 10.3278 52.8381C10.2571 52.2612 10.1219 51.694 9.92481 51.1473C10.0575 48.6012 11.9511 47.4511 13.9945 45.9864C15.1153 45.2862 15.9883 44.2523 16.4908 43.0301C16.9934 41.8079 17.1002 40.4589 16.7961 39.1729C16.6376 41.9634 13.1712 42.3787 11.5296 44.0437C9.85231 45.7456 9.3178 48.0409 9.85354 50.9642C9.47077 50.0511 8.88082 49.2396 8.13034 48.5938C7.37987 47.9481 6.48944 47.4858 5.52948 47.2435C3.08545 46.4742 0.887175 45.9754 0 43.4822C0.357573 46.6069 1.59741 48.7266 3.80183 49.8583" fill="white"/>
<path fill-rule="evenodd" clip-rule="evenodd" d="M13.1405 59.0738C12.975 58.5178 12.7479 57.982 12.4635 57.4764C12.1747 54.9439 13.8544 53.4976 15.6275 51.7134C16.6178 50.8383 17.3088 49.6746 17.6032 48.3863C17.8977 47.098 17.7809 45.7497 17.2692 44.5312C17.5727 47.3095 14.2206 48.2901 12.8763 50.2033C11.5026 52.1582 11.3526 54.504 12.3627 57.3043C11.8351 56.468 11.1203 55.7657 10.2748 55.2528C9.42925 54.74 8.47613 54.4306 7.4906 54.3491C4.95318 53.9928 2.69838 53.8576 1.41309 51.55C2.27937 54.574 3.85097 56.4651 6.21145 57.2146C8.43922 57.9249 11.7016 56.6814 13.1393 59.0787" fill="white"/>
<path fill-rule="evenodd" clip-rule="evenodd" d="M16.9437 64.7611C16.6892 64.2389 16.3772 63.7468 16.0135 63.2939C15.3119 60.8437 16.7299 59.1406 18.186 57.0886C19.0189 56.0625 19.5091 54.8011 19.5875 53.4818C19.666 52.1626 19.3288 50.852 18.6235 49.7344C19.3792 52.4254 16.236 53.9442 15.2247 56.0515C14.1913 58.2068 14.4309 60.55 15.887 63.1403C15.2285 62.4025 14.4078 61.8276 13.4895 61.4609C12.5711 61.0941 11.5802 60.9455 10.5947 61.0268C8.03266 61.0932 5.7926 61.334 4.13867 59.2672C5.49032 62.1069 7.35192 63.7092 9.80455 64.0594C12.1183 64.3949 15.1313 62.6304 16.945 64.7574" fill="white"/>
<path fill-rule="evenodd" clip-rule="evenodd" d="M21.6272 69.7435C21.2911 69.2705 20.9033 68.8365 20.4709 68.4495C19.3749 66.1481 20.4943 64.2349 21.5916 61.9715C22.2442 60.8223 22.5201 59.4974 22.3803 58.1832C22.2406 56.869 21.6922 55.6318 20.8125 54.6455C22.002 57.1756 19.15 59.192 18.5 61.4357C17.8352 63.7311 18.457 66.0031 20.3198 68.3169C19.549 67.6975 18.645 67.2655 17.6788 67.0548C16.7127 66.8441 15.7109 66.8606 14.7522 67.1028C12.2369 67.5943 10.0657 68.1964 8.09473 66.4294C9.89611 69.0099 11.9949 70.2829 14.4733 70.2288C16.808 70.1785 19.4928 67.9421 21.6309 69.7373" fill="white"/>
<path d="M36.4638 27.9521H33.4238V34.6221H34.1638V31.3221H36.3838V30.6221H34.1638V28.6521H36.4638V27.9521ZM41.8877 34.6221H42.7077L39.7177 27.6321L36.6477 34.6221H37.4677L38.2677 32.7421H41.1077L41.8877 34.6221ZM38.5577 32.0421L39.6977 29.3721L40.8177 32.0421H38.5577ZM43.6484 27.9521V34.6221H44.3884V27.9521H43.6484ZM46.1093 27.9521V34.6221H46.8493V31.7021H47.0393L49.0693 34.6221H49.9693L47.8493 31.6421C48.8593 31.5721 49.5293 30.8221 49.5293 29.8021C49.5293 29.0921 49.1893 28.5821 48.7993 28.3221C48.2993 27.9821 47.6293 27.9521 47.1793 27.9521H46.1093ZM46.8493 28.6521H47.2993C47.6193 28.6521 47.9593 28.6721 48.2593 28.8421C48.6793 29.0821 48.7893 29.4521 48.7893 29.8221C48.7893 30.6021 48.2393 31.0421 47.3193 31.0421H46.8493V28.6521ZM56.9028 31.9721H58.8828C58.8628 32.3921 58.7328 32.7121 58.6128 32.9221C58.2328 33.5921 57.4628 34.0421 56.5728 34.0421C55.3128 34.0421 53.8628 33.1221 53.8628 31.3021C53.8628 29.7521 54.9828 28.5421 56.5928 28.5421C57.3928 28.5421 57.8928 28.8421 58.2128 29.1021C58.4328 29.2821 58.6528 29.5221 58.8428 29.7921L59.3928 29.2921C59.2028 29.0321 58.9228 28.7321 58.6228 28.5021C57.9728 28.0021 57.2228 27.8421 56.5828 27.8421C54.5928 27.8421 53.1028 29.3521 53.1028 31.2921C53.1028 33.2321 54.5828 34.7421 56.5628 34.7421C58.0928 34.7421 58.8428 33.8121 59.0428 33.5421C59.4628 32.9721 59.6828 32.1721 59.6828 31.4321V31.2721H56.9028V31.9721ZM65.5009 34.6221H66.3209L63.3309 27.6321L60.2609 34.6221H61.0809L61.8809 32.7421H64.7209L65.5009 34.6221ZM62.1709 32.0421L63.3109 29.3721L64.4309 32.0421H62.1709ZM67.7916 34.6221L68.4516 29.9821L70.6916 34.9021L72.9616 29.9821L73.5916 34.6221H74.3516L73.3116 27.5721L70.7016 33.2121L68.1416 27.5821L67.0316 34.6221H67.7916ZM79.3545 27.9521H75.8945V34.6221H79.3545V33.9221H76.6345V31.3321H79.2745V30.6321H76.6345V28.6521H79.3545V27.9521ZM40.5782 40.9521V47.6221H42.3082V45.0621L43.9682 47.6221H46.1182L44.0282 44.8921C44.3382 44.8321 44.6882 44.6821 44.9482 44.4321C45.2782 44.1121 45.4782 43.6121 45.4782 43.0421C45.4782 42.5121 45.2882 41.9321 44.9082 41.5421C44.4182 41.0321 43.7782 40.9521 43.2782 40.9521H40.5782ZM42.3082 42.2921H42.6382C43.0182 42.2921 43.3082 42.3921 43.4682 42.5521C43.6182 42.6921 43.6982 42.9121 43.6982 43.1121C43.6982 43.3221 43.6082 43.5421 43.4782 43.6721C43.2682 43.8721 42.8982 43.9421 42.6382 43.9421H42.3082V42.2921ZM51.3277 47.6221H53.1777L50.6677 40.9521H48.7777L46.2177 47.6221H48.0477L48.4977 46.5021H50.9177L51.3277 47.6221ZM48.9777 45.1821L49.7077 43.0221L50.4577 45.1821H48.9777ZM57.7673 40.9521H53.9473V47.6221H55.6773V45.0021H57.5773V43.5321H55.6773V42.4221H57.7673V40.9521ZM62.6209 40.9521H58.8009V47.6221H60.5309V45.0021H62.4309V43.5321H60.5309V42.4221H62.6209V40.9521ZM63.6544 40.9521V47.6221H67.4644V46.1521H65.3844V40.9521H63.6544ZM72.1416 40.9521H68.3516V47.6221H72.1416V46.1521H70.0816V45.0021H72.0316V43.5321H70.0816V42.4221H72.1416V40.9521Z" fill="white"/>
</svg>
