<svg width="488" height="463" viewBox="0 0 488 463" fill="none" xmlns="http://www.w3.org/2000/svg">
<g clip-path="url(#clip0_464_17776)">
<path d="M296.307 110.479H293.771V41.042C293.771 30.3833 289.535 20.1613 281.996 12.6245C274.456 5.08766 264.23 0.853529 253.567 0.853516H106.398C101.118 0.853502 95.89 1.89299 91.0122 3.91264C86.1344 5.93229 81.7023 8.89254 77.969 12.6244C74.2357 16.3562 71.2743 20.7865 69.2539 25.6624C67.2334 30.5383 66.1935 35.7642 66.1935 41.0419V421.981C66.1935 427.258 67.2334 432.484 69.2538 437.36C71.2743 442.236 74.2357 446.666 77.969 450.398C81.7022 454.13 86.1343 457.09 91.0121 459.11C95.8899 461.129 101.118 462.169 106.398 462.169H253.567C264.23 462.169 274.456 457.935 281.996 450.398C289.535 442.861 293.771 432.639 293.771 421.981V159.906H296.307L296.307 110.479Z" fill="#3F3D56"/>
<path d="M255.189 11.3096H235.979C236.862 13.4746 237.199 15.8237 236.961 18.1497C236.722 20.4757 235.915 22.7074 234.61 24.6481C233.305 26.5888 231.543 28.179 229.479 29.2785C227.414 30.3781 225.111 30.9533 222.772 30.9535H138.461C136.121 30.9533 133.818 30.3781 131.754 29.2785C129.689 28.179 127.927 26.5888 126.622 24.6481C125.318 22.7074 124.51 20.4757 124.272 18.1497C124.033 15.8237 124.37 13.4746 125.254 11.3096H107.311C99.3482 11.3096 91.7115 14.4716 86.0809 20.0999C80.4504 25.7283 77.2871 33.3621 77.2871 41.3218V421.702C77.2871 425.643 78.0637 429.545 79.5725 433.187C81.0814 436.828 83.2929 440.137 86.0809 442.923C88.8689 445.71 92.1787 447.921 95.8214 449.429C99.4641 450.938 103.368 451.714 107.311 451.714H255.189C259.132 451.714 263.036 450.938 266.679 449.429C270.322 447.921 273.632 445.71 276.419 442.923C279.207 440.137 281.419 436.828 282.928 433.187C284.437 429.546 285.213 425.643 285.213 421.702V41.3218C285.213 37.3805 284.437 33.4778 282.928 29.8366C281.419 26.1953 279.207 22.8868 276.419 20.0999C273.632 17.313 270.322 15.1024 266.679 13.5941C263.036 12.0859 259.132 11.3096 255.189 11.3096V11.3096Z" fill="white"/>
<path d="M180.994 82.1455H95.0056V228.986H180.994V82.1455Z" fill="#E6E6E6"/>
<path d="M267.236 240.487H195.768V406.73H267.236V240.487Z" fill="#E6E6E6"/>
<path d="M267.495 82.1455H195.838V122.565H267.495V82.1455Z" fill="#E6E6E6"/>
<path d="M267.495 133.821H195.838V177.311H267.495V133.821Z" fill="#FF3C4C"/>
<path d="M267.495 188.566H195.838V228.986H267.495V188.566Z" fill="#E6E6E6"/>
<path d="M181.101 240.487H95.1121V304.479H181.101V240.487Z" fill="#E6E6E6"/>
<path d="M181.101 316.885H95.1121V406.866H181.101V316.885Z" fill="#E6E6E6"/>
<path d="M376.419 183.394C376.419 197.368 363.493 195.254 347.549 195.254C331.604 195.254 318.678 197.368 318.678 183.394C318.678 169.421 324.992 144.651 347.549 144.651C370.882 144.651 376.419 169.421 376.419 183.394Z" fill="#2F2E41"/>
<path d="M266.083 157.983C265.568 159.025 265.288 160.167 265.262 161.329C265.236 162.491 265.465 163.645 265.934 164.709C266.402 165.773 267.098 166.721 267.973 167.487C268.848 168.253 269.88 168.817 270.997 169.141L272.452 197.358L284.281 188.655L281.086 163.194C281.506 161.283 281.21 159.284 280.255 157.576C279.299 155.868 277.749 154.57 275.9 153.927C274.051 153.285 272.03 153.343 270.221 154.09C268.412 154.838 266.939 156.223 266.083 157.983V157.983Z" fill="#FFB8B8"/>
<path d="M395.767 317.448C396.408 316.479 396.83 315.381 397.001 314.231C397.173 313.082 397.09 311.908 396.759 310.794C396.427 309.68 395.856 308.652 395.084 307.782C394.312 306.913 393.359 306.223 392.292 305.762L394.389 277.585L381.561 284.736L381.536 310.397C380.88 312.241 380.922 314.261 381.656 316.075C382.39 317.89 383.764 319.372 385.518 320.241C387.272 321.11 389.284 321.306 391.173 320.791C393.062 320.276 394.696 319.087 395.767 317.448Z" fill="#FFB8B8"/>
<path d="M336.689 453.084H346.386L350.999 415.694L336.687 415.695L336.689 453.084Z" fill="#FFB8B8"/>
<path d="M334.216 449.919L353.313 449.918H353.314C354.912 449.918 356.494 450.233 357.971 450.844C359.448 451.455 360.789 452.351 361.919 453.481C363.05 454.611 363.946 455.952 364.558 457.428C365.169 458.904 365.484 460.486 365.484 462.083V462.479L334.216 462.48L334.216 449.919Z" fill="#2F2E41"/>
<path d="M398.386 453.084H408.083L412.696 415.694L398.384 415.695L398.386 453.084Z" fill="#FFB8B8"/>
<path d="M395.912 449.919L415.009 449.918H415.01C416.608 449.918 418.191 450.233 419.668 450.844C421.144 451.455 422.486 452.351 423.616 453.481C424.746 454.611 425.643 455.952 426.254 457.428C426.866 458.904 427.181 460.486 427.181 462.083V462.479L395.913 462.48L395.912 449.919Z" fill="#2F2E41"/>
<path d="M392.851 301.924L392.429 301.847C388.897 301.208 385.322 300.562 382.179 299.886L381.868 299.819L381.867 299.501C381.813 285.169 381.759 270.84 381.679 256.381C374.172 241.254 371.016 224.34 372.563 207.526L372.58 207.348L372.726 207.244C374.094 206.294 375.691 205.726 377.352 205.597C379.013 205.469 380.678 205.785 382.176 206.513C383.641 207.314 384.894 208.453 385.829 209.836C386.765 211.219 387.356 212.806 387.553 214.463C390.412 230.036 393.371 246.162 396.672 262.053L396.684 262.111L396.678 262.17C395.455 275.13 394.191 288.531 392.893 301.498L392.851 301.924Z" fill="#FF3C4C"/>
<path d="M386.529 439.758L386.452 439.394C381.915 417.944 377.536 400.476 373.301 383.584C368.226 363.34 363.417 344.157 358.561 319.333C359.228 350.638 360.777 373.129 362.557 398.981C363.361 410.654 364.192 422.725 365.035 436.817L365.061 437.247L364.631 437.236C349.454 436.847 333.904 435.91 318.867 435.004L318.469 434.98L318.496 434.583C321.343 392.635 322.235 365.376 322.886 345.473C324.261 303.482 324.472 297.027 340.12 261.489C340.713 260.141 344.251 256.158 348.142 256.765L378.929 261.554L378.983 261.825C379.852 266.199 384.163 279.473 390.129 297.843C402.885 337.115 422.161 396.464 428.182 431.84L428.251 432.241L427.848 432.298C419.102 433.54 412.807 434.834 406.719 436.085C400.96 437.27 395.004 438.494 386.897 439.703L386.529 439.758Z" fill="#2F2E41"/>
<path d="M359.772 272.655C351.555 272.656 343.433 269.806 337.61 264.257C336.7 263.728 335.931 262.988 335.367 262.099C334.803 261.211 334.46 260.2 334.368 259.151C334.219 258.191 334.282 257.209 334.552 256.276C334.823 255.342 335.294 254.479 335.934 253.747C330.225 246.84 324.332 239.702 318.69 232.433L318.534 232.232L318.714 231.888C322.406 224.838 326.222 217.549 329.888 210.347C330.143 209.719 330.563 209.171 331.103 208.762C331.644 208.353 332.285 208.098 332.958 208.022C333.544 207.912 334.145 207.922 334.726 208.051C335.308 208.181 335.856 208.428 336.339 208.778L336.346 208.602C336.499 204.956 336.653 201.31 336.81 197.854L336.827 197.485L337.196 197.476C344.244 197.321 351.532 197.16 358.69 196.736L358.963 196.72L362.513 204.637C368.28 204.077 374.082 205.254 379.174 208.017L379.408 208.142L379.381 208.406C377.953 222.012 378.263 235.744 380.305 249.272C380.194 255.448 380.075 261.761 378.821 266.793L378.785 266.94L378.659 267.025C373.064 270.737 366.488 272.697 359.772 272.655Z" fill="#FF3C4C"/>
<path d="M329.526 238.308L329.053 238.091C323.531 235.322 317.993 232.251 312.637 229.28L311.897 229.136C297.794 226.306 290.026 224.748 277.303 217.29L277.205 217.232L277.152 217.131C270.782 204.966 269.005 194.332 270.596 177.897L270.627 177.567L270.957 177.541C272.337 177.429 274.585 177.354 276.758 177.281C278.873 177.211 281.06 177.138 282.401 177.033L282.712 177.008L282.808 177.304C284.475 182.451 285.892 187.252 287.391 192.335C288.932 197.56 290.525 202.96 292.466 208.961C299.57 211.001 318.615 210.391 324.537 209.585C327.954 209.235 331.406 210.814 333.789 213.79L333.899 213.928L333.87 214.101C332.567 222.055 331.07 230.055 329.622 237.792L329.526 238.308Z" fill="#FF3C4C"/>
<path d="M364.24 184.38C369.386 174.969 365.926 163.17 356.512 158.025C347.097 152.881 335.293 156.339 330.147 165.75C325 175.161 328.46 186.96 337.875 192.105C347.29 197.249 359.094 193.791 364.24 184.38Z" fill="#FFB8B8"/>
<path d="M325.005 173.906H332.689L336.079 164.418L336.757 173.906H340.43L342.407 168.371L342.803 173.906H370.091C370.091 168.454 367.925 163.225 364.068 159.37C360.211 155.515 354.98 153.349 349.526 153.349H345.571C340.117 153.349 334.886 155.515 331.029 159.37C327.172 163.225 325.005 168.454 325.005 173.906Z" fill="#2F2E41"/>
</g>
<defs>
<clipPath id="clip0_464_17776">
<rect width="487" height="462" fill="white" transform="translate(0.249023 0.853516)"/>
</clipPath>
</defs>
</svg>
