<svg width="48" height="48" viewBox="0 0 48 48" fill="none" xmlns="http://www.w3.org/2000/svg">
<path d="M36.5685 9.53711C38.1267 9.53711 39.621 10.1561 40.7228 11.2579C41.8245 12.3596 42.4435 13.854 42.4435 15.4121V34.2121C42.4435 35.7703 41.8245 37.2646 40.7228 38.3664C39.621 39.4681 38.1267 40.0871 36.5685 40.0871H10.7185C9.16036 40.0871 7.66603 39.4681 6.56425 38.3664C5.46248 37.2646 4.84351 35.7703 4.84351 34.2121V15.4121C4.84351 13.854 5.46248 12.3596 6.56425 11.2579C7.66603 10.1561 9.16036 9.53711 10.7185 9.53711H36.5685ZM40.0935 18.8455L24.2404 28.175C24.0905 28.263 23.923 28.3166 23.7499 28.3321C23.5768 28.3475 23.4024 28.3243 23.2393 28.2643L23.0466 28.175L7.19351 18.8502V34.2121C7.19351 35.147 7.56489 36.0436 8.22595 36.7047C8.88702 37.3657 9.78362 37.7371 10.7185 37.7371H36.5685C37.5034 37.7371 38.4 37.3657 39.0611 36.7047C39.7221 36.0436 40.0935 35.147 40.0935 34.2121V18.8455ZM36.5685 11.8871H10.7185C9.78362 11.8871 8.88702 12.2585 8.22595 12.9196C7.56489 13.5806 7.19351 14.4772 7.19351 15.4121V16.1218L23.6435 25.7991L40.0935 16.1171V15.4121C40.0935 14.4772 39.7221 13.5806 39.0611 12.9196C38.4 12.2585 37.5034 11.8871 36.5685 11.8871Z" fill="white"/>
</svg>
