<svg width="48" height="48" viewBox="0 0 48 48" fill="none" xmlns="http://www.w3.org/2000/svg">
<path d="M23.6436 3.07422C28.318 3.07422 32.801 4.93113 36.1063 8.23646C39.4116 11.5418 41.2686 16.0248 41.2686 20.6992C41.2686 29.121 35.5845 36.8731 24.4308 43.9701C24.1954 44.1195 23.9224 44.1989 23.6436 44.1989C23.3647 44.1989 23.0917 44.1195 22.8563 43.9701C11.7026 36.8731 6.01855 29.121 6.01855 20.6992C6.01855 16.0248 7.87547 11.5418 11.1808 8.23646C14.4861 4.93113 18.9691 3.07422 23.6436 3.07422ZM23.6436 6.01172C19.7482 6.01172 16.0124 7.55915 13.2579 10.3136C10.5035 13.068 8.95605 16.8039 8.95605 20.6992C8.95605 27.5289 13.4798 34.0883 22.7036 40.357L23.6436 40.9827L24.5836 40.357C33.8073 34.0883 38.3311 27.5289 38.3311 20.6992C38.3311 16.8039 36.7836 13.068 34.0292 10.3136C31.2747 7.55915 27.5389 6.01172 23.6436 6.01172ZM23.6436 16.293C24.2222 16.293 24.7952 16.4069 25.3298 16.6284C25.8643 16.8498 26.3501 17.1744 26.7592 17.5835C27.1684 17.9927 27.493 18.4784 27.7144 19.013C27.9358 19.5476 28.0498 20.1206 28.0498 20.6992C28.0498 21.2779 27.9358 21.8508 27.7144 22.3854C27.493 22.92 27.1684 23.4058 26.7592 23.8149C26.3501 24.2241 25.8643 24.5486 25.3298 24.7701C24.7952 24.9915 24.2222 25.1055 23.6436 25.1055C22.4749 25.1055 21.3542 24.6412 20.5279 23.8149C19.7015 22.9886 19.2373 21.8678 19.2373 20.6992C19.2373 19.5306 19.7015 18.4099 20.5279 17.5835C21.3542 16.7572 22.4749 16.293 23.6436 16.293Z" fill="white"/>
</svg>
