<svg width="48" height="48" viewBox="0 0 48 48" fill="none" xmlns="http://www.w3.org/2000/svg">
<path d="M16.5631 4.99137L14.8805 5.49897C13.3797 5.95103 12.0394 6.82248 11.0173 8.01069C9.9952 9.19891 9.33388 10.6544 9.11121 12.2059C8.41326 17.0657 9.97366 22.748 13.736 29.2645C17.489 35.7646 21.6203 39.9523 26.1675 41.7853C27.6286 42.3742 29.228 42.5311 30.7756 42.2374C32.3233 41.9437 33.754 41.2117 34.8978 40.1286L36.1738 38.9207C37.0005 38.1376 37.5148 37.081 37.6212 35.9473C37.7275 34.8135 37.4186 33.6798 36.7519 32.7566L33.5653 28.3386C33.1345 27.7422 32.5278 27.2955 31.8304 27.0612C31.1329 26.8269 30.3796 26.8167 29.6761 27.032L24.8562 28.5055L24.7317 28.529C24.2006 28.6065 22.9762 27.4574 21.4487 24.8113C19.8507 22.043 19.517 20.4238 19.9588 20.0055L22.4122 17.719C23.3081 16.8832 23.92 15.7879 24.1619 14.5868C24.4038 13.3856 24.2636 12.1389 23.7611 11.0215L22.2101 7.56462C21.7422 6.52335 20.9113 5.68796 19.8726 5.21443C18.8339 4.74091 17.6583 4.66162 16.5654 4.99137H16.5631ZM20.0646 8.52812L21.6179 11.985C21.92 12.6553 22.0044 13.4033 21.8594 14.1241C21.7144 14.8449 21.3473 15.5021 20.8095 16.0035L18.3514 18.2924C16.7769 19.7799 17.2986 22.325 19.4113 25.9863C21.4017 29.4314 23.2159 31.1328 25.1641 30.8367L25.4555 30.7756L30.3623 29.2786C30.5968 29.2066 30.848 29.2098 31.0807 29.2877C31.3133 29.3657 31.5157 29.5145 31.6595 29.7134L34.8461 34.1314C35.1797 34.593 35.3344 35.1602 35.2812 35.7273C35.228 36.2944 34.9707 36.823 34.557 37.2146L33.281 38.4225C32.464 39.1957 31.4422 39.7181 30.337 39.9276C29.2318 40.1372 28.0897 40.025 27.0464 39.6045C23.0561 37.9971 19.2844 34.1737 15.7711 28.0895C12.2508 21.9913 10.8267 16.8048 11.4377 12.5396C11.5967 11.4311 12.0691 10.3911 12.7994 9.5422C13.5296 8.69327 14.4873 8.07073 15.5596 7.74792L17.2446 7.24032C17.7908 7.07617 18.3782 7.11631 18.897 7.35326C19.4159 7.5902 19.8309 8.00778 20.0646 8.52812Z" fill="white"/>
</svg>
