<svg width="51" height="36" viewBox="0 0 51 36" fill="none" xmlns="http://www.w3.org/2000/svg">
<g filter="url(#filter0_dd_1220_5972)">
<path d="M43 27.8936H8C6.93913 27.8936 5.92153 27.4723 5.17139 26.7222C4.42124 25.972 4 24.9544 4 23.8936V11.8936H47V23.8936C47 24.9544 46.5785 25.972 45.8284 26.7222C45.0782 27.4723 44.0609 27.8936 43 27.8936ZM47 6.89355H4V4.89355C4 3.83269 4.42124 2.81558 5.17139 2.06543C5.92153 1.31528 6.93913 0.893555 8 0.893555H43C44.0609 0.893555 45.0782 1.31528 45.8284 2.06543C46.5785 2.81558 47 3.83269 47 4.89355V6.89355Z" fill="#180D1D"/>
</g>
<defs>
<filter id="filter0_dd_1220_5972" x="0" y="0.893555" width="51" height="35" filterUnits="userSpaceOnUse" color-interpolation-filters="sRGB">
<feFlood flood-opacity="0" result="BackgroundImageFix"/>
<feColorMatrix in="SourceAlpha" type="matrix" values="0 0 0 0 0 0 0 0 0 0 0 0 0 0 0 0 0 0 127 0" result="hardAlpha"/>
<feOffset dy="4"/>
<feGaussianBlur stdDeviation="2"/>
<feComposite in2="hardAlpha" operator="out"/>
<feColorMatrix type="matrix" values="0 0 0 0 0 0 0 0 0 0 0 0 0 0 0 0 0 0 0.25 0"/>
<feBlend mode="normal" in2="BackgroundImageFix" result="effect1_dropShadow_1220_5972"/>
<feColorMatrix in="SourceAlpha" type="matrix" values="0 0 0 0 0 0 0 0 0 0 0 0 0 0 0 0 0 0 127 0" result="hardAlpha"/>
<feOffset dy="4"/>
<feGaussianBlur stdDeviation="2"/>
<feComposite in2="hardAlpha" operator="out"/>
<feColorMatrix type="matrix" values="0 0 0 0 0 0 0 0 0 0 0 0 0 0 0 0 0 0 0.25 0"/>
<feBlend mode="normal" in2="effect1_dropShadow_1220_5972" result="effect2_dropShadow_1220_5972"/>
<feBlend mode="normal" in="SourceGraphic" in2="effect2_dropShadow_1220_5972" result="shape"/>
</filter>
</defs>
</svg>
