<svg width="309" height="194" viewBox="0 0 309 194" fill="none" xmlns="http://www.w3.org/2000/svg">
<path d="M286.813 166.21C290.41 166.95 294.101 167.412 297.606 168.522C300.743 169.447 304.064 170.095 306.555 172.593C308.584 174.536 308.769 176.663 307.293 178.699C303.418 183.972 298.805 188.227 292.44 190.355C285.429 192.76 278.233 193.131 270.945 193.686C261.166 194.426 251.572 192.483 241.885 192.113C235.058 191.835 228.324 190.355 221.405 190.17C214.855 189.985 208.213 190.263 201.663 189.8C186.718 188.69 171.772 189.338 156.92 189.43C144.65 189.523 132.38 190.448 120.111 191.003C103.136 191.743 86.069 191.188 69.0944 191.65C55.5332 192.02 42.0642 193.593 28.5029 193.131C20.5691 192.853 13.0043 191.003 6.08531 186.747C1.38038 183.879 0.550103 179.716 1.10362 174.813C1.56489 170.373 4.24024 167.597 8.29939 166.21C10.2367 165.562 11.7128 164.637 12.3585 162.694C12.6353 163.527 12.5431 164.267 12.3585 165.099C11.805 169.447 10.2367 173.611 10.2367 178.051C8.85291 181.011 11.3438 181.937 13.0966 183.047C14.8494 184.157 16.3254 183.232 16.6945 180.919C16.51 180.641 16.3254 180.456 16.0487 180.179C15.5874 177.218 17.986 174.813 17.7092 171.945C19.4621 171.113 19.4621 169.633 19.2776 168.06C19.2776 167.875 19.2776 167.69 19.4621 167.597C20.5691 167.32 20.4768 166.487 20.2923 165.654C20.2001 165.562 20.2923 165.469 20.3846 165.377C21.4916 165.099 21.3071 163.804 22.0452 163.157C25.4585 163.157 28.9642 163.157 32.3775 163.157C32.3775 166.302 32.562 169.447 33.3923 172.5C33.7613 173.148 33.0233 174.166 34.0381 174.628C34.1304 175.183 34.2226 175.738 34.3149 176.293C34.3149 177.311 34.4071 178.329 34.4071 179.346C34.5916 180.826 36.0677 180.641 36.9902 181.289C38.4663 182.399 39.8501 182.492 40.9571 180.734C42.1564 178.791 39.9423 178.791 39.2966 177.866C38.9275 173.425 40.2191 169.077 40.9571 164.729C41.8796 165.099 42.7099 165.747 43.7247 165.84C49.5367 166.58 55.1641 167.967 61.0684 168.06C64.0205 168.152 66.9726 167.32 69.9247 167.505C69.2789 171.205 67.7106 174.536 66.9726 178.236C66.4191 180.826 68.4486 181.197 69.7402 182.307C70.2937 182.769 71.0317 181.937 71.5853 181.474C72.231 181.011 71.6775 180.456 71.4007 180.086C70.9395 179.254 70.6627 178.514 71.124 177.589C73.1536 173.518 75.0909 169.447 77.0282 165.377C77.5817 166.117 77.9507 167.042 79.3345 166.857C83.3014 166.395 87.1761 166.117 91.143 165.932C92.8958 165.84 94.0951 165.284 94.7409 163.712C95.3866 168.8 96.3092 173.888 96.6782 179.069C96.8627 181.382 98.062 181.937 99.8148 182.677C101.014 183.139 101.383 182.399 102.029 181.752C102.767 180.919 102.121 180.456 101.568 179.994C100.737 179.346 100.276 178.606 100.368 177.496C101.014 170.003 100.461 162.509 101.475 155.016C102.398 156.311 101.937 157.884 101.937 159.271C102.029 164.082 102.306 164.359 107.011 163.712C107.38 163.619 107.749 163.527 108.025 163.434C113.653 162.509 119.28 161.676 124.908 161.584C144.742 161.399 164.577 161.491 184.319 161.491C184.503 166.58 184.78 171.575 184.965 176.663C184.78 176.756 184.596 176.848 184.503 176.941C183.489 178.051 180.721 177.959 181.275 179.901C181.92 182.029 184.134 180.364 185.703 180.456C188.378 180.734 189.208 179.346 188.655 176.848C189.946 176.663 189.762 175.738 189.946 174.813C190.961 170.373 191.053 165.747 192.53 161.491C200.187 162.047 207.751 162.602 215.408 163.157C216.884 168.245 218.361 173.333 219.744 178.329C219.191 178.976 218.545 179.624 217.991 180.364C217.161 181.567 218.176 182.677 218.914 182.492C220.944 182.029 223.065 181.382 224.91 180.364C226.11 179.716 224.91 178.051 225.003 176.848C225.556 172.685 223.803 168.8 223.988 164.729C228.693 164.637 233.306 165.747 238.01 165.284C243.73 164.637 249.542 165.469 255.262 165.377C259.875 165.284 259.875 165.377 260.889 161.584C262.181 166.58 263.472 171.575 264.764 176.663C264.764 177.496 263.934 177.774 263.565 178.421C263.288 178.884 262.273 179.254 263.103 179.901C263.749 180.364 264.21 181.659 265.318 180.919C266.517 180.179 268.085 179.901 268.731 178.514C269.561 174.166 268.823 169.818 269.192 165.469C270.299 165.469 271.314 165.377 272.421 165.469C274.635 165.655 276.757 166.58 278.971 165.377C280.632 168.985 282.384 172.593 284.045 176.201C283.768 176.663 283.399 177.033 283.122 177.496C282.846 177.959 281.923 178.329 282.753 178.976C283.307 179.439 283.953 179.994 284.598 179.994C286.074 180.086 288.104 177.404 288.012 175.738C288.473 172.315 286.997 169.355 286.813 166.21Z" fill="#F6F6F6"/>
<path d="M99.4456 67.2222C100.737 63.1517 101.106 58.9887 101.66 54.7331C101.752 53.7155 101.844 52.7904 102.121 51.8652C106.272 52.5128 110.516 53.0679 114.667 53.7155C123.616 55.1032 132.565 56.8609 141.605 57.8785C141.974 59.6362 141.144 61.3015 140.867 62.9667C138.1 80.6365 135.24 98.3062 132.472 115.976C124.908 114.866 117.343 113.663 109.778 112.553C109.686 112.368 109.501 112.276 109.409 112.091C107.195 105.337 105.627 98.3062 102.859 91.7379C102.305 90.4427 103.044 89.7951 104.151 89.2401C105.627 88.4075 107.472 88.2224 108.21 86.3722C110.701 80.6365 113.191 74.9932 115.682 69.2575C116.051 69.165 116.328 68.9799 116.697 68.7949C118.727 67.7773 117.804 65.9271 117.62 64.5394C117.343 63.2442 115.959 64.0768 115.036 64.1693C112.822 64.3544 112.822 66.4821 111.9 67.8698C108.394 70.8302 105.811 74.7157 103.044 78.3237C101.291 80.6365 99.8146 80.8215 97.8773 78.9712C98.1541 77.6761 98.4308 76.2884 98.7999 74.9932C99.0766 72.4029 99.2611 69.8126 99.4456 67.2222Z" fill="#F18C9B"/>
<path d="M289.118 69.7214C289.026 72.2193 291.056 73.5144 292.347 74.7171C296.037 78.14 296.13 82.0255 295.484 86.5586C293.731 98.4927 292.255 110.427 290.594 122.453C290.225 125.414 289.487 128.282 289.211 131.242C289.026 133.092 288.196 133.647 286.443 133.555C285.059 133.462 283.583 133.74 282.107 133.832C281.185 133.37 280.17 133.647 279.155 133.647C271.775 133.647 264.394 133.74 257.106 132.722C256.645 132.63 256.184 132.63 255.815 132.537C251.94 132.352 251.571 131.982 250.925 128.097C250.372 124.304 250.28 120.603 250.372 116.81C252.125 116.44 253.97 116.07 255.723 115.7C262.088 115.422 268.177 113.942 274.45 113.387C275.834 113.295 276.018 112.462 275.926 111.352C275.465 108.299 275.004 105.246 274.542 102.286C277.218 98.3076 277.125 97.3825 273.62 95.7173C273.159 92.7569 273.343 89.6115 272.144 86.7436C272.144 85.8185 272.144 84.8934 272.051 84.0608C275.004 83.9683 275.373 82.2106 274.727 79.8052C274.45 78.6951 274.173 77.4924 274.266 76.2898C274.266 73.8845 273.159 73.4219 271.037 73.792C265.963 74.5321 260.889 75.1796 255.815 75.8272C256.83 74.9946 257.937 74.2545 258.859 73.3294C260.335 71.7567 262.273 70.2765 261.627 67.6862C261.811 67.5011 262.088 67.3161 262.273 67.1311C263.103 67.1311 263.749 67.7787 264.394 68.1487C267.439 69.5364 269.745 68.7038 271.221 65.6509C271.775 64.4482 272.236 63.1531 272.051 61.7654C273.159 62.228 274.266 62.6905 274.635 64.1707C275.004 65.4659 278.048 65.9284 278.601 64.7258C279.616 62.228 282.292 61.3954 283.491 59.2676C283.399 60.9328 284.044 62.598 284.044 64.2632C284.044 67.5937 285.521 69.0738 289.118 69.7214Z" fill="#969395"/>
<path d="M97.8778 78.8798C99.8151 80.8225 101.291 80.6375 103.044 78.2322C105.812 74.6242 108.395 70.8312 111.9 67.7783C113.192 68.2409 114.391 68.7034 115.683 69.166C113.192 74.9017 110.701 80.545 108.21 86.2807C107.38 88.131 105.535 88.316 104.151 89.1486C103.044 89.7962 102.306 90.3512 102.859 91.6464C105.627 98.2148 107.195 105.246 109.409 111.999C109.502 112.184 109.594 112.277 109.778 112.462C109.778 112.924 109.778 113.387 109.963 113.849C111.255 118.845 112.269 123.933 112.915 129.021C113.376 132.814 112.269 134.85 108.671 136.145C106.55 136.885 104.336 137.44 102.029 137.532C98.3391 137.995 94.5567 138.457 90.8665 138.92C89.8517 139.013 88.8369 139.105 87.9144 139.29C84.132 139.66 80.4419 139.938 76.6595 140.308C75.8292 140.4 75.0912 140.4 74.2609 140.493C69.7405 141.14 69.0947 140.493 69.556 136.145C69.556 135.867 69.6482 135.59 69.6482 135.312C74.7222 134.109 79.9806 133.647 85.1468 132.999C88.5602 132.537 88.9292 132.259 88.4679 129.021C87.5454 122.36 86.4384 115.792 85.6081 109.131C84.9623 104.043 83.8553 98.9549 83.763 93.7742C85.0546 93.0341 87.8222 94.3293 87.3609 91.1838C86.8996 88.131 86.4384 85.1706 86.0693 82.1177C85.8848 80.4525 85.1468 80.0824 83.4862 80.3599C80.9954 80.8225 78.5046 80.915 76.0137 81.1926C75.8292 79.1573 75.0912 77.2145 76.0137 75.1793C78.5046 74.5317 80.9032 73.6066 83.025 72.0339C83.763 72.4964 84.501 72.959 85.3313 73.329C89.0215 74.9943 89.944 74.4392 90.0362 70.2761C90.4975 69.8136 91.1433 69.9061 91.6968 69.9986C93.1729 71.7563 94.6489 73.5141 96.2172 75.2718C96.5862 76.567 97.0475 77.8621 97.8778 78.8798Z" fill="#E84050"/>
<path d="M132.564 115.979C135.332 98.3089 138.192 80.6391 140.959 62.9693C141.236 61.3041 142.066 59.6389 141.697 57.8812C142.712 51.4053 143.727 45.022 144.742 38.5462C145.203 37.8061 145.203 36.5109 146.587 36.4184C148.432 36.3259 147.786 35.3083 147.233 34.3831C144.188 29.2025 139.576 26.0571 134.225 23.6517C133.764 23.4667 133.395 23.5592 133.026 23.9293C132.38 22.6341 131.181 22.2641 129.889 21.9865C126.937 21.4315 124.169 20.4138 121.125 20.5063C121.125 18.101 122.601 16.5283 123.985 14.8631C124.907 13.753 126.014 12.8278 126.937 11.7177C129.335 8.94234 130.535 8.47978 134.04 9.58992C137.915 10.7926 140.775 13.3829 143.174 16.6208C146.587 21.2464 149.354 26.2421 151.292 32.1628C153.045 30.2201 154.521 28.6474 155.904 26.8897C159.41 22.7266 163.562 19.4887 168.359 16.9909C169.558 16.3433 170.85 15.9732 172.141 15.6032C177.492 14.123 179.798 15.0481 182.012 20.0438C183.488 23.3742 185.702 26.6121 184.411 30.5901C184.042 29.2025 182.75 29.0174 181.643 28.9249C178.507 28.4624 175.462 28.0923 172.233 28.3699C170.757 28.5549 169.373 28.6474 167.897 28.9249C162.731 29.9426 158.026 31.7928 154.244 35.6783C153.783 36.1409 152.768 37.066 153.783 37.251C155.443 37.6211 156.273 39.4713 158.119 39.2863C157.75 40.0264 156.55 39.1938 156.366 40.2114C154.705 46.6872 153.967 53.2556 153.137 59.8239C151.845 64.4495 151.384 69.1676 150.554 73.8857C149.354 80.8241 148.247 87.7625 147.233 94.7009C146.033 102.379 144.926 110.058 143.727 117.736C140.037 117.644 136.255 116.811 132.564 115.979Z" fill="#E84050"/>
<path d="M201.663 62.7827C205.353 60.0998 209.228 57.8796 213.841 57.417C214.302 57.787 214.855 58.1571 214.579 58.8972C209.136 66.6682 203.785 74.5317 198.434 82.3027C198.065 82.8578 197.696 83.5054 197.419 84.153C196.774 85.3556 197.05 85.9107 198.434 85.5406C200.279 85.0781 202.124 84.523 203.969 84.2455C206.091 83.8754 207.475 82.8578 208.582 81.0075C211.073 76.752 213.748 72.6815 216.424 68.6109C216.516 68.4259 216.608 68.2409 216.7 68.0559C217.254 67.8708 217.254 67.4083 217.069 66.9457C218.545 66.1131 218.638 64.6329 218.73 63.1527C219.56 61.6725 220.391 60.3774 222.42 60.8399L222.236 60.9324L222.42 60.8399C222.512 61.4875 222.974 61.58 223.435 61.58C223.712 61.6725 223.988 61.7651 224.173 61.8576C224.634 62.2276 225.095 62.5977 225.557 63.0602L225.649 63.1527C225.926 63.3378 226.202 63.6153 226.479 63.8003C227.125 64.7254 228.048 65.373 228.14 66.7607C228.324 71.0163 228.786 75.1793 229.155 79.4348C226.572 80.4525 223.712 80.0824 221.221 81.1926C221.221 82.6728 220.852 84.338 221.221 85.7257C221.59 87.3909 220.76 89.4261 222.697 90.6288C223.066 90.6288 223.527 90.7213 223.896 90.7213C224.357 91.1839 225.095 91.5539 225.188 92.0165C225.833 95.7169 226.664 99.5099 226.203 103.303C225.557 108.576 224.173 113.757 222.881 118.937C222.328 121.065 221.498 121.713 219.468 121.805C215.593 121.99 212.088 120.325 208.398 119.678C206.276 119.308 205.722 118.29 205.907 116.347C206.46 110.149 207.014 103.951 207.475 97.7522C207.567 96.3645 208.213 94.7918 207.198 93.4042C202.678 93.4042 198.157 93.4967 193.822 95.0694C193.176 95.0694 192.53 94.9769 191.976 95.0694C191.146 95.1619 190.131 95.2544 189.947 96.1795C189.67 97.8447 191.146 96.4571 191.607 96.9196C192.069 97.3822 192.438 97.8447 192.807 98.3073C192.715 98.4923 192.715 98.6773 192.622 98.8624C190.5 102.933 189.024 107.281 188.563 111.814C188.194 111.907 187.733 112.092 187.364 112.184C186.81 111.259 186.995 110.334 187.179 109.316C187.825 105.708 188.471 102.008 189.024 98.3998C189.393 96.272 188.748 95.1619 186.349 95.4394C184.965 95.6244 183.489 95.4394 182.013 95.4394C182.29 93.9592 181.736 92.6641 181.46 91.2764C181.46 90.2587 181.829 89.6112 182.936 89.5187C184.135 89.3336 185.334 88.8711 186.534 88.5935C190.869 87.5759 191.146 87.1133 191.792 82.5803C192.899 81.6551 193.084 80.1749 193.822 79.1573C195.298 77.122 194.283 76.567 192.345 76.567C192.53 75.5493 192.53 74.4392 192.899 73.4216C193.637 71.6638 192.622 69.4435 194.283 67.9634C195.298 67.2233 196.497 67.0382 197.604 67.3158C199.634 67.7783 200.648 67.2233 200.648 65.003C200.648 64.4479 200.925 63.9853 201.11 63.4303C201.479 63.2452 201.755 63.1527 201.663 62.7827Z" fill="#292749"/>
<path d="M201.201 63.3385C201.017 63.8936 200.74 64.3561 200.74 64.9112C200.74 67.1315 199.725 67.6865 197.696 67.224C196.589 66.9464 195.389 67.1315 194.374 67.8716C193.913 66.1138 192.345 66.2989 191.053 66.1138C178.415 64.0786 165.776 62.0433 153.137 60.008C153.967 53.4397 154.706 46.8713 156.366 40.3955C159.872 40.8581 163.377 41.4131 166.883 41.8757C172.51 42.8008 178.046 43.8185 183.673 44.7436C189.485 45.6687 195.205 46.6863 201.017 47.5189C203.139 47.7965 203.415 48.9066 203.139 50.7569C202.493 54.7349 201.293 58.7129 201.663 62.8759V62.7834C201.478 62.9684 201.386 63.1535 201.201 63.3385Z" fill="#E84050"/>
<path d="M144.742 38.6383C143.727 45.1142 142.713 51.4975 141.698 57.9733C132.657 56.9557 123.708 55.198 114.76 53.8103C110.608 53.1627 106.365 52.6076 102.213 51.96C101.199 51.775 100.276 51.405 99.2612 51.405C96.1246 51.59 95.9401 49.8323 96.4014 47.427C97.1394 43.0789 97.8774 38.6383 98.5232 34.2903C98.8 32.3475 99.2612 31.0523 101.937 31.5149C110.424 33.0876 119.096 34.2903 127.583 35.6779C128.875 35.863 130.074 36.1405 131.365 35.9555C135.056 37.2506 138.93 37.4357 142.805 37.8982C143.358 38.1758 144.004 38.3608 144.742 38.6383Z" fill="#E84050"/>
<path d="M46.2157 75.5486C46.9537 77.1213 47.8763 79.1566 49.3523 79.2491C50.8284 79.3416 51.0129 76.9363 51.6587 75.6411C53.3192 72.4032 55.072 69.2578 57.9319 66.945C62.3601 63.337 63.9284 63.522 67.6185 67.5926C68.7255 68.8877 70.0171 70.0904 70.1094 71.9406C67.3418 72.2182 64.4819 72.2181 62.1756 74.0684C57.4706 75.271 54.2418 78.1389 51.9354 82.3945C52.858 82.857 53.6882 83.1346 54.4263 83.5046C54.4263 83.7822 54.4263 84.0597 54.4263 84.3372C54.9798 88.6853 55.5333 93.0333 56.0868 97.3814C56.5481 100.619 56.9171 103.857 57.3784 107.095C58.6699 116.716 60.0537 126.245 61.4375 135.866C58.9467 136.514 56.4558 136.792 53.965 137.069C53.227 131.426 52.5812 125.783 51.6587 120.139C50.5516 113.016 49.9981 105.707 48.4298 98.6766C48.153 94.236 47.5073 89.8879 46.5847 85.5399C47.6918 82.5795 47.3228 81.8394 44.3706 80.2667C44.1861 80.1742 43.8171 80.1742 43.6326 80.0817C41.4185 78.694 39.0199 78.1389 36.4369 78.2314C33.6693 77.2138 30.9939 78.3239 28.3186 78.509C27.8573 76.1037 29.2411 74.1609 30.1636 72.1256C31.5474 69.2578 32.839 68.7027 35.9756 69.2578C38.4664 69.7203 40.4037 71.108 42.5256 72.3107C43.5404 73.6983 44.6474 74.901 46.2157 75.5486Z" fill="#E84050"/>
<path d="M272.236 61.5804C272.421 62.9681 272.052 64.2632 271.406 65.4659C269.93 68.5188 267.716 69.3514 264.579 67.9637C263.841 67.5937 263.288 66.9461 262.458 66.9461C261.812 64.4483 259.598 63.2456 258.122 61.3954C258.306 58.62 258.86 55.7521 255.262 54.3645C254.247 53.9944 254.155 52.7918 254.616 51.7741C255.354 50.2939 256.646 49.4613 258.122 49.8314C259.874 50.2939 260.889 50.1089 261.535 48.1662C261.812 47.241 262.827 46.686 263.749 46.3159C265.502 45.5758 267.07 44.5582 268.454 43.1705C270.022 41.5053 271.775 41.4128 273.436 43.078C274.543 44.1881 275.281 44.5582 276.296 42.893C277.31 41.3203 278.694 41.1352 280.17 42.4304C281.185 43.263 282.108 43.263 283.03 42.3379C284.137 41.1352 285.429 41.5053 286.812 41.6903C290.687 42.2454 294.008 43.3555 295.208 47.7036C295.392 48.2587 296.038 48.7212 296.499 49.0913C297.606 49.9239 299.636 50.1089 299.82 51.6816C300.097 54.1794 300.005 56.7698 299.728 59.2676C299.543 60.9328 298.067 61.3029 296.591 61.2103C294.008 61.0253 292.624 62.0429 292.809 64.8183C292.901 67.5012 291.241 68.8888 289.027 69.9065C285.336 69.2589 283.953 67.7787 284.045 64.2632C284.045 62.5055 283.491 60.9328 283.491 59.2676C284.598 57.6024 285.152 56.0297 283.122 54.642C282.477 54.1794 282.384 53.4393 282.384 52.6992C282.2 49.7389 280.17 48.5362 277.587 47.9811C275.189 47.4261 273.343 48.4437 272.052 50.3864C269.561 53.9944 269.838 57.7874 272.236 61.5804Z" fill="#292749"/>
<path d="M67.8946 12.8263C71.9537 12.2712 75.9206 11.7161 79.9798 11.0685C81.4558 10.8835 82.1939 11.0685 82.1939 12.7338C82.2861 14.3065 82.5629 15.7866 82.8396 17.2668C83.1164 18.4695 83.1164 19.3946 81.5481 19.5796C80.072 19.6722 80.6256 20.7823 80.7178 21.6149C81.6403 28.3683 82.4706 35.1217 83.4854 41.7825C83.7622 43.6328 83.5777 44.5579 81.3636 44.7429C76.2896 45.2055 71.308 46.0381 66.3263 46.7782C64.758 35.6767 63.1896 24.5753 61.6213 13.4739C61.8058 13.3813 62.0826 13.2888 62.2671 13.1963C64.2044 13.4739 66.0495 13.1038 67.8946 12.8263Z" fill="#E84050"/>
<path d="M20.6613 165.1C20.5691 165.193 20.4768 165.285 20.5691 165.378C20.2923 166.025 20.0155 166.673 19.7388 167.321C19.6465 167.413 19.5543 167.598 19.5543 167.783C18.8162 168.986 18.2627 170.281 17.986 171.669C17.0634 173.611 16.1409 175.554 15.2184 177.497C13.8346 178.977 12.3585 178.052 10.8824 177.589C11.436 172.779 13.0043 168.153 13.65 163.343C14.1113 160.105 15.8641 157.052 14.8493 153.629C14.9416 153.259 15.0339 152.889 15.1261 152.519C16.1409 151.964 16.0486 150.853 16.3254 149.928C17.4324 146.043 17.4324 142.25 16.5099 138.272C14.8493 131.704 13.9268 125.043 12.6353 118.382C15.9564 115.884 19.1853 113.386 23.5212 112.831C25.274 120.972 26.012 129.298 27.2113 137.532C27.4881 139.752 28.1338 140.955 30.5324 140.585C29.4254 143.453 28.3183 146.32 27.3036 149.188C24.7205 154.461 22.5986 159.735 20.6613 165.1Z" fill="#BCBDC1"/>
<path d="M60.3305 47.794C60.146 47.8865 59.9615 47.8865 59.777 47.9791C58.4854 48.1641 57.1939 47.794 55.9946 48.4416C52.6735 48.8117 49.2601 49.1817 45.939 49.5518C46.0312 49.2742 46.1235 49.0892 46.308 48.8117C47.2305 47.239 49.6291 46.2213 48.5221 44.0935C47.5073 42.0583 45.2009 42.3358 43.2636 42.0583C43.1714 42.0583 43.0791 42.0583 42.9869 41.9658C43.2636 36.6926 41.7876 31.6044 41.234 26.3312C41.1418 25.8687 40.865 25.4061 40.4038 25.4061C39.389 25.4061 38.2819 25.6837 38.1897 24.2035C38.0052 21.9832 37.1749 19.7629 37.5439 17.4501C37.6362 16.71 38.5587 16.895 39.2045 16.8025C42.8024 16.2474 46.4002 15.7849 49.9059 15.2298C51.4742 15.2298 53.0425 14.7672 54.5185 14.3047C55.3488 14.3972 56.2714 14.2122 57.0094 14.7672C58.4854 25.5912 59.9615 36.5076 61.3453 47.3315L61.1608 47.239C60.884 47.5165 60.6073 47.609 60.3305 47.794Z" fill="#E84050"/>
<path d="M23.4286 112.925C19.185 113.48 15.8638 115.977 12.5427 118.475C12.3582 118.475 12.1737 118.475 11.9892 118.568C10.0519 115.422 10.2364 111.814 10.6054 108.484C11.2512 102.748 11.3434 96.92 12.4505 91.2768C12.635 90.1666 12.3582 89.2415 11.2512 88.8715C9.12934 88.2239 9.4061 87.0212 10.1441 85.356C12.3582 80.2679 15.0336 75.2722 16.8786 69.999C19.6462 70.4616 22.5061 73.607 22.3216 76.2898C22.1371 78.6951 21.8603 81.1005 21.4913 83.5058C21.3068 84.5234 21.3068 85.356 22.2293 85.8186C23.9822 86.7437 25.5505 88.3164 27.7645 88.4089C27.949 89.7041 29.2406 89.7966 30.0709 90.5367C31.1779 91.4618 32.7462 91.6468 33.392 93.127C33.2075 94.1447 33.023 95.0698 32.8385 96.0874C32.5617 97.0125 32.0082 97.4751 30.9934 96.92C30.1631 96.55 29.3328 96.2724 28.5026 95.9024C24.6279 94.3297 20.8455 92.6645 16.6019 90.9067C17.1554 94.7922 17.6167 98.0301 17.9857 101.361C18.0779 102.193 18.4469 102.748 19.2772 102.841C19.2772 104.506 19.185 106.264 19.185 107.929C19.185 112.37 19.185 112.37 23.4286 112.37C23.3364 112.462 23.4286 112.647 23.4286 112.925Z" fill="#292749"/>
<path d="M258.214 61.3955C259.69 63.2457 261.904 64.4484 262.55 66.9462C262.366 67.1312 262.089 67.3163 261.904 67.5013C259.783 67.4088 257.937 68.0564 256 68.704C253.602 69.444 251.664 70.8317 250.004 72.682C247.974 74.9948 247.974 74.9948 250.834 76.3824C250.096 79.8979 251.48 83.2283 251.941 86.7438C251.757 87.2989 251.757 87.8539 252.126 88.3165C253.233 97.4752 254.432 106.634 256 115.7C254.247 116.07 252.402 116.44 250.649 116.81C250.373 116.718 250.004 116.718 249.727 116.625C249.266 113.202 248.989 109.779 248.435 106.449C247.605 100.621 246.683 94.6998 245.76 88.8716C245.668 88.409 245.576 87.8539 245.576 87.3914C245.391 84.1535 245.022 80.9155 244.284 77.6776C245.945 76.0124 245.299 74.9948 243.454 73.9771C241.424 72.867 239.21 72.682 237.18 72.0344C234.966 71.9419 232.752 71.8494 230.63 72.5895C230.169 69.8141 232.107 67.8713 232.937 65.5585H232.845C235.059 65.096 237.088 65.466 239.21 66.2061L239.302 66.1136L239.21 66.2061C239.579 66.7612 240.133 67.0387 240.778 67.2238C240.963 67.4088 241.147 67.5938 241.332 67.7788C243.085 69.5366 244.93 71.3868 246.959 73.4221C248.066 69.9991 250.004 67.5013 251.48 64.6334V64.4484H251.295C251.849 64.5409 251.941 64.2634 251.941 63.8008L251.849 63.8933C252.402 63.9858 252.679 63.6158 252.864 63.2457C254.432 62.2281 256.185 61.3955 258.214 61.3955Z" fill="#F18C9B"/>
<path d="M56.0871 97.4741C55.5336 93.126 54.98 88.7779 54.4265 84.4299C57.1019 83.7823 59.9617 84.3373 62.5448 82.8572C64.3899 83.4122 66.1427 82.7646 67.8955 82.5796C70.5709 82.2096 73.3385 81.6545 76.0138 81.2845C78.5047 81.0069 80.9955 80.8219 83.4864 80.4518C85.0547 80.1743 85.7927 80.5444 86.0695 82.2096C86.4385 85.2625 86.8997 88.3154 87.361 91.2758C87.8223 94.4212 85.0547 93.126 83.7631 93.8661C74.5378 94.9762 65.3124 96.2714 56.0871 97.4741Z" fill="#E8E8EA"/>
<path d="M42.9867 41.9678C43.0789 41.9678 43.1712 41.9678 43.2634 42.0603C45.2008 42.3378 47.5071 42.0603 48.5219 44.0955C49.6289 46.3158 47.2303 47.3335 46.3078 48.8137C46.1233 48.9987 46.031 49.2762 45.9388 49.5538C45.4775 50.2013 45.0163 50.9414 44.6472 51.589C42.5254 55.4745 40.2191 56.4922 35.9754 55.4745C33.8536 53.9018 31.3627 53.0692 28.6874 52.8842C25.3663 52.6992 24.2592 53.8093 24.7205 57.1397C24.8127 58.0649 24.905 58.8975 24.9973 59.8226C21.3994 57.7873 19.093 54.8269 19.1853 50.5714C19.2775 46.8709 21.4916 44.1881 25.0895 43.5405C28.7796 42.8929 32.3775 41.3202 36.4367 42.7079C38.2817 43.448 40.7726 42.3378 42.9867 41.9678Z" fill="#292749"/>
<path d="M61.4377 47.4255C59.9616 36.6016 58.4856 25.6852 57.1018 14.8613C58.0243 12.1785 56.1793 11.3459 54.1497 10.6058C52.9504 10.1432 51.8433 9.68065 50.5518 9.95819C48.799 9.68065 47.0462 9.86567 45.2934 9.95819C44.4631 7.46036 46.0314 5.70264 47.5074 4.40747C48.9835 3.1123 51.0131 4.22244 52.4891 5.14756C54.0574 6.16519 55.5335 7.46036 56.7328 8.84804C58.3011 10.6983 59.3159 10.0507 59.9616 8.29297C60.7919 5.98017 62.3602 4.31496 64.0208 2.64974C66.6039 0.151917 67.7109 0.244429 70.1095 3.01979C70.9398 4.03742 71.8623 4.87003 72.2314 6.16519C70.1095 5.98017 67.8954 5.88766 66.3271 7.7379C63.744 7.36785 62.7292 9.68065 61.1609 11.0683C59.8694 12.1785 60.3307 13.0111 61.7145 13.6587C63.2828 24.7601 64.8511 35.8615 66.4194 46.963C64.7588 47.0555 63.0983 47.2405 61.4377 47.4255Z" fill="#292749"/>
<path d="M27.7647 88.3168C25.5506 88.2243 24.0746 86.6516 22.2295 85.7265C21.3069 85.2639 21.3069 84.4313 21.4915 83.4137C21.8605 81.0084 22.1372 78.603 22.3217 76.1977C22.5062 73.6074 19.7386 70.462 16.8788 69.9069C18.8161 68.1492 19.5541 65.6514 20.5689 63.3386C21.4915 61.1183 22.5985 60.5632 24.5358 61.9509C25.0893 62.3209 25.8274 62.506 26.4731 62.7835C26.3809 64.1712 27.1189 64.5412 28.3182 65.0963C30.7168 66.1139 30.9013 63.2461 32.4696 63.1535C34.4992 62.4135 36.1597 63.2461 37.7281 64.3562C39.2041 65.4663 40.7724 66.5765 42.802 66.484C41.695 68.3342 39.9421 70.0919 42.3407 72.2197C42.3407 72.2197 42.3407 72.4047 42.3407 72.4973C40.2189 71.2946 38.2816 69.8144 35.7907 69.4444C32.6541 68.8893 31.3626 69.4444 29.9788 72.3122C29.0562 74.3475 27.6724 76.1977 28.1337 78.6956C27.9492 79.7132 28.3182 80.6383 29.0562 81.3784C30.2555 82.4885 31.4548 83.5062 32.6541 84.5238C32.6541 85.4489 32.6541 86.4666 32.6541 87.3917C31.9161 87.2067 31.5471 87.4842 31.4548 88.2243C30.2555 88.2243 29.0562 88.3168 27.7647 88.3168Z" fill="#969395"/>
<path d="M211.442 48.8136C210.612 48.2585 209.781 47.796 208.951 47.2409C205.169 44.8356 204.338 41.0426 206.829 37.1571C207.752 35.7694 209.043 35.3994 210.612 35.4919C216.054 35.9544 221.221 36.602 226.018 39.7474C230.631 42.8003 231.553 48.8136 227.309 52.5141C225.741 53.9018 223.988 54.9194 221.959 55.567C221.774 54.1793 222.604 53.1617 223.066 52.0515C223.804 50.2938 223.343 48.9986 221.59 48.351C218.176 47.0559 214.763 46.8709 211.442 48.8136Z" fill="#292749"/>
<path d="M91.7885 69.9967C91.235 69.9042 90.5892 69.8117 90.1279 70.2742C89.2976 69.6266 88.0983 69.7192 87.4526 68.794C87.3603 67.6839 88.3751 67.3138 88.9286 66.6663C90.7737 64.1684 90.4969 58.7102 87.8216 56.675C85.423 54.9172 83.5779 57.6001 81.9174 58.7102C78.4117 60.9305 78.4117 64.5385 81.4561 68.239C81.8251 69.5341 83.4857 70.3667 83.1167 72.032C81.0871 73.6047 78.6885 74.6223 76.1054 75.1774C74.5371 74.6223 73.3378 73.7897 73.3378 71.9394C73.3378 71.7544 73.3378 71.5694 73.2455 71.3844C69.2786 66.2037 72.9688 60.9305 73.7068 55.9349C74.6293 49.7366 83.2089 48.3489 87.4526 53.067C89.0209 54.9172 90.2202 56.7675 90.6814 59.1728C90.9582 60.5605 91.6962 61.7631 92.8955 62.4107C95.2019 63.7059 95.2019 65.3711 94.0948 67.4064C93.6335 68.609 92.6188 69.2566 91.7885 69.9967Z" fill="#292749"/>
<path d="M42.4329 72.5884C42.4329 72.4959 42.5251 72.4034 42.4329 72.3109C40.0343 70.1831 41.8794 68.3328 42.8942 66.4826C46.5843 63.4297 48.7984 59.1742 51.4737 55.3812C53.1343 53.1609 55.0716 51.1256 55.9019 48.3503C57.1012 47.7027 58.3927 47.9802 59.6843 47.8877C61.5293 49.5529 61.3448 51.2181 60.2378 53.3459C56.3632 61.3019 52.2118 68.9804 46.2153 75.5488C44.647 74.9012 43.5399 73.6985 42.4329 72.5884Z" fill="#292749"/>
<path d="M166.975 41.7842C163.47 41.3217 159.964 40.7666 156.458 40.3041C156.643 39.2864 157.842 40.119 158.211 39.3789C164.577 37.8062 169.189 34.1058 172.234 28.37C175.37 28.0925 178.507 28.4625 181.644 28.9251C182.751 29.1101 184.042 29.2026 184.411 30.5903C184.227 32.5331 182.843 33.7357 181.367 34.8459C177.031 38.2688 172.234 40.5816 166.975 41.7842Z" fill="#F18C9B"/>
<path d="M142.713 37.8967C138.838 37.4342 135.056 37.2491 131.274 35.954C127.86 33.0861 124.539 30.0332 122.14 26.1477C121.126 24.4825 119.926 22.8173 121.033 20.6895C124.078 20.5045 126.845 21.6146 129.798 22.1697C130.997 22.4472 132.288 22.8173 132.934 24.1124C134.779 29.6632 137.547 34.6588 142.713 37.8967Z" fill="#F18C9B"/>
<path d="M251.295 64.5397C249.819 67.3151 247.881 69.9054 246.774 73.3284C244.745 71.2931 242.992 69.5354 241.147 67.6851C240.962 67.5001 240.778 67.3151 240.593 67.1301C240.778 66.4825 240.87 65.8349 240.224 65.3723C239.763 61.7644 238.287 58.3414 238.656 54.6409C239.671 54.2709 240.778 54.4559 241.7 53.7158C243.361 56.1211 245.114 58.5264 246.774 60.9318C247.881 62.782 249.357 63.9847 251.295 64.5397Z" fill="#969395"/>
<path d="M32.5621 63.1543C30.9015 63.2468 30.8093 66.1147 28.4107 65.097C27.1191 64.542 26.4734 64.0794 26.5656 62.7842C26.8424 61.3966 25.4586 60.934 24.9973 59.9164C24.9051 58.9912 24.8128 58.1586 24.7206 57.2335C24.3515 53.9031 25.3663 52.7004 28.6875 52.978C31.3628 53.163 33.7614 53.9956 35.9755 55.5683C36.0677 58.6212 35.422 61.3966 32.5621 63.1543Z" fill="#F1CCB3"/>
<path d="M211.442 48.812C214.763 46.8692 218.176 47.0543 221.59 48.3494C223.342 48.997 223.804 50.2922 223.066 52.0499C222.604 53.1601 221.774 54.2702 221.959 55.5654C220.39 55.7504 219.56 56.768 219.56 58.3407C219.376 58.7108 219.191 59.0808 219.007 59.5434C217.53 59.3584 216.147 59.0808 214.671 58.8958C214.855 58.1557 214.394 57.7857 213.933 57.4156C215.87 56.768 214.302 56.3055 213.84 55.7504C212.087 53.7151 211.165 51.4948 211.442 48.812Z" fill="#F1CCB3"/>
<path d="M257.291 132.628C264.579 133.646 271.959 133.553 279.34 133.553C280.355 133.553 281.277 133.276 282.292 133.738C281.923 144.84 283.768 155.571 286.812 166.117C286.997 169.263 288.473 172.223 288.381 175.461C287.919 175.091 287.458 175.183 286.997 175.368C287.089 169.448 285.059 163.989 283.86 158.254C282.384 151.408 280.816 144.469 281.554 137.346C281.738 135.126 281 134.293 278.694 134.386C272.328 134.571 265.963 134.201 259.598 133.368C258.121 133.183 258.029 133.738 258.029 135.218C258.029 139.659 259.136 144.099 258.767 148.54C257.199 143.452 257.199 138.086 257.291 132.628Z" fill="#F18C9B"/>
<path d="M62.5448 82.8571C60.054 84.3373 57.1019 83.7822 54.4265 84.4298C54.4265 84.1523 54.4265 83.8747 54.4265 83.5972C59.0392 82.117 60.6998 78.139 62.1758 74.161C64.4821 72.3107 67.342 72.2182 70.1096 72.0332C70.9399 73.6984 70.1096 74.9936 69.2793 76.2888C67.5265 78.9716 64.9434 80.8218 62.5448 82.8571Z" fill="#F18C9B"/>
<path d="M91.7887 69.9973C92.619 69.2572 93.6338 68.6096 94.095 67.4995C95.9401 68.1471 97.6929 67.3145 99.4457 67.3145C99.2612 69.9048 98.9845 72.4026 98.8 74.9929C97.8774 74.6229 97.0471 75.0854 96.2169 75.2705C94.7408 73.5127 93.2648 71.755 91.7887 69.9973Z" fill="#292749"/>
<path d="M66.327 7.64541C67.9876 5.79518 70.1094 5.88769 72.2312 6.07271C71.8622 9.03309 69.0946 10.3283 67.8953 12.7336C66.0502 13.0111 64.2052 13.3812 62.3601 13.1961C64.1129 11.8085 65.8657 10.1432 66.327 7.64541Z" fill="#E84050"/>
<path d="M12.0819 118.476C12.2664 118.476 12.4509 118.384 12.6354 118.384C13.927 125.045 14.8495 131.706 16.5101 138.274C17.5249 142.344 17.4326 146.045 16.3256 149.93C16.0488 150.855 16.1411 151.966 15.1263 152.521C17.6171 144.565 15.3108 136.794 13.927 129.023C13.2812 125.6 12.6354 121.992 12.0819 118.476Z" fill="#BCBDC1"/>
<path d="M45.2005 9.95681C46.9533 9.77179 48.7061 9.58676 50.4589 9.95681C51.0125 12.1771 53.4111 12.7322 54.5181 14.3974C53.042 14.8599 51.4737 15.3225 49.9054 15.3225C49.2597 14.0273 47.6913 13.9348 46.6766 13.1022C45.754 12.1771 44.8315 11.437 45.2005 9.95681Z" fill="#E84050"/>
<path d="M241.608 53.8081C240.778 54.5482 239.579 54.3632 238.564 54.7332C237.549 54.0857 236.627 53.4381 236.442 52.1429C236.165 50.6627 236.719 49.6451 238.103 49.1825C239.486 48.72 240.594 49.09 241.055 50.6627C241.332 51.7729 242.07 52.698 241.608 53.8081Z" fill="#C39B6F"/>
<path d="M14.8489 153.723C15.8637 157.146 14.1109 160.198 13.6496 163.436C13.0039 168.247 11.4356 172.873 10.882 177.683C10.6975 177.776 10.513 177.776 10.4208 177.868C10.4208 173.428 11.8968 169.265 12.5426 164.917C12.6349 164.084 12.7271 163.344 12.5426 162.511C12.6349 162.326 12.6349 162.234 12.6349 162.049C13.1884 161.864 13.2806 161.401 13.1884 160.846C13.3729 160.569 13.5574 160.291 13.1884 160.106C13.9264 159.273 13.7419 158.071 14.0187 157.053C14.2032 155.943 14.4799 154.833 14.8489 153.723Z" fill="#BCBDC1"/>
<path d="M13.9273 156.959C13.7428 157.977 13.835 159.087 13.097 160.012C13.2815 158.994 12.6357 157.699 13.9273 156.959Z" fill="#E8E8EA"/>
<path d="M60.3306 47.7946C60.6073 47.6096 60.9763 47.5171 61.2531 47.332C61.1609 47.8871 60.7918 47.8871 60.3306 47.7946Z" fill="#E84050"/>
<path d="M252.679 63.2461C252.494 63.7086 252.218 63.9862 251.664 63.8937C251.849 63.5236 252.218 63.3386 252.679 63.2461Z" fill="#FCFBFC"/>
<path d="M13.0962 160.754C13.1885 161.309 13.0962 161.679 12.5427 161.957C12.5427 161.494 12.7272 161.031 13.0962 160.754Z" fill="#E8E8EA"/>
<path d="M251.757 63.8008C251.757 64.2633 251.664 64.5409 251.111 64.4484C251.295 64.2633 251.572 64.0783 251.757 63.8008Z" fill="#FCFBFC"/>
<path d="M184.688 161.309C184.411 154.185 184.134 147.062 183.673 139.939C183.396 134.758 184.503 129.67 184.319 124.489C185.426 123.194 185.241 121.529 185.703 120.049C185.795 120.234 185.979 120.419 185.61 120.326C185.61 120.326 185.61 119.956 185.61 119.864C185.795 119.308 185.979 118.661 186.164 118.106C186.164 117.181 186.256 116.256 186.256 115.33C186.994 114.498 185.887 112 188.47 112.833C192.898 114.683 197.419 116.441 201.847 118.291C201.663 119.401 201.57 120.419 201.294 121.436C199.356 130.317 196.127 138.921 195.02 147.987C194.467 152.428 193.083 156.776 192.991 161.309C191.515 165.657 191.422 170.283 190.408 174.631C190.223 175.463 190.408 176.481 189.116 176.666C187.917 176.573 186.625 176.573 185.426 176.481C185.057 171.393 184.872 166.397 184.688 161.309Z" fill="#E84050"/>
<path d="M261.351 161.306C260.428 157.143 259.598 152.888 258.675 148.725C259.044 144.284 258.03 139.844 257.937 135.403C257.937 133.923 258.03 133.368 259.506 133.553C265.871 134.293 272.237 134.756 278.602 134.571C280.908 134.478 281.646 135.311 281.462 137.531C280.724 144.654 282.292 151.593 283.768 158.439C284.968 164.082 287.089 169.633 286.905 175.553C286.167 176.108 285.337 176.293 284.414 176.016C282.753 172.408 281.001 168.8 279.34 165.192C277.68 161.214 276.019 157.328 274.358 153.35C274.082 151.5 274.174 149.465 272.144 148.447C272.237 147.615 272.237 146.875 271.129 146.69C271.868 144.099 270.668 142.157 269.1 139.751C267.901 152.333 268.639 164.544 268.454 176.663C267.347 176.756 266.148 177.496 265.133 176.386C263.934 171.39 262.642 166.302 261.351 161.306Z" fill="#F18C9B"/>
<path d="M221.22 122.636C221.681 124.116 221.773 125.596 221.773 127.169C221.497 139.011 221.866 150.852 223.987 162.509C224.08 163.249 224.356 163.896 224.449 164.637C224.264 168.707 226.017 172.685 225.464 176.756C223.711 177.218 221.681 176.941 220.113 178.236C218.637 173.148 217.161 168.059 215.777 163.064C213.747 155.015 211.256 147.152 209.504 139.011C208.12 132.442 206.09 125.967 205.076 119.306C210.334 120.693 215.592 122.544 221.22 122.636Z" fill="#E84050"/>
<path d="M102.121 137.532C102.029 143.268 101.844 149.004 101.752 154.832C100.83 162.325 101.291 169.819 100.645 177.312C100.553 178.423 100.922 179.163 101.844 179.81C102.398 180.18 103.136 180.643 102.306 181.568C101.752 182.216 101.291 182.956 100.092 182.493C98.3387 181.845 97.1394 181.29 96.9549 178.885C96.5859 173.797 95.7556 168.709 95.0176 163.528C94.095 155.202 94.1873 146.783 90.7739 138.92C94.6486 138.457 98.3387 137.995 102.121 137.532Z" fill="#292749"/>
<path d="M70.2932 167.321C72.5073 160.29 74.8137 153.167 76.9355 146.136C77.5813 144.193 76.5665 142.158 76.6587 140.215C80.4411 139.937 84.1312 139.567 87.9136 139.197C86.8066 143.36 85.6073 147.523 83.67 151.409C81.5481 155.942 79.4263 160.568 77.3045 165.101C75.3672 169.171 73.4298 173.242 71.4003 177.312C70.939 178.33 71.2158 178.977 71.677 179.81C71.9538 180.273 72.5073 180.735 71.8615 181.198C71.308 181.568 70.57 182.493 70.0165 182.03C68.8172 181.013 66.7876 180.55 67.2489 177.96C68.0791 174.444 69.6475 171.021 70.2932 167.321Z" fill="#292749"/>
<path d="M34.6837 176.109C34.5915 175.554 34.4992 174.999 34.407 174.444C35.145 173.704 34.776 172.779 34.8683 171.853C35.4218 165.1 33.5767 158.439 33.669 151.593C33.669 147.985 32.7464 144.285 32.2852 140.677C36.0675 139.752 39.8499 139.104 43.7246 139.012C44.0936 143.73 43.0788 148.448 42.2485 152.981C40.7725 160.937 39.7577 168.986 38.6506 177.034C37.5436 177.959 36.4366 177.034 35.3295 177.034C35.3295 176.572 35.145 176.202 34.6837 176.109Z" fill="#BCBDC1"/>
<path d="M38.6509 177.034C39.7579 168.986 40.7727 160.937 42.2488 152.981C43.079 148.448 44.0016 143.73 43.7248 139.012C44.0938 139.104 44.5551 139.104 44.9241 139.197C43.7248 147.708 42.6178 156.219 41.4185 164.638C40.6805 168.986 39.4812 173.241 39.7579 177.774C39.3889 177.497 39.0199 177.312 38.6509 177.034Z" fill="#BCBDC1"/>
<path d="M220.114 178.145C221.682 176.943 223.711 177.22 225.464 176.665C225.372 177.868 226.479 179.44 225.372 180.18C223.527 181.198 221.405 181.938 219.375 182.308C218.637 182.493 217.623 181.383 218.453 180.18C218.914 179.533 219.56 178.885 220.114 178.145Z" fill="#292749"/>
<path d="M33.6694 172.223C34.0384 161.677 32.2856 151.223 31.8243 140.676C31.9166 140.676 32.1011 140.676 32.1934 140.584C32.6546 144.192 33.5772 147.892 33.5772 151.5C33.5772 158.254 35.33 164.915 34.7764 171.761C34.6842 172.593 35.0532 173.611 34.3152 174.351C33.3004 173.888 33.9462 172.871 33.6694 172.223Z" fill="#BCBDC1"/>
<path d="M10.4215 177.775C10.606 177.682 10.7905 177.682 10.8827 177.59C12.3588 178.052 13.8349 178.977 15.2187 177.497C14.8496 178.607 15.4954 179.347 16.2334 179.902C16.4179 180.18 16.6025 180.365 16.8792 180.642C16.5102 182.955 15.0341 183.88 13.2813 182.77C11.4363 181.568 9.03767 180.735 10.4215 177.775Z" fill="#292749"/>
<path d="M185.334 176.479C186.533 176.572 187.825 176.572 189.024 176.665C189.577 179.162 188.747 180.55 186.072 180.272C184.596 180.087 182.289 181.845 181.644 179.717C181.09 177.867 183.858 177.867 184.873 176.757C184.965 176.665 185.149 176.572 185.334 176.479Z" fill="#292749"/>
<path d="M38.6512 177.034C39.0202 177.219 39.3892 177.497 39.7582 177.682C40.3117 178.607 42.6181 178.607 41.4188 180.55C40.3117 182.307 38.9279 182.215 37.4519 181.105C36.6216 180.457 35.0533 180.642 34.8688 179.162C35.0533 178.422 35.2378 177.774 35.4223 177.034C36.4371 177.034 37.5441 177.959 38.6512 177.034Z" fill="#292749"/>
<path d="M284.506 175.924C285.428 176.202 286.259 176.017 286.997 175.462C287.458 175.277 287.919 175.184 288.38 175.554C288.565 177.219 286.535 179.902 284.967 179.81C284.321 179.717 283.676 179.255 283.122 178.792C282.384 178.145 283.214 177.775 283.491 177.312C283.86 176.757 284.229 176.387 284.506 175.924Z" fill="#292749"/>
<path d="M265.226 176.387C266.24 177.404 267.44 176.757 268.547 176.664C268.731 176.664 268.824 176.757 269.008 176.757C269.1 177.219 269.193 177.774 269.193 178.237C268.547 179.717 266.978 179.995 265.779 180.642C264.672 181.29 264.211 180.087 263.565 179.625C262.735 178.977 263.75 178.607 264.026 178.144C264.395 177.497 265.133 177.219 265.226 176.387Z" fill="#292749"/>
<path d="M269.192 178.239C269.1 177.777 269.008 177.222 269.008 176.759C269.1 167.693 269.1 158.534 269.192 149.468C269.192 148.173 269.008 146.785 269.561 145.49C269.561 152.059 269.653 158.627 269.653 165.195C269.284 169.543 270.022 173.891 269.192 178.239Z" fill="#F18C9B"/>
<path d="M27.1195 149.28C27.673 151.316 26.3814 152.888 25.6434 154.553C24.4441 157.329 23.0603 160.012 22.23 162.972C21.492 163.527 21.6765 164.915 20.5695 165.192C22.599 159.734 24.7209 154.461 27.1195 149.28Z" fill="#E7CDDF"/>
<path d="M16.2336 179.902C15.4033 179.254 14.8498 178.606 15.2188 177.496C16.1413 175.553 17.0639 173.611 17.9864 171.668C18.1709 174.628 15.7723 176.941 16.2336 179.902Z" fill="#E7CDDF"/>
<path d="M17.9858 171.669C18.2626 170.281 18.8161 168.986 19.5541 167.783C19.7387 169.356 19.6464 170.836 17.9858 171.669Z" fill="#E7CDDF"/>
<path d="M35.3299 177.034C35.1454 177.774 34.9608 178.421 34.7763 179.161C34.7763 178.144 34.6841 177.126 34.6841 176.108C35.1453 176.201 35.3299 176.571 35.3299 177.034Z" fill="#BCBDC1"/>
<path d="M19.7384 167.322C20.0152 166.674 20.2919 166.026 20.5687 165.379C20.6609 166.212 20.8454 167.044 19.7384 167.322Z" fill="#E7CDDF"/>
<path d="M16.8792 180.642C16.6947 180.365 16.5102 180.18 16.2334 179.902C16.4179 180.18 16.6947 180.457 16.8792 180.642Z" fill="#E7CDDF"/>
<path d="M115.774 69.2579C114.483 68.7954 113.283 68.3328 111.992 67.8702C112.914 66.5751 112.914 64.3548 115.129 64.1698C116.051 64.0773 117.435 63.2446 117.712 64.5398C117.988 65.9275 118.911 67.7777 116.789 68.7954C116.42 68.9804 116.051 69.0729 115.774 69.2579Z" fill="#F1CCB3"/>
<path d="M96.2172 75.271C97.0474 74.9934 97.8777 74.5309 98.8003 74.9934C98.5235 76.2886 98.2467 77.6763 97.8777 78.9714C97.0474 77.8613 96.5862 76.5661 96.2172 75.271Z" fill="#E7CDDF"/>
<path d="M255.908 115.7C254.34 106.634 253.14 97.4753 252.033 88.3166C257.292 88.6866 262.458 87.669 267.716 87.669C269.193 87.669 270.945 87.5765 272.421 86.6514C273.621 89.5192 273.436 92.6646 273.897 95.625C270.207 99.7881 270.392 101.083 274.82 102.193C275.281 105.246 275.743 108.299 276.204 111.26C276.388 112.37 276.112 113.202 274.728 113.295C268.362 113.942 262.181 115.423 255.908 115.7Z" fill="#E84050"/>
<path d="M251.848 86.7411C251.479 83.3182 250.003 79.9877 250.741 76.3798C252.494 76.1947 254.339 76.7498 256 75.7322C261.074 75.0846 266.148 74.437 271.221 73.6969C273.343 73.3269 274.45 73.8819 274.45 76.1947C274.45 77.3974 274.635 78.5075 274.912 79.7102C275.557 82.208 275.188 83.8732 272.236 83.9657C265.41 84.6133 258.583 85.3534 251.848 86.7411Z" fill="#E84050"/>
<path d="M272.236 61.5801C269.838 57.7872 269.561 53.9942 272.144 50.1087C273.436 48.1659 275.281 47.2408 277.679 47.7034C280.263 48.2584 282.292 49.3686 282.477 52.4215C282.569 53.1616 282.569 53.9017 283.215 54.3642C285.244 55.7519 284.691 57.3246 283.584 58.9898C282.384 61.2101 279.709 62.0427 278.694 64.448C278.233 65.6507 275.096 65.1881 274.727 63.8929C274.451 62.5053 273.436 62.0427 272.236 61.5801Z" fill="#C39B6F"/>
<path d="M251.849 86.7422C258.583 85.447 265.41 84.6144 272.329 83.9668C272.329 84.8919 272.329 85.817 272.421 86.6497C270.945 87.5748 269.285 87.6673 267.716 87.6673C262.458 87.6673 257.292 88.6849 252.033 88.3149C251.664 87.8523 251.664 87.2972 251.849 86.7422Z" fill="#F18C9B"/>
<path d="M256 75.7339C254.339 76.7515 252.494 76.1965 250.742 76.3815C253.232 74.3462 255.631 72.311 255.908 68.7955C257.845 68.1479 259.782 67.5003 261.812 67.5928C262.458 70.2757 260.52 71.6634 259.044 73.2361C258.214 74.1612 257.015 74.9013 256 75.7339Z" fill="#E84050"/>
<path d="M274.728 102.192C270.3 101.082 270.115 99.7871 273.805 95.624C277.311 97.2892 277.403 98.2144 274.728 102.192Z" fill="#C39B6F"/>
<path d="M69.648 135.219C66.8804 134.849 64.2051 135.959 61.3452 135.959C59.9614 126.338 58.6699 116.809 57.2861 107.188C56.8248 103.95 56.4558 100.712 55.9945 97.4739C65.2199 96.2713 74.4452 94.9761 83.6705 93.7734C83.855 98.9541 84.8698 103.95 85.5156 109.13C86.3459 115.791 87.4529 122.36 88.3755 129.021C88.8367 132.258 88.4677 132.536 85.0543 132.999C79.9804 133.646 74.8142 134.109 69.648 135.219Z" fill="#F18C9B"/>
<path d="M83.0245 72.0342C83.3935 70.369 81.8252 69.5364 81.3639 68.2412C83.3935 68.5187 85.2385 70.4615 87.3604 68.7963C88.0061 69.8139 89.2054 69.6289 90.0357 70.2765C89.9435 74.347 89.0209 74.9946 85.3308 73.3294C84.5928 72.9593 83.8547 72.4968 83.0245 72.0342Z" fill="#E8E8EA"/>
<path d="M185.61 120.049C185.149 121.529 185.333 123.194 184.226 124.489C171.219 122.454 158.119 120.326 145.111 118.198C144.65 118.106 144.281 117.921 143.819 117.736C144.926 110.057 146.126 102.379 147.325 94.7003C148.432 87.7619 149.447 80.8235 150.646 73.8851C151.476 69.167 151.846 64.4488 153.229 59.8232C165.868 61.8585 178.507 63.8938 191.145 65.929C192.345 66.1141 194.005 65.929 194.467 67.6868C192.806 69.167 193.821 71.3872 193.083 73.145C192.714 74.0701 192.714 75.1802 192.529 76.2904C192.345 78.3256 191.33 80.2684 191.976 82.3962C191.33 86.9292 191.053 87.2993 186.717 88.4094C185.518 88.687 184.319 89.1495 183.119 89.3346C182.012 89.5196 181.551 90.0747 181.643 91.0923C178.784 90.9073 175.831 90.2597 173.802 93.2201C173.341 93.9602 172.326 94.4227 173.156 95.5329C173.894 96.458 174.54 97.0131 175.831 96.643C177.953 96.0879 180.075 95.7179 182.197 95.2553C183.673 95.2553 185.057 95.4403 186.533 95.2553C188.931 94.9778 189.577 96.0879 189.208 98.2157C188.562 101.824 188.009 105.524 187.363 109.132C187.179 110.15 186.902 111.075 187.548 112C187.179 113.018 186.717 114.128 186.348 115.145C186.348 116.071 186.256 116.996 186.256 117.921C185.703 118.661 185.518 119.308 185.61 120.049Z" fill="#F18C9B"/>
<path d="M249.635 116.625C245.022 117.828 240.225 118.198 235.52 118.753C229.524 119.493 229.431 119.308 228.97 113.11C228.693 110.057 227.863 107.189 227.402 104.228C227.586 100.158 226.848 96.2724 226.295 92.2944C226.11 90.9992 225.741 89.9816 224.081 90.7217C223.712 90.7217 223.25 90.6291 222.881 90.6291C222.42 87.4837 221.959 84.3383 221.405 81.2854C223.988 80.1753 226.848 80.5453 229.339 79.5277C233.306 79.0652 237.181 78.6951 241.148 78.2325C241.424 78.0475 241.793 77.77 242.07 77.585C242.716 77.6775 243.454 77.6775 244.1 77.77C244.93 80.9154 245.299 84.1533 245.391 87.4837C241.055 88.1313 236.904 89.2415 232.476 89.2415C232.476 89.519 232.568 89.704 232.568 89.9816C236.904 89.6115 241.24 89.334 245.668 88.9639C246.59 94.7922 247.513 100.713 248.343 106.541C248.805 109.779 249.174 113.202 249.635 116.625Z" fill="#E84050"/>
<path d="M204.799 118.847C203.785 118.569 202.954 117.459 201.755 118.199C197.327 116.349 192.806 114.591 188.378 112.741C188.471 112.371 188.471 112.001 188.563 111.631C189.947 107.283 191.238 102.934 192.622 98.6789C192.714 98.4939 192.714 98.3089 192.806 98.1238C193.175 97.0137 193.452 95.9961 193.821 94.8859C198.157 93.3132 202.678 93.2207 207.198 93.2207C206.829 97.6613 206.368 102.009 205.999 106.45C205.63 110.613 205.261 114.683 204.799 118.847Z" fill="#FCFBFC"/>
<path d="M214.67 58.8965C216.146 59.0815 217.53 59.359 219.006 59.5441H219.19C219.098 60.7467 218.914 61.9494 218.821 63.152C217.991 64.2622 217.53 65.5573 217.161 66.945C217.069 67.3151 216.884 67.6851 216.792 68.0552C216.7 68.2402 216.607 68.4252 216.515 68.6102C213.932 72.7733 211.164 76.8438 208.674 81.0068C207.567 82.8571 206.183 83.9672 204.061 84.2448C202.216 84.5223 200.371 85.0774 198.526 85.5399C197.05 85.91 196.865 85.2624 197.511 84.1523C197.88 83.5047 198.157 82.8571 198.526 82.302C203.876 74.531 209.227 66.6675 214.67 58.8965Z" fill="#FCFBFC"/>
<path d="M204.799 118.845C205.168 114.682 205.537 110.611 205.906 106.448C206.276 102.007 206.737 97.6593 207.106 93.2188C208.121 94.6064 207.475 96.0866 207.383 97.5668C207.014 103.765 206.368 109.963 205.814 116.162C205.63 118.104 206.183 119.122 208.305 119.492C211.995 120.14 215.501 121.897 219.375 121.62C221.405 121.527 222.328 120.88 222.789 118.752C224.08 113.571 225.464 108.391 226.11 103.118C226.571 99.3245 225.741 95.6241 225.095 91.8311C225.003 91.3685 224.265 90.9985 223.804 90.5359C225.464 89.7958 225.833 90.8134 226.018 92.1086C226.571 96.0866 227.309 100.065 227.125 104.043C225.464 108.761 225.003 113.756 223.619 118.475C223.158 120.047 222.973 121.897 220.944 122.453C215.316 122.36 210.058 120.602 204.799 119.03C205.076 119.03 204.984 118.937 204.799 118.845Z" fill="#292749"/>
<path d="M182.105 95.345C179.983 95.8076 177.861 96.1777 175.739 96.7327C174.448 97.1028 173.71 96.5477 173.064 95.6226C172.234 94.5124 173.248 94.0499 173.71 93.3098C175.739 90.3494 178.691 90.997 181.551 91.182C181.828 92.4772 182.289 93.8649 182.105 95.345Z" fill="#F1CCB3"/>
<path d="M191.884 82.4867C191.238 80.3589 192.253 78.4161 192.437 76.3809C194.467 76.3809 195.389 76.9359 194.005 78.9712C193.175 80.0813 192.991 81.5615 191.884 82.4867Z" fill="#E7CDDF"/>
<path d="M192.622 98.6777C191.238 103.026 189.947 107.374 188.563 111.629C189.024 107.096 190.5 102.748 192.622 98.6777Z" fill="#292749"/>
<path d="M221.313 81.0986C221.774 84.244 222.235 87.3894 222.789 90.4423C220.944 89.2397 221.774 87.2044 221.313 85.5392C220.944 84.244 221.313 82.6713 221.313 81.0986Z" fill="#292749"/>
<path d="M193.821 94.8849C193.452 95.995 193.175 97.0126 192.806 98.1228C192.437 97.6602 191.976 97.1977 191.607 96.7351C191.146 96.2726 189.67 97.5677 189.946 95.995C190.039 95.1624 191.146 94.9774 191.976 94.8849C192.529 94.7924 193.175 94.8849 193.821 94.8849Z" fill="#292749"/>
<path d="M188.563 111.72C188.471 112.09 188.471 112.46 188.378 112.83C185.795 111.997 186.902 114.495 186.164 115.328C186.533 114.31 186.994 113.2 187.363 112.182C187.733 111.997 188.194 111.812 188.563 111.72Z" fill="#292749"/>
<path d="M217.161 66.8516C217.53 65.4639 218.084 64.2613 218.822 63.0586C218.73 64.5388 218.637 66.019 217.161 66.8516Z" fill="#292749"/>
<path d="M222.42 60.8379C222.789 61.1154 223.158 61.3004 223.435 61.578C222.974 61.578 222.512 61.4855 222.42 60.8379Z" fill="#292749"/>
<path d="M216.7 68.0535C216.792 67.6835 216.977 67.3134 217.069 66.9434C217.346 67.4059 217.253 67.776 216.7 68.0535Z" fill="#292749"/>
<path d="M216.423 68.6107C216.515 68.4257 216.607 68.2407 216.7 68.0557C216.607 68.2407 216.515 68.4257 216.423 68.6107Z" fill="#BCBDC1"/>
<path d="M32.1931 140.678C32.1009 140.771 31.9164 140.771 31.8241 140.771C31.3629 140.308 30.9016 140.308 30.4403 140.678C28.0417 141.048 27.4882 139.846 27.1192 137.626C25.9199 129.392 25.1819 121.066 23.4291 112.925C23.4291 112.74 23.3368 112.462 23.3368 112.277C23.7058 108.947 22.5988 105.709 22.322 102.471C30.9938 101.268 39.6657 99.9732 48.4297 98.7705C49.9981 105.894 50.5516 113.11 51.6586 120.233C52.5812 125.877 53.1347 131.52 53.965 137.163C51.0128 137.996 47.6917 137.255 44.9241 139.106C44.5551 139.013 44.0938 139.013 43.7248 138.921C39.7579 139.106 35.9755 139.661 32.1931 140.678Z" fill="#F18C9B"/>
<path d="M48.4301 98.6763C39.7582 99.8789 31.0864 101.174 22.3223 102.377C21.3076 102.469 20.2928 102.654 19.1857 102.747C18.3554 102.562 17.9864 102.099 17.8942 101.267C17.4329 97.9362 16.9716 94.6983 16.5104 90.8128C20.754 92.5705 24.6287 94.1432 28.4111 95.8084C29.2414 96.1785 30.0716 96.456 30.9019 96.826C31.9167 97.2886 32.378 96.826 32.747 95.9934C33.485 96.5485 34.1308 97.1961 34.8688 97.6587C36.3449 98.6763 37.7287 98.3988 38.4667 96.826C39.0202 95.5309 38.928 94.3282 37.0829 93.6806C35.7913 93.2181 34.5921 92.9405 33.3005 93.1256C32.747 91.6454 31.0864 91.4604 29.9794 90.5352C29.1491 89.8876 27.8576 89.7951 27.673 88.4075C28.8723 88.4075 30.1639 88.3149 31.3632 88.3149C32.1012 88.5 32.4702 88.2224 32.5625 87.4823C34.3153 87.2973 36.1604 87.4823 37.8209 86.7422C40.1273 86.8348 42.3413 86.4647 44.5554 85.7246C45.2012 85.7246 45.7547 85.7246 46.4005 85.7246C47.4153 89.8876 48.1533 94.2357 48.4301 98.6763Z" fill="#E8E8EA"/>
<path d="M44.7392 85.5412C42.5251 86.2813 40.3111 86.6514 38.0047 86.5589C36.2519 85.8188 34.6836 84.7086 32.7463 84.4311C31.547 83.4135 30.2554 82.3958 29.1484 81.2857C28.4104 80.5456 28.0413 79.713 28.2259 78.6029C30.9012 78.4178 33.6688 77.3077 36.3442 78.3253C38.097 81.7483 40.7723 84.0611 44.5547 85.1712C44.647 85.2637 44.7392 85.3562 44.7392 85.5412Z" fill="#F18C9B"/>
<path d="M66.3272 7.6458C65.8659 10.1436 64.1131 11.7163 62.3603 13.289C62.1758 13.3815 61.899 13.4741 61.7145 13.5666C60.3307 12.919 59.9617 12.0864 61.161 10.9762C62.7293 9.58855 63.6519 7.36827 66.3272 7.6458Z" fill="#E8E8EA"/>
<path d="M54.6103 14.3994C53.411 12.7342 51.1047 12.1791 50.5511 9.9588C51.8427 9.68126 53.042 10.2363 54.149 10.6064C56.0864 11.3465 57.9314 12.1791 57.1011 14.8619C56.2709 14.3069 55.4406 14.4919 54.6103 14.3994Z" fill="#E8E8EA"/>
<path d="M19.1853 102.747C20.2001 102.654 21.2148 102.469 22.3219 102.377C22.6909 105.615 23.7057 108.853 23.3367 112.183C19.093 112.276 19.093 112.276 19.093 107.743C19.093 106.17 19.1853 104.412 19.1853 102.747Z" fill="#969395"/>
<path d="M33.3928 93.0348C34.6843 92.9423 35.8836 93.1274 37.1751 93.5899C39.0202 94.33 39.1125 95.4402 38.5589 96.7353C37.8209 98.308 36.4371 98.5856 34.9611 97.5679C34.223 97.1054 33.5773 96.4578 32.8392 95.9027C32.9315 94.9776 33.2082 93.96 33.3928 93.0348Z" fill="#F1CCB3"/>
<path d="M241.977 77.4903C241.7 77.6753 241.331 77.9529 241.055 78.1379C237.641 78.4154 234.597 77.3978 231.922 75.1775C231.091 74.4374 230.353 73.7898 230.446 72.4947C232.567 71.7546 234.781 71.8471 236.996 71.9396C237.365 74.9 240.409 75.5476 241.977 77.4903Z" fill="#E84050"/>
<path d="M255.907 68.7031C255.631 72.2186 253.232 74.3464 250.741 76.2891V76.3816C247.881 75.0864 247.881 75.0864 249.911 72.6811C251.572 70.8309 253.601 69.5357 255.907 68.7031Z" fill="#FCFBFC"/>
<path d="M245.668 88.779C241.332 89.1491 236.996 89.4266 232.568 89.7966C232.568 89.5191 232.476 89.3341 232.476 89.0566C236.904 89.0566 241.147 87.9464 245.391 87.2988C245.483 87.7614 245.576 88.3165 245.668 88.779Z" fill="#F18C9B"/>
<path d="M240.594 67.2236C240.778 67.4087 240.963 67.5937 241.147 67.7787C240.963 67.5937 240.778 67.4087 240.594 67.2236Z" fill="#E7CDDF"/>
<path d="M32.7468 84.4287C34.6841 84.7062 36.2525 85.8164 38.0053 86.5565C36.3447 87.2966 34.4996 87.2041 32.7468 87.2966C32.7468 86.3715 32.7468 85.4463 32.7468 84.4287Z" fill="#292749"/>
<path d="M32.7468 87.3924C32.6545 88.1325 32.2855 88.5026 31.5475 88.225C31.6397 87.4849 32.0088 87.2074 32.7468 87.3924Z" fill="#969395"/>
<path d="M87.4524 68.7953C85.2384 70.4606 83.3933 68.5178 81.456 68.2403C78.4116 64.5398 78.5039 60.9318 81.9172 58.7115C83.5778 57.6014 85.4229 54.9185 87.8215 56.6763C90.4968 58.619 90.7736 64.1697 88.9285 66.6676C88.375 67.3151 87.3602 67.6852 87.4524 68.7953Z" fill="#F1CCB3"/>
<path d="M269.469 145.397C268.915 146.692 269.1 148.08 269.1 149.375C269.007 158.441 269.007 167.6 268.915 176.666C268.73 176.666 268.638 176.573 268.454 176.573C268.638 164.454 267.9 152.243 269.1 139.661C270.668 142.066 271.959 144.009 271.129 146.6C270.391 146.137 270.483 145.212 269.93 144.749C269.284 144.287 269.561 145.119 269.469 145.397Z" fill="#F18C9B"/>
<path d="M274.358 153.259C273.344 151.686 272.606 150.113 272.144 148.355C274.266 149.373 274.082 151.408 274.358 153.259Z" fill="#F18C9B"/>
<path d="M272.144 148.355C271.775 147.8 271.498 147.245 271.129 146.598C272.236 146.783 272.329 147.523 272.144 148.355Z" fill="#F18C9B"/>
</svg>
