<svg xmlns="http://www.w3.org/2000/svg" width="164.476" height="164.476" viewBox="0 0 164.476 164.476"><title> Loader Start</title><circle cx="82.238" cy="82.238" r="82.238" style="fill:#FF3C4C"/><path d="M145.255,100.844a11.839,11.839,0,0,1-5.249,3.872,3.868,3.868,0,0,1-4.971-1.91c-.97-1.837-1.8-4.034-2.7-5.932,2.044-1.258,4.126-2.349,6-3.726,6.183-4.548,9.058-13.33,6.985-21.044-2.029-7.551-7.8-10.194-14.834-11.15-.88-.12-35.643-.242-35.643-.242a3.072,3.072,0,0,1,2.008,3.738C94.315,77.51,89.1,111.729,89.1,111.729A14.057,14.057,0,0,1,84.891,120s16.711-.075,17.682-.038c2.272.088,2.841-.818,3.151-2.817.925-5.96,2.055-11.889,3.1-17.811,2.707-.695,4.366.621,5.342,2.567,1.585,3.16,2.87,6.472,4.238,9.738,3.162,7.546,10.113,10.493,17.349,7.793,8.742-3.262,9.5-18.589,9.5-18.589ZM121.514,87.066c-3.8.047-4.038-.06-10.718-.041.794-4.6,1.209-8.518,1.944-12.777,2.217,0,5.714-.171,10.637.041a4.723,4.723,0,0,1,4.41,3.585c1.552,6.714-3.531,9.157-6.273,9.191Z" style="fill:#fff"/><path d="M52.6,112.687,55.554,94.21c.528-3.049,2.6-5.811,5.651-5.821a4.947,4.947,0,0,1,3.9,1.729c2.675-6.907,8.99-3.172,8.99-3.172S69.968,70.607,69,66.2c-.373-1.694-.953-6.746,4.308-6.672,2.933.041,4.133,1.328,5.1,4.712,1.184,4.162,5.3,22.348,5.3,22.348s2.75-19.641,3.626-22.277c.605-1.82,2.351-3.576,3.931-3.819.623-10.264-5.566-18.855-16.572-21.785-16.356-4.355-30.646.271-43.193,11.122-1.584,1.37-1.54,2.729-.215,4.286,2.44,2.867,4.8,5.8,7.191,8.71,2.815,3.431,2.789,3.41,6.048.382,3.688-3.427,7.589-6.57,12.846-7.128,3.5-.371,6.693.486,8.712,3.642,1.987,3.108.785,6.076-1.128,8.624a39.026,39.026,0,0,1-6.278,6.816c-10.626,8.708-21.4,17.235-32.1,25.852-.753.606-1.774,1.324-1.94,2.139-1.1,5.374-2,11-3.058,16.956,3.869-.012,33.624-.344,33.624-.344s-3.5-1.677-2.6-7.077Z" style="fill:#fff"/></svg>