<svg width="133" height="34" viewBox="0 0 133 34" fill="none" xmlns="http://www.w3.org/2000/svg">
<path d="M127.065 15.1058C125.512 14.529 123.851 14.3026 122.2 14.4429C120.549 14.5831 118.95 15.0866 117.517 15.9172C116.083 16.7478 114.851 17.8849 113.909 19.2473C112.966 20.6097 112.337 22.1636 112.065 23.7978C111.885 24.855 111.887 25.9352 112.071 26.9918C111.041 27.6588 109.223 28.7488 109.671 25.7918C110.61 19.6528 111.357 15.4138 112.309 9.78478C112.477 8.78978 112.502 8.45078 111.509 8.47078C110.034 8.50078 110.059 8.44378 107.947 8.44378C105.712 8.44378 105.321 7.92378 104.958 10.5208C104.902 10.9208 104.658 12.6278 104.576 13.0208L104.136 9.13178C104.015 8.47578 104.113 8.21378 103.459 8.04878C102.894 7.90578 102.332 7.74278 101.759 7.64278C97.059 6.82578 92.25 8.77478 90.614 12.7518C90.414 13.2318 90.348 13.5678 90.201 13.9708L89.526 8.93678C89.42 8.38378 89.371 8.19478 88.792 8.04878C88.213 7.90278 87.611 7.74278 87.038 7.64278C82.338 6.82578 77.659 8.71878 76.166 12.7518C75.42 14.7678 75.945 14.8728 72.866 14.9238C72.642 14.9238 72.179 15.1388 72.14 15.3238C71.822 16.8298 71.579 18.3518 71.29 20.0008H74.378C73.978 22.2808 73.807 24.2078 73.416 26.4538C72.416 26.8078 70.377 28.3728 68.778 27.3538C68.6443 26.9539 68.5969 26.5303 68.639 26.1108C68.903 24.5508 69.208 22.9978 69.474 21.4388C70.007 18.3228 68.979 16.4618 66.088 15.3048C64.3579 14.6357 62.5032 14.3502 60.652 14.4678C58.0087 14.4931 55.4339 15.3114 53.261 16.8168C52.624 17.2818 52.511 17.7048 53.061 18.3168C53.6056 18.9152 54.1113 19.5478 54.575 20.2108C55.041 20.8868 55.436 20.9378 56.156 20.4738C56.8541 19.9388 57.6677 19.5746 58.5317 19.4103C59.3958 19.246 60.2863 19.2863 61.132 19.5278C61.4236 19.5744 61.6987 19.6944 61.9311 19.8765C62.1636 20.0587 62.3459 20.297 62.461 20.569C62.576 20.841 62.6199 21.1379 62.5886 21.4315C62.5573 21.7252 62.4518 22.0061 62.282 22.2478C61.422 22.0854 60.5541 21.9672 59.682 21.8938C56.805 21.7798 54.015 22.1338 51.724 24.0718C51.5546 24.216 51.393 24.3692 51.24 24.5308C50.2952 25.513 49.2317 26.3736 48.074 27.0928C47.7073 27.2446 47.2963 27.2499 46.9259 27.1075C46.5554 26.9652 46.2537 26.6861 46.083 26.3278C45.694 25.5918 45.362 24.7118 45.002 23.9518C45.821 23.4518 46.655 23.0108 47.402 22.4598C48.6397 21.4808 49.5641 20.1613 50.0616 18.6637C50.5591 17.1661 50.6079 15.5557 50.202 14.0308C49.39 11.0068 47.077 9.94778 44.261 9.56478C43.908 9.51678 29.985 9.46478 29.985 9.46478C30.2858 9.56376 30.5368 9.77493 30.6858 10.0543C30.8349 10.3337 30.8704 10.6599 30.785 10.9648C29.769 16.1958 27.685 29.9018 27.685 29.9018C27.5145 31.165 26.9205 32.333 26 33.2148C26 33.2148 32.693 33.1848 33.082 33.1998C33.992 33.2348 34.22 32.8728 34.344 32.0718C34.715 29.6848 35.167 27.3098 35.586 24.9378C36.0065 24.8042 36.4622 24.8363 36.8598 25.0276C37.2574 25.2189 37.5669 25.5548 37.725 25.9668C38.36 27.2328 38.875 28.5588 39.425 29.8668C39.663 30.5377 40.0345 31.1535 40.517 31.6769C40.9996 32.2003 41.5832 32.6205 42.2326 32.9122C42.882 33.2039 43.5838 33.3609 44.2956 33.3739C45.0073 33.3869 45.7144 33.2556 46.374 32.9878C48.685 32.2088 49.481 28.8938 49.66 28.5348C49.839 28.1758 50.06 33.7588 56.684 33.5348C58.6684 33.5289 60.6119 32.9707 62.297 31.9228C62.7443 32.3159 63.2562 32.6289 63.81 32.8478C69.31 34.6478 72.888 28.7048 72.888 28.7048C72.888 28.7048 72.528 31.8048 72.233 33.2118C74.521 33.2118 76.814 33.2268 78.996 33.1808C79.169 33.1808 79.545 32.6638 79.596 32.4048C80.035 30.0568 80.324 27.7048 80.738 25.3488C81.05 23.5788 81.689 20.0028 81.689 20.0028L88.889 20.0098L86.714 33.2098C86.714 33.2098 91.224 33.2258 93.45 33.1788C93.623 33.1788 93.89 32.6618 93.938 32.4028C94.377 30.0548 94.775 27.7028 95.189 25.3468C95.501 23.5768 95.818 21.8078 96.14 20.0008C97.52 20.0008 98.674 20.0258 99.934 19.9818C100.051 20.0023 100.171 19.9978 100.286 19.9687C100.401 19.9396 100.508 19.8864 100.601 19.8128C100.695 19.7391 100.771 19.6466 100.826 19.5413C100.88 19.436 100.912 19.3203 100.919 19.2018C101.228 17.7018 101.61 14.8638 101.61 14.8638H97.046C97.618 13.0578 100.277 12.5798 102.037 12.9468C102.846 13.0727 103.634 13.3113 104.377 13.6558C104.377 13.6558 103.027 23.0718 102.098 27.6558C101.382 31.1908 102.978 33.4208 106.498 33.6988C107.097 33.7034 107.694 33.6448 108.28 33.5238C109.266 33.2812 110.169 32.7802 110.896 32.0723C111.623 31.3645 112.149 30.4754 112.418 29.4968C112.76 28.5408 113.656 32.3968 118.212 33.4318C120.099 33.9192 122.075 33.9465 123.975 33.5115C125.875 33.0764 127.642 32.1918 129.129 30.9318C129.282 30.7899 129.391 30.6075 129.444 30.4058C129.497 30.2042 129.492 29.9915 129.429 29.7928L128.894 25.7218C129.428 25.7218 129.963 25.7218 130.494 25.7218C131.025 25.7218 131.42 25.6328 131.603 25.0468C132.735 21.4088 131.662 16.8048 127.064 15.1138L127.065 15.1058ZM40.672 20.0178C39.15 20.0368 39.055 19.9938 36.379 20.0018C36.697 18.1608 36.863 16.5898 37.158 14.8838C38.046 14.8838 39.447 14.8148 41.418 14.8998C41.8285 14.9147 42.223 15.0629 42.5419 15.322C42.8607 15.5811 43.0864 15.937 43.185 16.3358C43.3322 16.7451 43.3802 17.1836 43.3252 17.6151C43.2701 18.0466 43.1136 18.4589 42.8683 18.8182C42.6231 19.1775 42.2962 19.4736 41.9144 19.6821C41.5326 19.8906 41.1068 20.0057 40.672 20.0178ZM58.799 29.3788C57.993 29.3228 57.211 29.1448 56.931 28.2068C56.8121 27.7663 56.8583 27.2975 57.0609 26.8886C57.2635 26.4798 57.6085 26.159 58.031 25.9868C59.05 25.5078 61.566 25.5868 61.564 26.5428C61.5415 27.2764 61.2446 27.9749 60.7318 28.5C60.2191 29.0252 59.5279 29.3388 58.795 29.3788H58.799ZM87.754 14.8578H82.591C83.172 13.0238 84.161 12.4978 86.298 12.6658C87.681 12.8116 89.0023 13.3148 90.132 14.1258C90.132 14.8618 89.205 14.8578 87.754 14.8578ZM120.955 19.6778C121.461 19.3476 122.056 19.1796 122.66 19.1962C123.264 19.2128 123.849 19.4133 124.336 19.7708C124.74 20.0673 125.043 20.4807 125.204 20.9551C125.365 21.4294 125.376 21.9418 125.236 22.4228H119.013C119.09 21.8417 119.308 21.2881 119.647 20.8097C119.985 20.3314 120.435 19.9426 120.958 19.6768L120.955 19.6778ZM120.965 28.4768C120.325 28.3401 119.748 27.9934 119.327 27.4918C118.906 26.9901 118.665 26.3622 118.642 25.7078C119.1 25.7078 125.742 25.7078 128.566 25.7078C127.699 26.8508 126.521 27.7196 125.173 28.2101C123.825 28.7005 122.365 28.7917 120.966 28.4728" fill="#FF3C4C"/>
<path d="M12.7346 30.2829L13.9196 22.8829C13.9634 22.2905 14.2141 21.7325 14.6278 21.3064C15.0415 20.8802 15.5919 20.6131 16.1826 20.5519C16.4785 20.5432 16.7726 20.601 17.0433 20.7209C17.3139 20.8409 17.5542 21.0199 17.7466 21.2449C17.857 20.891 18.0484 20.5678 18.3056 20.3009C18.5628 20.034 18.8787 19.8308 19.2282 19.7074C19.5777 19.584 19.9512 19.5438 20.3189 19.5901C20.6867 19.6364 21.0386 19.7678 21.3466 19.9739C21.3466 19.9739 19.6946 13.4279 19.3086 11.6629C19.1596 10.9849 18.9266 8.96286 21.0346 8.99086C22.2086 9.00686 22.6896 9.52286 23.0756 10.8779C23.5496 12.5449 25.1976 19.8289 25.1976 19.8289C25.1976 19.8289 26.2976 11.9619 26.6496 10.9059C26.7675 10.5418 26.9727 10.2122 27.2472 9.94569C27.5217 9.67918 27.8573 9.48389 28.2246 9.37686C28.4736 5.26586 25.9956 1.82486 21.5866 0.65086C15.0326 -1.09314 9.30864 0.75986 4.28364 5.10586C4.14332 5.19758 4.02668 5.32118 3.94325 5.46658C3.85982 5.61197 3.81195 5.77504 3.80357 5.94247C3.79518 6.10989 3.82651 6.27693 3.895 6.42993C3.96349 6.58294 4.06719 6.71758 4.19764 6.82286C5.17464 7.97086 6.12164 9.14486 7.07764 10.3109C8.20464 11.6849 8.19464 11.6769 9.49964 10.4639C10.9766 9.09186 12.5396 7.83286 14.6446 7.60886C15.3053 7.47929 15.9896 7.54877 16.6107 7.80852C17.2318 8.06826 17.7619 8.50655 18.1336 9.06786C18.9336 10.3129 18.4476 11.5019 17.6816 12.5219C16.955 13.5285 16.1111 14.4449 15.1676 15.2519C10.9086 18.7409 6.59664 22.1559 2.30864 25.6069C2.00864 25.8499 1.59864 26.1379 1.53164 26.4639C1.09164 28.6169 0.731641 30.8639 0.306641 33.2549C1.85664 33.2549 13.7736 33.1169 13.7736 33.1169C13.7736 33.1169 12.3736 32.4429 12.7326 30.2829" fill="#FF3C4C"/>
</svg>
