<svg width="123" height="27" viewBox="0 0 123 27" fill="none" xmlns="http://www.w3.org/2000/svg">
<path d="M117.698 12.2141C116.261 11.783 114.723 11.6138 113.195 11.7186C111.668 11.8235 110.188 12.1998 108.861 12.8205C107.534 13.4413 106.394 14.2912 105.522 15.3095C104.649 16.3277 104.066 17.4891 103.815 18.7104C103.648 19.5008 103.65 20.3082 103.821 21.098C102.87 21.5963 101.185 22.4118 101.603 20.1988C102.474 15.6104 103.163 12.4431 104.045 8.23844C104.203 7.49523 104.223 7.24132 103.303 7.25667C101.937 7.27969 101.961 7.23684 100.006 7.23684C97.9371 7.23684 97.576 6.84861 97.2393 8.78913C97.187 9.09037 96.9645 10.3644 96.8853 10.6612L96.4781 7.75427C96.3665 7.2637 96.4568 7.06863 95.8516 6.94519C95.3289 6.83838 94.8085 6.71621 94.2786 6.64202C89.9326 6.03185 85.478 7.48756 83.9636 10.4597C83.7807 10.8185 83.7173 11.0693 83.5811 11.3705L82.9561 7.60844C82.8587 7.19463 82.812 7.05392 82.2773 6.94455C81.7546 6.83773 81.1843 6.71557 80.6536 6.64138C76.3068 6.03121 71.9726 7.44535 70.5945 10.4591C69.9038 11.966 70.3901 12.044 67.5419 12.0824C67.3351 12.0824 66.9082 12.2429 66.8702 12.3804C66.5763 13.5061 66.3506 14.6433 66.0837 15.8758H68.9375C68.5699 17.5797 68.4092 19.0194 68.0472 20.6983C67.1197 20.9631 65.2346 22.1329 63.7542 21.3679C63.6305 21.069 63.5868 20.7522 63.6259 20.4386C63.8707 19.2733 64.1518 18.1124 64.399 16.9471C64.8924 14.6177 63.9412 13.2272 61.2648 12.3632C59.6635 11.8631 57.947 11.6497 56.2336 11.7376C53.787 11.7563 51.4037 12.3679 49.3926 13.4933C48.8025 13.8406 48.6988 14.1572 49.2073 14.6139C49.7115 15.061 50.1798 15.5338 50.6092 16.0293C51.0409 16.5346 51.406 16.5723 52.0721 16.2256C52.7186 15.8264 53.4717 15.5549 54.2713 15.4327C55.0709 15.3106 55.8948 15.3412 56.6772 15.5221C57.9239 15.854 58.369 16.6151 57.7417 17.5547C56.9463 17.4333 56.1437 17.3449 55.337 17.2899C52.6749 17.2049 50.092 17.469 47.9709 18.9177C47.8139 19.0254 47.6643 19.1398 47.5226 19.2605C46.648 19.9945 45.6635 20.6375 44.5919 21.1748C44.2526 21.2882 43.8723 21.2921 43.5295 21.1857C43.1867 21.0793 42.9076 20.8707 42.7496 20.603C42.39 20.0529 42.0827 19.3954 41.7492 18.8275C42.5072 18.4508 43.2787 18.1239 43.9725 17.712C45.1176 16.9802 45.9727 15.994 46.4327 14.8748C46.8928 13.7556 46.9376 12.5522 46.5618 11.4127C45.8093 9.14665 43.6708 8.35548 41.0649 8.0715C40.7386 8.03569 27.8518 7.99923 27.8518 7.99923C28.1301 8.07263 28.3628 8.22984 28.5013 8.43818C28.6398 8.64652 28.6736 8.88996 28.5955 9.11787C27.6553 13.0277 25.7219 23.2707 25.7219 23.2707C25.5643 24.215 25.0144 25.0881 24.1624 25.7472C24.1624 25.7472 30.357 25.7248 30.7166 25.7357C31.5594 25.7619 31.7701 25.4914 31.8849 24.8927C32.2279 23.1089 32.6469 21.334 33.035 19.5611C33.424 19.4611 33.8456 19.4849 34.2137 19.6276C34.5817 19.7702 34.8684 20.021 35.0152 20.3286C35.6029 21.2746 36.0789 22.2659 36.5866 23.2432C36.8069 23.7447 37.1507 24.2049 37.5973 24.5961C38.0439 24.9873 38.584 25.3013 39.1851 25.5193C39.7861 25.7373 40.4356 25.8547 41.0944 25.8644C41.7532 25.8741 42.4076 25.7759 43.0181 25.5758C45.1567 24.9938 45.8933 22.516 46.0596 22.2499C46.226 21.9839 46.4327 26.1514 52.56 25.9858C54.3966 25.9815 56.1955 25.5645 57.7552 24.7814C58.1692 25.0753 58.6429 25.3092 59.1555 25.4728C64.2421 26.8211 67.5577 22.3759 67.5577 22.3759C67.5577 22.3759 67.2242 24.6938 66.9518 25.744C69.0689 25.744 71.1917 25.7549 73.209 25.721C73.3675 25.721 73.7167 25.3372 73.7635 25.1415C74.1698 23.3865 74.4375 21.6238 74.8201 19.8681C75.1084 18.5454 75.7001 15.8726 75.7001 15.8726L82.3621 15.8777L80.3494 25.7447C80.3494 25.7447 84.5236 25.7562 86.5838 25.7216C86.7422 25.7216 86.9909 25.3379 87.0352 25.1422C87.4415 23.3871 87.8099 21.6244 88.1932 19.8687C88.4815 18.5461 88.7754 17.224 89.0732 15.8732C90.3508 15.8732 91.4185 15.8924 92.5852 15.8592C92.6933 15.8746 92.8043 15.8713 92.9108 15.8496C93.0173 15.8278 93.1169 15.7882 93.203 15.7331C93.2891 15.6781 93.3599 15.6089 93.4105 15.5302C93.4611 15.4515 93.4906 15.365 93.4968 15.2765C93.7836 14.1521 94.1368 12.0344 94.1368 12.0344H89.9112C90.4411 10.6849 92.9012 10.3273 94.5305 10.6017C95.2794 10.6959 96.0083 10.8744 96.696 11.1319C96.696 11.1319 95.4469 18.1674 94.5867 21.5937C93.9238 24.2352 95.4017 25.902 98.6595 26.1105C99.2135 26.115 99.7665 26.0721 100.309 25.9826C101.222 25.8015 102.057 25.4271 102.731 24.8981C103.404 24.3691 103.89 23.7047 104.14 22.9733C104.457 22.2589 105.285 25.1396 109.502 25.9154C111.249 26.2793 113.078 26.2993 114.836 25.9736C116.595 25.6479 118.231 24.9862 119.606 24.044C119.748 23.938 119.849 23.8017 119.898 23.6509C119.947 23.5001 119.942 23.3412 119.883 23.1927L119.388 20.1502C119.883 20.1502 120.378 20.1502 120.872 20.1502C121.366 20.1502 121.729 20.0862 121.902 19.6455C122.95 16.9266 121.956 13.4856 117.704 12.2218L117.698 12.2141ZM37.7382 15.8854C36.3292 15.8994 36.2413 15.8675 33.7653 15.8732C34.0599 14.4975 34.2136 13.3232 34.4861 12.0485C35.3082 12.0485 36.604 11.9973 38.4289 12.0606C38.8088 12.0719 39.1737 12.1828 39.4687 12.3764C39.7636 12.57 39.9725 12.8359 40.0637 13.1339C40.6388 15.1441 38.7545 15.8758 37.7382 15.8841V15.8854ZM54.5156 22.8806C53.7695 22.8384 53.0456 22.7053 52.7866 22.005C52.6768 21.6754 52.72 21.3247 52.9082 21.0191C53.0964 20.7135 53.4166 20.4741 53.8083 20.3459C54.7517 19.9877 57.0795 20.0497 57.0787 20.7616C57.0579 21.3099 56.783 21.832 56.3084 22.2245C55.8338 22.617 55.194 22.8514 54.5156 22.8812V22.8806ZM81.3173 12.0286H76.5412C77.079 10.658 77.9947 10.2647 79.9716 10.3907C81.2516 10.4997 82.4745 10.8757 83.5201 11.4818C83.5201 12.0318 82.663 12.0293 81.3197 12.0293L81.3173 12.0286ZM112.052 15.6315C112.52 15.3846 113.071 15.259 113.63 15.2715C114.189 15.284 114.73 15.4339 115.181 15.7012C115.554 15.9232 115.834 16.2324 115.983 16.587C116.131 16.9417 116.141 17.3246 116.011 17.6839H110.252C110.324 17.2497 110.525 16.836 110.839 16.4786C111.152 16.1212 111.569 15.8307 112.052 15.6321L112.052 15.6315ZM112.059 22.2071C111.466 22.1049 110.933 21.8457 110.543 21.4707C110.154 21.0958 109.931 20.6265 109.909 20.1374C110.334 20.1374 116.477 20.1374 119.097 20.1406C118.295 20.995 117.204 21.6445 115.957 22.011C114.709 22.3776 113.356 22.4457 112.062 22.2071" fill="#FF3C4C"/>
<path d="M11.8835 23.5558L12.9805 18.0246C13.0211 17.5819 13.2532 17.1647 13.6362 16.8462C14.0191 16.5277 14.5287 16.3281 15.0755 16.2824C15.3493 16.2759 15.6213 16.319 15.8717 16.4086C16.1221 16.4981 16.3445 16.6318 16.5226 16.7998C17.5143 14.732 19.8556 15.85 19.8556 15.85C19.8556 15.85 18.3253 10.9591 17.9657 9.63958C17.8271 9.13239 17.6125 7.62039 19.5633 7.64214C20.65 7.65429 21.0952 8.03997 21.4524 9.05244C21.8912 10.2984 23.4167 15.7419 23.4167 15.7419C23.4167 15.7419 24.4361 9.86216 24.7632 9.0729C24.8722 8.80084 25.062 8.55444 25.316 8.35522C25.5701 8.156 25.8806 8.01 26.2206 7.92996C26.4511 4.85992 24.1573 2.28557 20.0774 1.40614C14.011 0.106491 8.7129 1.4912 4.06193 4.73968C3.93211 4.80825 3.82422 4.90063 3.74706 5.00929C3.66989 5.11795 3.62564 5.23981 3.61792 5.36491C3.6102 5.49001 3.63922 5.61482 3.70262 5.72914C3.76602 5.84345 3.862 5.94405 3.98272 6.0227C4.88725 6.88103 5.76327 7.75855 6.64879 8.62967C7.69193 9.65685 7.68322 9.65301 8.89111 8.74415C10.2582 7.72081 11.7045 6.77742 13.653 6.61048C14.2641 6.51289 14.8973 6.56415 15.4723 6.75774C16.0472 6.95133 16.538 7.27853 16.8822 7.69778C17.6188 8.62839 17.1729 9.51678 16.464 10.2792C15.7914 11.0315 15.0102 11.7164 14.1369 12.3195C10.1972 14.9303 6.20286 17.4816 2.23544 20.0611C1.95663 20.2427 1.57803 20.4576 1.51625 20.7007C1.10913 22.3099 0.778842 23.9926 0.382812 25.7771C1.81723 25.7732 12.8474 25.6741 12.8474 25.6741C12.8474 25.6741 11.5508 25.1701 11.8835 23.5558Z" fill="#FF3C4C"/>
</svg>
