<svg xmlns="http://www.w3.org/2000/svg" xmlns:xlink="http://www.w3.org/1999/xlink" viewBox="0 0 286.71 273.54"><defs><style>.cls-1,.cls-6,.cls-7,.cls-8{fill:none;}.cls-2{clip-path:url(#clip-path);}.cls-3{fill:#43bb5b;}.cls-4{fill:#f5bc00;stroke:#ffc400;}.cls-5{fill:#dc1522;}.cls-6{stroke:#e1e1e1;stroke-width:4px;}.cls-7{stroke:#fff;stroke-linecap:round;stroke-width:2px;}.cls-8{stroke:#232323;stroke-width:5px;}.cls-9{fill:#fff;}.cls-10,.cls-11{isolation:isolate;}.cls-11{font-size:23px;fill:#232323;font-family:Arial-BoldMT, Arial;font-weight:700;letter-spacing:0.02em;}</style><clipPath id="clip-path" transform="translate(7.65 21.54)"><path class="cls-1" d="M234.7,91.4a112.69,112.69,0,0,0-16.23-31.79A114,114,0,0,0,28.63,185.38a13.35,13.35,0,0,0,8.64,6.1,13,13,0,0,0,10.2-2.23l44.7-32.47a16.22,16.22,0,0,0,5.67-19.07c-.22-.55-.42-1.12-.6-1.65a30.92,30.92,0,0,1-1.51-9.44,31.46,31.46,0,0,1,1.5-9.43,30.86,30.86,0,0,1,11.13-15.25,29.68,29.68,0,0,1,8.49-4.35,30.42,30.42,0,0,1,18.87,0,30,30,0,0,1,8.48,4.34A31.05,31.05,0,0,1,151,108.7a30,30,0,0,1,4.35,8.47,30.62,30.62,0,0,1,1.5,9.45,30.15,30.15,0,0,1-1.51,9.42c-.2.61-.41,1.22-.65,1.81a16.13,16.13,0,0,0,5.74,18.94l44.7,32.48a13.11,13.11,0,0,0,18.3-3.08c.18-.25.35-.52.52-.78a113,113,0,0,0,10.77-23.57c.41-1.27.8-2.54,1.24-4.09a114.24,114.24,0,0,0-1.24-66.35Z"/></clipPath></defs><g id="Слой_2" data-name="Слой 2"><g id="Слой_1-2" data-name="Слой 1"><g id="Odds_Bar" data-name="Odds Bar"><g class="cls-2"><g id="MEter_Bar" data-name="MEter Bar"><path id="Path_7299" data-name="Path 7299" class="cls-3" d="M36.35,211.8s97-52.34,94.68-53.68-20-49.67-20-49.67L49.69,28.77l-57.34,28L14,211.8Z" transform="translate(7.65 21.54)"/><path id="Path_7300" data-name="Path 7300" class="cls-4" d="M45.69,24.44l70.67,90.68,28.34-3.67v-5.67l61-78.68L58.35-20.9Z" transform="translate(7.65 21.54)"/><path id="Path_7301" data-name="Path 7301" class="cls-5" d="M229.38,219.26l-86.68-61.8-2-48.68,4.67-2.66L203,30.44l76,101.68Z" transform="translate(7.65 21.54)"/></g></g><g id="Ellipse_49" data-name="Ellipse 49"><circle class="cls-1" cx="133.65" cy="147.54" r="126"/><circle class="cls-6" cx="133.65" cy="147.54" r="124"/></g><path id="Line_96" data-name="Line 96" class="cls-7" d="M53.5,34.5l72,93" transform="translate(7.65 21.54)"/><path id="Path_7253" data-name="Path 7253" class="cls-7" d="M197.08,38.12,126.65,127.7" transform="translate(7.65 21.54)"/><g id="Mask_Group_8" data-name="Mask Group 8"><path id="Path_7255-2" data-name="Path 7255-2" class="cls-8" d="M234.69,91.4a112.4,112.4,0,0,0-16.22-31.79A114,114,0,0,0,28.63,185.38a13.35,13.35,0,0,0,8.64,6.1,13,13,0,0,0,10.2-2.23l44.7-32.47a16.22,16.22,0,0,0,5.67-19.07c-.22-.55-.43-1.12-.6-1.65a30.92,30.92,0,0,1-1.51-9.44,31.46,31.46,0,0,1,1.5-9.43,30.84,30.84,0,0,1,11.12-15.25,29.94,29.94,0,0,1,8.49-4.35,30.45,30.45,0,0,1,18.88,0,30,30,0,0,1,8.48,4.34A31.27,31.27,0,0,1,151,108.7a30,30,0,0,1,4.35,8.47,30.62,30.62,0,0,1,1.5,9.45,30.15,30.15,0,0,1-1.51,9.42c-.2.61-.41,1.22-.65,1.81a16.12,16.12,0,0,0,5.73,18.94l44.7,32.48a13.12,13.12,0,0,0,18.31-3.08c.18-.25.35-.52.52-.78a113,113,0,0,0,10.77-23.57c.41-1.27.8-2.54,1.24-4.09a114.24,114.24,0,0,0-1.24-66.35Z" transform="translate(7.65 21.54)"/></g><g id="Group_20878" data-name="Group 20878"><g id="Group_20875" data-name="Group 20875"><path id="Path_7302" data-name="Path 7302" class="cls-9" d="M97.3,42.47a.14.14,0,0,1,.19.08.08.08,0,0,1,0,.07V53a.3.3,0,0,1-.18.28l-3.08,1.07a.31.31,0,0,1-.32-.11l-6.4-8.14a.15.15,0,0,1,0-.21l.06,0,3.12-1.08a.3.3,0,0,1,.33.1l3.46,5.24L94,43.84a.3.3,0,0,1,.2-.29Z" transform="translate(7.65 21.54)"/><path id="Path_7303" data-name="Path 7303" class="cls-9" d="M107.14,49.85a.18.18,0,0,1,0,.24,5.85,5.85,0,0,1-2.8,1.5,4.28,4.28,0,0,1-2.08-8.3l.09,0c2.38-.55,4.15.67,4.76,3.28a3.73,3.73,0,0,1,.09.67.18.18,0,0,1-.16.21h0l-4.62,1.07s.21.9,1.42.62a5.43,5.43,0,0,0,2.09-1,.17.17,0,0,1,.23,0l0,0ZM104,46.52a1,1,0,0,0-1.09-.85l-.12,0a1,1,0,0,0-.86,1.18.53.53,0,0,0,0,.12Z" transform="translate(7.65 21.54)"/><path id="Path_7304" data-name="Path 7304" class="cls-9" d="M112.12,41.78a.2.2,0,0,1,.23.16v0l.27,1.9a.2.2,0,0,1-.17.23h0l-.38.06a1.42,1.42,0,0,0-1.16.79l.68,4.9a.22.22,0,0,1-.19.25l-2.57.36a.23.23,0,0,1-.25-.19l-1.06-7.61a.22.22,0,0,1,.19-.24l1.65-.23c.12,0,.21.08.27.19l.31.61a2.53,2.53,0,0,1,1.81-1.15Z" transform="translate(7.65 21.54)"/><path id="Path_7305" data-name="Path 7305" class="cls-9" d="M122,41.17a.16.16,0,0,1,.17.13.09.09,0,0,1,0,.07l-2.14,8c-.61,2.25-1.79,3.06-3.68,3.15a3.84,3.84,0,0,1-2.55-.68.28.28,0,0,1-.09-.25l.75-1.7c0-.11.11-.14.17-.1a2.78,2.78,0,0,0,1.48.46c.75,0,1.12-.39,1.28-1.26l-1.21.06a.27.27,0,0,1-.27-.19l-2.72-7.09a.15.15,0,0,1,.06-.2l.07,0,3-.14a.29.29,0,0,1,.29.2l1.36,4.58.9-4.69a.27.27,0,0,1,.26-.22Z" transform="translate(7.65 21.54)"/><path id="Path_7306" data-name="Path 7306" class="cls-9" d="M133.89,43.91a.23.23,0,0,1,.21.22l-.43,4.68a.51.51,0,0,1-.21.34,5.72,5.72,0,0,1-3.76.85,5.31,5.31,0,1,1,1-10.58h0a6.06,6.06,0,0,1,3,1.13.23.23,0,0,1,.11.28l-.93,2.09a.23.23,0,0,1-.28.1,4.71,4.71,0,0,0-2.07-.72,2.45,2.45,0,0,0-.45,4.86,1.56,1.56,0,0,0,1.1-.18l.08-.86L129.89,46c-.14,0-.22-.08-.23-.18v-2a.21.21,0,0,1,.2-.23h.06Zm-2.63,2.85v0Z" transform="translate(7.65 21.54)"/><path id="Path_7307" data-name="Path 7307" class="cls-9" d="M143.32,48A4.34,4.34,0,1,1,139.87,43l.08,0a4.07,4.07,0,0,1,3.46,4.61A3.58,3.58,0,0,1,143.32,48Zm-5.68-1.18a1.47,1.47,0,0,0,2.92.3,1.47,1.47,0,0,0-2.9-.47,1.11,1.11,0,0,0,0,.17Z" transform="translate(7.65 21.54)"/><path id="Path_7308" data-name="Path 7308" class="cls-9" d="M152.33,51a4.35,4.35,0,1,1-2.86-5.44l.07,0a4.07,4.07,0,0,1,2.93,5C152.43,50.66,152.38,50.81,152.33,51Zm-5.52-1.81a1.43,1.43,0,1,0,0-.16c0,.06,0,.11,0,.17Z" transform="translate(7.65 21.54)"/><path id="Path_7309" data-name="Path 7309" class="cls-9" d="M163.6,48.78a.23.23,0,0,1,.11.28l-4.32,9.33a.22.22,0,0,1-.29.11l-1.52-.7c-.09,0-.12-.15-.12-.3l0-.58a3.44,3.44,0,0,1-2.67-.16c-2.12-1-2.82-3.19-1.75-5.52S156.28,48,158.4,49a3,3,0,0,1,1.4,1.26L161,47.78a.21.21,0,0,1,.28-.09Zm-5,4a1.26,1.26,0,0,0-.72-1.23,1.49,1.49,0,0,0-1.91.85s0,.09,0,.14c-.45,1-.25,1.84.49,2.18a1.24,1.24,0,0,0,1.4-.25Z" transform="translate(7.65 21.54)"/></g><g id="Group_20876" data-name="Group 20876"><path id="Path_7310" data-name="Path 7310" class="cls-9" d="M106.56,67.16c.07.06.06.17,0,.27A5.57,5.57,0,0,1,104.19,69,4.29,4.29,0,1,1,101.34,61l.32-.1a5.55,5.55,0,0,1,2.86,0c.11,0,.18.13.16.21l-.29,2c0,.13-.1.2-.22.16a2.52,2.52,0,0,0-1.49,0,1.74,1.74,0,1,0,.95,3.35l.08,0a2.66,2.66,0,0,0,1.22-.84.17.17,0,0,1,.28,0Z" transform="translate(7.65 21.54)"/><path id="Path_7311" data-name="Path 7311" class="cls-9" d="M108.27,56.8a.24.24,0,0,1,.26.18l.51,3a2.38,2.38,0,0,1,1.74-1.14,2.53,2.53,0,0,1,3.15,1.72,2.46,2.46,0,0,1,.1.47L115,66.3a.22.22,0,0,1-.18.25l-2.56.45a.2.2,0,0,1-.24-.15v0l-.8-4.57c-.1-.58-.42-.87-.87-.8a1,1,0,0,0-.82,1l.81,4.68a.22.22,0,0,1-.18.25l-2.56.45a.23.23,0,0,1-.26-.18l-1.76-10.12a.23.23,0,0,1,.18-.26Z" transform="translate(7.65 21.54)"/><path id="Path_7312" data-name="Path 7312" class="cls-9" d="M115.88,59.23A.22.22,0,0,1,116,59a6.14,6.14,0,0,1,3.17-1c2.55-.1,3.78,1.2,3.9,4.13l.14,3.82a.23.23,0,0,1-.21.24l-1.86.07a.24.24,0,0,1-.24-.21l-.12-.4a3.65,3.65,0,0,1-2.51.94,2.6,2.6,0,0,1-2.89-2.27,1.94,1.94,0,0,1,0-.34c0-1.45,1-2.45,2.71-2.51a2.28,2.28,0,0,1,2,.71l0-.62a1,1,0,0,0-1-1h-.12a3.93,3.93,0,0,0-1.76.54c-.07.05-.16,0-.22-.11Zm4.15,4.4a1.09,1.09,0,0,0-.83-.34.54.54,0,0,0-.11,1.07h.15a1.09,1.09,0,0,0,.8-.4Z" transform="translate(7.65 21.54)"/><path id="Path_7313" data-name="Path 7313" class="cls-9" d="M126.89,58.93a3.44,3.44,0,0,1,2.45-.6c2,.19,3,1.22,2.78,3.51l-.46,4.85a.22.22,0,0,1-.24.2l-2.58-.24a.2.2,0,0,1-.19-.21v0l.42-4.4c.05-.59-.18-.95-.64-1a1,1,0,0,0-1,.73l-.43,4.5a.22.22,0,0,1-.24.2l-2.59-.25a.23.23,0,0,1-.2-.24l.73-7.66a.18.18,0,0,1,.18-.19h0l1.65.15a.25.25,0,0,1,.22.17Z" transform="translate(7.65 21.54)"/><path id="Path_7314" data-name="Path 7314" class="cls-9" d="M139.4,67.77c0,.08,0,.17-.14.22a5.56,5.56,0,0,1-2.86.22A4.29,4.29,0,0,1,138,59.78l.3.07a5.62,5.62,0,0,1,2.48,1.42c.07.1.09.21,0,.27l-1.23,1.57c-.09.1-.2.12-.28,0A2.55,2.55,0,0,0,138,62.4a1.74,1.74,0,0,0-.76,3.4,2.58,2.58,0,0,0,1.48-.12c.11-.05.2,0,.24.15Z" transform="translate(7.65 21.54)"/><path id="Path_7315" data-name="Path 7315" class="cls-9" d="M146.45,70.27c0,.11,0,.15-.17.17a5.65,5.65,0,0,1-3.15-.24,4.27,4.27,0,1,1,2.78-8.08h0c2.31.82,3.15,2.79,2.25,5.33a2.73,2.73,0,0,1-.28.6.18.18,0,0,1-.25.1h0l-4.47-1.59s-.31.88.86,1.29a5.55,5.55,0,0,0,2.29.3.16.16,0,0,1,.17.14v0Zm-.82-4.48a1,1,0,0,0-.47-1.3l-.11,0a1,1,0,0,0-1.35.52.61.61,0,0,0,0,.12Z" transform="translate(7.65 21.54)"/><path id="Path_7316" data-name="Path 7316" class="cls-9" d="M148.94,69.5a.12.12,0,0,1,.17,0,.05.05,0,0,1,0,0,3.71,3.71,0,0,0,1.26,1.29.42.42,0,0,0,.59,0l0,0c.34-.67-2.67-1.89-1.43-4.38.7-1.42,2.37-1.78,4.17-.89a5.81,5.81,0,0,1,2.22,2c0,.09.05.17,0,.23l-1.44,1.22a.13.13,0,0,1-.18,0,.05.05,0,0,1,0,0,3.47,3.47,0,0,0-1.26-1.29c-.26-.17-.51-.13-.61.08-.35.71,2.67,1.89,1.43,4.4-.7,1.42-2.34,1.8-4.1.93a6.3,6.3,0,0,1-2.3-2.08c0-.1,0-.19,0-.25Z" transform="translate(7.65 21.54)"/></g></g><g id="Group_20866" data-name="Group 20866"><g id="Group_20864" data-name="Group 20864"><path id="Path_7257" data-name="Path 7257" class="cls-9" d="M42.81,134a.27.27,0,0,1,.2-.29l5.35-.78a.52.52,0,0,1,.43.14,6.58,6.58,0,0,1,2,4,6.11,6.11,0,1,1-12.1,1.77,7,7,0,0,1,.46-3.67.26.26,0,0,1,.28-.2l2.59.48a.26.26,0,0,1,.18.3,5.49,5.49,0,0,0-.23,2.51,2.81,2.81,0,0,0,5.55-.81,1.76,1.76,0,0,0-.5-1.18l-1,.14.23,1.55a.25.25,0,0,1-.15.3l-2.28.55a.25.25,0,0,1-.32-.15s0,0,0-.07Zm3.91,2.17h0Z" transform="translate(7.65 21.54)"/><path id="Path_7258" data-name="Path 7258" class="cls-9" d="M44.89,122.38a5,5,0,1,1-4.76,5.22v-.09a4.68,4.68,0,0,1,4.22-5.11A4.87,4.87,0,0,1,44.89,122.38Zm.21,6.68a1.7,1.7,0,1,0-1.92-1.63,1.68,1.68,0,0,0,1.72,1.64Z" transform="translate(7.65 21.54)"/><path id="Path_7259" data-name="Path 7259" class="cls-9" d="M45.75,111.53a5,5,0,1,1-5.31,4.65s0-.06,0-.09a4.69,4.69,0,0,1,4.77-4.61A4.53,4.53,0,0,1,45.75,111.53Zm-.54,6.65a1.69,1.69,0,1,0-.07-3.38,1.69,1.69,0,0,0-.12,3.37Z" transform="translate(7.65 21.54)"/><path id="Path_7260" data-name="Path 7260" class="cls-9" d="M40.3,99.5a.25.25,0,0,1,.28-.2l11.6,2.33a.25.25,0,0,1,.2.29L52,103.81c0,.11-.13.18-.3.21l-.65.14a4,4,0,0,1,.54,3c-.53,2.63-2.82,4-5.72,3.43s-4.46-2.73-3.93-5.36a3.35,3.35,0,0,1,1-1.91l-3.08-.62a.27.27,0,0,1-.19-.3ZM46.13,104A1.43,1.43,0,0,0,45,105.11c-.19.92.46,1.69,1.62,1.93s2.13-.22,2.31-1.14a1.44,1.44,0,0,0-.65-1.5Z" transform="translate(7.65 21.54)"/></g><g id="Group_20865" data-name="Group 20865"><path id="Path_7261" data-name="Path 7261" class="cls-9" d="M71.11,145.83c.06-.07.19-.06.3,0a6.42,6.42,0,0,1,2,2.62,4.93,4.93,0,1,1-9.12,3.75c0-.12-.09-.24-.13-.36a6.52,6.52,0,0,1-.18-3.28c0-.13.14-.21.24-.2l2.29.22c.15,0,.24.11.2.25a3,3,0,0,0,.08,1.7,2,2,0,0,0,3.81-1.25s0-.08,0-.13a3,3,0,0,0-1-1.35c-.12-.09-.12-.21,0-.33Z" transform="translate(7.65 21.54)"/><path id="Path_7262" data-name="Path 7262" class="cls-9" d="M59.11,144.49a.25.25,0,0,1,.18-.3l3.35-.77a2.73,2.73,0,0,1-1.41-1.93A2.91,2.91,0,0,1,63,137.77a2.69,2.69,0,0,1,.54-.14l6-1.38a.27.27,0,0,1,.31.19l.66,2.92a.23.23,0,0,1-.17.28h0l-5.21,1.2c-.66.15-1,.53-.85,1a1.13,1.13,0,0,0,1.17.88l5.32-1.22a.27.27,0,0,1,.31.19l.66,2.92a.25.25,0,0,1-.19.3L60.07,147.6a.27.27,0,0,1-.3-.19Z" transform="translate(7.65 21.54)"/><path id="Path_7263" data-name="Path 7263" class="cls-9" d="M61.45,135.61a.27.27,0,0,1-.33-.06,7.14,7.14,0,0,1-1.3-3.59c-.27-2.92,1.15-4.41,4.51-4.72l4.38-.4a.26.26,0,0,1,.28.23l.2,2.13a.29.29,0,0,1-.23.3l-.45.16a4.13,4.13,0,0,1,1.23,2.82,3,3,0,0,1-2.43,3.45,1.72,1.72,0,0,1-.39,0c-1.66.14-2.88-1.05-3.05-3a2.62,2.62,0,0,1,.69-2.28l-.7.07a1.19,1.19,0,0,0-1.11,1.26c0,.05,0,.1,0,.15a4.41,4.41,0,0,0,.73,2c.06.08,0,.18-.11.26Zm4.79-5a1.28,1.28,0,0,0-.34,1,.62.62,0,0,0,1.24.07.55.55,0,0,0,0-.18,1.22,1.22,0,0,0-.51-.89Z" transform="translate(7.65 21.54)"/><path id="Path_7264" data-name="Path 7264" class="cls-9" d="M60.43,123a4,4,0,0,1-.84-2.77c.1-2.31,1.22-3.53,3.87-3.41l5.6.23a.27.27,0,0,1,.25.27l-.13,3a.23.23,0,0,1-.24.23h0l-5.07-.22c-.68,0-1.08.26-1.1.79a1.14,1.14,0,0,0,.9,1.16l5.19.22a.26.26,0,0,1,.25.26l-.13,3a.25.25,0,0,1-.26.25l-8.85-.37a.21.21,0,0,1-.22-.2s0,0,0,0l.08-1.9a.28.28,0,0,1,.18-.26Z" transform="translate(7.65 21.54)"/><path id="Path_7265" data-name="Path 7265" class="cls-9" d="M69.82,108.08c.1,0,.2,0,.27.15a6.53,6.53,0,0,1,.43,3.27,4.93,4.93,0,0,1-9.78-1.3,2.25,2.25,0,0,1,.06-.36,6.47,6.47,0,0,1,1.48-2.94c.1-.09.23-.12.3-.05l1.88,1.32c.13.09.16.21.05.32a3,3,0,0,0-.78,1.52,2,2,0,0,0,4,.68h0a3,3,0,0,0-.23-1.7c-.07-.13,0-.24.15-.28Z" transform="translate(7.65 21.54)"/><path id="Path_7266" data-name="Path 7266" class="cls-9" d="M72.27,99.83c.12,0,.18,0,.21.19a6.62,6.62,0,0,1-.09,3.64,4.92,4.92,0,0,1-9.5-2.55.84.84,0,0,0,0-.17c.8-2.7,3-3.78,6-2.9a3.39,3.39,0,0,1,.71.28.23.23,0,0,1,.14.29h0l-1.55,5.23s1,.3,1.43-1.07a6.41,6.41,0,0,0,.2-2.65.18.18,0,0,1,.15-.2H70Zm-5.09,1.22a1.14,1.14,0,0,0-1.47.61l0,.13a1.18,1.18,0,0,0,.69,1.53l.14,0Z" transform="translate(7.65 21.54)"/><path id="Path_7267" data-name="Path 7267" class="cls-9" d="M71.23,97a.14.14,0,0,1,0-.2l0,0a4.37,4.37,0,0,0,1.41-1.52.49.49,0,0,0-.09-.68l-.07,0c-.79-.34-2,3.19-5,1.92-1.67-.72-2.18-2.62-1.26-4.74a6.59,6.59,0,0,1,2.21-2.67c.09,0,.19-.07.25,0l1.5,1.59a.14.14,0,0,1,0,.2l0,0a3.82,3.82,0,0,0-1.41,1.52c-.18.31-.11.6.13.71.83.35,2-3.19,5-1.91,1.67.72,2.2,2.57,1.31,4.65A7.27,7.27,0,0,1,73,98.62a.26.26,0,0,1-.29,0Z" transform="translate(7.65 21.54)"/></g></g><g id="Group_20872" data-name="Group 20872"><g id="Group_20870" data-name="Group 20870"><path id="Path_7284" data-name="Path 7284" class="cls-9" d="M199.77,76.54c1.18,1.73.93,3.59-.62,4.64a2.19,2.19,0,0,1-2.67.09,2.39,2.39,0,0,1-1.17,2.8c-1.55,1.06-3.36.61-4.53-1.12l-2.85-4.19a.22.22,0,0,1,.06-.31l8.75-6a.24.24,0,0,1,.32,0Zm-7,4.22a.77.77,0,1,0,1.3-.82l0,0-.72-1.07-1.28.86Zm3-2.39a.74.74,0,0,0,1.28-.73l-.06-.1-.57-.84-1.22.83Z" transform="translate(7.65 21.54)"/><path id="Path_7285" data-name="Path 7285" class="cls-9" d="M197.55,92.92a.19.19,0,0,1-.27,0h0a6.24,6.24,0,0,1-2.35-2.51A4.63,4.63,0,1,1,203,85.89l.06.11c1.25,2.35.48,4.54-2.09,5.91a4,4,0,0,1-.67.28.22.22,0,0,1-.28-.1v0l-2.41-4.54s-.89.48-.26,1.66A5.86,5.86,0,0,0,199,91.1a.19.19,0,0,1,0,.25l0,0Zm2.61-4.18a1.08,1.08,0,0,0,.58-1.39l-.06-.11a1.1,1.1,0,0,0-1.47-.57.67.67,0,0,0-.12.06Z" transform="translate(7.65 21.54)"/><path id="Path_7286" data-name="Path 7286" class="cls-9" d="M200.13,94.11a.13.13,0,0,1,.14.12v0a4,4,0,0,0,.1,2c.1.32.36.46.58.36.76-.31-.82-3.45,2-4.6,1.58-.66,3.2.25,4,2.25a6.23,6.23,0,0,1,.36,3.25.2.2,0,0,1-.16.18l-2.06,0a.13.13,0,0,1-.14-.13v0a3.69,3.69,0,0,0-.1-2c-.1-.32-.33-.47-.57-.37-.78.32.84,3.44-2,4.61-1.58.65-3.19-.2-4-2.17a6.76,6.76,0,0,1-.39-3.33c0-.11.1-.18.2-.19Z" transform="translate(7.65 21.54)"/><path id="Path_7287" data-name="Path 7287" class="cls-9" d="M210.08,103.66a.22.22,0,0,1-.12.29h0l-1.53.32a.26.26,0,0,1-.3-.15l-.32-1-6.22,2a.24.24,0,0,1-.3-.15l-.88-2.68a.24.24,0,0,1,.15-.3l6.22-2-.28-.87a.22.22,0,0,1,.14-.28l1.47-.49a.24.24,0,0,1,.3.14l.29.87,1.65-.55a.27.27,0,0,1,.29.16l1.14,2.6a.23.23,0,0,1-.14.29l-1.92.63Z" transform="translate(7.65 21.54)"/><path id="Path_7288" data-name="Path 7288" class="cls-9" d="M205.52,119.43a.23.23,0,0,1-.31-.09h0a6.69,6.69,0,0,1-1.52-3.14c-.58-3.25,1.29-5.83,4.69-6.45s6.06,1.14,6.65,4.38a6.65,6.65,0,0,1-.31,3.48c0,.13-.14.22-.26.19l-2.38-.64a.21.21,0,0,1-.17-.28,3.51,3.51,0,0,0,.1-1.9,2.65,2.65,0,0,0-5.19.94,3.55,3.55,0,0,0,.77,1.75.21.21,0,0,1,0,.29l0,0Z" transform="translate(7.65 21.54)"/><path id="Path_7289" data-name="Path 7289" class="cls-9" d="M216.42,122.45a.24.24,0,0,1-.22.25l-3.23.24a2.58,2.58,0,0,1,1.05,2,2.76,2.76,0,0,1-2.19,3.22,3.17,3.17,0,0,1-.53,0l-5.83.42a.26.26,0,0,1-.26-.22l-.2-2.82a.21.21,0,0,1,.2-.23h0l5-.36c.64,0,1-.36.95-.85a1.07,1.07,0,0,0-1-1l-5.13.37a.26.26,0,0,1-.26-.22l-.2-2.81a.24.24,0,0,1,.22-.26l11.1-.8a.24.24,0,0,1,.26.22Z" transform="translate(7.65 21.54)"/><path id="Path_7290" data-name="Path 7290" class="cls-9" d="M213,130.25a.25.25,0,0,1,.3.09,6.66,6.66,0,0,1,.8,3.5c-.09,2.77-1.59,4-4.77,3.89l-4.14-.13a.25.25,0,0,1-.23-.25l.06-2a.26.26,0,0,1,.25-.24l.44-.1a3.87,3.87,0,0,1-.82-2.78,2.82,2.82,0,0,1,2.67-3H208c1.57.07,2.56,1.32,2.51,3.13a2.53,2.53,0,0,1-.92,2l.67,0a1.13,1.13,0,0,0,1.18-1.06v-.13a4.32,4.32,0,0,0-.45-1.94c-.05-.08,0-.18.13-.24ZM208,134.39a1.18,1.18,0,0,0,.43-.87.59.59,0,0,0-.55-.69.59.59,0,0,0-.6.59v.07a1.2,1.2,0,0,0,.37.89Z" transform="translate(7.65 21.54)"/><path id="Path_7291" data-name="Path 7291" class="cls-9" d="M212.62,142a3.81,3.81,0,0,1,.53,2.68c-.3,2.15-1.46,3.18-3.94,2.84l-5.23-.73a.24.24,0,0,1-.2-.27l.39-2.79a.22.22,0,0,1,.25-.19h0l4.74.66c.63.09,1-.14,1.1-.64a1.08,1.08,0,0,0-.74-1.17l-4.85-.67a.24.24,0,0,1-.2-.27l.39-2.79a.24.24,0,0,1,.27-.2l8.25,1.15a.2.2,0,0,1,.2.2.09.09,0,0,1,0,.05l-.24,1.77a.28.28,0,0,1-.2.24Z" transform="translate(7.65 21.54)"/><path id="Path_7292" data-name="Path 7292" class="cls-9" d="M202.59,155.43c-.12,0-.17,0-.21-.16a6.19,6.19,0,0,1-.08-3.44,4.64,4.64,0,0,1,9,2l0,.12c-.64,2.58-2.68,3.69-5.51,3a4.23,4.23,0,0,1-.68-.24.21.21,0,0,1-.14-.26v0l1.23-5s-1-.24-1.3,1.06a6.07,6.07,0,0,0-.08,2.51.17.17,0,0,1-.13.2h-.05Zm4.74-1.37a1.07,1.07,0,0,0,1.36-.64l0-.12a1.12,1.12,0,0,0-.72-1.41.5.5,0,0,0-.13,0Z" transform="translate(7.65 21.54)"/><path id="Path_7293" data-name="Path 7293" class="cls-9" d="M203.73,158a.14.14,0,0,1,0,.19l0,0a4,4,0,0,0-1.23,1.52.47.47,0,0,0,.14.63l.06,0c.77.27,1.69-3.12,4.52-2.13,1.62.57,2.22,2.33,1.5,4.38a6.31,6.31,0,0,1-1.9,2.66.2.2,0,0,1-.24,0L205.06,164a.14.14,0,0,1,0-.19l0,0a3.56,3.56,0,0,0,1.22-1.52c.14-.3.07-.57-.17-.65-.8-.28-1.68,3.12-4.54,2.12-1.62-.57-2.24-2.28-1.54-4.29a6.84,6.84,0,0,1,1.94-2.75.26.26,0,0,1,.27,0Z" transform="translate(7.65 21.54)"/></g><g id="Group_20871" data-name="Group 20871"><path id="Path_7294" data-name="Path 7294" class="cls-9" d="M191.64,99.45a.22.22,0,0,1-.07.29h0l-2.29.87a.3.3,0,0,1-.32-.13l-1.05-2.14-7.12,3.52a.23.23,0,0,1-.3-.1l-1.25-2.54a.23.23,0,0,1,.09-.31l7.11-3.52L185.24,93a.22.22,0,0,1,.1-.3l2.16-1.07a.24.24,0,0,1,.32.09Z" transform="translate(7.65 21.54)"/><path id="Path_7295" data-name="Path 7295" class="cls-9" d="M189,112a4.7,4.7,0,1,1,2.86-6,.14.14,0,0,1,0,.06,4.41,4.41,0,0,1-2.4,5.77A3.39,3.39,0,0,1,189,112Zm-2-6a1.62,1.62,0,1,0,.16-.06l-.16.07Z" transform="translate(7.65 21.54)"/><path id="Path_7296" data-name="Path 7296" class="cls-9" d="M198.29,129.31a.2.2,0,0,1-.15.23H198l-10.78-1.7a.38.38,0,0,1-.29-.32l-.32-2.77a.39.39,0,0,1,.21-.39l5.44-2.09-5.77-.81a.38.38,0,0,1-.29-.34l-.32-2.76a.4.4,0,0,1,.22-.38l10.12-4.09a.18.18,0,0,1,.26.06.19.19,0,0,1,0,.1l.41,3.56a.41.41,0,0,1-.23.4l-4.65,1.45,4.89.68a.44.44,0,0,1,.32.4l.26,2.29a.44.44,0,0,1-.22.46l-4.62,1.77,4.86.36a.42.42,0,0,1,.32.34Z" transform="translate(7.65 21.54)"/><path id="Path_7297" data-name="Path 7297" class="cls-9" d="M195.63,134.16a.24.24,0,0,1-.23.23l-8.34-.22a.24.24,0,0,1-.23-.24l.07-2.82a.25.25,0,0,1,.25-.23l8.34.22a.24.24,0,0,1,.21.25Zm1.87.39a1.77,1.77,0,1,1,1.65-1.57A1.77,1.77,0,0,1,197.5,134.55Z" transform="translate(7.65 21.54)"/><path id="Path_7298" data-name="Path 7298" class="cls-9" d="M194.65,138.62a3.81,3.81,0,0,1,.53,2.68c-.3,2.15-1.46,3.18-3.94,2.84l-5.22-.73a.25.25,0,0,1-.21-.27l.39-2.79a.22.22,0,0,1,.25-.19h0l4.74.66c.63.09,1-.14,1.1-.64a1.05,1.05,0,0,0-.74-1.16l-4.85-.68a.25.25,0,0,1-.2-.27l.39-2.79a.24.24,0,0,1,.27-.2l8.25,1.15a.2.2,0,0,1,.2.2v0l-.25,1.78a.27.27,0,0,1-.19.23Z" transform="translate(7.65 21.54)"/></g></g><g id="Odds_Calculator" data-name="Odds Calculator" class="cls-10"><text class="cls-11" transform="translate(103.83 209.54)">Odds</text><text class="cls-11" transform="translate(76.03 236.54)">Calculator</text></g></g></g></g></svg>