<svg xmlns="http://www.w3.org/2000/svg" width="540" height="540" viewBox="0 0 540 540">
    <defs>
        <filter id="Path_7256" width="245.971" height="197.102" x="147.292" y="147.642" filterUnits="userSpaceOnUse">
            <feOffset dy="3"/>
            <feGaussianBlur result="blur" stdDeviation="3"/>
            <feFlood flood-opacity=".78"/>
            <feComposite in2="blur" operator="in"/>
            <feComposite in="SourceGraphic"/>
        </filter>
        <filter id="Ellipse_48" width="540" height="540" x="0" y="0" filterUnits="userSpaceOnUse">
            <feOffset dy="3"/>
            <feGaussianBlur result="blur-2" stdDeviation="48"/>
            <feFlood flood-opacity=".161"/>
            <feComposite in2="blur-2" operator="in"/>
            <feComposite in="SourceGraphic"/>
        </filter>
        <filter id="Path_7255" width="250.971" height="202.302" x="144.792" y="144.964" filterUnits="userSpaceOnUse">
            <feOffset dy="3"/>
            <feGaussianBlur result="blur-3" stdDeviation="3"/>
            <feFlood flood-opacity=".78"/>
            <feComposite in2="blur-3" operator="in"/>
            <feComposite in="SourceGraphic"/>
        </filter>
        <filter id="Path_7249" width="58.063" height="111.467" x="225.567" y="185.382" filterUnits="userSpaceOnUse">
            <feOffset dx="-8" dy="1"/>
            <feGaussianBlur result="blur-4" stdDeviation="1.5"/>
            <feFlood flood-opacity=".161"/>
            <feComposite in2="blur-4" operator="in"/>
            <feComposite in="SourceGraphic"/>
        </filter>
        <clipPath id="clip-path">
            <path id="Mask" d="M365.644 1490.637a112.445 112.445 0 0 0-16.222-31.784 113.963 113.963 0 0 0-189.842 125.77 13.355 13.355 0 0 0 8.637 6.093 13 13 0 0 0 10.2-2.225l44.7-32.475a16.215 16.215 0 0 0 5.673-19.063c-.219-.557-.426-1.124-.6-1.653a31.058 31.058 0 0 1-1.51-9.442 31.417 31.417 0 0 1 1.5-9.426 30.86 30.86 0 0 1 11.125-15.253 29.831 29.831 0 0 1 8.489-4.347 30.484 30.484 0 0 1 18.878 0 29.837 29.837 0 0 1 8.479 4.343 30.914 30.914 0 0 1 6.767 6.767 29.939 29.939 0 0 1 4.351 8.464 30.559 30.559 0 0 1 1.5 9.45 30.229 30.229 0 0 1-1.506 9.429q-.3.915-.651 1.806a16.115 16.115 0 0 0 5.732 18.941l44.7 32.479a13.124 13.124 0 0 0 18.823-3.865 112.51 112.51 0 0 0 10.769-23.566c.41-1.265.8-2.535 1.242-4.088a114.195 114.195 0 0 0-1.241-66.355z" class="cls-1" transform="translate(821.051 -1035.24)"/>
        </clipPath>
        <clipPath id="clip-path-2"/>
        <style>
            .cls-1{fill:#232323}.cls-2,.cls-9{fill:none}.cls-3{fill:#fff}.cls-7{fill:#dc1522}.cls-9{stroke:#fff;stroke-linecap:round;stroke-width:2px}.cls-12{opacity:.46;mix-blend-mode:multiply;isolation:isolate}
        </style>
    </defs>
    <g id="Odds_Bar" transform="translate(-798 -203)">
        <g filter="url(#Ellipse_48)" transform="translate(798 203)">
            <circle id="Ellipse_48-2" cx="126" cy="126" r="126" class="cls-3" transform="translate(144 141)"/>
        </g>
        <path id="Path_7254" d="M365.644 1490.637a112.445 112.445 0 0 0-16.222-31.784 113.963 113.963 0 0 0-189.842 125.77 13.355 13.355 0 0 0 8.637 6.093 13 13 0 0 0 10.2-2.225l44.7-32.475a16.215 16.215 0 0 0 5.673-19.063c-.219-.557-.426-1.124-.6-1.653a31.058 31.058 0 0 1-1.51-9.442 31.417 31.417 0 0 1 1.5-9.426 30.86 30.86 0 0 1 11.125-15.253 29.831 29.831 0 0 1 8.489-4.347 30.484 30.484 0 0 1 18.878 0 29.837 29.837 0 0 1 8.479 4.343 30.914 30.914 0 0 1 6.767 6.767 29.939 29.939 0 0 1 4.351 8.464 30.559 30.559 0 0 1 1.5 9.45 30.229 30.229 0 0 1-1.506 9.429q-.3.915-.651 1.806a16.115 16.115 0 0 0 5.732 18.941l44.7 32.479a13.124 13.124 0 0 0 18.823-3.865 112.51 112.51 0 0 0 10.769-23.566c.41-1.265.8-2.535 1.242-4.088a114.195 114.195 0 0 0-1.241-66.355z" class="cls-1" transform="translate(811.051 -1055.24)"/>
        <g id="MEter_Bar" clip-path="url(#clip-path)" transform="translate(-10 -20)">
            <path id="Path_7299" fill="#43bb5b" d="M10820.351 857.8s97.016-52.341 94.682-53.675-20-49.674-20-49.674l-61.343-79.679-57.342 28 21.67 155.024z" transform="translate(-9832 -282)"/>
            <path id="Path_7300" fill="#f5bc00" stroke="#ffc400" d="M10829.686 670.438l70.678 90.681 28.337-3.667v-5.668l61.01-78.679-147.357-48.005z" transform="translate(-9832 -282)"/>
            <path id="Path_7301" d="M11013.381 865.258l-86.681-61.8-2-48.674 4.667-2.667 57.676-75.678 76.012 101.682z" class="cls-7" transform="translate(-9832 -282)"/>
        </g>
        <g id="Ellipse_49" fill="none" stroke="#e1e1e1" stroke-width="4px" transform="translate(942 344)">
            <circle cx="126" cy="126" r="126" stroke="none"/>
            <circle cx="126" cy="126" r="124" class="cls-2"/>
        </g>
        <path id="Line_96" d="M0 0L72 93" class="cls-9" transform="translate(995.5 378.5)"/>
        <path id="Path_7253" d="M50.576-1.38L-19.852 88.2" class="cls-9" transform="translate(1088.5 383.5)"/>
        <g id="Mask_Group_8" clip-path="url(#clip-path-2)" transform="translate(-10 -21)">
            <g filter="url(#Path_7255)" transform="translate(808 224)">
                <path id="Path_7255-2" fill="none" stroke="#232323" stroke-width="5px" d="M365.644 1490.637a112.445 112.445 0 0 0-16.222-31.784 113.963 113.963 0 0 0-189.842 125.77 13.355 13.355 0 0 0 8.637 6.093 13 13 0 0 0 10.2-2.225l44.7-32.475a16.215 16.215 0 0 0 5.673-19.063c-.219-.557-.426-1.124-.6-1.653a31.058 31.058 0 0 1-1.51-9.442 31.417 31.417 0 0 1 1.5-9.426 30.86 30.86 0 0 1 11.125-15.253 29.831 29.831 0 0 1 8.489-4.347 30.484 30.484 0 0 1 18.878 0 29.837 29.837 0 0 1 8.479 4.343 30.914 30.914 0 0 1 6.767 6.767 29.939 29.939 0 0 1 4.351 8.464 30.559 30.559 0 0 1 1.5 9.45 30.229 30.229 0 0 1-1.506 9.429q-.3.915-.651 1.806a16.115 16.115 0 0 0 5.732 18.941l44.7 32.479a13.124 13.124 0 0 0 18.823-3.865 112.51 112.51 0 0 0 10.769-23.566c.41-1.265.8-2.535 1.242-4.088a114.195 114.195 0 0 0-1.241-66.355z" transform="translate(13.05 -1258.24)"/>
            </g>
        </g>
        <g id="Group_20878" transform="rotate(66 2610.854 -2062.873)">
            <g id="Group_20875" transform="translate(4208.354 310.998)">
                <path id="Path_7302" d="M4209.229 358.18a.149.149 0 0 1 .22-.129l9.461 4.206a.3.3 0 0 1 .184.283l-.276 3.241a.307.307 0 0 1-.23.247l-10.038 2.539a.149.149 0 0 1-.195-.164l.281-3.285a.307.307 0 0 1 .231-.262l6.186-1.029-5.922-2.063a.308.308 0 0 1-.182-.3z" class="cls-3" transform="translate(-4208.354 -300.124)"/>
                <path id="Path_7303" d="M4219.313 353.552c.107-.009.16.031.2.144a5.758 5.758 0 0 1 .229 3.16 4.278 4.278 0 1 1-8.412-1.56c.467-2.407 2.3-3.527 4.935-3.014a3.306 3.306 0 0 1 .643.185.191.191 0 0 1 .13.251l-.9 4.656s.914.177 1.15-1.042a5.575 5.575 0 0 0-.048-2.312.158.158 0 0 1 .159-.195zm-4.306 1.481a.98.98 0 0 0-1.248.766 1.033 1.033 0 0 0 .848 1.294z" class="cls-3" transform="translate(-4207.69 -301.481)"/>
                <path id="Path_7304" d="M4213.684 346.954a.2.2 0 0 1 .256-.142l1.846.533a.2.2 0 0 1 .141.256l-.106.368a1.41 1.41 0 0 0 .249 1.38l4.757 1.372a.228.228 0 0 1 .151.275l-.72 2.5a.227.227 0 0 1-.276.151l-7.385-2.129a.225.225 0 0 1-.137-.271l.463-1.605c.032-.113.153-.155.278-.165l.686-.033a2.51 2.51 0 0 1-.312-2.12z" class="cls-3" transform="translate(-4207.407 -302.719)"/>
                <path id="Path_7305" d="M4216.841 339.446a.157.157 0 0 1 .252-.078l6.465 5.225c1.808 1.464 2.067 2.88 1.381 4.643a3.866 3.866 0 0 1-1.655 2.051.274.274 0 0 1-.26-.022l-1.257-1.375c-.079-.079-.08-.159-.019-.2a2.693 2.693 0 0 0 1.021-1.157c.273-.7.1-1.183-.628-1.687l-.44 1.129a.274.274 0 0 1-.288.174l-7.581-.4a.148.148 0 0 1-.141-.213l1.076-2.768a.3.3 0 0 1 .3-.186l4.735.62-3.916-2.728a.276.276 0 0 1-.1-.323z" class="cls-3" transform="translate(-4207.123 -304.447)"/>
                <path id="Path_7306" d="M4223.386 331.7a.225.225 0 0 1 .288-.094l4.1 2.295a.487.487 0 0 1 .223.328 5.77 5.77 0 0 1-.746 3.781 5.316 5.316 0 0 1-9.278-5.194 6.093 6.093 0 0 1 2.261-2.289.228.228 0 0 1 .3.015l1.534 1.7a.226.226 0 0 1-.033.3 4.661 4.661 0 0 0-1.491 1.6 2.443 2.443 0 0 0 4.254 2.381 1.529 1.529 0 0 0 .282-1.078l-.749-.417-.664 1.184c-.063.117-.16.165-.257.128l-1.871-.829a.214.214 0 0 1-.1-.329zm1.539 3.569l.052.028z" class="cls-3" transform="translate(-4206.312 -306.493)"/>
                <path id="Path_7307" d="M4229.7 326.009a4.344 4.344 0 1 1-6 1.016 4.078 4.078 0 0 1 6-1.016zm-3.389 4.712a1.469 1.469 0 1 0-.46-2.137 1.462 1.462 0 0 0 .461 2.137z" class="cls-3" transform="translate(-4205.023 -307.734)"/>
                <path id="Path_7308" d="M4234.918 320.346a4.344 4.344 0 1 1-6.081.342 4.08 4.08 0 0 1 6.081-.342zm-3.9 4.307a1.47 1.47 0 1 0-.219-2.176 1.464 1.464 0 0 0 .224 2.176z" class="cls-3" transform="translate(-4203.908 -309.114)"/>
                <path id="Path_7309" d="M4236.263 311.052a.224.224 0 0 1 .3.009l6.774 7.741a.228.228 0 0 1-.021.313l-1.257 1.1c-.078.069-.192.05-.322-.01l-.519-.255a3.518 3.518 0 0 1-1.237 2.379c-1.757 1.538-4.064 1.279-5.758-.656s-1.632-4.246.125-5.783a2.937 2.937 0 0 1 1.726-.765l-1.8-2.059a.221.221 0 0 1 .031-.3zm1.653 6.173a1.246 1.246 0 0 0-1.414.158 1.475 1.475 0 0 0 .106 2.184c.7.8 1.578.975 2.19.44a1.243 1.243 0 0 0 .343-1.38z" class="cls-3" transform="translate(-4202.657 -310.998)"/>
            </g>
            <g id="Group_20876" transform="translate(4226.149 325.626)">
                <path id="Path_7310" d="M4231.914 359.582c.08-.036.177.021.24.117a5.635 5.635 0 0 1 .51 2.816 4.289 4.289 0 1 1-8.51-1.024 5.619 5.619 0 0 1 1.162-2.614c.084-.08.192-.111.26-.058l1.688 1.066c.111.073.142.181.057.275a2.588 2.588 0 0 0-.609 1.356 1.744 1.744 0 1 0 3.462.417 2.592 2.592 0 0 0-.271-1.461c-.06-.112 0-.209.12-.254z" class="cls-3" transform="translate(-4222.507 -314.576)"/>
                <path id="Path_7311" d="M4223.449 355.431a.227.227 0 0 1 .268-.161l2.9.729a2.382 2.382 0 0 1-.337-2.051 2.54 2.54 0 0 1 3.327-2.073l5.231 1.316a.226.226 0 0 1 .161.268l-.635 2.523a.2.2 0 0 1-.265.148l-4.5-1.133c-.572-.145-.967.031-1.08.474a.991.991 0 0 0 .563 1.149l4.6 1.157a.229.229 0 0 1 .161.27l-.635 2.523a.228.228 0 0 1-.27.161l-9.963-2.507a.227.227 0 0 1-.159-.27z" class="cls-3" transform="translate(-4222.808 -316.201)"/>
                <path id="Path_7312" d="M4227.7 351a.23.23 0 0 1-.232-.172 6.2 6.2 0 0 1 .409-3.29c.949-2.371 2.636-2.97 5.364-1.879l3.552 1.421a.23.23 0 0 1 .125.289l-.692 1.727a.24.24 0 0 1-.293.137l-.409-.052a3.625 3.625 0 0 1-.163 2.672 2.6 2.6 0 0 1-3.564 1.6c-1.34-.552-1.814-1.95-1.195-3.5a2.3 2.3 0 0 1 1.44-1.492l-.576-.23a1.034 1.034 0 0 0-1.4.666 3.863 3.863 0 0 0-.219 1.821c.013.085-.074.147-.193.163zm5.7-2a1.1 1.1 0 0 0-.644.617.538.538 0 1 0 .988.4 1.1 1.1 0 0 0-.041-.891z" class="cls-3" transform="translate(-4221.746 -317.733)"/>
                <path id="Path_7313" d="M4231.357 342.417a3.465 3.465 0 0 1 .445-2.478c.988-1.75 2.333-2.246 4.341-1.114l4.248 2.393a.227.227 0 0 1 .084.3l-1.276 2.264a.2.2 0 0 1-.294.071l-3.849-2.168c-.515-.289-.94-.224-1.165.174a.99.99 0 0 0 .242 1.256l3.937 2.22a.224.224 0 0 1 .084.3l-1.275 2.264a.226.226 0 0 1-.3.084l-6.705-3.777a.187.187 0 0 1-.078-.282l.811-1.44a.242.242 0 0 1 .247-.134z" class="cls-3" transform="translate(-4221.201 -319.333)"/>
                <path id="Path_7314" d="M4243.378 336c.084.007.141.1.149.22a5.619 5.619 0 0 1-.958 2.7 4.289 4.289 0 1 1-6.875-5.121 5.614 5.614 0 0 1 2.309-1.69c.114-.027.223 0 .255.079l.935 1.766c.059.118.032.228-.089.266a2.6 2.6 0 0 0-1.2.873 1.745 1.745 0 1 0 2.8 2.084 2.6 2.6 0 0 0 .492-1.4c0-.127.1-.183.229-.16z" class="cls-3" transform="translate(-4220.063 -320.747)"/>
                <path id="Path_7315" d="M4247.613 331.635c.094.051.116.112.088.228a5.742 5.742 0 0 1-1.5 2.786 4.274 4.274 0 1 1-6.251-5.831c1.688-1.778 3.829-1.74 5.778.11a3.418 3.418 0 0 1 .442.5.193.193 0 0 1-.024.283l-3.263 3.438s.676.64 1.529-.26a5.585 5.585 0 0 0 1.2-1.974.157.157 0 0 1 .237-.079zm-4.425-1.064a.979.979 0 0 0-1.463-.025 1.031 1.031 0 0 0 .02 1.545z" class="cls-3" transform="translate(-4219.142 -321.808)"/>
                <path id="Path_7316" d="M4246.779 330.125a.122.122 0 0 1 .11-.169 3.687 3.687 0 0 0 1.694-.618.418.418 0 0 0 .161-.614c-.48-.579-2.819 1.668-4.592-.469-1.008-1.216-.653-2.892.893-4.175a5.79 5.79 0 0 1 2.766-1.2c.094 0 .175.027.2.1l.532 1.822a.122.122 0 0 1-.11.169 3.391 3.391 0 0 0-1.693.618c-.256.176-.322.421-.171.6.5.6 2.81-1.679 4.6.48 1.01 1.216.688 2.865-.823 4.118a6.271 6.271 0 0 1-2.833 1.258c-.1-.01-.185-.039-.219-.126z" class="cls-3" transform="translate(-4218.004 -322.879)"/>
            </g>
        </g>
        <g id="Group_20866" transform="rotate(-27 2635.733 7401.451)">
            <g id="Group_20864" transform="translate(4301.643 451.133)">
                <path id="Path_7257" d="M4307.923 473.952a.259.259 0 0 1 .308-.166l5.119 1.732a.563.563 0 0 1 .321.324 6.647 6.647 0 0 1-.047 4.432 6.117 6.117 0 1 1-11.59-3.919 7.017 7.017 0 0 1 2.077-3.064.262.262 0 0 1 .338-.048l2.095 1.606a.261.261 0 0 1 .025.35 5.369 5.369 0 0 0-1.349 2.127 2.811 2.811 0 0 0 5.313 1.8 1.759 1.759 0 0 0 .09-1.279l-.933-.316-.5 1.481c-.05.144-.146.221-.265.2l-2.291-.542a.248.248 0 0 1-.187-.35zm2.493 3.714l.063.021z" class="cls-3" transform="translate(-4301.643 -441.953)"/>
                <path id="Path_7258" d="M4313.22 467.23a5 5 0 1 1-6.579 2.411 4.693 4.693 0 0 1 6.579-2.411zm-2.847 6.043a1.691 1.691 0 1 0-.969-2.321 1.683 1.683 0 0 0 .969 2.322z" class="cls-3" transform="translate(-4299.801 -444.664)"/>
                <path id="Path_7259" d="M4317.393 460.759a4.993 4.993 0 1 1-6.8 1.658 4.687 4.687 0 0 1 6.8-1.658zm-3.5 5.681a1.69 1.69 0 1 0-.7-2.413 1.681 1.681 0 0 0 .698 2.413z" class="cls-3" transform="translate(-4298.279 -447.473)"/>
                <path id="Path_7260" d="M4316.2 451.229a.26.26 0 0 1 .345-.052l9.277 7.339a.262.262 0 0 1 .043.358l-1.193 1.507c-.073.092-.206.1-.367.055l-.64-.18a4.039 4.039 0 0 1-.9 2.948c-1.667 2.107-4.329 2.3-6.649.462s-2.736-4.46-1.069-6.566a3.393 3.393 0 0 1 1.794-1.226l-2.468-1.95a.261.261 0 0 1-.027-.348zm3.158 6.638a1.432 1.432 0 0 0-1.566.473c-.581.734-.356 1.711.576 2.45.959.759 1.989.772 2.569.038a1.432 1.432 0 0 0 .1-1.633z" class="cls-3" transform="translate(-4296.487 -451.133)"/>
            </g>
            <g id="Group_20865" transform="translate(4316.95 454.735)">
                <path id="Path_7261" d="M4322.731 490.5c.091-.04.2.026.274.136a6.485 6.485 0 0 1 .586 3.238 4.933 4.933 0 1 1-9.788-1.178 6.475 6.475 0 0 1 1.336-3.006c.1-.092.223-.127.3-.067l1.941 1.226c.127.083.165.208.065.316a2.982 2.982 0 0 0-.7 1.559 2.007 2.007 0 1 0 3.983.48 2.984 2.984 0 0 0-.312-1.681c-.07-.129-.005-.241.138-.292z" class="cls-3" transform="translate(-4311.912 -438.737)"/>
                <path id="Path_7262" d="M4313.19 486.78a.261.261 0 0 1 .307-.186l3.332.838a2.736 2.736 0 0 1-.388-2.359 2.922 2.922 0 0 1 3.826-2.386l6.017 1.515a.262.262 0 0 1 .186.309l-.731 2.9a.234.234 0 0 1-.306.168l-5.176-1.3c-.66-.167-1.112.034-1.242.545a1.14 1.14 0 0 0 .648 1.321l5.292 1.331a.262.262 0 0 1 .186.31l-.731 2.9a.261.261 0 0 1-.308.185l-11.459-2.883a.263.263 0 0 1-.184-.31z" class="cls-3" transform="translate(-4312.453 -441.662)"/>
                <path id="Path_7263" d="M4317.4 482.682a.266.266 0 0 1-.268-.2 7.111 7.111 0 0 1 .47-3.784c1.09-2.729 3.03-3.415 6.169-2.161l4.084 1.634a.26.26 0 0 1 .142.331l-.794 1.988a.276.276 0 0 1-.337.157l-.47-.06a4.164 4.164 0 0 1-.187 3.073 2.988 2.988 0 0 1-4.1 1.835c-1.542-.633-2.085-2.243-1.374-4.024a2.648 2.648 0 0 1 1.657-1.716l-.661-.265a1.188 1.188 0 0 0-1.606.766 4.464 4.464 0 0 0-.253 2.094c.017.1-.083.167-.221.187zm6.555-2.3a1.259 1.259 0 0 0-.742.709.619.619 0 1 0 1.136.455 1.263 1.263 0 0 0-.047-1.025z" class="cls-3" transform="translate(-4310.544 -444.418)"/>
                <path id="Path_7264" d="M4321.242 473.845a3.987 3.987 0 0 1 .512-2.85c1.136-2.012 2.685-2.583 4.994-1.281l4.884 2.753a.261.261 0 0 1 .1.347l-1.467 2.6a.235.235 0 0 1-.338.082l-4.426-2.494c-.592-.333-1.082-.259-1.339.2a1.139 1.139 0 0 0 .277 1.444l4.528 2.552a.263.263 0 0 1 .1.348l-1.467 2.6a.262.262 0 0 1-.349.1l-7.711-4.344a.214.214 0 0 1-.089-.324l.933-1.658a.278.278 0 0 1 .282-.153z" class="cls-3" transform="translate(-4309.561 -447.296)"/>
                <path id="Path_7265" d="M4334.329 467.386c.1.01.163.122.171.255a6.459 6.459 0 0 1-1.1 3.1 4.933 4.933 0 1 1-7.907-5.889 6.468 6.468 0 0 1 2.655-1.944c.131-.031.257 0 .293.091l1.074 2.031c.068.136.039.26-.1.306a2.981 2.981 0 0 0-1.385 1 2.007 2.007 0 1 0 3.218 2.4 3 3 0 0 0 .565-1.614c0-.146.115-.211.265-.184z" class="cls-3" transform="translate(-4307.515 -449.841)"/>
                <path id="Path_7266" d="M4338.6 463.052c.109.058.136.129.1.262a6.6 6.6 0 0 1-1.729 3.2 4.916 4.916 0 1 1-7.188-6.706c1.941-2.045 4.4-2 6.645.126a3.816 3.816 0 0 1 .507.575.222.222 0 0 1-.026.326l-3.754 3.953s.777.736 1.76-.3a6.385 6.385 0 0 0 1.381-2.27.182.182 0 0 1 .274-.091zm-5.089-1.223a1.124 1.124 0 0 0-1.681-.028 1.185 1.185 0 0 0 .022 1.777z" class="cls-3" transform="translate(-4305.857 -451.749)"/>
                <path id="Path_7267" d="M4336.9 462.01a.14.14 0 0 1 .125-.194 4.254 4.254 0 0 0 1.949-.711.482.482 0 0 0 .187-.707c-.554-.666-3.243 1.919-5.283-.539-1.159-1.4-.752-3.326 1.026-4.8a6.666 6.666 0 0 1 3.181-1.381c.108 0 .2.031.229.118l.614 2.1a.14.14 0 0 1-.127.193 3.907 3.907 0 0 0-1.947.712c-.3.2-.371.484-.2.694.576.692 3.232-1.931 5.293.552 1.161 1.4.79 3.294-.947 4.737a7.2 7.2 0 0 1-3.259 1.446.261.261 0 0 1-.253-.144z" class="cls-3" transform="translate(-4303.81 -453.677)"/>
            </g>
        </g>
        <g id="Group_20863" transform="translate(1036.067 391.882)">
            <g id="Group_20862" transform="translate(22.459 69.197)">
                <path id="Path_7247" d="M440.686 1698.009a9.079 9.079 0 1 1-11.84-4.966 9.079 9.079 0 0 1 11.84 4.966z" transform="translate(-422.41 -1691.579)"/>
                <path id="Path_7248" d="M430.591 1709.622a9.868 9.868 0 1 1 9.121-13.6 9.869 9.869 0 0 1-9.121 13.6zm-.024-18.158a8.29 8.29 0 1 0 7.686 5.152 8.227 8.227 0 0 0-7.687-5.152z" transform="translate(-420.706 -1689.888)"/>
            </g>
            <g filter="url(#Path_7249)" transform="translate(-238.07 -188.88)">
                <path id="Path_7249-2" d="M409.971 1604.057l-3.363 5.6-6.378-2.479-35.821-99.989 5.873 12.486z" class="cls-7" transform="translate(-126.34 -1318.31)"/>
            </g>
            <path id="Path_7250" d="M364.409 1507.188l42.2 102.467-6.378-2.479z" class="cls-12" transform="translate(-364.409 -1507.188)"/>
            <path id="Path_7251" d="M445.349 1703.583a8.363 8.363 0 1 1-10.906-4.575 8.373 8.373 0 0 1 10.906 4.575z" class="cls-1" transform="translate(-405.272 -1627.69)"/>
            <path id="Path_7252" d="M434.442 1700.069l6.332 15.48a8.363 8.363 0 0 1-6.332-15.48z" class="cls-12" transform="translate(-405.272 -1628.751)"/>
        </g>
        <g id="Group_20872" transform="rotate(7 2495.542 -29289.42)">
            <g id="Group_20870" transform="translate(4761.056 360.372)">
                <path id="Path_7284" d="M4771.057 364.067c1.382 1.579 1.357 3.449-.05 4.682a2.179 2.179 0 0 1-2.637.413 2.411 2.411 0 0 1-.82 2.929c-1.41 1.234-3.265 1.008-4.637-.559l-3.339-3.818a.227.227 0 0 1 .02-.316l7.962-6.968a.244.244 0 0 1 .328.011zm-6.451 5.049a.769.769 0 1 0 1.157-1.012l-.854-.976-1.158 1.012zm2.7-2.746a.739.739 0 1 0 1.109-.97l-.665-.76-1.108.97z" class="cls-3" transform="translate(-4759.519 -360.372)"/>
                <path id="Path_7285" d="M4768.982 377.949a.186.186 0 0 1-.263.047 6.238 6.238 0 0 1-2.637-2.2 4.636 4.636 0 1 1 7.542-5.392c1.527 2.177 1.026 4.445-1.359 6.119a3.769 3.769 0 0 1-.627.361.211.211 0 0 1-.3-.087l-2.953-4.206s-.825.579-.052 1.68a6.1 6.1 0 0 0 1.84 1.7.172.172 0 0 1 .034.269zm2.081-4.473a1.063 1.063 0 0 0 .34-1.551 1.117 1.117 0 0 0-1.646-.311z" class="cls-3" transform="translate(-4757.655 -357.719)"/>
                <path id="Path_7286" d="M4770.593 376.891a.133.133 0 0 1 .159.149 4 4 0 0 0 .338 1.924c.138.309.416.408.623.289.71-.4-1.241-3.323 1.376-4.809 1.49-.844 3.209-.145 4.283 1.747a6.276 6.276 0 0 1 .754 3.178c-.014.1-.062.183-.146.195l-2.045.221a.133.133 0 0 1-.158-.149 3.683 3.683 0 0 0-.338-1.924c-.138-.308-.388-.424-.61-.3-.738.417 1.256 3.317-1.388 4.817-1.489.844-3.187.188-4.238-1.663a6.8 6.8 0 0 1-.8-3.262c.031-.109.077-.191.175-.209z" class="cls-3" transform="translate(-4756.556 -355.795)"/>
                <path id="Path_7287" d="M4780.771 383.641a.222.222 0 0 1-.1.312l-1.479.5a.258.258 0 0 1-.319-.116l-.436-.927-5.925 2.779a.245.245 0 0 1-.319-.115l-1.2-2.55a.245.245 0 0 1 .117-.319l5.926-2.781-.388-.826a.229.229 0 0 1 .108-.3l1.4-.659a.235.235 0 0 1 .314.1l.387.827 1.579-.742a.258.258 0 0 1 .305.123l1.443 2.434a.234.234 0 0 1-.1.313l-1.827.856z" class="cls-3" transform="translate(-4755.697 -354.285)"/>
                <path id="Path_7288" d="M4776.99 397.112a.225.225 0 0 1-.318-.051 6.63 6.63 0 0 1-1.886-2.934c-.979-3.149.563-5.943 3.862-6.971s6.16.395 7.142 3.542a6.621 6.621 0 0 1 .113 3.486c-.023.141-.111.236-.231.223l-2.44-.347c-.155-.019-.235-.111-.211-.252a3.56 3.56 0 0 0-.125-1.906 2.652 2.652 0 0 0-5.042 1.571 3.525 3.525 0 0 0 .979 1.639.21.21 0 0 1-.032.329z" class="cls-3" transform="translate(-4754.521 -351.547)"/>
                <path id="Path_7289" d="M4787.746 396.53a.245.245 0 0 1-.188.281l-3.175.625a2.582 2.582 0 0 1 1.279 1.852 2.75 2.75 0 0 1-2.3 3.57l-5.734 1.13a.246.246 0 0 1-.282-.189l-.544-2.766a.222.222 0 0 1 .191-.265l4.934-.971c.628-.124.935-.479.837-.964a1.071 1.071 0 0 0-1.083-.864l-5.042.992a.246.246 0 0 1-.283-.189l-.543-2.765a.243.243 0 0 1 .188-.281l10.92-2.15a.246.246 0 0 1 .281.189z" class="cls-3" transform="translate(-4754.085 -349.295)"/>
                <path id="Path_7290" d="M4784.9 402a.252.252 0 0 1 .311.052 6.717 6.717 0 0 1 1.217 3.377c.245 2.757-1.089 4.161-4.261 4.445l-4.126.368a.243.243 0 0 1-.26-.217l-.18-2.008a.259.259 0 0 1 .215-.276l.42-.149a3.915 3.915 0 0 1-1.153-2.661 2.814 2.814 0 0 1 2.661-3.289c1.564-.124 2.707.995 2.87 2.8a2.49 2.49 0 0 1-.661 2.147l.669-.06a1.121 1.121 0 0 0 1.023-1.328 4.2 4.2 0 0 0-.682-1.866c-.055-.076 0-.177.1-.251zm-4.525 4.725a1.189 1.189 0 0 0 .321-.912c-.036-.4-.283-.65-.635-.619a.592.592 0 0 0-.512.721 1.178 1.178 0 0 0 .476.84z" class="cls-3" transform="translate(-4753.663 -346.606)"/>
                <path id="Path_7291" d="M4785.771 411.373a3.738 3.738 0 0 1 .853 2.59c-.034 2.175-1.061 3.342-3.557 3.3l-5.28-.088a.244.244 0 0 1-.234-.243l.046-2.815a.222.222 0 0 1 .245-.22l4.781.079c.64.011 1.012-.271 1.02-.767a1.072 1.072 0 0 0-.878-1.071l-4.894-.081a.244.244 0 0 1-.236-.243l.046-2.815a.245.245 0 0 1 .244-.236l8.333.137a.2.2 0 0 1 .221.228l-.029 1.791a.261.261 0 0 1-.164.253z" class="cls-3" transform="translate(-4753.501 -344.227)"/>
                <path id="Path_7292" d="M4777.669 423.532c-.115.019-.175-.021-.224-.14a6.212 6.212 0 0 1-.5-3.4 4.635 4.635 0 1 1 9.212 1.028c-.319 2.638-2.207 3.99-5.1 3.642a3.627 3.627 0 0 1-.707-.149.208.208 0 0 1-.163-.261l.615-5.1s-1-.12-1.163 1.215a6.089 6.089 0 0 0 .231 2.5.17.17 0 0 1-.154.223zm4.538-1.938a1.062 1.062 0 0 0 1.289-.924 1.12 1.12 0 0 0-1.018-1.332z" class="cls-3" transform="translate(-4753.719 -341.873)"/>
                <path id="Path_7293" d="M4779.468 423.739a.131.131 0 0 1 .019.216 4.033 4.033 0 0 0-1.034 1.656.454.454 0 0 0 .271.633c.8.173 1.3-3.3 4.235-2.661 1.672.365 2.485 2.034 2.02 4.16a6.277 6.277 0 0 1-1.562 2.869.2.2 0 0 1-.238.045l-1.67-1.2a.131.131 0 0 1-.019-.216 3.653 3.653 0 0 0 1.034-1.658c.1-.321 0-.575-.255-.629-.828-.181-1.28 3.306-4.249 2.657-1.672-.365-2.5-1.987-2.043-4.065a6.8 6.8 0 0 1 1.583-2.963.249.249 0 0 1 .27-.039z" class="cls-3" transform="translate(-4754.069 -339.637)"/>
            </g>
            <g id="Group_20871" transform="translate(4754.912 380.518)">
                <path id="Path_7294" d="M4767.314 382.764a.208.208 0 0 1-.064.311l-2.165 1.136a.273.273 0 0 1-.327-.091l-1.31-1.992-6.632 4.36a.229.229 0 0 1-.311-.063l-1.556-2.367a.245.245 0 0 1 .056-.324l6.631-4.36-1.459-2.22a.228.228 0 0 1 .064-.309l2.019-1.327a.244.244 0 0 1 .324.055z" class="cls-3" transform="translate(-4754.912 -375.478)"/>
                <path id="Path_7295" d="M4765.1 392.8a4.7 4.7 0 1 1 2.136-6.241 4.417 4.417 0 0 1-2.136 6.241zm-2.732-5.664a1.592 1.592 0 1 0 2.271.668 1.587 1.587 0 0 0-2.267-.666z" class="cls-3" transform="translate(-4753.77 -372.703)"/>
                <path id="Path_7296" d="M4775.3 406.331a.192.192 0 0 1-.219.251l-10.909-.373a.393.393 0 0 1-.33-.281l-.653-2.71a.4.4 0 0 1 .164-.417l5.138-2.734-5.82-.1a.4.4 0 0 1-.335-.3l-.65-2.709a.4.4 0 0 1 .167-.4l9.547-5.293a.192.192 0 0 1 .308.123l.839 3.488a.4.4 0 0 1-.179.421l-4.44 2.007 4.941.079a.45.45 0 0 1 .367.357l.539 2.242a.451.451 0 0 1-.163.484l-4.367 2.318 4.868-.232a.4.4 0 0 1 .352.295z" class="cls-3" transform="translate(-4752.654 -370.224)"/>
                <path id="Path_7297" d="M4772.613 407.246a.243.243 0 0 1-.2.261l-8.3.795a.248.248 0 0 1-.261-.216l-.269-2.8a.245.245 0 0 1 .217-.261l8.3-.795a.238.238 0 0 1 .244.217zm1.9.156a1.77 1.77 0 0 1-.336-3.5 1.764 1.764 0 0 1 .336 3.5z" class="cls-3" transform="translate(-4752.019 -365.999)"/>
                <path id="Path_7298" d="M4772.087 410.469a3.75 3.75 0 0 1 .854 2.59c-.037 2.175-1.063 3.342-3.559 3.3l-5.279-.088a.245.245 0 0 1-.236-.243l.047-2.815a.222.222 0 0 1 .244-.22l4.782.079c.639.011 1.013-.271 1.021-.767a1.071 1.071 0 0 0-.879-1.07l-4.894-.081a.246.246 0 0 1-.234-.244l.046-2.81a.245.245 0 0 1 .243-.236l8.333.137a.2.2 0 0 1 .221.228l-.029 1.792a.26.26 0 0 1-.164.252z" class="cls-3" transform="translate(-4751.924 -364.674)"/>
            </g>
        </g>
        <text id="Odds_Calculator" fill="#232323" font-family="FatFrank-Heavy, FatFrank" font-size="23px" font-weight="800" letter-spacing="0.02em" transform="translate(1068 532)">
            <tspan x="-29.819" y="0">Odds</tspan><tspan x="-57.627" y="27">Calculator</tspan>
        </text>
    </g>
</svg>
