<svg width="70" height="18" viewBox="0 0 70 18" fill="none" xmlns="http://www.w3.org/2000/svg">
<path d="M66.591 8.20512C65.7854 7.9059 64.9236 7.78848 64.0673 7.86125C63.2111 7.93402 62.3815 8.19518 61.6379 8.62605C60.8944 9.05693 60.2553 9.64684 59.7664 10.3536C59.2775 11.0603 58.9509 11.8664 58.81 12.7141C58.7156 13.2624 58.7156 13.8228 58.81 14.3711C58.276 14.7171 57.333 15.2831 57.568 13.7471C58.055 10.5621 58.442 8.36412 58.937 5.44712C59.024 4.93112 59.037 4.75512 58.521 4.76512C57.756 4.78112 57.769 4.75112 56.673 4.75112C55.514 4.75112 55.311 4.48112 55.122 5.82912C55.093 6.03812 54.968 6.92213 54.922 7.12913L54.694 5.11112C54.631 4.77112 54.682 4.63512 54.343 4.54912C54.05 4.47512 53.758 4.39012 53.461 4.33912C51.025 3.91512 48.528 4.92612 47.68 6.98912C47.58 7.23812 47.542 7.41212 47.466 7.62112L47.116 5.01012C47.061 4.72312 47.035 4.62512 46.735 4.54912C46.435 4.47312 46.122 4.39012 45.825 4.33912C43.389 3.91512 40.96 4.89712 40.185 6.98912C39.798 8.03512 40.07 8.08913 38.474 8.11513C38.358 8.11513 38.117 8.22612 38.097 8.32212C37.932 9.10312 37.806 9.89313 37.656 10.7481H39.256C39.05 11.9311 38.956 12.9301 38.756 14.0951C38.236 14.2791 37.18 15.0951 36.35 14.5601C36.2806 14.3526 36.2561 14.1328 36.278 13.9151C36.415 13.1061 36.573 12.3001 36.711 11.4911C36.8095 11.1669 36.842 10.8263 36.8066 10.4893C36.7712 10.1524 36.6686 9.82594 36.5049 9.52929C36.3412 9.23265 36.1197 8.97184 35.8535 8.76226C35.5873 8.55269 35.2817 8.3986 34.955 8.30912C34.0574 7.9621 33.0953 7.81403 32.135 7.87512C30.7637 7.88824 29.428 8.31292 28.301 9.09413C27.97 9.33513 27.912 9.55513 28.201 9.87213C28.4837 10.1823 28.7462 10.5103 28.987 10.8541C29.229 11.2051 29.433 11.2311 29.807 10.9901C30.1691 10.7128 30.5912 10.524 31.0393 10.4389C31.4875 10.3539 31.9494 10.3748 32.388 10.5001C32.54 10.523 32.6837 10.5844 32.8052 10.6786C32.9268 10.7727 33.0222 10.8964 33.0823 11.0379C33.1425 11.1794 33.1654 11.334 33.1489 11.4868C33.1324 11.6397 33.077 11.7858 32.988 11.9111C32.5421 11.8268 32.0922 11.7654 31.64 11.7271C30.1696 11.5558 28.6901 11.9609 27.512 12.8571C27.4241 12.9319 27.3403 13.0113 27.261 13.0951C26.771 13.6047 26.2194 14.0511 25.619 14.4241C25.4284 14.5036 25.2146 14.5064 25.022 14.4318C24.8295 14.3573 24.6733 14.2112 24.586 14.0241C24.386 13.6421 24.212 13.1861 24.025 12.7921C24.45 12.5311 24.882 12.3041 25.271 12.0181C25.9125 11.51 26.3915 10.8255 26.6493 10.0488C26.9071 9.27209 26.9324 8.43699 26.722 7.64612C26.301 6.07712 25.101 5.52812 23.64 5.32912C23.457 5.30412 16.235 5.27912 16.235 5.27912C16.3911 5.33005 16.5216 5.43925 16.5993 5.58399C16.677 5.72872 16.6959 5.89783 16.652 6.05612C16.125 8.77012 15.042 15.8791 15.042 15.8791C14.9536 16.5345 14.6455 17.1406 14.168 17.5981C14.168 17.5981 17.64 17.5821 17.842 17.5901C18.314 17.6081 18.432 17.4201 18.497 17.0051C18.689 15.7671 18.924 14.5351 19.141 13.3051C19.3592 13.2364 19.5954 13.2533 19.8016 13.3525C20.0078 13.4517 20.1685 13.6257 20.251 13.8391C20.58 14.4961 20.851 15.1831 21.132 15.8621C21.2555 16.2096 21.4481 16.5284 21.6981 16.7995C21.948 17.0706 22.2503 17.2883 22.5866 17.4396C22.9229 17.5908 23.2863 17.6725 23.655 17.6796C24.0237 17.6868 24.3901 17.6192 24.732 17.4811C25.932 17.0811 26.344 15.3571 26.432 15.1711C26.6029 15.9817 27.0724 16.6983 27.7473 17.1787C28.4222 17.6591 29.2531 17.8681 30.075 17.7641C31.1041 17.761 32.112 17.4715 32.986 16.9281C33.218 17.1322 33.4836 17.2945 33.771 17.4081C36.622 18.3441 38.48 15.2591 38.48 15.2591C38.48 15.2591 38.293 16.8681 38.14 17.5971C39.327 17.5971 40.516 17.6051 41.648 17.5811C41.738 17.5811 41.933 17.3131 41.958 17.1811C42.186 15.9631 42.336 14.7411 42.55 13.5211C42.712 12.6031 43.043 10.7481 43.043 10.7481H46.777L45.657 17.5961C45.657 17.5961 47.997 17.6041 49.151 17.5801C49.241 17.5801 49.379 17.3121 49.404 17.1801C49.632 15.9621 49.838 14.7401 50.053 13.5201C50.215 12.6021 50.379 11.6841 50.546 10.7471C51.262 10.7471 51.86 10.7601 52.514 10.7371C52.5742 10.7478 52.6361 10.7456 52.6955 10.7308C52.7549 10.716 52.8105 10.6889 52.8587 10.6511C52.9069 10.6134 52.9466 10.5659 52.9753 10.5118C53.0039 10.4577 53.0209 10.3982 53.025 10.3371C53.186 9.55713 53.384 8.08713 53.384 8.08713H51.017C51.317 7.15013 52.693 6.90212 53.606 7.09312C54.0258 7.15847 54.4345 7.28235 54.82 7.46112C54.82 7.46112 54.12 12.3461 53.638 14.7221C53.266 16.5561 54.095 17.7121 55.921 17.8571C56.2316 17.8595 56.5417 17.829 56.846 17.7661C57.3573 17.6404 57.8258 17.3805 58.2032 17.0133C58.5806 16.6461 58.8533 16.1848 58.993 15.6771C59.171 15.1771 59.635 17.1771 61.998 17.7181C62.977 17.9705 64.0024 17.9842 64.9878 17.758C65.9733 17.5318 66.89 17.0723 67.661 16.4181C67.7404 16.3446 67.7973 16.25 67.8249 16.1453C67.8525 16.0406 67.8498 15.9303 67.817 15.8271L67.54 13.7151H68.372C68.653 13.7151 68.853 13.6691 68.947 13.3651C69.3178 12.3696 69.278 11.2676 68.8363 10.3015C68.3947 9.33531 67.5874 8.58413 66.592 8.21313L66.591 8.20512ZM21.777 10.7611C20.987 10.7711 20.938 10.7491 19.55 10.7521C19.715 9.79712 19.801 8.98212 19.95 8.09712C20.411 8.09712 21.137 8.06112 22.16 8.10612C22.3728 8.11402 22.5773 8.19098 22.7426 8.32539C22.9079 8.45979 23.0249 8.64433 23.076 8.85113C23.1521 9.0632 23.177 9.29028 23.1486 9.51382C23.1202 9.73736 23.0393 9.951 22.9125 10.1373C22.7857 10.3236 22.6167 10.4772 22.4191 10.5856C22.2216 10.6941 22.0022 10.7542 21.777 10.7611ZM31.176 15.6171C30.758 15.5881 30.352 15.4951 30.207 15.0091C30.1454 14.7803 30.1697 14.5368 30.2753 14.3246C30.3808 14.1124 30.5603 13.9461 30.78 13.8571C31.309 13.6081 32.614 13.6511 32.613 14.1461C32.6013 14.5266 32.4472 14.8888 32.1814 15.1612C31.9155 15.4336 31.556 15.5963 31.176 15.6171ZM46.197 8.07612H43.519C43.819 7.12512 44.334 6.85212 45.442 6.93912C46.1594 7.01464 46.8449 7.27552 47.431 7.69612C47.431 8.07812 46.95 8.07612 46.198 8.07612H46.197ZM63.422 10.5761C63.6845 10.4047 63.9931 10.3175 64.3065 10.3261C64.6199 10.3347 64.9232 10.4386 65.176 10.6241C65.3851 10.7782 65.5418 10.9928 65.625 11.2389C65.7082 11.485 65.7137 11.7508 65.641 12.0001H62.413C62.4532 11.6988 62.566 11.4117 62.7418 11.1636C62.9176 10.9156 63.151 10.714 63.422 10.5761ZM63.422 15.1391C63.0906 15.0672 62.7927 14.8869 62.5753 14.6266C62.358 14.3663 62.2336 14.041 62.222 13.7021C62.46 13.7021 65.903 13.7021 67.37 13.7021C66.9203 14.2951 66.3092 14.7458 65.6098 15.0002C64.9104 15.2545 64.1525 15.3017 63.427 15.1361" fill="#232323"/>
<path d="M7.28584 16.076L7.90084 12.237C7.9236 11.9298 8.05367 11.6403 8.26829 11.4193C8.48291 11.1983 8.76841 11.0598 9.07484 11.028C9.22825 11.0235 9.38071 11.0534 9.52105 11.1156C9.66139 11.1777 9.78603 11.2704 9.88584 11.387C9.94308 11.2034 10.0424 11.0357 10.1758 10.8972C10.3093 10.7587 10.4733 10.6532 10.6546 10.5892C10.836 10.5253 11.0298 10.5045 11.2207 10.5286C11.4115 10.5527 11.5941 10.621 11.7538 10.728C11.7538 10.728 10.8958 7.33302 10.6948 6.41802C10.6168 6.06602 10.4948 5.01802 11.5948 5.03202C12.2038 5.04102 12.4538 5.30802 12.6538 6.01102C12.8998 6.87602 13.7538 10.654 13.7538 10.654C13.7538 10.654 14.3248 6.57302 14.5068 6.02502C14.568 5.8362 14.6744 5.66522 14.8168 5.52699C14.9592 5.38876 15.1333 5.28749 15.3238 5.23202C15.395 4.18791 15.0846 3.15348 14.4504 2.32101C13.8163 1.48853 12.9014 0.914644 11.8758 0.706016C10.3078 0.28319 8.657 0.273825 7.08428 0.678835C5.51156 1.08384 4.0706 1.88941 2.90184 3.01702C2.82889 3.06449 2.76823 3.12858 2.72481 3.20402C2.6814 3.27946 2.65648 3.36411 2.65209 3.45104C2.6477 3.53797 2.66397 3.6247 2.69956 3.70413C2.73515 3.78356 2.78905 3.85343 2.85684 3.90802C3.36384 4.50802 3.85684 5.10802 4.35084 5.71702C4.93584 6.43002 4.93084 6.42502 5.60784 5.79602C6.30797 5.01916 7.24719 4.498 8.27684 4.31502C8.6196 4.24756 8.97467 4.28351 9.29695 4.4183C9.61923 4.55308 9.89417 4.78063 10.0868 5.07202C10.2516 5.35522 10.3179 5.68498 10.2756 6.00985C10.2333 6.33473 10.0846 6.63647 9.85284 6.86802C9.4772 7.3899 9.0408 7.86524 8.55284 8.28402C6.33984 10.089 4.10184 11.861 1.87784 13.651C1.72184 13.777 1.50984 13.926 1.47784 14.095C1.24684 15.212 1.06084 16.38 0.839844 17.618C1.63984 17.618 7.82584 17.546 7.82584 17.546C7.58693 17.3943 7.40461 17.1681 7.30701 16.9024C7.20942 16.6367 7.20198 16.3463 7.28584 16.076Z" fill="#232323"/>
</svg>
