<?xml version="1.0" encoding="utf-8"?>
<!-- Generator: Adobe Illustrator 22.1.0, SVG Export Plug-In . SVG Version: 6.00 Build 0)  -->
<svg version="1.1" id="Layer_1" xmlns="http://www.w3.org/2000/svg" xmlns:xlink="http://www.w3.org/1999/xlink" x="0px" y="0px"
	 viewBox="0 0 76.9 80.7" style="enable-background:new 0 0 76.9 80.7;" xml:space="preserve">
<style type="text/css">
	.st0{fill:#232323;}
</style>
<g id="Group_20775" transform="translate(-515.919 -1137)">
	<g id="Group_20774" transform="translate(515.919 1137)">
		<g id="Group_20772">
			<g id="Group_20761">
				<g id="Group_20752" transform="translate(46.38 2.321)">
					<path id="Path_7192" class="st0" d="M0.5,14c-0.1,0-0.1,0-0.2,0c-0.3-0.1-0.4-0.4-0.3-0.7L4.7,0.4C4.8,0.1,5.1-0.1,5.4,0
						c0.3,0.1,0.4,0.4,0.3,0.7l0,0L1,13.6C1,13.8,0.8,14,0.5,14z"/>
				</g>
				<g id="Group_20753" transform="translate(13.164 9.005)">
					<path id="Path_7193" class="st0" d="M0.5,60C0.2,60,0,59.8,0,59.5c0-0.1,0-0.2,0.1-0.3l8.8-10.5c0.2-0.2,0.5-0.3,0.8-0.1
						c0.2,0.2,0.3,0.5,0.1,0.8L0.9,59.8C0.8,60,0.7,60,0.5,60z"/>
					<path id="Path_7194" class="st0" d="M41.2,11.6c-0.3,0-0.5-0.2-0.5-0.5c0-0.1,0-0.2,0.1-0.3l8.8-10.5c0.2-0.2,0.5-0.3,0.8-0.1
						c0.2,0.2,0.3,0.5,0.1,0.8l-8.8,10.5C41.5,11.5,41.4,11.6,41.2,11.6z"/>
				</g>
				<g id="Group_20754" transform="translate(4.572 19.244)">
					<path id="Path_7195" class="st0" d="M0.5,39.6C0.2,39.6,0,39.3,0,39c0-0.2,0.1-0.4,0.3-0.5l11.9-6.9c0.3-0.1,0.6-0.1,0.7,0.2
						s0.1,0.6-0.2,0.7L0.8,39.5C0.7,39.5,0.6,39.6,0.5,39.6z"/>
					<path id="Path_7196" class="st0" d="M55.3,7.9c-0.3,0-0.5-0.2-0.5-0.5c0-0.2,0.1-0.4,0.3-0.5l11.9-6.9c0.3-0.1,0.6-0.1,0.7,0.2
						c0.1,0.3,0.1,0.6-0.2,0.7L55.6,7.9C55.5,7.9,55.4,7.9,55.3,7.9z"/>
				</g>
				<g id="Group_20755" transform="translate(0 31.805)">
					<path id="Path_7197" class="st0" d="M0.5,14.4c-0.3,0-0.5-0.2-0.5-0.5c0-0.3,0.2-0.5,0.5-0.5L13.9,11c0.3-0.1,0.6,0.1,0.6,0.4
						c0.1,0.3-0.1,0.6-0.4,0.6L0.5,14.4C0.6,14.4,0.6,14.4,0.5,14.4L0.5,14.4z"/>
					<path id="Path_7198" class="st0" d="M62.8,3.5c-0.3,0-0.5-0.2-0.5-0.5c0-0.3,0.2-0.5,0.5-0.5L76.3,0c0.3-0.1,0.6,0.1,0.6,0.4
						c0.1,0.3-0.1,0.6-0.4,0.6L62.8,3.5C62.9,3.5,62.9,3.5,62.8,3.5L62.8,3.5z"/>
				</g>
				<g id="Group_20756" transform="translate(0 31.805)">
					<path id="Path_7199" class="st0" d="M14,3.5C14,3.5,14,3.5,14,3.5L0.4,1.1C0.1,1,0,0.7,0,0.4C0.1,0.2,0.3,0,0.6,0l0,0l13.5,2.4
						c0.3,0,0.5,0.3,0.4,0.6C14.5,3.3,14.3,3.5,14,3.5L14,3.5z"/>
					<path id="Path_7200" class="st0" d="M76.3,14.4C76.3,14.4,76.3,14.4,76.3,14.4l-13.6-2.4c-0.3-0.1-0.5-0.3-0.4-0.6
						c0.1-0.3,0.3-0.5,0.6-0.4l13.5,2.4c0.3,0,0.5,0.3,0.4,0.6C76.8,14.3,76.6,14.4,76.3,14.4L76.3,14.4z"/>
				</g>
				<g id="Group_20757" transform="translate(4.572 19.244)">
					<path id="Path_7201" class="st0" d="M12.4,7.9c-0.1,0-0.2,0-0.3-0.1L0.3,1C0,0.9-0.1,0.5,0.1,0.3C0.2,0,0.6-0.1,0.8,0.1
						l11.9,6.9c0.3,0.2,0.3,0.5,0.2,0.7C12.8,7.8,12.6,7.9,12.4,7.9L12.4,7.9z"/>
					<path id="Path_7202" class="st0" d="M67.2,39.6c-0.1,0-0.2,0-0.3-0.1l-11.9-6.9c-0.3-0.1-0.3-0.5-0.2-0.7s0.5-0.3,0.7-0.2
						l11.9,6.9c0.3,0.2,0.3,0.5,0.2,0.7C67.6,39.5,67.4,39.6,67.2,39.6L67.2,39.6z"/>
				</g>
				<g id="Group_20758" transform="translate(13.164 9.005)">
					<path id="Path_7203" class="st0" d="M9.3,11.6c-0.2,0-0.3-0.1-0.4-0.2L0.1,0.9C-0.1,0.7,0,0.3,0.2,0.1C0.4-0.1,0.8,0,0.9,0.2
						l8.8,10.5c0.2,0.2,0.2,0.6-0.1,0.8C9.6,11.5,9.5,11.6,9.3,11.6z"/>
					<path id="Path_7204" class="st0" d="M50,60c-0.2,0-0.3-0.1-0.4-0.2l-8.8-10.5c-0.2-0.2-0.2-0.6,0.1-0.8
						c0.2-0.2,0.6-0.2,0.8,0.1c0,0,0,0,0,0l8.8,10.5c0.2,0.2,0.2,0.6-0.1,0.8C50.3,60,50.1,60,50,60L50,60z"/>
				</g>
				<g id="Group_20759" transform="translate(24.74 2.321)">
					<path id="Path_7205" class="st0" d="M5.2,14c-0.2,0-0.4-0.1-0.5-0.4L0,0.7c-0.1-0.3,0-0.6,0.3-0.7c0.3-0.1,0.6,0,0.7,0.3l0,0
						l4.7,12.9c0.1,0.3,0,0.6-0.3,0.7C5.4,13.9,5.3,14,5.2,14L5.2,14z"/>
				</g>
				<g id="Group_20760" transform="translate(37.904)">
					<path id="Path_7206" class="st0" d="M0.5,14.8c-0.3,0-0.5-0.2-0.5-0.5V0.5C0,0.2,0.2,0,0.5,0c0.3,0,0.5,0.2,0.5,0.5
						c0,0,0,0,0,0v13.7C1.1,14.5,0.8,14.8,0.5,14.8z"/>
				</g>
			</g>
			<g id="Group_20771" transform="translate(5.593 6.668)">
				<g id="Group_20762" transform="translate(16.155 3.838)">
					<path id="Path_7207" class="st0" d="M0.5,57C0.2,57,0,56.8,0,56.5c0-0.1,0-0.2,0.1-0.3l3.8-6.5c0.1-0.3,0.5-0.3,0.7-0.2
						s0.3,0.5,0.2,0.7L1,56.8C0.9,56.9,0.7,57,0.5,57L0.5,57z"/>
					<path id="Path_7208" class="st0" d="M29.1,7.6c-0.3,0-0.5-0.2-0.5-0.5c0-0.1,0-0.2,0.1-0.3l3.8-6.5c0.1-0.3,0.5-0.3,0.7-0.2
						c0.3,0.1,0.3,0.5,0.2,0.7c0,0,0,0,0,0l-3.8,6.5C29.5,7.5,29.3,7.6,29.1,7.6L29.1,7.6z"/>
				</g>
				<g id="Group_20763" transform="translate(7.559 11.051)">
					<path id="Path_7209" class="st0" d="M0.5,42.6c-0.3,0-0.5-0.2-0.5-0.5c0-0.2,0.1-0.3,0.2-0.4L6,36.8c0.2-0.2,0.6-0.2,0.8,0.1
						c0.2,0.2,0.2,0.6-0.1,0.8l0,0l-5.8,4.8C0.8,42.6,0.7,42.6,0.5,42.6L0.5,42.6z"/>
					<path id="Path_7210" class="st0" d="M44.3,5.9c-0.3,0-0.5-0.2-0.5-0.5c0-0.2,0.1-0.3,0.2-0.4l5.8-4.8c0.2-0.2,0.6-0.2,0.8,0.1
						c0.2,0.2,0.2,0.6-0.1,0.8l-5.8,4.8C44.5,5.9,44.4,5.9,44.3,5.9L44.3,5.9z"/>
				</g>
				<g id="Group_20764" transform="translate(1.948 20.77)">
					<path id="Path_7211" class="st0" d="M0.5,23.2c-0.3,0-0.5-0.2-0.5-0.5c0-0.2,0.1-0.4,0.4-0.5l7.1-2.6c0.3-0.1,0.6,0,0.7,0.3
						c0.1,0.3,0,0.6-0.3,0.7l-7.1,2.6C0.7,23.2,0.6,23.2,0.5,23.2L0.5,23.2z"/>
					<path id="Path_7212" class="st0" d="M54.2,3.6c-0.3,0-0.5-0.2-0.5-0.5c0-0.2,0.1-0.4,0.4-0.5L61.1,0c0.3-0.1,0.6,0,0.7,0.3
						c0.1,0.3,0,0.6-0.3,0.7l0,0l-7.1,2.6C54.3,3.6,54.2,3.6,54.2,3.6L54.2,3.6z"/>
				</g>
				<g id="Group_20765" transform="translate(0 31.82)">
					<path id="Path_7213" class="st0" d="M8.1,1.1H0.5C0.2,1.1,0,0.8,0,0.5C0,0.2,0.2,0,0.5,0c0,0,0,0,0,0h7.5
						c0.3,0,0.5,0.2,0.5,0.5C8.6,0.8,8.4,1.1,8.1,1.1C8.1,1.1,8.1,1.1,8.1,1.1z"/>
					<path id="Path_7214" class="st0" d="M65.2,1.1h-7.5c-0.3,0-0.5-0.2-0.5-0.5c0-0.3,0.2-0.5,0.5-0.5h7.5c0.3,0,0.5,0.2,0.5,0.5
						C65.7,0.8,65.4,1.1,65.2,1.1z"/>
				</g>
				<g id="Group_20766" transform="translate(1.948 20.769)">
					<path id="Path_7215" class="st0" d="M7.6,3.6c-0.1,0-0.1,0-0.2,0L0.4,1C0.1,0.9-0.1,0.6,0,0.4C0.1,0.1,0.4-0.1,0.7,0l0,0
						l7.1,2.6C8.1,2.7,8.2,3,8.1,3.3C8,3.5,7.8,3.7,7.6,3.6L7.6,3.6z"/>
					<path id="Path_7216" class="st0" d="M61.3,23.2c-0.1,0-0.1,0-0.2,0L54,20.6c-0.3-0.1-0.4-0.4-0.3-0.7s0.4-0.4,0.7-0.3l7.1,2.6
						c0.3,0.1,0.4,0.4,0.3,0.7C61.7,23,61.5,23.2,61.3,23.2L61.3,23.2z"/>
				</g>
				<g id="Group_20767" transform="translate(7.559 11.051)">
					<path id="Path_7217" class="st0" d="M6.3,5.9c-0.1,0-0.2,0-0.3-0.1L0.2,0.9C0,0.8-0.1,0.4,0.1,0.2C0.3,0,0.7-0.1,0.9,0.1L6.7,5
						c0.2,0.2,0.3,0.5,0.1,0.8C6.6,5.8,6.5,5.9,6.3,5.9L6.3,5.9z"/>
					<path id="Path_7218" class="st0" d="M50,42.6c-0.1,0-0.2,0-0.3-0.1l-5.8-4.8c-0.2-0.2-0.3-0.5-0.1-0.8c0.2-0.2,0.5-0.3,0.8-0.1
						l5.8,4.8c0.2,0.2,0.3,0.5,0.1,0.8C50.4,42.5,50.2,42.6,50,42.6L50,42.6z"/>
				</g>
				<g id="Group_20768" transform="translate(16.155 3.838)">
					<path id="Path_7219" class="st0" d="M4.3,7.6c-0.2,0-0.4-0.1-0.5-0.3L0.1,0.8C-0.1,0.6,0,0.2,0.3,0.1C0.5-0.1,0.8,0,1,0.3
						c0,0,0,0,0,0l3.8,6.5C4.9,7,4.8,7.4,4.6,7.5C4.5,7.6,4.4,7.6,4.3,7.6L4.3,7.6z"/>
					<path id="Path_7220" class="st0" d="M32.8,57c-0.2,0-0.4-0.1-0.5-0.3l-3.8-6.5c-0.1-0.3-0.1-0.6,0.2-0.7
						c0.3-0.1,0.6-0.1,0.7,0.2l3.8,6.5c0.1,0.3,0.1,0.6-0.2,0.7c0,0,0,0,0,0C33,57,32.9,57,32.8,57L32.8,57z"/>
				</g>
				<g id="Group_20769" transform="translate(26.7)">
					<path id="Path_7221" class="st0" d="M1.8,8.5C1.6,8.5,1.4,8.3,1.3,8L0,0.6C0,0.3,0.2,0.1,0.4,0C0.7,0,1,0.2,1.1,0.4l1.3,7.4
						C2.4,8.1,2.2,8.4,1.8,8.5C1.9,8.5,1.9,8.5,1.8,8.5C1.9,8.5,1.9,8.5,1.8,8.5L1.8,8.5z"/>
				</g>
				<g id="Group_20770" transform="translate(36.614)">
					<path id="Path_7222" class="st0" d="M0.5,8.5C0.2,8.5,0,8.2,0,8c0,0,0-0.1,0-0.1l1.3-7.4C1.4,0.2,1.6,0,1.9,0
						c0.3,0.1,0.5,0.3,0.4,0.6L1.1,8C1,8.3,0.8,8.5,0.5,8.5z"/>
				</g>
			</g>
		</g>
		<g id="Group_20773" transform="translate(31.324 70.8)">
			<path id="Path_7223" class="st0" d="M14.2,6H0V0h14.2V6z M1.1,4.9h12.1V1.1H1.1V4.9z"/>
		</g>
		<path id="Path_7224" class="st0" d="M50.7,31.5c0-0.5,0-1.1,0.1-1.6c0.7-0.2,1.2-0.8,1.2-1.5v0c0-0.9-0.7-1.6-1.6-1.6H26.8
			c-0.9,0-1.6,0.7-1.6,1.6v0c0,0.7,0.5,1.3,1.2,1.5c0,0.5,0,1.1,0.1,1.6h-6.8v5.6c0,2.1,0.8,9.3,11.6,12.5c0,0,0,0,0,0
			c1,1.7,2.4,3.2,4,4.3c-0.2,0.3-0.4,0.6-0.4,1v0c0,0.8,0.6,1.5,1.4,1.6c-0.1,2.1-0.2,4.9-0.3,5.8c-0.2,2-3.4,3.8-4.6,4.3
			c-0.1,0-0.3,0.1-0.4,0.2h-4v13.9h23.5V66.8h-4.4c-0.1-0.1-0.2-0.1-0.4-0.2c-1.2-0.5-4.5-2.3-4.6-4.3c-0.1-0.8-0.2-3.7-0.3-5.8
			c0.8-0.1,1.4-0.8,1.4-1.6v0c0-0.4-0.1-0.7-0.4-1c1.7-1.1,3.1-2.6,4-4.3c10.6-3.2,11.4-10.3,11.4-12.5v-5.7H50.7z M26.3,28.4
			c0-0.3,0.2-0.5,0.5-0.5h23.5c0.3,0,0.5,0.2,0.5,0.5v0c0,0.3-0.2,0.5-0.5,0.5l0,0H26.8C26.5,28.9,26.3,28.7,26.3,28.4L26.3,28.4
			L26.3,28.4z M20.6,37.2v-4.6h5.8c0.3,4.9,1.4,9.8,3.3,14.4c0.2,0.5,0.4,0.9,0.6,1.3C21.4,45.2,20.6,39,20.6,37.2L20.6,37.2z
			 M49.4,79.6H28.1V67.9h21.3V79.6z M43.7,66.8H33.4c1.5-0.9,3.6-2.4,3.7-4.4c0.1-0.9,0.2-3.8,0.3-5.8h2.4c0.1,2.1,0.2,5,0.3,5.8
			C40.2,64.4,42.2,66,43.7,66.8L43.7,66.8z M41.1,55c0,0.3-0.2,0.5-0.5,0.5h-4.2c-0.3,0-0.5-0.2-0.5-0.5v0c0-0.3,0.2-0.5,0.5-0.5
			l0,0h4.2C40.9,54.4,41.1,54.7,41.1,55L41.1,55z M40.7,53.4h-4.3c-4.9-2.2-8.7-11.7-9-23.4h22.2C49.3,41.6,45.6,51.2,40.7,53.4
			L40.7,53.4z M56.3,37.2c0,1.9-0.7,7.9-9.6,11.1c0.2-0.4,0.4-0.8,0.6-1.3c1.9-4.6,3-9.4,3.3-14.4h5.7L56.3,37.2z"/>
	</g>
</g>
</svg>
