<svg width="42" height="43" viewBox="0 0 42 43" fill="none" xmlns="http://www.w3.org/2000/svg">
<path d="M21 42.8945C32.598 42.8945 42 33.4925 42 21.8945C42 10.2966 32.598 0.894531 21 0.894531C9.40202 0.894531 0 10.2966 0 21.8945C0 33.4925 9.40202 42.8945 21 42.8945Z" fill="#EAEAEA"/>
<path d="M19.2695 27.0078C19.2109 26.8385 19.1589 26.6204 19.1133 26.3535C19.0677 26.0801 19.0449 25.8099 19.0449 25.543C19.0449 25.1263 19.1263 24.752 19.2891 24.4199C19.4583 24.0814 19.6667 23.7656 19.9141 23.4727C20.1615 23.1797 20.4316 22.8997 20.7246 22.6328C21.0176 22.3594 21.2878 22.0859 21.5352 21.8125C21.7826 21.5326 21.9876 21.2428 22.1504 20.9434C22.3197 20.6374 22.4043 20.3021 22.4043 19.9375C22.4043 19.625 22.3424 19.3483 22.2188 19.1074C22.1016 18.8665 21.9388 18.6647 21.7305 18.502C21.5221 18.3392 21.2812 18.2188 21.0078 18.1406C20.7344 18.056 20.4447 18.0137 20.1387 18.0137C19.0384 18.0137 18.0846 18.4466 17.2773 19.3125V17.5938C18.2734 16.9688 19.3053 16.6562 20.373 16.6562C20.8678 16.6562 21.3333 16.7214 21.7695 16.8516C22.2057 16.9818 22.5866 17.1771 22.9121 17.4375C23.2441 17.6914 23.5046 18.0104 23.6934 18.3945C23.8822 18.7786 23.9766 19.2246 23.9766 19.7324C23.9766 20.2142 23.8919 20.6439 23.7227 21.0215C23.5534 21.3991 23.3385 21.7474 23.0781 22.0664C22.8242 22.3789 22.5475 22.6719 22.248 22.9453C21.9486 23.2188 21.6686 23.4922 21.4082 23.7656C21.1543 24.0326 20.9427 24.3125 20.7734 24.6055C20.6042 24.8984 20.5195 25.2207 20.5195 25.5723C20.5195 25.8717 20.5553 26.1452 20.627 26.3926C20.6986 26.6335 20.7702 26.8385 20.8418 27.0078H19.2695ZM20.1484 31.0703C19.862 31.0703 19.6081 30.9661 19.3867 30.7578C19.1719 30.5495 19.0645 30.2956 19.0645 29.9961C19.0645 29.6901 19.1719 29.4362 19.3867 29.2344C19.6016 29.0195 19.8555 28.9121 20.1484 28.9121C20.4414 28.9121 20.6953 29.0195 20.9102 29.2344C21.125 29.4362 21.2324 29.6901 21.2324 29.9961C21.2324 30.2956 21.125 30.5495 20.9102 30.7578C20.6888 30.9661 20.4349 31.0703 20.1484 31.0703Z" fill="#707070"/>
</svg>
