<svg width="295" height="295" viewBox="0 0 295 295" fill="none" xmlns="http://www.w3.org/2000/svg">
<path d="M211.559 78.105C190.026 59.289 160.879 78.105 132.561 117.701C104.243 157.297 90.7774 140.633 66.7047 158.085C42.632 175.537 36.1934 247.026 121.007 240.075C205.82 233.125 267.848 127.227 211.559 78.105Z" fill="#F0F0F0"/>
<path d="M197.923 195.311C188.838 188.967 186.78 177.189 187.139 166.599C187.198 164.835 187.004 162.965 187.845 161.419C188.685 159.873 190.649 158.808 192.231 159.549C193.542 160.167 194.113 161.695 194.848 162.96C195.828 164.643 197.265 166.015 198.993 166.917C200.116 167.505 201.51 167.858 202.621 167.246C204.15 166.405 204.326 164.306 204.314 162.542C204.314 159.261 204.295 155.984 204.256 152.711C204.15 150.953 204.329 149.19 204.785 147.489C205.332 145.819 206.549 144.273 208.213 143.802C209.877 143.332 211.953 144.302 212.329 146.019C212.394 146.746 212.411 147.477 212.382 148.207C212.429 148.942 212.77 149.747 213.458 149.971C214.146 150.194 214.863 149.682 215.392 149.165C217.203 147.401 218.438 145.102 219.585 142.832C220.731 140.563 221.854 138.228 223.501 136.294C225.147 134.359 227.423 132.825 229.969 132.678C232.515 132.531 235.167 134.095 235.802 136.564C236.437 139.034 234.996 141.556 233.45 143.561C231.116 146.538 228.365 149.162 225.282 151.352C224.681 151.681 224.2 152.194 223.912 152.817C223.53 153.993 224.642 155.169 225.8 155.539C227.111 155.974 228.534 155.839 229.916 156.003C231.298 156.168 232.768 156.768 233.291 158.061C234.008 159.861 232.503 161.742 231.027 162.977C228.064 165.447 224.699 167.39 221.078 168.722C219.785 169.192 218.426 169.61 217.38 170.515C216.333 171.421 215.71 173.003 216.339 174.243C216.968 175.484 218.585 175.878 219.943 175.625C221.302 175.372 222.507 174.643 223.801 174.155C226.217 173.244 229.334 173.408 230.857 175.496C231.329 176.215 231.627 177.033 231.729 177.887C231.831 178.741 231.734 179.607 231.445 180.417C230.856 182.029 229.951 183.507 228.781 184.763C224.93 189.364 219.926 192.86 214.281 194.894C208.677 196.834 203.485 197.363 197.917 195.323" fill="#FF3C4C"/>
<path d="M233.215 134.13C233.215 134.13 233.162 134.189 233.044 134.295L232.521 134.759C232.062 135.171 231.386 135.77 230.533 136.564C228.116 138.809 225.871 141.232 223.818 143.814C222.507 145.443 221.149 147.289 219.702 149.294C218.256 151.299 216.762 153.463 215.281 155.762C213.701 158.187 212.254 160.695 210.947 163.277C210.265 164.624 209.665 166.029 209.048 167.464L207.225 171.844C204.822 177.362 202.73 183.01 200.957 188.761C199.529 193.467 198.545 198.296 198.017 203.185C197.675 206.484 197.62 209.807 197.852 213.116C197.946 214.292 198.035 215.192 198.117 215.803C198.152 216.097 198.176 216.332 198.199 216.503V216.744C198.174 216.667 198.156 216.589 198.146 216.509C198.117 216.338 198.082 216.109 198.035 215.815C197.929 215.227 197.817 214.298 197.711 213.122C197.428 209.807 197.447 206.473 197.77 203.161C198.265 198.251 199.228 193.4 200.645 188.673C202.403 182.905 204.49 177.243 206.896 171.715L208.766 167.352C209.383 165.923 209.989 164.506 210.677 163.154C211.993 160.564 213.451 158.05 215.045 155.621C216.551 153.269 218.068 151.141 219.497 149.153C220.925 147.166 222.307 145.308 223.613 143.685C225.686 141.11 227.961 138.703 230.416 136.488C231.286 135.706 231.98 135.118 232.45 134.724L232.997 134.283C233.064 134.224 233.137 134.173 233.215 134.13Z" fill="#263238"/>
<path d="M210.753 163.142C210.67 162.9 210.613 162.65 210.582 162.395C210.488 161.907 210.383 161.219 210.259 160.326C210.006 158.562 209.748 156.145 209.471 153.469C209.195 150.794 208.883 148.371 208.624 146.625C208.489 145.755 208.372 145.055 208.289 144.567C208.225 144.317 208.191 144.061 208.189 143.803C208.291 144.038 208.364 144.285 208.407 144.538C208.536 145.02 208.683 145.714 208.848 146.59C209.183 148.354 209.512 150.753 209.789 153.434C210.065 156.115 210.3 158.467 210.483 160.296C210.571 161.119 210.647 161.819 210.706 162.378C210.752 162.63 210.767 162.886 210.753 163.142Z" fill="#263238"/>
<path d="M233.379 158.92C233.093 158.982 232.802 159.017 232.509 159.026C231.921 159.078 231.086 159.149 230.051 159.267C227.981 159.49 225.135 159.902 222.013 160.49C218.891 161.078 216.086 161.742 214.069 162.254C213.064 162.512 212.252 162.748 211.717 162.906C211.432 163.008 211.136 163.079 210.835 163.118C211.107 162.981 211.39 162.869 211.682 162.783C212.235 162.589 213.034 162.318 214.034 162.03C216.039 161.442 218.844 160.743 221.978 160.143C224.633 159.635 227.312 159.262 230.004 159.026C231.045 158.937 231.886 158.902 232.474 158.89C232.776 158.87 233.079 158.88 233.379 158.92Z" fill="#263238"/>
<path d="M200.933 188.261C200.871 188.176 200.819 188.083 200.781 187.985L200.392 187.168C200.057 186.456 199.605 185.404 199.064 184.116C197.97 181.529 196.576 177.907 195.095 173.885C193.613 169.863 192.249 166.241 191.214 163.624C190.708 162.354 190.291 161.313 189.979 160.537L189.65 159.696C189.604 159.599 189.572 159.496 189.556 159.391C189.618 159.476 189.67 159.569 189.709 159.667L190.097 160.484C190.426 161.196 190.885 162.248 191.425 163.536C192.519 166.123 193.913 169.745 195.394 173.767C196.876 177.789 198.24 181.411 199.275 184.028C199.781 185.298 200.198 186.339 200.504 187.115C200.639 187.45 200.751 187.703 200.839 187.956C200.885 188.053 200.917 188.156 200.933 188.261Z" fill="#263238"/>
<path d="M230.968 178.577C230.874 178.631 230.773 178.673 230.669 178.701L229.798 178.995L226.582 180.035C223.865 180.917 220.114 182.176 215.998 183.563C211.882 184.951 208.113 186.186 205.379 187.009C204.014 187.427 202.903 187.744 202.133 187.956L201.245 188.185C201.142 188.218 201.035 188.24 200.927 188.25C201.022 188.196 201.122 188.154 201.227 188.126L202.098 187.832L205.314 186.792C208.031 185.91 211.782 184.651 215.898 183.264C220.014 181.876 223.777 180.641 226.511 179.818C227.881 179.4 228.987 179.083 229.763 178.871L230.651 178.642C230.754 178.609 230.861 178.587 230.968 178.577Z" fill="#263238"/>
<path d="M218.715 35.9449L215.686 37.0268L214.387 33.0696C212 25.7725 204.391 21.8976 197.4 24.3613C190.408 26.825 186.686 34.8277 189.073 42.1248L190.373 46.082L187.333 47.1698C186.174 47.6194 185.232 48.4985 184.705 49.6242C184.177 50.7499 184.103 52.0358 184.499 53.2145L192.925 78.963C193.1 79.5465 193.39 80.0888 193.779 80.5579C194.167 81.0269 194.646 81.413 195.187 81.6933C195.728 81.9736 196.32 82.1423 196.927 82.1894C197.534 82.2366 198.145 82.1611 198.723 81.9676L230.104 70.7427C231.279 70.2939 232.233 69.4071 232.767 68.2688C233.301 67.1305 233.373 65.8294 232.968 64.6393L224.536 38.8908C224.356 38.3089 224.061 37.7692 223.669 37.3038C223.276 36.8383 222.794 36.4568 222.251 36.1818C221.707 35.9069 221.114 35.7442 220.507 35.7035C219.899 35.6628 219.29 35.7449 218.715 35.9449ZM194.795 40.0609C194.151 38.1636 194.267 36.0907 195.117 34.2767C195.968 32.4626 197.487 31.0481 199.358 30.3295C200.281 30.0135 201.259 29.8868 202.232 29.9569C203.206 30.0271 204.155 30.2926 205.024 30.7376C205.893 31.1827 206.663 31.7982 207.289 32.5473C207.914 33.2965 208.383 34.1641 208.666 35.0982L209.959 39.0554L196.088 44.0181L194.795 40.0609ZM212.435 62.9106L214.587 69.4844C214.626 69.6162 214.614 69.7582 214.551 69.8808C214.489 70.0035 214.381 70.0974 214.252 70.143L211.235 71.219C211.115 71.2523 210.987 71.2378 210.877 71.1786C210.768 71.1194 210.685 71.0201 210.647 70.9015L208.477 64.3571C207.281 64.2919 206.133 63.8628 205.187 63.1272C204.242 62.3916 203.543 61.3846 203.185 60.2411C202.674 58.7293 202.767 57.0783 203.446 55.6337C204.124 54.1891 205.335 53.0631 206.825 52.4912C207.561 52.2399 208.34 52.1392 209.115 52.1952C209.89 52.2512 210.647 52.4627 211.338 52.8172C212.03 53.1717 212.644 53.6618 213.142 54.2584C213.641 54.855 214.014 55.5458 214.24 56.2897C214.618 57.4513 214.649 58.6981 214.33 59.8772C214.01 61.0563 213.354 62.1166 212.441 62.9282L212.435 62.9106Z" fill="#FF3C4C"/>
<path d="M215.551 36.9562C215.551 37.0385 209.936 39.1494 202.95 41.6602C195.965 44.171 190.267 46.1878 190.238 46.129C190.208 46.0702 195.853 43.9416 202.844 41.425C209.836 38.9084 215.522 36.8798 215.551 36.9562Z" fill="#263238"/>
<path d="M222.219 38.0381C222.245 38.0891 222.267 38.1422 222.284 38.1968C222.331 38.3144 222.384 38.4673 222.454 38.6555C222.607 39.0847 222.819 39.6786 223.083 40.4195L225.341 46.9933C226.282 49.7804 227.405 53.085 228.652 56.7541C229.24 58.5946 229.934 60.5114 230.58 62.5283C230.927 63.5676 231.076 64.6623 231.021 65.7564C230.972 66.3254 230.81 66.8789 230.545 67.3852C230.263 67.8897 229.885 68.3349 229.434 68.6964C228.525 69.3595 227.517 69.8736 226.447 70.2193L223.419 71.3071L217.686 73.3592L207.978 76.8167L201.421 79.1216L199.657 79.7096L199.187 79.8625C199.137 79.8849 199.083 79.8988 199.028 79.9037C199.028 79.9037 199.075 79.9037 199.175 79.8331L199.634 79.6508L201.398 78.9864L207.919 76.5874L217.609 73.0594L223.33 70.9896L226.359 69.8959C227.398 69.5643 228.377 69.0658 229.257 68.42C229.677 68.0846 230.029 67.6714 230.292 67.2029C230.541 66.7347 230.691 66.2203 230.733 65.6917C230.787 64.6376 230.644 63.5826 230.31 62.5812C229.675 60.582 229.005 58.6475 228.399 56.807C227.176 53.132 226.047 49.8157 225.153 47.0286C224.259 44.2415 223.507 42.0012 222.989 40.4254C222.742 39.6551 222.554 39.0553 222.401 38.6202L222.26 38.1498C222.242 38.1142 222.229 38.0767 222.219 38.0381Z" fill="#263238"/>
<path d="M205.661 29.9293C205.661 29.9293 205.349 29.7764 204.773 29.5412C203.952 29.2256 203.083 29.0507 202.204 29.0237C200.9 28.979 199.603 29.224 198.405 29.7411C196.949 30.3849 195.704 31.4263 194.812 32.7458C193.915 34.0614 193.434 35.6162 193.431 37.2087C193.443 38.5139 193.641 39.8107 194.019 41.0601C194.324 42.1303 194.642 42.9829 194.854 43.5767C194.978 43.8784 195.081 44.1889 195.159 44.5058C194.992 44.2237 194.852 43.9264 194.742 43.6179C194.501 43.0299 194.154 42.1949 193.813 41.1189C193.394 39.8564 193.166 38.5385 193.137 37.2087C193.121 35.5561 193.614 33.9386 194.548 32.5753C195.47 31.2076 196.766 30.134 198.282 29.4824C199.516 28.9625 200.854 28.7332 202.192 28.8121C203.09 28.8579 203.973 29.0671 204.797 29.4295C205.017 29.531 205.229 29.649 205.432 29.7823C205.515 29.819 205.593 29.8686 205.661 29.9293Z" fill="#263238"/>
<path d="M205.931 52.9377C206.025 52.8809 206.124 52.8317 206.225 52.7907C206.52 52.6579 206.825 52.5497 207.137 52.4673C207.632 52.3211 208.144 52.2342 208.66 52.2086C209.362 52.1709 210.064 52.2769 210.724 52.5203C212.229 53.0495 213.611 54.5841 214.293 56.6363C214.62 57.7375 214.62 58.9101 214.293 60.0114C213.93 61.2066 213.28 62.2948 212.399 63.1807L212.435 63.0219C213.217 65.1681 214.069 67.4966 214.951 69.925L215.004 70.072L214.857 70.125L213.511 70.5718L210.571 71.5538L210.424 71.6008L210.377 71.4538C209.571 69.0195 208.689 66.7498 208.025 64.5213L208.154 64.6213C207.005 64.5258 205.909 64.0943 205.002 63.3806C204.183 62.7492 203.51 61.9465 203.033 61.0286C202.602 60.2146 202.387 59.3034 202.409 58.3826C202.437 57.4415 202.672 56.518 203.097 55.6784C203.523 54.8387 204.13 54.1036 204.873 53.5257C205.179 53.2774 205.522 53.0789 205.89 52.9377C205.558 53.1348 205.236 53.3487 204.926 53.5787C204.109 54.2695 203.484 55.1583 203.109 56.16C202.787 56.9153 202.637 57.7326 202.668 58.553C202.7 59.3734 202.913 60.1767 203.291 60.9051C203.761 61.7882 204.417 62.5586 205.214 63.163C206.078 63.8415 207.123 64.2505 208.219 64.339H208.319L208.348 64.4272C208.995 66.6146 209.883 68.9019 210.7 71.348L210.506 71.2539L213.446 70.272L214.787 69.8192L214.693 70.0191C213.817 67.5907 212.97 65.2563 212.194 63.1101V63.0219L212.264 62.9514C213.119 62.1022 213.756 61.0594 214.122 59.9114C214.434 58.858 214.434 57.7367 214.122 56.6833C213.481 54.7076 212.158 53.2082 210.724 52.679C210.089 52.4341 209.411 52.3201 208.73 52.3439C208.222 52.3555 207.717 52.4245 207.225 52.5497C206.349 52.7672 205.937 52.9671 205.931 52.9377Z" fill="#263238"/>
<path d="M187.756 222.718L129.021 222.447C125.629 222.429 122.383 221.064 119.996 218.654C117.61 216.244 116.277 212.985 116.291 209.594L116.914 62.3525C116.921 60.672 117.259 59.0093 117.909 57.4596C118.559 55.9098 119.508 54.5034 120.702 53.3206C121.895 52.1378 123.31 51.2018 124.866 50.5662C126.422 49.9306 128.087 49.6079 129.768 49.6164L188.497 49.8869C191.889 49.904 195.136 51.2666 197.524 53.6756C199.912 56.0845 201.246 59.3427 201.233 62.7347L200.61 209.97C200.603 211.651 200.265 213.314 199.615 214.864C198.966 216.415 198.017 217.822 196.823 219.006C195.63 220.19 194.215 221.127 192.659 221.764C191.103 222.4 189.437 222.725 187.756 222.718Z" fill="#455A64"/>
<path d="M188.409 54.9491H177.025C176.654 54.956 176.287 55.036 175.947 55.1845C175.606 55.333 175.299 55.5472 175.041 55.8148C174.783 56.0823 174.581 56.398 174.445 56.7439C174.309 57.0897 174.243 57.4589 174.25 57.8303V59.8942C174.257 60.2653 174.191 60.6342 174.055 60.9797C173.919 61.3252 173.717 61.6405 173.459 61.9076C173.201 62.1747 172.893 62.3883 172.553 62.5362C172.212 62.6841 171.846 62.7634 171.475 62.7695L149.284 62.6695C148.533 62.6495 147.821 62.3324 147.304 61.7878C146.787 61.2431 146.507 60.5156 146.526 59.7648V57.7009C146.545 56.9512 146.266 56.2245 145.75 55.68C145.234 55.1356 144.524 54.8178 143.774 54.7962H139.77L129.803 54.7492C127.432 54.7351 125.153 55.6609 123.463 57.3239C121.774 58.9869 120.812 61.2516 120.789 63.6221L120.201 207.341C120.196 208.517 120.422 209.683 120.867 210.771C121.312 211.86 121.967 212.85 122.795 213.685C123.623 214.521 124.607 215.185 125.691 215.64C126.776 216.095 127.939 216.332 129.115 216.337L187.727 216.608C188.904 216.613 190.07 216.387 191.159 215.942C192.249 215.496 193.24 214.841 194.076 214.012C194.911 213.184 195.576 212.199 196.031 211.114C196.487 210.029 196.724 208.865 196.729 207.688L197.317 63.969C197.331 61.5918 196.401 59.3063 194.73 57.6149C193.06 55.9235 190.786 54.9646 188.409 54.9491Z" fill="white"/>
<path d="M180.524 197.434L136.941 197.246C136.489 197.246 136.124 196.752 136.13 196.152L136.177 184.751C136.177 184.163 136.547 183.657 137 183.657L180.583 183.857C180.834 183.901 181.058 184.039 181.209 184.244C181.36 184.449 181.427 184.704 181.394 184.957L181.353 196.346C181.353 196.952 180.977 197.44 180.524 197.434Z" fill="#FF3C4C"/>
<path d="M151.268 195.093C150.845 195.093 150.439 195.025 150.049 194.889C149.664 194.754 149.366 194.575 149.154 194.353L149.39 193.889C149.596 194.095 149.87 194.263 150.211 194.393C150.553 194.518 150.905 194.58 151.268 194.58C151.778 194.58 152.16 194.488 152.415 194.304C152.67 194.114 152.797 193.87 152.797 193.572C152.797 193.345 152.726 193.163 152.586 193.027C152.45 192.892 152.282 192.789 152.081 192.718C151.881 192.643 151.602 192.561 151.244 192.474C150.816 192.366 150.474 192.263 150.219 192.165C149.965 192.062 149.745 191.908 149.561 191.702C149.382 191.496 149.292 191.217 149.292 190.864C149.292 190.577 149.368 190.317 149.52 190.084C149.672 189.845 149.905 189.656 150.219 189.515C150.534 189.374 150.924 189.303 151.39 189.303C151.715 189.303 152.033 189.349 152.342 189.441C152.656 189.528 152.927 189.65 153.155 189.807L152.951 190.287C152.713 190.13 152.458 190.013 152.187 189.937C151.916 189.856 151.65 189.816 151.39 189.816C150.892 189.816 150.515 189.913 150.26 190.108C150.011 190.298 149.886 190.545 149.886 190.848C149.886 191.076 149.954 191.26 150.089 191.401C150.23 191.537 150.404 191.642 150.61 191.718C150.821 191.789 151.103 191.867 151.455 191.954C151.873 192.057 152.209 192.16 152.464 192.263C152.724 192.361 152.943 192.512 153.122 192.718C153.301 192.919 153.391 193.193 153.391 193.54C153.391 193.827 153.312 194.09 153.155 194.328C153.003 194.561 152.767 194.749 152.447 194.889C152.127 195.025 151.734 195.093 151.268 195.093ZM154.702 189.352H155.303V195.044H154.702V189.352ZM161.912 189.352V195.044H161.416L157.757 190.425V195.044H157.155V189.352H157.651L161.318 193.971V189.352H161.912ZM153.708 202.198H154.285V204.369C154.019 204.602 153.705 204.781 153.342 204.906C152.979 205.03 152.596 205.093 152.195 205.093C151.626 205.093 151.114 204.968 150.658 204.719C150.203 204.469 149.845 204.125 149.585 203.686C149.325 203.242 149.195 202.746 149.195 202.198C149.195 201.65 149.325 201.157 149.585 200.718C149.845 200.274 150.203 199.927 150.658 199.677C151.114 199.428 151.629 199.303 152.203 199.303C152.637 199.303 153.035 199.374 153.399 199.515C153.762 199.65 154.068 199.853 154.318 200.125L153.943 200.507C153.494 200.062 152.922 199.84 152.228 199.84C151.767 199.84 151.35 199.943 150.976 200.149C150.607 200.349 150.317 200.631 150.106 200.995C149.894 201.352 149.788 201.753 149.788 202.198C149.788 202.643 149.894 203.044 150.106 203.401C150.317 203.759 150.607 204.041 150.976 204.247C151.344 204.453 151.759 204.556 152.22 204.556C152.805 204.556 153.301 204.41 153.708 204.117V202.198ZM151.992 215.093C151.255 215.093 150.68 214.881 150.268 214.458C149.856 214.036 149.65 213.42 149.65 212.613V209.352H150.252V212.588C150.252 213.25 150.401 213.743 150.699 214.068C150.997 214.393 151.428 214.556 151.992 214.556C152.561 214.556 152.995 214.393 153.293 214.068C153.591 213.743 153.74 213.25 153.74 212.588V209.352H154.326V212.613C154.326 213.42 154.12 214.036 153.708 214.458C153.301 214.881 152.729 215.093 151.992 215.093ZM158.269 209.352C158.996 209.352 159.565 209.526 159.977 209.872C160.389 210.219 160.595 210.696 160.595 211.304C160.595 211.911 160.389 212.388 159.977 212.735C159.565 213.076 158.996 213.247 158.269 213.247H156.741V215.044H156.139V209.352H158.269ZM158.253 212.718C158.817 212.718 159.248 212.596 159.546 212.352C159.844 212.103 159.993 211.753 159.993 211.304C159.993 210.843 159.844 210.49 159.546 210.246C159.248 209.997 158.817 209.872 158.253 209.872H156.741V212.718H158.253Z" fill="#E8E8E3"/>
<path d="M145.634 97.1975L130.511 97.1289L130.499 99.9042L145.622 99.9729L145.634 97.1975Z" fill="#FF3C4C"/>
<path opacity="0.1" d="M145.634 97.1975L130.511 97.1289L130.499 99.9042L145.622 99.9729L145.634 97.1975Z" fill="black"/>
<path d="M189.967 114.238C190.086 114.226 190.203 114.198 190.314 114.155C190.477 114.092 190.618 113.983 190.722 113.843C190.826 113.703 190.889 113.536 190.902 113.361C190.902 112.427 190.902 111.062 190.902 109.31C190.902 108.434 190.902 107.452 190.902 106.37C190.902 106.106 190.902 105.829 190.902 105.553C190.941 105.285 190.882 105.012 190.738 104.783C190.657 104.673 190.551 104.583 190.43 104.521C190.308 104.459 190.174 104.425 190.038 104.424H189.121H180.624L131.444 104.242C131.318 104.239 131.193 104.268 131.081 104.324C130.968 104.38 130.871 104.463 130.797 104.565C130.655 104.795 130.601 105.068 130.644 105.335C130.644 105.923 130.644 106.511 130.644 107.099C130.644 108.275 130.644 109.451 130.644 110.627C130.644 111.215 130.644 111.803 130.644 112.391C130.62 112.665 130.62 112.941 130.644 113.214C130.675 113.332 130.732 113.441 130.812 113.532C130.891 113.624 130.991 113.696 131.103 113.744C131.218 113.79 131.343 113.812 131.467 113.808H134.46L147.52 113.879L169.628 114.014L184.534 114.132L188.585 114.179H189.638C189.879 114.179 189.997 114.179 189.997 114.179H189.638H188.585H184.534H169.628L147.52 114.108L134.46 114.055H131.467C131.302 114.062 131.138 114.034 130.985 113.973C130.83 113.907 130.692 113.806 130.582 113.679C130.472 113.552 130.393 113.401 130.35 113.238C130.316 113.084 130.304 112.925 130.315 112.768V112.332C130.315 111.744 130.315 111.156 130.315 110.568C130.315 109.392 130.315 108.216 130.315 107.04C130.315 106.452 130.315 105.864 130.315 105.276C130.303 105.12 130.303 104.963 130.315 104.806C130.337 104.633 130.404 104.469 130.509 104.33C130.61 104.188 130.744 104.073 130.9 103.994C131.056 103.915 131.228 103.875 131.402 103.877L180.583 104.148L189.079 104.206H189.997C190.158 104.206 190.317 104.246 190.461 104.32C190.604 104.395 190.727 104.503 190.82 104.636C190.986 104.891 191.053 105.198 191.008 105.5C191.008 105.776 191.008 106.053 191.008 106.317C191.008 107.387 191.008 108.369 191.008 109.257C191.008 111.021 190.967 112.374 190.955 113.314C190.941 113.495 190.875 113.668 190.766 113.813C190.656 113.958 190.508 114.068 190.338 114.132C190.226 114.201 190.098 114.237 189.967 114.238Z" fill="#E0E0E0"/>
<path d="M162.713 107.193H135.054V109.786H162.713V107.193Z" fill="#FF3C4C"/>
<path opacity="0.2" d="M162.713 107.193H135.054V109.786H162.713V107.193Z" fill="white"/>
<path d="M145.531 122.516L130.408 122.447L130.396 125.223L145.519 125.291L145.531 122.516Z" fill="#FF3C4C"/>
<path opacity="0.1" d="M145.531 122.516L130.408 122.447L130.396 125.223L145.519 125.291L145.531 122.516Z" fill="black"/>
<path d="M189.585 139.557C189.704 139.542 189.822 139.52 189.938 139.492C190.102 139.44 190.253 139.353 190.381 139.237C190.509 139.122 190.61 138.98 190.679 138.822C190.771 138.584 190.808 138.329 190.785 138.075C190.785 137.793 190.785 137.487 190.785 137.146C190.785 136.464 190.785 135.688 190.785 134.794V131.06C190.813 130.79 190.753 130.518 190.614 130.284C190.469 130.044 190.241 129.866 189.973 129.784C189.68 129.732 189.382 129.716 189.085 129.737H180.624L131.614 129.555C131.351 129.555 131.096 129.652 130.898 129.826C130.7 130 130.572 130.24 130.538 130.501C130.538 131.06 130.538 131.677 130.538 132.265C130.538 133.441 130.538 134.617 130.538 135.793C130.538 136.381 130.538 136.969 130.538 137.557C130.516 137.832 130.528 138.109 130.573 138.381C130.647 138.619 130.798 138.826 131.003 138.969C131.22 139.106 131.475 139.172 131.732 139.157H132.549H134.248L147.261 139.221L169.293 139.357L184.146 139.474L188.186 139.521H189.238H189.591H189.238H188.186H184.146H169.293L147.249 139.498L134.237 139.451H131.679C131.361 139.47 131.045 139.385 130.779 139.21C130.512 139.024 130.316 138.752 130.226 138.439C130.174 138.141 130.158 137.837 130.179 137.534C130.179 136.946 130.179 136.358 130.179 135.77C130.179 134.594 130.179 133.418 130.179 132.242C130.179 131.654 130.179 131.066 130.179 130.478C130.222 130.142 130.386 129.833 130.641 129.609C130.895 129.385 131.222 129.261 131.561 129.261L180.571 129.531L189.032 129.596C189.347 129.577 189.664 129.598 189.973 129.661C190.279 129.76 190.536 129.97 190.696 130.249C190.849 130.508 190.914 130.808 190.885 131.107C190.885 131.383 190.885 131.654 190.885 131.924C190.885 132.989 190.885 133.965 190.885 134.864C190.885 135.764 190.885 136.523 190.885 137.216C190.885 137.552 190.885 137.863 190.885 138.151C190.906 138.414 190.864 138.678 190.761 138.922C190.685 139.084 190.574 139.228 190.437 139.343C190.3 139.459 190.14 139.544 189.967 139.592C189.839 139.603 189.709 139.591 189.585 139.557Z" fill="#E0E0E0"/>
<path d="M145.417 148.934L130.294 148.865L130.282 151.641L145.405 151.709L145.417 148.934Z" fill="#FF3C4C"/>
<path opacity="0.1" d="M145.417 148.934L130.294 148.865L130.282 151.641L145.405 151.709L145.417 148.934Z" fill="black"/>
<path d="M189.467 165.964C189.586 165.95 189.704 165.928 189.82 165.899C189.984 165.847 190.134 165.761 190.262 165.647C190.39 165.532 190.492 165.392 190.561 165.235C190.653 164.998 190.69 164.742 190.667 164.488C190.667 164.2 190.667 163.9 190.667 163.553C190.667 162.877 190.667 162.095 190.667 161.201V157.468C190.695 157.197 190.635 156.925 190.496 156.691C190.348 156.456 190.121 156.281 189.856 156.197C189.563 156.143 189.265 156.125 188.968 156.145H180.506L131.497 155.962C131.233 155.963 130.979 156.059 130.781 156.233C130.583 156.407 130.455 156.648 130.421 156.909C130.421 157.497 130.421 158.085 130.421 158.673C130.421 159.849 130.421 161.025 130.421 162.201C130.421 162.789 130.421 163.377 130.421 163.965C130.399 164.238 130.41 164.512 130.456 164.782C130.526 165.022 130.678 165.23 130.885 165.37C131.101 165.511 131.357 165.577 131.614 165.558H134.172L147.184 165.629L169.217 165.764L184.07 165.882L188.109 165.929H189.162C189.397 165.929 189.515 165.929 189.515 165.929C189.515 165.929 189.397 165.929 189.162 165.929H188.109H184.07H169.217L147.184 165.864L134.172 165.811H131.614C131.296 165.833 130.979 165.748 130.715 165.57C130.447 165.385 130.252 165.113 130.162 164.8C130.109 164.501 130.093 164.197 130.115 163.894C130.115 163.306 130.115 162.718 130.115 162.13C130.115 160.954 130.115 159.778 130.115 158.602C130.115 158.014 130.115 157.426 130.115 156.809C130.156 156.473 130.319 156.164 130.572 155.94C130.826 155.716 131.152 155.592 131.491 155.592L180.5 155.862L188.962 155.927C189.277 155.908 189.593 155.929 189.903 155.992C190.208 156.091 190.466 156.301 190.626 156.58C190.778 156.839 190.844 157.139 190.814 157.438C190.814 157.714 190.814 157.991 190.814 158.255C190.814 159.32 190.814 160.296 190.814 161.195C190.814 162.095 190.814 162.854 190.814 163.547C190.814 163.883 190.814 164.194 190.814 164.482C190.837 164.745 190.794 165.01 190.691 165.253C190.614 165.415 190.504 165.559 190.367 165.674C190.23 165.79 190.069 165.875 189.897 165.923C189.759 165.97 189.612 165.984 189.467 165.964Z" fill="#E0E0E0"/>
<path d="M162.123 133.246L134.464 133.12L134.452 135.713L162.111 135.839L162.123 133.246Z" fill="#FF3C4C"/>
<path opacity="0.2" d="M162.123 133.246L134.464 133.12L134.452 135.713L162.111 135.839L162.123 133.246Z" fill="white"/>
<path d="M136.965 161.166C136.948 161.403 136.861 161.629 136.716 161.817C136.572 162.005 136.375 162.146 136.151 162.223C135.927 162.3 135.685 162.31 135.455 162.25C135.225 162.191 135.018 162.066 134.859 161.89C134.7 161.714 134.596 161.496 134.56 161.261C134.524 161.027 134.557 160.787 134.656 160.572C134.755 160.356 134.916 160.174 135.117 160.049C135.318 159.924 135.552 159.86 135.789 159.867C136.117 159.885 136.424 160.032 136.644 160.275C136.864 160.518 136.979 160.838 136.965 161.166Z" fill="#FF3C4C"/>
<path d="M140.711 161.183C140.722 161.349 140.699 161.515 140.644 161.672C140.588 161.829 140.501 161.972 140.388 162.094C140.275 162.215 140.138 162.312 139.985 162.378C139.833 162.445 139.668 162.479 139.502 162.479C139.336 162.479 139.172 162.445 139.019 162.378C138.867 162.312 138.73 162.215 138.616 162.094C138.503 161.972 138.416 161.829 138.36 161.672C138.305 161.515 138.282 161.349 138.294 161.183C138.282 161.018 138.305 160.851 138.36 160.695C138.416 160.538 138.503 160.394 138.616 160.273C138.73 160.151 138.867 160.054 139.019 159.988C139.172 159.922 139.336 159.888 139.502 159.888C139.668 159.888 139.833 159.922 139.985 159.988C140.138 160.054 140.275 160.151 140.388 160.273C140.501 160.394 140.588 160.538 140.644 160.695C140.699 160.851 140.722 161.018 140.711 161.183Z" fill="#FF3C4C"/>
<path d="M144.462 161.201C144.445 161.438 144.358 161.664 144.213 161.852C144.069 162.04 143.872 162.181 143.648 162.258C143.423 162.335 143.181 162.345 142.952 162.286C142.722 162.227 142.515 162.101 142.356 161.925C142.197 161.75 142.093 161.531 142.057 161.296C142.021 161.062 142.054 160.822 142.153 160.607C142.252 160.391 142.412 160.21 142.614 160.084C142.815 159.959 143.049 159.896 143.286 159.902C143.613 159.922 143.919 160.069 144.139 160.312C144.359 160.554 144.475 160.874 144.462 161.201Z" fill="#FF3C4C"/>
<path d="M148.208 161.219C148.19 161.455 148.104 161.682 147.959 161.869C147.814 162.057 147.618 162.199 147.393 162.276C147.169 162.353 146.927 162.362 146.697 162.303C146.468 162.244 146.261 162.119 146.101 161.943C145.942 161.767 145.838 161.548 145.802 161.314C145.766 161.08 145.8 160.84 145.899 160.624C145.998 160.409 146.158 160.227 146.359 160.102C146.561 159.977 146.794 159.913 147.032 159.919C147.359 159.939 147.665 160.086 147.885 160.329C148.105 160.572 148.22 160.891 148.208 161.219Z" fill="#FF3C4C"/>
<path d="M151.953 161.231C151.937 161.467 151.851 161.694 151.707 161.883C151.563 162.072 151.367 162.214 151.143 162.292C150.918 162.37 150.676 162.38 150.446 162.322C150.216 162.263 150.008 162.138 149.848 161.963C149.689 161.787 149.584 161.568 149.548 161.334C149.511 161.099 149.545 160.859 149.644 160.643C149.742 160.427 149.903 160.245 150.104 160.12C150.306 159.994 150.54 159.931 150.777 159.937C151.103 159.957 151.408 160.103 151.628 160.345C151.848 160.586 151.964 160.904 151.953 161.231Z" fill="#FF3C4C"/>
<path d="M155.705 161.248C155.689 161.483 155.604 161.709 155.461 161.897C155.318 162.086 155.124 162.228 154.901 162.307C154.679 162.386 154.438 162.398 154.208 162.342C153.979 162.286 153.771 162.164 153.61 161.991C153.449 161.818 153.342 161.602 153.302 161.369C153.262 161.137 153.291 160.897 153.386 160.681C153.48 160.464 153.636 160.28 153.834 160.151C154.032 160.022 154.263 159.954 154.499 159.954C154.83 159.966 155.143 160.109 155.369 160.352C155.595 160.594 155.716 160.916 155.705 161.248Z" fill="#FF3C4C"/>
<path d="M159.45 161.265C159.462 161.431 159.439 161.597 159.384 161.754C159.328 161.911 159.241 162.054 159.128 162.176C159.014 162.297 158.877 162.394 158.725 162.461C158.572 162.527 158.408 162.561 158.242 162.561C158.076 162.561 157.911 162.527 157.759 162.461C157.606 162.394 157.469 162.297 157.356 162.176C157.243 162.054 157.156 161.911 157.1 161.754C157.045 161.597 157.022 161.431 157.033 161.265C157.022 161.1 157.045 160.933 157.1 160.777C157.156 160.62 157.243 160.476 157.356 160.355C157.469 160.233 157.606 160.136 157.759 160.07C157.911 160.004 158.076 159.97 158.242 159.97C158.408 159.97 158.572 160.004 158.725 160.07C158.877 160.136 159.014 160.233 159.128 160.355C159.241 160.476 159.328 160.62 159.384 160.777C159.439 160.933 159.462 161.1 159.45 161.265Z" fill="#FF3C4C"/>
<path d="M163.196 161.284C163.18 161.519 163.095 161.745 162.952 161.933C162.81 162.122 162.615 162.264 162.392 162.343C162.17 162.422 161.929 162.434 161.699 162.378C161.47 162.322 161.262 162.2 161.101 162.027C160.94 161.854 160.833 161.638 160.793 161.406C160.753 161.173 160.783 160.933 160.877 160.717C160.972 160.5 161.127 160.316 161.325 160.187C161.523 160.058 161.754 159.99 161.99 159.99C162.321 160.002 162.634 160.146 162.86 160.388C163.086 160.63 163.207 160.953 163.196 161.284Z" fill="#FF3C4C"/>
<path d="M166.941 161.301C166.925 161.538 166.84 161.765 166.695 161.953C166.551 162.142 166.355 162.284 166.131 162.362C165.906 162.44 165.664 162.451 165.434 162.392C165.204 162.333 164.996 162.209 164.836 162.033C164.677 161.857 164.572 161.638 164.536 161.404C164.499 161.169 164.533 160.929 164.632 160.713C164.731 160.497 164.891 160.315 165.092 160.19C165.294 160.064 165.528 160.001 165.765 160.007C166.091 160.027 166.397 160.173 166.616 160.415C166.836 160.657 166.953 160.974 166.941 161.301Z" fill="#FF3C4C"/>
<g opacity="0.2">
<path opacity="0.2" d="M136.965 161.166C136.948 161.403 136.861 161.629 136.716 161.817C136.572 162.005 136.375 162.146 136.151 162.223C135.927 162.3 135.685 162.31 135.455 162.25C135.225 162.191 135.018 162.066 134.859 161.89C134.7 161.714 134.596 161.496 134.56 161.261C134.524 161.027 134.557 160.787 134.656 160.572C134.755 160.356 134.916 160.174 135.117 160.049C135.318 159.924 135.552 159.86 135.789 159.867C136.117 159.885 136.424 160.032 136.644 160.275C136.864 160.518 136.979 160.838 136.965 161.166Z" fill="white"/>
<path opacity="0.2" d="M140.711 161.183C140.722 161.349 140.699 161.515 140.644 161.672C140.588 161.829 140.501 161.972 140.388 162.094C140.275 162.215 140.138 162.312 139.985 162.378C139.833 162.445 139.668 162.479 139.502 162.479C139.336 162.479 139.172 162.445 139.019 162.378C138.867 162.312 138.73 162.215 138.616 162.094C138.503 161.972 138.416 161.829 138.36 161.672C138.305 161.515 138.282 161.349 138.294 161.183C138.282 161.018 138.305 160.851 138.36 160.695C138.416 160.538 138.503 160.394 138.616 160.273C138.73 160.151 138.867 160.054 139.019 159.988C139.172 159.922 139.336 159.888 139.502 159.888C139.668 159.888 139.833 159.922 139.985 159.988C140.138 160.054 140.275 160.151 140.388 160.273C140.501 160.394 140.588 160.538 140.644 160.695C140.699 160.851 140.722 161.018 140.711 161.183Z" fill="white"/>
<path opacity="0.2" d="M144.462 161.201C144.445 161.438 144.358 161.664 144.213 161.852C144.069 162.04 143.872 162.181 143.648 162.258C143.423 162.335 143.181 162.345 142.952 162.286C142.722 162.227 142.515 162.101 142.356 161.925C142.197 161.75 142.093 161.531 142.057 161.296C142.021 161.062 142.054 160.822 142.153 160.607C142.252 160.391 142.412 160.21 142.614 160.084C142.815 159.959 143.049 159.896 143.286 159.902C143.613 159.922 143.919 160.069 144.139 160.312C144.359 160.554 144.475 160.874 144.462 161.201Z" fill="white"/>
<path opacity="0.2" d="M148.208 161.219C148.19 161.455 148.104 161.682 147.959 161.869C147.814 162.057 147.618 162.199 147.393 162.276C147.169 162.353 146.927 162.362 146.697 162.303C146.468 162.244 146.261 162.119 146.101 161.943C145.942 161.767 145.838 161.548 145.802 161.314C145.766 161.08 145.8 160.84 145.899 160.624C145.998 160.409 146.158 160.227 146.359 160.102C146.561 159.977 146.794 159.913 147.032 159.919C147.359 159.939 147.665 160.086 147.885 160.329C148.105 160.572 148.22 160.891 148.208 161.219Z" fill="white"/>
<path opacity="0.2" d="M151.953 161.231C151.937 161.467 151.851 161.694 151.707 161.883C151.563 162.072 151.367 162.214 151.143 162.292C150.918 162.37 150.676 162.38 150.446 162.322C150.216 162.263 150.008 162.138 149.848 161.963C149.689 161.787 149.584 161.568 149.548 161.334C149.511 161.099 149.545 160.859 149.644 160.643C149.742 160.427 149.903 160.245 150.104 160.12C150.306 159.994 150.54 159.931 150.777 159.937C151.103 159.957 151.408 160.103 151.628 160.345C151.848 160.586 151.964 160.904 151.953 161.231Z" fill="white"/>
<path opacity="0.2" d="M155.705 161.249C155.689 161.484 155.604 161.71 155.461 161.898C155.318 162.087 155.124 162.229 154.901 162.308C154.679 162.387 154.438 162.399 154.208 162.343C153.979 162.287 153.771 162.165 153.61 161.992C153.449 161.819 153.342 161.603 153.302 161.37C153.262 161.138 153.291 160.898 153.386 160.682C153.48 160.465 153.636 160.281 153.834 160.152C154.032 160.023 154.263 159.954 154.499 159.955C154.83 159.967 155.143 160.11 155.369 160.353C155.595 160.595 155.716 160.917 155.705 161.249Z" fill="white"/>
<path opacity="0.2" d="M159.45 161.266C159.462 161.432 159.439 161.598 159.384 161.755C159.328 161.912 159.241 162.055 159.128 162.177C159.014 162.298 158.877 162.395 158.725 162.461C158.572 162.528 158.408 162.562 158.242 162.562C158.076 162.562 157.911 162.528 157.759 162.461C157.606 162.395 157.469 162.298 157.356 162.177C157.243 162.055 157.156 161.912 157.1 161.755C157.045 161.598 157.022 161.432 157.033 161.266C157.022 161.101 157.045 160.934 157.1 160.778C157.156 160.621 157.243 160.477 157.356 160.356C157.469 160.234 157.606 160.137 157.759 160.071C157.911 160.005 158.076 159.971 158.242 159.971C158.408 159.971 158.572 160.005 158.725 160.071C158.877 160.137 159.014 160.234 159.128 160.356C159.241 160.477 159.328 160.621 159.384 160.778C159.439 160.934 159.462 161.101 159.45 161.266Z" fill="white"/>
<path opacity="0.2" d="M163.196 161.284C163.18 161.519 163.095 161.745 162.952 161.933C162.81 162.122 162.615 162.264 162.392 162.343C162.17 162.422 161.929 162.434 161.699 162.378C161.47 162.322 161.262 162.2 161.101 162.027C160.94 161.854 160.833 161.638 160.793 161.406C160.753 161.173 160.783 160.933 160.877 160.717C160.972 160.5 161.127 160.316 161.325 160.187C161.523 160.058 161.754 159.99 161.99 159.99C162.321 160.002 162.634 160.146 162.86 160.388C163.086 160.63 163.207 160.953 163.196 161.284Z" fill="white"/>
<path opacity="0.2" d="M166.941 161.302C166.925 161.539 166.84 161.766 166.695 161.954C166.551 162.143 166.355 162.285 166.131 162.363C165.906 162.441 165.664 162.452 165.434 162.393C165.204 162.334 164.996 162.21 164.836 162.034C164.677 161.858 164.572 161.639 164.536 161.405C164.499 161.17 164.533 160.93 164.632 160.714C164.731 160.498 164.891 160.316 165.092 160.191C165.294 160.065 165.528 160.002 165.765 160.008C166.091 160.028 166.397 160.174 166.616 160.416C166.836 160.658 166.953 160.975 166.941 161.302Z" fill="white"/>
</g>
<path d="M161.62 76.4171C162.028 76.2372 162.375 75.9412 162.616 75.5659C162.858 75.1905 162.984 74.7525 162.978 74.3062C162.993 74.0161 162.949 73.7259 162.849 73.4533C162.748 73.1808 162.593 72.9315 162.393 72.7208C162.193 72.51 161.952 72.3422 161.686 72.2275C161.419 72.1129 161.131 72.0537 160.841 72.0537C160.55 72.0537 160.263 72.1129 159.996 72.2275C159.729 72.3422 159.488 72.51 159.288 72.7208C159.088 72.9315 158.933 73.1808 158.833 73.4533C158.732 73.7259 158.688 74.0161 158.703 74.3062C158.694 74.7569 158.819 75.2002 159.062 75.5801C159.305 75.96 159.655 76.2594 160.067 76.4406C156.775 76.9345 156.922 80.5096 156.922 80.5096L164.707 80.5449C164.707 80.5449 164.889 76.9051 161.62 76.4171Z" fill="#FF3C4C"/>
<path opacity="0.1" d="M161.62 76.4171C162.028 76.2372 162.375 75.9412 162.616 75.5659C162.858 75.1905 162.984 74.7525 162.978 74.3062C162.993 74.0161 162.949 73.7259 162.849 73.4533C162.748 73.1808 162.593 72.9315 162.393 72.7208C162.193 72.51 161.952 72.3422 161.686 72.2275C161.419 72.1129 161.131 72.0537 160.841 72.0537C160.55 72.0537 160.263 72.1129 159.996 72.2275C159.729 72.3422 159.488 72.51 159.288 72.7208C159.088 72.9315 158.933 73.1808 158.833 73.4533C158.732 73.7259 158.688 74.0161 158.703 74.3062C158.694 74.7569 158.819 75.2002 159.062 75.5801C159.305 75.96 159.655 76.2594 160.067 76.4406C156.775 76.9345 156.922 80.5096 156.922 80.5096L164.707 80.5449C164.707 80.5449 164.889 76.9051 161.62 76.4171Z" fill="black"/>
<path d="M174.27 82.8505L146.523 82.7246L146.508 86.0409L174.255 86.1668L174.27 82.8505Z" fill="#FF3C4C"/>
<path opacity="0.2" d="M174.27 82.8505L146.523 82.7246L146.508 86.0409L174.255 86.1668L174.27 82.8505Z" fill="white"/>
<path d="M72.2614 100.037H71.985L71.1853 100.096C70.7526 100.122 70.3222 100.179 69.8976 100.266C69.6226 100.305 69.3498 100.358 69.0803 100.425L68.1689 100.678C66.6177 101.154 65.1541 101.879 63.8353 102.824C62.093 104.089 60.6382 105.708 59.5665 107.575C58.9365 108.652 58.4353 109.798 58.0729 110.992C57.6922 112.289 57.473 113.628 57.4203 114.978C57.3852 115.688 57.397 116.399 57.4555 117.107C57.4555 117.465 57.5555 117.824 57.6025 118.189C57.6421 118.556 57.7109 118.92 57.8083 119.277C58.3371 121.636 59.4099 123.839 60.9413 125.711C62.4726 127.582 64.4201 129.069 66.6283 130.055C68.2266 130.744 69.9396 131.129 71.6793 131.189C73.476 131.288 75.2746 131.03 76.9713 130.431L77.4887 130.237H77.5593L77.6181 130.272L85.0327 134.035L84.8152 134.223C84.0214 131.766 83.257 129.384 82.5161 127.097V127.009L82.5808 126.944C84.3795 125.132 85.7147 122.914 86.4733 120.476C87.1604 118.247 87.361 115.897 87.0613 113.585C86.7948 111.529 86.134 109.545 85.1151 107.74C84.2368 106.19 83.1037 104.798 81.7635 103.624C80.6577 102.695 79.4338 101.916 78.1237 101.307C77.1324 100.88 76.1 100.555 75.0426 100.337L73.8666 100.143L73.014 100.078L72.4966 100.043H72.3202C72.3788 100.037 72.438 100.037 72.4966 100.043H73.0199L73.8725 100.078L75.0485 100.249C76.1191 100.45 77.1656 100.764 78.1708 101.184C79.5034 101.785 80.7493 102.562 81.8752 103.495C83.2401 104.664 84.3972 106.055 85.2973 107.611C86.3452 109.435 87.0263 111.446 87.3024 113.532C87.6269 115.88 87.4404 118.271 86.7556 120.541C85.992 123.029 84.6361 125.295 82.8042 127.144L82.8395 126.991C83.5804 129.278 84.3507 131.66 85.1503 134.112L85.2621 134.47L84.9269 134.3L77.5122 130.543H77.6416L77.1124 130.737C75.383 131.345 73.5512 131.609 71.7204 131.513C69.9433 131.445 68.1944 131.046 66.5637 130.337C63.453 129.005 60.8649 126.689 59.196 123.745C58.428 122.386 57.8672 120.919 57.532 119.394C57.4402 119.028 57.3714 118.657 57.3262 118.283C57.2791 117.912 57.2027 117.548 57.1851 117.183C57.0259 115.091 57.247 112.987 57.8377 110.974C58.2091 109.764 58.7243 108.603 59.3724 107.517C60.4697 105.632 61.9549 104.003 63.7295 102.736C65.0699 101.788 66.5581 101.069 68.1336 100.608L69.0568 100.372C69.3285 100.309 69.6032 100.26 69.88 100.225C70.309 100.146 70.7434 100.099 71.1795 100.084L71.985 100.055C72.0766 100.042 72.169 100.037 72.2614 100.037Z" fill="#FF3C4C"/>
<path d="M75.6129 113.749H74.5251L72.1731 110.445V108.275C72.1731 108.275 70.4914 108.169 70.6913 111.009C70.8912 113.849 70.6913 113.126 70.6913 113.126C70.6913 113.126 67.1222 113.126 66.8282 113.449C66.5342 113.773 66.5165 117.218 66.4754 119.141C66.4528 119.605 66.5858 120.062 66.8532 120.442C67.1206 120.821 67.5071 121.1 67.9512 121.234C68.0757 121.269 68.2043 121.287 68.3334 121.287C69.2272 121.287 73.7724 120.564 73.7724 120.564H75.6482L75.6129 113.749Z" fill="#FF3C4C"/>
<path d="M78.7235 113.167L78.0531 120.599H76.1951V113.32L78.7235 113.167Z" fill="#FF3C4C"/>
<path d="M100.885 264.478V259.45L91.8714 259.386L91.7949 266.989L92.3535 267.03C94.8408 267.189 105.007 267.424 106.677 266.906C108.535 266.33 100.885 264.478 100.885 264.478Z" fill="#FF3C4C"/>
<path d="M106.889 266.436C106.889 266.518 103.514 266.589 99.3565 266.589C95.1993 266.589 91.8242 266.518 91.8242 266.436C91.8242 266.354 95.1993 266.283 99.3565 266.283C103.514 266.283 106.889 266.354 106.889 266.436Z" fill="#263238"/>
<path d="M101.044 265.507C100.968 265.466 101.044 265.201 101.226 264.919C101.409 264.637 101.656 264.519 101.714 264.578C101.773 264.637 101.65 264.86 101.473 265.102C101.297 265.343 101.121 265.548 101.044 265.507Z" fill="#263238"/>
<path d="M101.62 265.836C101.538 265.836 101.579 265.507 101.756 265.195C101.932 264.884 102.167 264.695 102.232 264.743C102.297 264.79 102.191 265.054 102.026 265.331C101.861 265.607 101.697 265.866 101.62 265.836Z" fill="#263238"/>
<path d="M94.5409 266.412C94.5056 266.412 94.3704 266.306 94.1763 266.083C93.9395 265.795 93.6756 265.532 93.3884 265.295C93.106 265.069 92.7695 264.921 92.4123 264.865C92.136 264.83 91.9596 264.865 91.9419 264.83C91.9243 264.795 92.0948 264.671 92.4182 264.648C92.845 264.639 93.2613 264.78 93.5942 265.048C93.9061 265.302 94.1691 265.611 94.3704 265.959C94.5056 266.218 94.5762 266.388 94.5409 266.412Z" fill="#263238"/>
<path d="M101.073 264.56C101.115 264.631 100.962 264.807 100.703 264.901C100.444 264.996 100.215 264.96 100.203 264.901C100.191 264.843 100.374 264.719 100.597 264.637C100.821 264.555 101.026 264.49 101.073 264.56Z" fill="#263238"/>
<path d="M100.932 264.072C100.932 264.16 100.697 264.231 100.391 264.237C100.086 264.243 99.8446 264.172 99.8504 264.09C99.8563 264.007 100.097 263.931 100.391 263.925C100.685 263.919 100.921 263.99 100.932 264.072Z" fill="#263238"/>
<path d="M123.082 264.478V259.45L114.068 259.386L113.992 266.912L114.551 266.953C117.038 267.112 127.21 267.424 128.874 266.906C130.732 266.33 123.082 264.478 123.082 264.478Z" fill="#FF3C4C"/>
<path d="M129.086 266.448C129.086 266.53 125.717 266.601 121.554 266.601C117.39 266.601 114.027 266.53 114.027 266.448C114.027 266.365 117.396 266.295 121.554 266.295C125.711 266.295 129.086 266.365 129.086 266.448Z" fill="#263238"/>
<path d="M123.241 265.507C123.17 265.466 123.241 265.201 123.423 264.919C123.606 264.637 123.853 264.519 123.911 264.578C123.97 264.637 123.847 264.86 123.67 265.102C123.494 265.343 123.317 265.548 123.241 265.507Z" fill="#263238"/>
<path d="M123.817 265.836C123.741 265.836 123.776 265.507 123.958 265.195C124.141 264.884 124.37 264.695 124.435 264.743C124.499 264.79 124.388 265.054 124.223 265.331C124.058 265.607 123.9 265.866 123.817 265.836Z" fill="#263238"/>
<path d="M116.738 266.412C116.703 266.412 116.573 266.306 116.373 266.083C116.136 265.795 115.873 265.532 115.585 265.295C115.303 265.069 114.967 264.921 114.609 264.865C114.339 264.83 114.157 264.865 114.139 264.83C114.121 264.795 114.292 264.671 114.615 264.648C115.042 264.639 115.458 264.78 115.791 265.048C116.105 265.3 116.368 265.609 116.567 265.959C116.703 266.218 116.773 266.388 116.738 266.412Z" fill="#263238"/>
<path d="M123.27 264.56C123.312 264.631 123.159 264.807 122.9 264.901C122.641 264.996 122.412 264.96 122.4 264.901C122.388 264.843 122.571 264.719 122.794 264.637C123.018 264.555 123.223 264.49 123.27 264.56Z" fill="#263238"/>
<path d="M123.141 264.072C123.141 264.16 122.906 264.231 122.6 264.237C122.294 264.243 122.059 264.172 122.065 264.09C122.071 264.007 122.306 263.931 122.6 263.925C122.894 263.919 123.141 263.99 123.141 264.072Z" fill="#263238"/>
<path d="M156.293 115.185C156.057 114.944 155.475 115.062 155.475 115.062C155.534 114.723 155.534 114.377 155.475 114.038C155.369 113.709 154.629 113.774 154.629 113.774C154.594 113.497 154.594 113.216 154.629 112.939C154.634 112.877 154.621 112.816 154.591 112.762C154.56 112.708 154.514 112.665 154.458 112.639C154.107 112.496 153.731 112.428 153.353 112.439C152.9 112.116 154.734 109.546 155.416 108.723C156.099 107.9 155.975 107.259 155.369 107.259C154.952 107.259 152.812 109.728 152.153 110.557C151.494 111.387 149.748 113.692 149.689 111.851C149.631 110.011 148.89 108.623 148.425 108.388C147.961 108.153 147.467 108.705 147.72 109.217C147.942 109.798 148.08 110.408 148.131 111.028C148.195 111.522 148.173 112.023 148.066 112.51C147.871 113.415 147.606 114.304 147.273 115.167H147.226C147.226 115.167 134.395 127.474 133.466 128.35C132.637 129.138 115.962 127.415 112.616 127.063C111.479 126.896 110.331 126.818 109.182 126.827C107.73 126.892 107.471 127.098 106.024 127.116C102.371 127.156 98.727 127.477 95.1229 128.074C93.491 128.351 91.9666 129.072 90.7161 130.156C89.4656 131.241 88.537 132.648 88.0316 134.224C84.6624 144.75 77.0302 169.663 75.6836 183.658C74.6661 185.503 73.7476 187.401 72.9318 189.344C71.9851 191.919 72.2145 192.007 72.532 192.066C73.3905 192.225 74.3665 187.603 74.7311 188.72C75.0956 189.838 72.8789 194.23 73.7785 194.359C74.9545 194.524 75.8895 189.655 76.0012 189.267C76.1129 188.879 76.695 189.003 76.5892 189.367C76.4187 189.885 74.7664 195.371 75.9189 195.547C76.5539 195.641 76.6244 194.483 76.6244 194.483C76.6244 194.483 77.8005 189.232 78.3355 189.338C78.8706 189.444 78.3002 192.542 78.0298 193.577C77.7593 194.612 78.1356 195.135 78.6883 194.883C79.0646 194.706 79.9643 191.56 80.2113 190.537C80.4582 189.514 81.0756 186.68 81.9047 188.32C82.7338 189.961 83.9921 190.914 84.5095 190.937C84.6261 190.924 84.736 190.876 84.8251 190.799C84.9142 190.723 84.9783 190.621 85.0093 190.508C85.0403 190.395 85.0367 190.275 84.999 190.164C84.9613 190.053 84.8911 189.956 84.7976 189.885C84.3526 189.45 83.9706 188.955 83.6628 188.415C83.3885 187.993 83.1895 187.528 83.0748 187.039C82.8379 186.063 82.7 185.066 82.6632 184.063L82.5691 183.475C83.8862 176.954 87.6788 157.815 93.1531 145.591L95.3993 150.212L96.3754 153.634L90.3895 168.411L115.92 168.076L112.11 153.411L116.738 138.123C121.742 138.235 134.589 138.423 136.73 137.453C139.423 136.277 153.353 118.684 153.353 118.684C154.261 117.978 155.13 117.224 155.957 116.426C155.957 116.426 156.804 115.714 156.293 115.185Z" fill="#FFBE9D"/>
<path d="M89.2664 157.491C90.0073 154.962 93.8117 142.461 93.8117 142.461C93.8117 142.461 95.6815 152.651 95.1876 153.88C94.7332 154.932 94.1965 155.947 93.5823 156.914C89.2664 163.482 89.8309 166.769 89.8309 166.769L115.909 165.976C115.967 162.33 113.81 153.851 113.363 152.499C112.916 151.146 114.403 146.719 114.403 146.719C114.403 146.719 117.343 143.726 117.238 142.185C117.182 140.801 117.011 139.424 116.726 138.069L132.602 138.657L132.102 127.897L109.3 125.615C108.506 127.856 101.326 126.756 101.326 126.756C93.5764 127.015 93.0943 128.438 89.8721 130.943C86.6498 133.447 81.3167 154.945 81.3167 154.945L89.2664 157.491Z" fill="#FF3C4C"/>
<path d="M104.684 154.945C104.232 155.025 103.772 155.049 103.314 155.015C102.461 155.015 101.291 154.956 100.003 154.827C98.7155 154.698 97.5513 154.515 96.7222 154.351C96.2651 154.292 95.8168 154.177 95.3875 154.01C95.8472 154.01 96.3059 154.053 96.7575 154.139C97.5925 154.245 98.7508 154.392 100.033 154.521C101.314 154.651 102.479 154.739 103.32 154.798C103.778 154.803 104.235 154.853 104.684 154.945Z" fill="#263238"/>
<path d="M106.471 152.729C106.019 152.95 105.541 153.114 105.048 153.217C102.702 153.833 100.282 154.12 97.857 154.069C97.3552 154.085 96.8534 154.038 96.3635 153.928C96.8588 153.865 97.358 153.84 97.857 153.852C98.7802 153.822 100.05 153.758 101.45 153.593C102.849 153.428 104.096 153.193 104.978 153.005C105.468 152.874 105.967 152.782 106.471 152.729Z" fill="#263238"/>
<path d="M115.244 142.838C115.232 143.286 115.171 143.732 115.062 144.167C114.909 144.984 114.674 146.101 114.374 147.324C114.074 148.547 113.786 149.676 113.527 150.441C113.423 150.878 113.269 151.302 113.069 151.705C113.101 151.258 113.184 150.816 113.316 150.388C113.539 149.471 113.792 148.412 114.074 147.254C114.356 146.095 114.627 145.037 114.85 144.12C114.93 143.678 115.062 143.248 115.244 142.838Z" fill="#263238"/>
<path d="M89.5428 155.992C88.1825 155.782 86.84 155.469 85.5268 155.057C84.1849 154.743 82.8681 154.331 81.5872 153.822C82.9468 154.036 84.2891 154.348 85.6032 154.757C86.9454 155.07 88.2623 155.483 89.5428 155.992Z" fill="#263238"/>
<path d="M117.008 137.941C116.787 137.979 116.56 137.979 116.338 137.941C115.724 137.878 115.121 137.733 114.545 137.511C113.583 137.15 112.707 136.591 111.974 135.871C111.241 135.151 110.666 134.286 110.287 133.331C109.869 132.28 109.69 131.149 109.764 130.02C109.79 129.089 110.069 128.183 110.57 127.398C110.922 126.869 111.448 126.48 112.057 126.298C112.22 126.253 112.388 126.232 112.557 126.234C112.675 126.234 112.734 126.234 112.734 126.234C112.734 126.234 112.487 126.234 112.093 126.392C111.534 126.599 111.06 126.986 110.746 127.492C109.946 128.75 109.723 131.049 110.576 133.195C110.972 134.207 111.594 135.116 112.393 135.853C113.047 136.456 113.801 136.942 114.621 137.288C115.391 137.592 116.191 137.811 117.008 137.941Z" fill="#263238"/>
<path d="M130.715 138.446C130.567 136.643 130.52 134.833 130.573 133.025C130.527 131.218 130.582 129.41 130.738 127.609C130.885 129.411 130.932 131.218 130.879 133.025C130.929 134.834 130.874 136.644 130.715 138.446Z" fill="#263238"/>
<path d="M109.147 126.274C109.211 124.963 109.347 123.481 109.347 123.481C109.347 123.481 112.592 123.123 112.786 119.771C112.98 116.42 112.786 108.687 112.786 108.687L106.906 105.677L100.38 110.81L101.385 127.568L107.371 127.95C107.828 127.963 108.272 127.794 108.605 127.479C108.938 127.165 109.133 126.732 109.147 126.274Z" fill="#FFBE9D"/>
<path d="M109.729 117.119C109.729 117.119 109.729 117.184 109.676 117.26C109.632 117.316 109.576 117.36 109.511 117.388C109.447 117.417 109.376 117.429 109.306 117.425C108.929 117.425 108.565 116.99 108.435 116.484C108.374 116.239 108.374 115.982 108.435 115.737C108.447 115.63 108.486 115.528 108.548 115.44C108.609 115.351 108.692 115.28 108.788 115.232C108.867 115.199 108.956 115.199 109.035 115.232C109.094 115.261 109.141 115.308 109.17 115.367C109.211 115.467 109.17 115.531 109.17 115.526C109.17 115.52 109.17 115.467 109.111 115.408C109.081 115.366 109.036 115.337 108.985 115.326C108.934 115.315 108.88 115.323 108.835 115.349C108.763 115.393 108.703 115.454 108.661 115.527C108.619 115.6 108.596 115.682 108.594 115.767C108.545 115.985 108.545 116.212 108.594 116.431C108.712 116.89 109.029 117.26 109.311 117.295C109.367 117.303 109.423 117.299 109.476 117.284C109.53 117.269 109.58 117.243 109.623 117.207C109.694 117.16 109.717 117.113 109.729 117.119Z" fill="#EB996E"/>
<path d="M114.803 106.876C114.351 105.336 112.71 104.571 111.216 104.148C108.941 103.501 106.483 103.219 104.26 104.036C102.038 104.853 99.3683 106.288 99.3683 108.74C98.057 108.634 97.3044 109.781 96.7869 111.204C96.4561 112.071 96.2579 112.983 96.1989 113.909C96.0343 117.119 95.1347 121.553 93.0531 123.905C91.8771 125.216 90.2484 126.121 89.5781 127.756C88.9901 129.173 89.2958 130.855 88.749 132.29C88.2609 133.554 87.1849 134.453 86.397 135.553C85.5943 136.8 85.1218 138.231 85.0241 139.711C84.9264 141.192 85.2066 142.672 85.8384 144.014C86.4747 145.322 87.3706 146.486 88.4714 147.437C89.5723 148.387 90.8551 149.103 92.2417 149.541C94.9883 150.377 97.9172 150.406 100.68 149.624C102.753 149.128 104.687 148.169 106.336 146.819C108.024 145.441 109.183 143.521 109.617 141.386C110.035 138.987 109.364 136.547 108.864 134.159C107.3 126.615 107.747 126.221 109.723 119.218C109.77 119.095 109.794 118.965 109.829 118.842C109.864 118.718 109.882 118.66 109.905 118.566C109.961 118.289 109.991 118.007 109.993 117.725C109.705 117.832 109.392 117.855 109.091 117.79C108.79 117.726 108.513 117.576 108.294 117.36C108.074 117.13 107.921 116.844 107.851 116.533C107.78 116.223 107.795 115.899 107.894 115.596C108.033 115.265 108.24 114.967 108.501 114.721C108.762 114.475 109.072 114.286 109.411 114.167C110.064 113.897 110.764 113.756 111.405 113.456C112.763 112.809 113.704 111.468 114.345 110.063C114.872 109.089 115.034 107.959 114.803 106.876Z" fill="#263238"/>
<path d="M109.964 117.278C110.088 117.462 110.191 117.659 110.27 117.866C110.446 118.237 110.681 118.76 110.94 119.366L110.987 119.477H110.864L110.276 119.53C109.87 119.53 109.529 119.607 109.129 119.601C109.094 119.593 109.062 119.577 109.035 119.553C109.009 119.529 108.988 119.499 108.976 119.466C108.959 119.412 108.959 119.355 108.976 119.301C108.99 119.222 109.008 119.143 109.029 119.066L109.135 118.648C109.188 118.37 109.271 118.098 109.382 117.837C109.371 118.121 109.33 118.403 109.259 118.678L109.176 119.095C109.147 119.236 109.094 119.454 109.176 119.436C109.47 119.436 109.888 119.372 110.276 119.348L110.864 119.295L110.787 119.425C110.534 118.837 110.323 118.284 110.199 117.902C110.091 117.706 110.012 117.496 109.964 117.278Z" fill="#FF3C4C"/>
<path d="M89.8309 166.769L115.909 165.976L127.257 210.275L125.17 261.09H111.381L113.069 211.357L102.984 180.517L104.537 263.06L90.6012 263.266L89.1371 185.679C89.0724 183.521 88.3668 178.659 88.6314 176.518L89.8309 166.769Z" fill="#263238"/>
<path d="M106.454 181.147C106.027 181.174 105.598 181.148 105.178 181.07C104.39 180.976 103.314 180.812 102.132 180.577C100.95 180.341 99.8916 180.071 99.1272 179.853C98.7186 179.763 98.3233 179.621 97.9512 179.43C97.9512 179.342 99.868 179.8 102.22 180.277C104.572 180.753 106.465 181.059 106.454 181.147Z" fill="#455A64"/>
<path d="M125.029 258.304C125.029 258.387 121.906 258.457 118.055 258.457C114.204 258.457 111.075 258.387 111.075 258.304C111.075 258.222 114.198 258.151 118.055 258.151C121.912 258.151 125.029 258.216 125.029 258.304Z" fill="#455A64"/>
<path d="M104.413 260.915C104.413 261.003 101.379 261.067 97.6395 261.067C93.8998 261.067 90.8716 261.003 90.8716 260.915C90.8716 260.826 93.9057 260.762 97.6395 260.762C101.373 260.762 104.413 260.832 104.413 260.915Z" fill="#455A64"/>
<path d="M102.614 260.703C102.532 260.703 102.167 242.669 101.797 220.425C101.426 198.18 101.209 180.135 101.285 180.135C101.362 180.135 101.738 198.163 102.103 220.419C102.467 242.674 102.702 260.703 102.614 260.703Z" fill="#455A64"/>
<path d="M123.177 258.303C123.17 258.223 123.17 258.143 123.177 258.062V257.357C123.177 256.722 123.224 255.81 123.259 254.652C123.341 252.3 123.459 248.884 123.606 244.697C123.923 236.277 124.37 224.67 124.858 211.857C124.858 211.734 124.858 211.616 124.858 211.51V211.552C121.771 199.204 118.978 187.996 116.95 179.888L114.598 170.298C114.327 169.174 114.121 168.298 113.974 167.687C113.904 167.399 113.857 167.175 113.816 167.005C113.793 166.928 113.779 166.849 113.774 166.77C113.805 166.844 113.829 166.92 113.845 166.999C113.892 167.163 113.951 167.387 114.033 167.669C114.192 168.257 114.421 169.151 114.715 170.268C115.303 172.538 116.132 175.807 117.167 179.835C119.213 187.938 122.036 199.115 125.164 211.481V211.522C125.164 211.628 125.164 211.752 125.164 211.869C124.641 224.682 124.164 236.283 123.817 244.703C123.635 248.895 123.482 252.288 123.376 254.652C123.318 255.828 123.271 256.722 123.241 257.357C123.241 257.657 123.206 257.892 123.2 258.062C123.201 258.143 123.193 258.224 123.177 258.303Z" fill="#455A64"/>
<path d="M118.678 210.476C117.688 210.801 116.668 211.028 115.632 211.152C114.362 211.369 113.28 211.522 112.792 211.546V211.428C112.951 211.475 113.033 211.505 113.033 211.528C113.033 211.552 112.933 211.528 112.769 211.528H112.416L112.769 211.422C113.227 211.287 114.309 211.064 115.579 210.834C116.598 210.613 117.636 210.493 118.678 210.476Z" fill="#455A64"/>
<path d="M118.437 212.164C117.52 212.206 116.601 212.164 115.691 212.04C114.773 212.021 113.858 211.921 112.957 211.74C114.795 211.59 116.644 211.733 118.437 212.164Z" fill="#455A64"/>
<path opacity="0.2" d="M89.7192 167.704C90.0281 168.101 90.4171 168.428 90.8609 168.664C91.3046 168.9 91.7932 169.04 92.2947 169.074C93.345 169.199 94.4073 169.179 95.4522 169.016C102.185 168.269 109.317 167.581 115.909 165.976C107.377 166.452 98.3628 166.293 89.831 166.769L89.7428 167.499" fill="black"/>
<g opacity="0.2">
<path opacity="0.2" d="M98.5098 179.729L103.32 198.393L102.984 180.517L98.5098 179.729Z" fill="black"/>
</g>
</svg>
