<svg xmlns="http://www.w3.org/2000/svg" width="125.924" height="106.387" viewBox="0 0 125.924 106.387">
    <defs>
        <style>
            .cls-1{fill:#fff;stroke-linejoin:round}.cls-1,.cls-3{stroke-linecap:round}.cls-2{fill:#232323}.cls-3{fill:none;stroke:#232323}.cls-4,.cls-5{stroke:none}.cls-5{fill:#232323}
        </style>
    </defs>
    <g id="Tiket_Icons" transform="rotate(9 4398.338 -5789.83)">
        <g id="Subtraction_9" class="cls-1">
            <path d="M18.863 82.935L.999 82.933V1h17.863c-.004.111-.006.222-.006.332 0 5.302 4.316 9.617 9.622 9.617 5.302 0 9.616-4.315 9.616-9.617 0-.111-.002-.222-.006-.332h16.765v81.933H38.088c.004-.114.006-.229.006-.343 0-5.305-4.314-9.62-9.616-9.62-5.306 0-9.622 4.315-9.622 9.62 0 .115.003.23.007.345z" class="cls-4" transform="rotate(6 -5362.87 10160.346)"/>
            <path d="M17.876 81.935c.34-5.552 4.965-9.965 10.602-9.965 5.633 0 10.256 4.412 10.596 9.963h14.779V2h-14.78c-.346 5.544-4.966 9.949-10.595 9.949-5.632 0-10.255-4.405-10.6-9.949H1.998v79.934h15.877m2.085 2H-.001V0h19.96c-.067.45-.103.897-.103 1.332 0 4.751 3.868 8.617 8.622 8.617 4.75 0 8.616-3.866 8.616-8.617 0-.45-.034-.898-.104-1.332h18.863v83.933H36.989c.069-.439.105-.89.105-1.343 0-4.753-3.865-8.62-8.616-8.62-4.754 0-8.622 3.867-8.622 8.62 0 .45.036.902.105 1.343v.002z" class="cls-5" transform="rotate(6 -5362.87 10160.346)"/>
        </g>
        <g id="Subtraction_7" class="cls-1">
            <path d="M18.863 82.935L.999 82.933V1h17.863c-.004.111-.006.222-.006.332 0 5.302 4.316 9.617 9.622 9.617 5.302 0 9.616-4.315 9.616-9.617 0-.111-.002-.222-.006-.332h16.765v81.933H38.088c.004-.114.006-.229.006-.343 0-5.305-4.314-9.62-9.616-9.62-5.306 0-9.622 4.315-9.622 9.62 0 .115.003.23.007.345z" class="cls-4" transform="rotate(-28 1756.16 -1614.615)"/>
            <path d="M17.876 81.935c.34-5.552 4.965-9.965 10.602-9.965 5.633 0 10.256 4.412 10.596 9.963h14.779V2h-14.78c-.346 5.544-4.966 9.949-10.595 9.949-5.632 0-10.255-4.405-10.6-9.949H1.998v79.934h15.877m2.085 2H-.001V0h19.96c-.067.45-.103.897-.103 1.332 0 4.751 3.868 8.617 8.622 8.617 4.75 0 8.616-3.866 8.616-8.617 0-.45-.034-.898-.104-1.332h18.863v83.933H36.989c.069-.439.105-.89.105-1.343 0-4.753-3.865-8.62-8.616-8.62-4.754 0-8.622 3.867-8.622 8.62 0 .45.036.902.105 1.343v.002z" class="cls-5" transform="rotate(-28 1756.16 -1614.615)"/>
        </g>
        <g id="Group_20879" transform="rotate(-27 1862.071 -1385.8)">
            <path id="Path_7317" d="M194.056 59.117a.636.636 0 0 0-.566-.384c-.22-.005-22.113-.554-34.373 3.172a.633.633 0 0 0-.322.225 11.321 11.321 0 0 0-1.225 2.4 1.715 1.715 0 0 1 .206.169 2.286 2.286 0 0 0 .9.494 13.02 13.02 0 0 1 1.027-2.135C170 60 187.041 59.929 192.039 59.979c-1.048 1.106-2.871 2.974-5.062 4.983a2.317 2.317 0 0 0 1.175.321 2.42 2.42 0 0 0 .383-.033c3.143-2.94 5.383-5.426 5.411-5.458a.636.636 0 0 0 .11-.675z" class="cls-2" transform="translate(-2.867 -12.047)"/>
            <path id="Path_7318" d="M223.609 67.082a.8.8 0 1 0-.8.8.8.8 0 0 0 .8-.8z" class="cls-2" transform="translate(-43.938 -16.878)"/>
            <path id="Path_7319" d="M236.128 66.984a.8.8 0 1 0-.8.8.8.8 0 0 0 .8-.8z" class="cls-2" transform="translate(-51.918 -16.815)"/>
            <path id="Path_7320" d="M184.261 45.79a1.24 1.24 0 0 0-.25-.283L184 45.5l-.029-.021c-1.247-1.149-6.342-4.684-11.249-4.043-.041.005-2.7.348-5.821.972l-1.547-2.321a.635.635 0 0 0-1.056.7l1.264 1.9c-1.258.274-2.543.591-3.724.945a.635.635 0 0 0 .114 1.239l3.888.421c.005.009.009.018.015.026.024.04.542.97-1.008 2.588q.915-.2 1.874-.374a3.27 3.27 0 0 0 .476-2.094l.947.1a.635.635 0 0 0 .137-1.262l-2.718-.294c3.7-.824 7.275-1.285 7.323-1.292a9.839 9.839 0 0 1 3.821.315c-2.582.213-4.933.639-5.063.664a.634.634 0 0 0-.46.894l.83 1.768a.635.635 0 0 0 .574.365.7.7 0 0 0 .109-.009c2.408-.37 7.122-.744 9.649-.812l1.915-.055c.003-.01.004-.02 0-.03zm-11.3-.431l-.272-.578a52.111 52.111 0 0 1 6.611-.7l.257.021c.389.194.755.393 1.1.591-2.416.099-5.651.355-7.692.666z" class="cls-2" transform="translate(-5.303)"/>
            <path id="Path_7321" d="M187.894 76.931c-2.816 2.069-4.815.153-4.906.063a.691.691 0 0 0-.86-.063c-2.817 2.069-4.816.153-4.906.063a.691.691 0 0 0-.86-.063c-2.816 2.069-4.815.153-4.905.063a.691.691 0 0 0-.86-.063c-2.816 2.068-4.815.153-4.906.064a.692.692 0 0 0-.861-.064c-2.816 2.069-4.815.153-4.905.063a.695.695 0 0 0-.863-.063c-2.816 2.069-4.815.153-4.905.063a.635.635 0 0 0-.9.893 4.63 4.63 0 0 0 3.2 1.27 5.444 5.444 0 0 0 2.957-.934 4.7 4.7 0 0 0 2.811.934 5.446 5.446 0 0 0 2.956-.933 4.7 4.7 0 0 0 2.81.933 5.444 5.444 0 0 0 2.956-.933 4.7 4.7 0 0 0 2.81.933 5.44 5.44 0 0 0 2.956-.933 4.706 4.706 0 0 0 2.81.933 5.441 5.441 0 0 0 2.956-.933 4.706 4.706 0 0 0 2.81.933 5.625 5.625 0 0 0 3.354-1.2.635.635 0 0 0-.751-1.023z" class="cls-2" transform="translate(0 -23.587)"/>
            <path id="Path_7337" d="M152.066 25.423a1.969 1.969 0 0 1 1.854.963c1.639-2.266 2.57-1.241 2.57-1.241" class="cls-3" transform="translate(5.73 5.016)"/>
            <path id="Path_7338" d="M152.066 25.33a1.607 1.607 0 0 1 1.513.786c1.337-1.849 2.1-1.013 2.1-1.013" class="cls-3" transform="translate(15.883 9.637)"/>
            <path id="Path_7339" d="M151.313 25.38s1.816-.147 2.266.736c1.337-1.849 2.1-1.013 2.1-1.013" class="cls-3" transform="translate(28.769 -.896)"/>
        </g>
        <g id="Group_20890" transform="rotate(-11 -951.94 18403.373)">
            <path id="Path_7331" d="M4465 1438.471l-1.067-.007.079-11.931a.531.531 0 0 1 .13-.346l2.886-3.322.805.7-2.756 3.173z" class="cls-2" transform="translate(-63.222 -53.064)"/>
            <path id="Path_7332" d="M4420.853 1405.089l-7.022-.531-9.7-4.932-4.568-5.361.813-.692 4.43 5.2 9.323 4.738 6.81.515z" class="cls-2" transform="translate(-3.14 -25.726)"/>
            <path id="Path_7333" d="M4473.833 1377.6l-5.092-.761-7.765-3.947-3.617-3.664.759-.75 3.495 3.541 7.457 3.789 4.921.736z" class="cls-2" transform="translate(-57.086 -2.302)"/>
            <path id="Path_7334" d="M4467.81 1496.25l-.635-.858 9.433-6.978.938-4.1 1.04.238-.983 4.289a.528.528 0 0 1-.2.31z" class="cls-2" transform="translate(-66.247 -110.417)"/>
            <path id="Path_7335" d="M4400.878 1386.124l-4.685-18.24 4.363-1.875 5.372.279-.055 1.066-5.124-.266-3.295 1.416 4.157 16.18 15.52-6.18-.8-3.5-1.98-2.437.828-.673 2.137 2.63 1.058 4.629z" class="cls-2"/>
            <path id="Path_7336" d="M0 .258L1 0 .981 10.9 0 11.357z" class="cls-2" transform="rotate(-58.658 3419.365 -3236.967)"/>
        </g>
        <g id="Group_20891" transform="rotate(-58 2071.684 4022.037)">
            <path id="Path_7331-2" d="M4464.3 1428.249h-.368l.027-4.116a.185.185 0 0 1 .045-.12l1-1.146.277.241-.951 1.094z" class="cls-2" transform="translate(-66.181 -55.548)"/>
            <path id="Path_7332-2" d="M4406.9 1397.547l-2.422-.183-3.348-1.7-1.576-1.849.28-.239 1.528 1.793 3.216 1.635 2.349.178z" class="cls-2" transform="translate(-3.287 -26.931)"/>
            <path id="Path_7333-2" d="M4463.042 1371.622l-1.756-.263-2.679-1.362-1.248-1.264.262-.259 1.206 1.222 2.573 1.304 1.7.254z" class="cls-2" transform="translate(-59.759 -2.41)"/>
            <path id="Path_7334-2" d="M4467.394 1488.433l-.219-.3 3.254-2.407.324-1.413.359.082-.339 1.479a.182.182 0 0 1-.07.107z" class="cls-2" transform="translate(-69.348 -115.586)"/>
            <path id="Path_7335-2" d="M4397.81 1372.948l-1.616-6.292 1.505-.647 1.853.1-.019.368-1.768-.092-1.137.488 1.434 5.582 5.354-2.132-.275-1.206-.684-.841.286-.232.737.907.365 1.6z" class="cls-2"/>
            <path id="Path_7336-2" d="M0 .089L.346 0 .339 3.759 0 3.918z" class="cls-2" transform="rotate(-58.658 3415.69 -3231.955)"/>
        </g>
        <g id="Group_20892" transform="rotate(24 4418.485 -6825.082)">
            <path id="Path_7331-3" d="M4464.162 1426.207h-.229l.017-2.554a.113.113 0 0 1 .028-.074l.618-.711.172.15-.59.679z" class="cls-2" transform="translate(-66.772 -56.044)"/>
            <path id="Path_7332-3" d="M4404.117 1396.04l-1.5-.114-2.078-1.056-.979-1.148.174-.148.949 1.113 2 1.014 1.458.11z" class="cls-2" transform="translate(-3.316 -27.171)"/>
            <path id="Path_7333-3" d="M4460.887 1370.429l-1.09-.163-1.663-.845-.774-.784.163-.161.749.758 1.6.811 1.053.158z" class="cls-2" transform="translate(-60.293 -2.431)"/>
            <path id="Path_7334-3" d="M4467.311 1486.872l-.136-.184 2.02-1.494.2-.877.223.051-.211.918a.112.112 0 0 1-.043.066z" class="cls-2" transform="translate(-69.968 -116.618)"/>
            <path id="Path_7335-3" d="M4397.2 1370.316l-1-3.905.935-.4 1.15.06-.012.228-1.1-.057-.706.3.89 3.464 3.323-1.323-.171-.749-.424-.522.177-.144.458.563.226.991z" class="cls-2"/>
            <path id="Path_7336-3" d="M0 .055L.215 0v2.333l-.21.1z" class="cls-2" transform="rotate(-58.658 3414.956 -3230.955)"/>
        </g>
    </g>
</svg>
