<svg xmlns="http://www.w3.org/2000/svg" width="21.686" height="21.686" viewBox="0 0 21.686 21.686">
  <path id="Email" d="M281.923,634.917a10.843,10.843,0,1,0-8.851,18.446l.2.02q.2.018.394.028.3.016.594.016.4,0,.791-.028l.214-.018q.177-.016.353-.038.226-.028.45-.066a10.844,10.844,0,0,0,5.859-18.359Zm-7.83,16.847h-.054l-.109,0-.065,0-.1,0-.069,0-.093-.006-.071-.005-.09-.007-.072-.007-.089-.009-.072-.008-.088-.01-.072-.009-.088-.012-.072-.011-.088-.013-.072-.012-.088-.015-.071-.013-.089-.017-.069-.014-.09-.019-.067-.014-.094-.021-.063-.015-.1-.025-.054-.014-.134-.036-.022-.006-.155-.045-.042-.013-.111-.034-.056-.018-.1-.031-.062-.021-.09-.031-.065-.023-.086-.032-.066-.025-.084-.033-.066-.026-.083-.034-.066-.028-.082-.036-.066-.029-.082-.037-.065-.03-.082-.039-.064-.031-.082-.041-.062-.032-.083-.043-.061-.032-.084-.046-.058-.032-.089-.05-.051-.029-.1-.062-.034-.021h0a4.841,4.841,0,0,1,3.094-5.459l.018.007.038.015.074.027.04.014.075.025.038.012.091.028.021.006.113.031.032.008.082.02.041.009.075.016.043.009.077.014.039.007.1.016.013,0,.117.015.036,0,.083.008.043,0,.077.005.044,0,.082,0h.038l.12,0,.12,0h.038l.082,0,.044,0,.077-.005.043,0,.083-.008.035,0,.117-.015.014,0,.1-.016.039-.007.078-.014.043-.009.075-.016.041-.009.082-.02.032-.008.113-.031.021-.006.091-.028.038-.012.075-.025.041-.015.073-.027.039-.015.018-.007A4.841,4.841,0,0,1,279,650.444l0,0-.028.017-.111.066-.049.028-.091.052-.057.031-.085.046-.06.032-.083.043-.063.032-.081.041-.065.031-.081.038-.066.03-.081.037-.067.029-.081.035-.067.028-.082.034-.067.027-.083.033-.067.025-.085.031-.066.024-.087.03-.064.022-.093.031-.059.019-.108.033-.046.014-.154.045-.027.007-.128.034-.056.014-.1.025-.064.015-.093.021-.068.015-.089.019-.07.014-.088.017-.071.013-.088.015-.072.012-.087.013-.073.011-.088.012-.072.009-.088.01-.073.008-.089.009-.072.007-.09.007-.071.005-.093.006-.069,0-.1,0-.065,0-.109,0h-.054l-.163,0Zm1.41-8.414a2.825,2.825,0,0,1-1.247.286,2.935,2.935,0,0,1-.325-.018,2.853,2.853,0,0,1-2.529-2.836,2.854,2.854,0,1,1,4.1,2.568Zm5.234,5.74a6.429,6.429,0,0,0-1.3-3.482,6.554,6.554,0,0,0-1.923-1.7,4.519,4.519,0,1,0-6.512,0,6.553,6.553,0,0,0-1.922,1.7,6.429,6.429,0,0,0-1.3,3.482,9.181,9.181,0,1,1,12.961,0Z" transform="translate(-263.413 -631.741)" fill="#fff"/>
</svg>
