<svg width="17" height="22" viewBox="0 0 17 22" fill="none" xmlns="http://www.w3.org/2000/svg">
<path d="M15.8365 6.92703H13.7835V4.94904C13.7835 3.63621 13.262 2.37716 12.3336 1.44885C11.4053 0.520548 10.1463 -0.000976562 8.8335 -0.000976562C7.52067 -0.000976562 6.26162 0.520548 5.33331 1.44885C4.40501 2.37716 3.88348 3.63621 3.88348 4.94904V6.92703H1.82648C1.71735 6.92703 1.60931 6.94853 1.50848 6.9903C1.40766 7.03206 1.31606 7.09324 1.23889 7.17041C1.16173 7.24758 1.10051 7.33918 1.05875 7.44C1.01698 7.54082 0.995483 7.6489 0.995483 7.75803V14.136C1.01878 16.1983 1.85436 18.1681 3.32089 19.6182C4.78743 21.0683 6.7666 21.8815 8.82898 21.8815C10.8914 21.8815 12.8705 21.0683 14.3371 19.6182C15.8036 18.1681 16.6392 16.1983 16.6625 14.136V7.76303C16.6631 7.6539 16.6423 7.54571 16.6011 7.44464C16.56 7.34357 16.4993 7.25158 16.4226 7.17395C16.3459 7.09632 16.2547 7.03455 16.1541 6.99219C16.0535 6.94982 15.9456 6.92769 15.8365 6.92703ZM5.54547 4.94904C5.54547 4.07687 5.89195 3.24043 6.50867 2.62372C7.12538 2.007 7.96182 1.66052 8.83398 1.66052C9.70615 1.66052 10.5426 2.007 11.1593 2.62372C11.776 3.24043 12.1225 4.07687 12.1225 4.94904V6.92703H5.54547V4.94904ZM15.0055 14.136C15.0036 15.7724 14.3528 17.3412 13.1957 18.4982C12.0386 19.6553 10.4698 20.3062 8.8335 20.308C7.19715 20.3062 5.62833 19.6553 4.47125 18.4982C3.31418 17.3412 2.66332 15.7724 2.66147 14.136V8.58902H15.0055V14.136Z" fill="white"/>
</svg>
