<svg id="Password" xmlns="http://www.w3.org/2000/svg" width="15.667" height="21.97" viewBox="0 0 15.667 21.97">
  <path id="Path_7401" data-name="Path 7401" d="M293.91,449.764h-2.053v-1.978a4.95,4.95,0,0,0-9.9,0v1.978H279.9a.831.831,0,0,0-.831.831v6.378a7.834,7.834,0,0,0,15.667,0V450.6A.831.831,0,0,0,293.91,449.764Zm-10.291-1.978a3.288,3.288,0,0,1,6.577,0v1.978h-6.577Zm9.46,9.187a6.179,6.179,0,0,1-6.172,6.172h0a6.179,6.179,0,0,1-6.172-6.172v-5.547h12.344Z" transform="translate(-279.074 -442.837)" fill="#fff"/>
  <path id="Path_7402" data-name="Path 7402" d="M313.6,503.974a1.484,1.484,0,0,0-.841,2.706v1.853a.841.841,0,1,0,1.683,0V506.68a1.484,1.484,0,0,0-.841-2.706Z" transform="translate(-305.766 -492.226)" fill="#fff"/>
</svg>
