<svg xmlns="http://www.w3.org/2000/svg" width="252.309" height="309.894" viewBox="0 0 252.309 309.894">
  <g id="THANK_YOU_" data-name="THANK YOU " transform="translate(0 4.785)">
    <g id="Group_20880" data-name="Group 20880" transform="translate(6.203 211.811)">
      <path id="Path_7322" data-name="Path 7322" d="M-158.141,280.687h-8.789c0-17.9,13.983-32.583,26.852-34.786a34.3,34.3,0,0,1,31.941-22.057,34,34,0,0,1,12.864,2.528,53.463,53.463,0,0,1,51.578-38.984A54.01,54.01,0,0,1,5.041,218.633a62.537,62.537,0,0,1,9.937-.8,63.558,63.558,0,0,1,63.337,62.71l-8.789.091a54.74,54.74,0,0,0-54.549-54.012A54.9,54.9,0,0,0,3.3,227.9l-3.7.806-1.345-3.539a45.149,45.149,0,0,0-41.954-28.991A44.725,44.725,0,0,0-87.9,233.6l-1.1,6.521-5.587-3.539a25.292,25.292,0,0,0-13.549-3.946,25.473,25.473,0,0,0-24.441,18.559l-.9,3.211h-3.334C-145.234,254.4-158.141,266.18-158.141,280.687Z" transform="translate(166.93 -187.389)" fill="#232323"/>
    </g>
    <g id="Group_20882" data-name="Group 20882" transform="translate(61.335 0.003)">
      <path id="Path_7323" data-name="Path 7323" d="M-49.2,244.81a205.855,205.855,0,0,1-15.38,78.424h-60.5a197.4,197.4,0,0,1-7.031-20.155,203.493,203.493,0,0,1-7.91-45.789c-.293-4.131-.41-8.291-.41-12.48a206.307,206.307,0,0,1,23.29-95.533,207.2,207.2,0,0,1,22.323-34.188,207.2,207.2,0,0,1,22.323,34.188A206.307,206.307,0,0,1-49.2,244.81Z" transform="translate(162.94 -115.089)" fill="none" stroke="#232323" stroke-width="6"/>
      <path id="Path_7324" data-name="Path 7324" d="M-64.779,210.26h-72.409l6-24.119H-70.78Z" transform="translate(169.186 22.012)" fill="#f4f5f7" stroke="#232323" stroke-width="6"/>
      <ellipse id="Ellipse_55" data-name="Ellipse 55" cx="19.775" cy="19.775" rx="19.775" ry="19.775" transform="translate(48.33 71.405)" fill="none" stroke="#232323" stroke-width="6"/>
      <path id="Path_7325" data-name="Path 7325" d="M-117.292,209.632l-30.819,30.819V186.635l22.851-22.88.059.088A203.5,203.5,0,0,0-117.292,209.632Z" transform="translate(148.111 -21.185)" fill="none" stroke="#232323" stroke-width="6"/>
      <path id="Path_7326" data-name="Path 7326" d="M-112.159,209.632l30.819,30.819V186.635l-22.851-22.88-.059.088A203.492,203.492,0,0,1-112.159,209.632Z" transform="translate(217.483 -21.185)" fill="none" stroke="#232323" stroke-width="6"/>
      <g id="Group_20881" data-name="Group 20881" transform="translate(63.807 143.917)">
        <rect id="Rectangle_8166" data-name="Rectangle 8166" width="8.789" height="75.35" fill="#232323"/>
      </g>
      <path id="Path_7327" data-name="Path 7327" d="M-87.829,149.277h-44.647a207.2,207.2,0,0,1,22.323-34.188A207.2,207.2,0,0,1-87.829,149.277Z" transform="translate(178.28 -115.089)" fill="none" stroke="#232323" stroke-width="6"/>
    </g>
    <g id="Group_20885" data-name="Group 20885" transform="translate(219.351 45.128)">
      <g id="Group_20883" data-name="Group 20883" transform="translate(0 12.084)">
        <rect id="Rectangle_8167" data-name="Rectangle 8167" width="32.958" height="8.789" fill="#232323"/>
      </g>
      <g id="Group_20884" data-name="Group 20884" transform="translate(12.084)">
        <rect id="Rectangle_8168" data-name="Rectangle 8168" width="8.789" height="32.958" fill="#232323"/>
      </g>
    </g>
    <g id="Group_20888" data-name="Group 20888" transform="translate(0 166.705)">
      <g id="Group_20886" data-name="Group 20886" transform="translate(0 12.084)">
        <rect id="Rectangle_8169" data-name="Rectangle 8169" width="32.958" height="8.789" fill="#232323"/>
      </g>
      <g id="Group_20887" data-name="Group 20887" transform="translate(12.084)">
        <rect id="Rectangle_8170" data-name="Rectangle 8170" width="8.789" height="32.958" fill="#232323"/>
      </g>
    </g>
    <path id="Path_7328" data-name="Path 7328" d="M-145.223,149.021A6.675,6.675,0,0,1-151.9,155.7a6.675,6.675,0,0,1-6.676-6.676,6.677,6.677,0,0,1,6.676-6.676A6.677,6.677,0,0,1-145.223,149.021Z" transform="translate(189.253 -62.496)" fill="#232323"/>
    <path id="Path_7329" data-name="Path 7329" d="M-75.923,191.593a6.675,6.675,0,0,1-6.674,6.676,6.675,6.675,0,0,1-6.676-6.676,6.675,6.675,0,0,1,6.676-6.674A6.674,6.674,0,0,1-75.923,191.593Z" transform="translate(322.978 19.656)" fill="#232323"/>
    <path id="Path_7330" data-name="Path 7330" d="M-94.556,121.762a6.677,6.677,0,0,1-6.676,6.676,6.675,6.675,0,0,1-6.676-6.676,6.675,6.675,0,0,1,6.676-6.674A6.676,6.676,0,0,1-94.556,121.762Z" transform="translate(287.018 -115.088)" fill="#232323"/>
  </g>
</svg>
