<svg width="34" height="33" viewBox="0 0 34 33" fill="none" xmlns="http://www.w3.org/2000/svg">
<g clip-path="url(#clip0_376_35374)">
<path d="M33.9244 31.9488H0V0.0594482H33.9244V31.9488Z" fill="white"/>
<path d="M33.9244 17.3318V0.0732422H0V31.9626H33.9244V22.6586C33.8489 22.6586 33.9244 17.3318 33.9244 17.3318Z" fill="#006FCF"/>
<path d="M29.7689 15.5569H32.3378V9.94611H29.5422V10.7274L29.0133 9.94611H26.5956V10.9404L26.1422 9.94611H21.6844C21.5333 9.94611 21.3822 10.0171 21.2311 10.0171C21.08 10.0171 21.0044 10.0882 20.8533 10.1592C20.7022 10.2302 20.6267 10.2302 20.4756 10.3012V9.94611H7.70667L7.32889 10.8694L6.95111 9.94611H3.92889V10.9404L3.47556 9.94611H1.05778L0 12.3609V15.5569H1.73778L2.04 14.7757H2.64444L2.94667 15.5569H16.2444V14.8467L16.7733 15.5569H20.4756V15.1308C20.5511 15.2018 20.7022 15.2018 20.7778 15.2728C20.8533 15.3439 21.0044 15.3439 21.08 15.4149C21.2311 15.4859 21.3822 15.4859 21.5333 15.4859H24.2533L24.5556 14.7047H25.16L25.4622 15.4859H29.1644V14.7757L29.7689 15.5569V15.5569ZM33.9244 22.6592V17.4035H13.1467L12.6178 18.1138L12.0889 17.4035H6.04444V23.0143H12.0889L12.6178 22.3041L13.1467 23.0143H16.9244V21.807H16.7733C17.3022 21.807 17.7556 21.7359 18.1333 21.5939V23.0854H20.8533V22.3751L21.3822 23.0854H32.64C33.0933 22.9433 33.5467 22.8723 33.9244 22.6592V22.6592Z" fill="white"/>
<path d="M32.64 21.31H30.6V22.0912H32.5644C33.3956 22.0912 33.9244 21.5941 33.9244 20.8838C33.9244 20.1736 33.4711 19.8185 32.7156 19.8185H31.8089C31.5822 19.8185 31.4311 19.6764 31.4311 19.4634C31.4311 19.2503 31.5822 19.1082 31.8089 19.1082H33.5467L33.9244 18.327H31.8844C31.0533 18.327 30.5244 18.8242 30.5244 19.4634C30.5244 20.1736 30.9778 20.5287 31.7333 20.5287H32.64C32.8667 20.5287 33.0178 20.6708 33.0178 20.8838C33.0933 21.1679 32.9422 21.31 32.64 21.31V21.31ZM28.9378 21.31H26.8978V22.0912H28.8622C29.6933 22.0912 30.2222 21.5941 30.2222 20.8838C30.2222 20.1736 29.7689 19.8185 29.0133 19.8185H28.1067C27.88 19.8185 27.7289 19.6764 27.7289 19.4634C27.7289 19.2503 27.88 19.1082 28.1067 19.1082H29.8444L30.2222 18.327H28.1822C27.3511 18.327 26.8222 18.8242 26.8222 19.4634C26.8222 20.1736 27.2756 20.5287 28.0311 20.5287H28.9378C29.1644 20.5287 29.3156 20.6708 29.3156 20.8838C29.3911 21.1679 29.1644 21.31 28.9378 21.31V21.31ZM26.2933 19.0372V18.256H23.12V22.0202H26.2933V21.2389H24.0267V20.4577H26.2178V19.6764H24.0267V18.9662H26.2933V19.0372V19.0372ZM21.1556 19.0372C21.5333 19.0372 21.6844 19.2503 21.6844 19.4634C21.6844 19.6764 21.5333 19.8895 21.1556 19.8895H20.0222V18.9662L21.1556 19.0372V19.0372ZM20.0222 20.6707H20.4756L21.6844 22.0202H22.8178L21.4578 20.5997C22.1378 20.4577 22.5156 20.0315 22.5156 19.4634C22.5156 18.7531 21.9867 18.256 21.1556 18.256H19.04V22.0202H19.9467L20.0222 20.6707ZM17.6044 19.5344C17.6044 19.8185 17.4533 20.0315 17.0756 20.0315H15.8667V19.0372H17C17.3778 19.0372 17.6044 19.2503 17.6044 19.5344V19.5344ZM14.96 18.256V22.0202H15.8667V20.7418H17.0756C17.9067 20.7418 18.5111 20.2446 18.5111 19.4634C18.5111 18.7531 17.9822 18.1849 17.1511 18.1849L14.96 18.256V18.256ZM13.6 22.0202H14.7333L13.1467 20.1026L14.7333 18.256H13.6L12.6178 19.4634L11.6356 18.256H10.5022L12.0889 20.1026L10.5022 21.9492H11.6356L12.6178 20.7418L13.6 22.0202V22.0202ZM10.2 19.0372V18.256H7.02667V22.0202H10.2V21.2389H7.93333V20.4577H10.1244V19.6764H7.93333V18.9662H10.2V19.0372V19.0372ZM28.56 12.3611L30.1467 14.6338H31.28V10.8696H30.3733V13.3554L30.1467 13.0003L28.7111 10.8696H27.5022V14.6338H28.4089V12.077L28.56 12.3611V12.3611ZM24.6311 12.29L24.9333 11.5088L25.2356 12.29L25.6133 13.1423H24.2533L24.6311 12.29V12.29ZM26.2178 14.6338H27.2L25.4622 10.8696H24.2533L22.5156 14.6338H23.4978L23.8756 13.8525H25.84L26.2178 14.6338V14.6338ZM21.9867 14.6338L22.3644 13.8525H22.1378C21.4578 13.8525 21.08 13.4264 21.08 12.7872V12.7162C21.08 12.077 21.4578 11.6508 22.1378 11.6508H23.12V10.8696H22.0622C20.8533 10.8696 20.1733 11.6508 20.1733 12.7162V12.7872C20.1733 13.9236 20.8533 14.6338 21.9867 14.6338ZM18.5867 14.6338H19.4933V10.9406H18.5867V14.6338ZM16.6222 11.6508C17 11.6508 17.1511 11.8639 17.1511 12.077C17.1511 12.29 17 12.5031 16.6222 12.5031H15.4889V11.5798L16.6222 11.6508V11.6508ZM15.4889 13.2844H15.9422L17.1511 14.6338H18.2844L16.9244 13.2133C17.6044 13.0713 17.9822 12.6451 17.9822 12.077C17.9822 11.3667 17.4533 10.8696 16.6222 10.8696H14.5067V14.6338H15.4133L15.4889 13.2844ZM13.8267 11.6508V10.8696H10.6533V14.6338H13.8267V13.8525H11.56V13.0713H13.7511V12.29H11.56V11.5798H13.8267V11.6508V11.6508ZM6.95111 14.6338H7.78222L8.91556 11.5798V14.6338H9.82222V10.8696H8.31111L7.40444 13.4264L6.49778 10.8696H4.98667V14.6338H5.89333V11.5798L6.95111 14.6338ZM2.04 12.29L2.34222 11.5088L2.64444 12.29L3.02222 13.1423H1.66222L2.04 12.29V12.29ZM3.62667 14.6338H4.60889L2.87111 10.8696H1.73778L0 14.6338H0.982222L1.36 13.8525H3.32444L3.62667 14.6338Z" fill="#006FCF"/>
</g>
<defs>
<clipPath id="clip0_376_35374">
<rect width="34" height="31.9604" fill="white" transform="translate(0 0.0594482)"/>
</clipPath>
</defs>
</svg>
