<svg id="Logo_Footer" data-name="Logo Footer" xmlns="http://www.w3.org/2000/svg" xmlns:xlink="http://www.w3.org/1999/xlink" width="145.773" height="145.773" viewBox="0 0 145.773 145.773">
  <defs>
    <clipPath id="clip-path">
      <rect id="Rectangle_13" data-name="Rectangle 13" width="145.773" height="145.773" fill="none"/>
    </clipPath>
  </defs>
  <g id="Group_5" data-name="Group 5" clip-path="url(#clip-path)">
    <path id="Path_5" data-name="Path 5" d="M145.773,72.886A72.886,72.886,0,1,1,72.886,0a72.887,72.887,0,0,1,72.886,72.886" fill="#fff"/>
    <path id="Path_6" data-name="Path 6" d="M247.726,174.473a10.492,10.492,0,0,1-4.652,3.431,3.428,3.428,0,0,1-4.405-1.692c-.86-1.628-1.6-3.575-2.392-5.258,1.811-1.115,3.657-2.083,5.316-3.3,5.481-4.031,8.028-11.814,6.191-18.651-1.8-6.693-6.916-9.035-13.147-9.882-.779-.106-31.59-.214-31.59-.214a2.723,2.723,0,0,1,1.779,3.313c-2.248,11.576-6.87,41.9-6.87,41.9a12.457,12.457,0,0,1-3.73,7.331s14.81-.067,15.671-.033c2.014.078,2.518-.725,2.793-2.5.82-5.282,1.821-10.537,2.748-15.786a3.828,3.828,0,0,1,4.735,2.275c1.4,2.8,2.544,5.736,3.757,8.63,2.8,6.688,8.963,9.3,15.376,6.907,7.748-2.891,8.421-16.475,8.421-16.475m-21.041-12.212c-3.369.042-3.579-.053-9.5-.036.7-4.074,1.071-7.55,1.723-11.325,1.964,0,5.064-.152,9.427.036a4.185,4.185,0,0,1,3.909,3.177c1.374,5.952-3.131,8.117-5.56,8.148" transform="translate(-118.987 -85.096)" fill="#180d1d"/>
    <path id="Path_7" data-name="Path 7" d="M76.85,151.854l2.623-16.376c.468-2.7,2.308-5.151,5.009-5.159a4.387,4.387,0,0,1,3.46,1.532c2.372-6.121,7.968-2.812,7.968-2.812s-3.658-14.481-4.519-18.387c-.331-1.5-.844-5.979,3.819-5.914,2.6.036,3.663,1.178,4.516,4.177,1.05,3.689,4.7,19.806,4.7,19.806s2.438-17.408,3.214-19.744a5.187,5.187,0,0,1,3.484-3.384c.552-9.1-4.933-16.711-14.687-19.308-14.5-3.86-27.161.24-38.282,9.858-1.4,1.214-1.365,2.418-.19,3.8,2.163,2.541,4.257,5.14,6.374,7.719,2.495,3.041,2.472,3.022,5.361.338,3.268-3.037,6.726-5.823,11.385-6.317,3.106-.33,5.932.43,7.721,3.228,1.761,2.754.7,5.385-1,7.644a34.572,34.572,0,0,1-5.564,6.041c-9.418,7.718-18.969,15.275-28.453,22.912-.667.537-1.572,1.174-1.72,1.9-.973,4.763-1.768,9.746-2.71,15.028,3.429-.011,29.8-.306,29.8-.306s-3.1-1.491-2.3-6.272" transform="translate(-30.235 -51.978)" fill="#180d1d"/>
  </g>
</svg>
