<svg width="70" height="26" viewBox="0 0 70 26" fill="none" xmlns="http://www.w3.org/2000/svg">
<path d="M33.1903 12.3988V19.8087H30.6113V1.51737H37.4511C39.101 1.48819 40.6868 2.05706 41.8882 3.10728C43.0896 4.08457 43.7624 5.49945 43.7303 6.95808C43.7624 8.43131 43.0896 9.84619 41.8882 10.8381C40.6868 11.8737 39.2132 12.3988 37.4672 12.3988H33.1903ZM33.1903 3.76367V10.1525H37.5152C38.4763 10.1817 39.4054 9.8316 40.0621 9.20439C41.4237 8.0083 41.4397 6.03914 40.1262 4.7993L40.0621 4.74095C39.4054 4.09915 38.4763 3.74908 37.5152 3.77825L33.1903 3.76367ZM49.6731 6.88515C51.5793 6.88515 53.085 7.35192 54.1903 8.27086C55.2955 9.20439 55.8402 10.4734 55.8402 12.0925V19.7941H53.3733V18.0583H53.2612C52.188 19.4878 50.7784 20.2025 49.0003 20.2025C47.4946 20.2025 46.2132 19.7941 45.204 18.9773C44.2109 18.2188 43.6502 17.0956 43.6823 15.9141C43.6823 14.6159 44.2269 13.5949 45.3001 12.8218C46.3733 12.0487 47.815 11.6695 49.609 11.6695C51.1468 11.6695 52.3962 11.932 53.3894 12.428V11.8883C53.3894 11.086 53.0049 10.3275 52.3322 9.81701C51.6434 9.26273 50.7624 8.95642 49.8493 8.95642C48.4077 8.95642 47.2704 9.5107 46.4214 10.6193L44.1468 9.32108C45.3802 7.70199 47.2223 6.88515 49.6731 6.88515ZM46.3413 15.9725C46.3413 16.5851 46.6617 17.154 47.1903 17.504C47.7669 17.9125 48.4717 18.1313 49.1926 18.1167C50.2818 18.1167 51.323 17.7228 52.0919 17.0227C52.9409 16.2934 53.3733 15.4328 53.3733 14.4409C52.5724 13.8574 51.4512 13.5657 50.0095 13.5657C48.9683 13.5657 48.0873 13.7991 47.3825 14.2513C46.6937 14.718 46.3413 15.2869 46.3413 15.9725ZM70.0004 7.29357L61.3825 25.3223H58.7235L61.9271 19.021L56.2566 7.30816H59.0598L63.1445 16.2934H63.2086L67.1971 7.30816L70.0004 7.29357Z" fill="#5F6368"/>
<path d="M22.762 10.7951C22.762 10.0804 22.6979 9.36567 22.5698 8.66553H11.6934V12.706H17.9245C17.6682 14.0041 16.8352 15.1711 15.6178 15.9004V18.5259H19.3341C21.5126 16.7026 22.762 14.0041 22.762 10.7951Z" fill="#4285F4"/>
<path d="M11.6933 21.0636C14.8009 21.0636 17.4279 20.13 19.3341 18.5255L15.6178 15.9C14.5766 16.5418 13.2471 16.9064 11.6933 16.9064C8.68188 16.9064 6.13497 15.054 5.22193 12.5743H1.39355V15.2873C3.34779 18.8172 7.33635 21.0636 11.6933 21.0636Z" fill="#34A853"/>
<path d="M5.22203 12.5744C4.74148 11.2762 4.74148 9.86129 5.22203 8.54851V5.85004H1.39365C0.580188 7.31009 0.15625 8.92423 0.15625 10.5614C0.15625 12.1986 0.580188 13.8128 1.39365 15.2728L5.22203 12.5744Z" fill="#FBBC04"/>
<path d="M11.6933 4.21622C13.3432 4.18705 14.929 4.75592 16.1144 5.79155L19.3981 2.80135C17.3157 1.00722 14.5606 0.0299337 11.6933 0.0591064C7.33635 0.0591064 3.34779 2.30541 1.39355 5.8499L5.22193 8.56297C6.13497 6.06869 8.68188 4.21622 11.6933 4.21622Z" fill="#EA4335"/>
</svg>
