<svg width="45" height="33" viewBox="0 0 45 33" fill="none" xmlns="http://www.w3.org/2000/svg">
<path d="M8.62402 32.3565V30.2076C8.64007 30.0252 8.61366 29.8416 8.54662 29.6697C8.47958 29.4979 8.37352 29.3418 8.23581 29.2123C8.0981 29.0829 7.93205 28.9832 7.74921 28.9202C7.56636 28.8571 7.3711 28.8323 7.17702 28.8474C6.92318 28.8371 6.67073 28.8877 6.44335 28.9942C6.21596 29.1007 6.02109 29.2598 5.87702 29.4565C5.75242 29.26 5.57292 29.0993 5.35802 28.9919C5.14311 28.8846 4.90101 28.8346 4.65802 28.8474C4.44957 28.8391 4.24229 28.8807 4.05565 28.9683C3.86901 29.056 3.70913 29.1868 3.59102 29.3484V28.9189H2.79102V32.3565H3.59102V30.4576C3.59102 29.8485 3.93402 29.5628 4.46702 29.5628C5.00002 29.5628 5.26702 29.8852 5.26702 30.4576V32.3565H6.06702V30.4576C6.05092 30.3427 6.06188 30.2258 6.09911 30.1152C6.13634 30.0046 6.19893 29.9031 6.28248 29.8177C6.36602 29.7324 6.46848 29.6653 6.58261 29.6212C6.69674 29.5772 6.81978 29.5572 6.94302 29.5628C7.47602 29.5628 7.74302 29.8852 7.74302 30.4576V32.3565H8.62402ZM20.47 28.9189H19.17V27.8848H18.37V28.9189H17.646V29.5994H18.37V31.1749C18.37 31.9626 18.713 32.4279 19.627 32.4279C19.9738 32.4213 20.3137 32.3351 20.617 32.1769L20.388 31.5321C20.1827 31.6531 19.9443 31.7155 19.702 31.7116C19.321 31.7116 19.169 31.4973 19.169 31.1392V29.5994H20.469L20.47 28.9189ZM27.25 28.8474C27.0582 28.8434 26.8687 28.8877 26.7013 28.9758C26.5339 29.0639 26.3946 29.1926 26.298 29.3484V28.9189H25.498V32.3565H26.298V30.4229C26.298 29.8495 26.565 29.528 27.06 29.528C27.229 29.5339 27.3968 29.5579 27.56 29.5994L27.784 28.8784C27.6082 28.8487 27.4295 28.8368 27.251 28.8427L27.25 28.8474ZM17.005 29.2009C16.5589 28.9445 16.0413 28.8198 15.519 28.8427C14.605 28.8427 13.995 29.2723 13.995 29.9529C13.995 30.5263 14.452 30.8478 15.252 30.9559L15.633 30.9916C16.052 31.063 16.281 31.1711 16.281 31.3497C16.281 31.6007 15.981 31.7793 15.443 31.7793C15.007 31.7818 14.5809 31.6566 14.224 31.4212L13.843 31.9946C14.3041 32.2857 14.8497 32.4358 15.405 32.4242C16.472 32.4242 17.081 31.9542 17.081 31.314C17.081 30.7049 16.581 30.3834 15.824 30.28L15.443 30.2443C15.1 30.2086 14.834 30.1371 14.834 29.9218C14.834 29.6709 15.101 29.528 15.52 29.528C15.9183 29.5429 16.3083 29.6392 16.663 29.81L17.005 29.2009ZM38.26 28.8427C38.0682 28.8387 37.8787 28.883 37.7113 28.9711C37.5439 29.0592 37.4046 29.1879 37.308 29.3437V28.9141H36.508V32.3565H37.308V30.4229C37.308 29.8495 37.575 29.528 38.07 29.528C38.239 29.5339 38.4068 29.5579 38.57 29.5994L38.799 28.8831C38.6232 28.8534 38.4445 28.8415 38.266 28.8474L38.26 28.8427ZM28.058 30.6334C28.0477 30.874 28.0913 31.114 28.1859 31.3378C28.2804 31.5616 28.4239 31.7642 28.6071 31.9325C28.7902 32.1009 29.0089 32.2312 29.2491 32.3151C29.4892 32.399 29.7454 32.4345 30.001 32.4195C30.4713 32.4442 30.9346 32.3038 31.301 32.0256L30.92 31.4165C30.6504 31.6217 30.3149 31.7353 29.968 31.7389C29.8156 31.742 29.6643 31.7148 29.5239 31.6591C29.3835 31.6034 29.2572 31.5204 29.1533 31.4156C29.0495 31.3107 28.9703 31.1864 28.9212 31.0508C28.872 30.9152 28.8539 30.7714 28.868 30.6287C28.8604 30.4874 28.883 30.3461 28.9345 30.2132C28.986 30.0802 29.0655 29.9584 29.1681 29.8548C29.2707 29.7513 29.3943 29.6682 29.5317 29.6104C29.6692 29.5526 29.8175 29.5214 29.968 29.5186C30.3149 29.5221 30.6504 29.6357 30.92 29.841L31.301 29.2319C30.9346 28.9537 30.4713 28.8133 30.001 28.838C29.7454 28.8229 29.4892 28.8585 29.2491 28.9424C29.0089 29.0263 28.7902 29.1566 28.6071 29.3249C28.4239 29.4933 28.2804 29.6959 28.1859 29.9197C28.0913 30.1435 28.0477 30.3834 28.058 30.624V30.6334ZM35.448 30.624V28.9048H34.648V29.3343C34.5138 29.1712 34.34 29.0406 34.1412 28.9535C33.9423 28.8663 33.7242 28.8251 33.505 28.8333C33.013 28.8517 32.5476 29.0483 32.2064 29.382C31.8652 29.7158 31.6746 30.1607 31.6746 30.6236C31.6746 31.0864 31.8652 31.5313 32.2064 31.8651C32.5476 32.1988 33.013 32.3955 33.505 32.4138C33.7253 32.43 33.9463 32.3923 34.1466 32.3046C34.3469 32.2168 34.5196 32.0818 34.648 31.9128V32.3424H35.448V30.624ZM32.515 30.624C32.5048 30.4818 32.5258 30.3391 32.5767 30.2049C32.6276 30.0706 32.7073 29.9476 32.8109 29.8435C32.9144 29.7394 33.0397 29.6563 33.1788 29.5996C33.3179 29.5428 33.4679 29.5135 33.6195 29.5135C33.7712 29.5135 33.9212 29.5428 34.0603 29.5996C34.1994 29.6563 34.3246 29.7394 34.4281 29.8435C34.5317 29.9476 34.6114 30.0706 34.6623 30.2049C34.7132 30.3391 34.7342 30.4818 34.724 30.624C34.7342 30.7662 34.7132 30.9089 34.6623 31.0432C34.6114 31.1775 34.5317 31.3005 34.4281 31.4046C34.3246 31.5087 34.1994 31.5917 34.0603 31.6485C33.9212 31.7052 33.7712 31.7345 33.6195 31.7345C33.4679 31.7345 33.3179 31.7052 33.1788 31.6485C33.0397 31.5917 32.9144 31.5087 32.8109 31.4046C32.7073 31.3005 32.6276 31.1775 32.5767 31.0432C32.5258 30.9089 32.5048 30.7662 32.515 30.624ZM22.954 28.838C22.4618 28.8604 21.9979 29.0612 21.6597 29.3982C21.3215 29.7352 21.1354 30.1822 21.1403 30.6455C21.1452 31.1087 21.3408 31.5521 21.6861 31.8827C22.0313 32.2133 22.4994 32.4054 22.992 32.4185C23.5302 32.428 24.0554 32.2619 24.478 31.9485L24.097 31.4118C23.7909 31.6348 23.4172 31.7603 23.03 31.7699C22.7697 31.7897 22.5111 31.7156 22.3068 31.5626C22.1025 31.4097 21.9678 31.1894 21.93 30.9465H24.63V30.6644C24.6677 30.4377 24.6525 30.206 24.5855 29.9854C24.5184 29.7647 24.4011 29.5604 24.2416 29.3867C24.0822 29.2129 23.8844 29.0738 23.6621 28.9791C23.4397 28.8844 23.1981 28.8362 22.954 28.838ZM22.954 29.4829C23.0717 29.48 23.1888 29.4991 23.2986 29.539C23.4084 29.5789 23.5087 29.6389 23.5937 29.7155C23.6786 29.792 23.7466 29.8837 23.7937 29.9851C23.8408 30.0865 23.8661 30.1957 23.868 30.3063H21.968C21.9903 30.0763 22.1052 29.863 22.2892 29.7099C22.4732 29.5569 22.7124 29.4757 22.958 29.4829H22.954ZM42.804 30.6287V27.5493H42.004V29.3353C41.8698 29.1722 41.696 29.0416 41.4972 28.9544C41.2983 28.8673 41.0802 28.8261 40.861 28.8343C40.369 28.8526 39.9036 29.0493 39.5624 29.383C39.2212 29.7167 39.0306 30.1616 39.0306 30.6245C39.0306 31.0874 39.2212 31.5323 39.5624 31.866C39.9036 32.1997 40.369 32.3964 40.861 32.4147C41.0813 32.4309 41.3023 32.3933 41.5026 32.3055C41.7029 32.2177 41.8756 32.0828 42.004 31.9137V32.3433H42.804V30.6287ZM39.871 30.6287C39.8608 30.4865 39.8818 30.3438 39.9327 30.2096C39.9836 30.0753 40.0633 29.9523 40.1669 29.8482C40.2705 29.744 40.3957 29.661 40.5348 29.6043C40.6739 29.5475 40.8239 29.5182 40.9755 29.5182C41.1272 29.5182 41.2772 29.5475 41.4163 29.6043C41.5554 29.661 41.6806 29.744 41.7841 29.8482C41.8877 29.9523 41.9674 30.0753 42.0183 30.2096C42.0692 30.3438 42.0902 30.4865 42.08 30.6287C42.0902 30.771 42.0692 30.9136 42.0183 31.0479C41.9674 31.1822 41.8877 31.3052 41.7841 31.4093C41.6806 31.5134 41.5554 31.5964 41.4163 31.6532C41.2772 31.7099 41.1272 31.7392 40.9755 31.7392C40.8239 31.7392 40.6739 31.7099 40.5348 31.6532C40.3957 31.5964 40.2705 31.5134 40.1669 31.4093C40.0633 31.3052 39.9836 31.1822 39.9327 31.0479C39.8818 30.9136 39.8608 30.771 39.871 30.6287ZM13.131 30.6287V28.9095H12.331V29.339C12.1968 29.1759 12.023 29.0453 11.8242 28.9582C11.6253 28.871 11.4072 28.8298 11.188 28.838C10.696 28.8564 10.2306 29.053 9.8894 29.3867C9.54819 29.7205 9.35762 30.1654 9.35762 30.6283C9.35762 31.0911 9.54819 31.5361 9.8894 31.8698C10.2306 32.2035 10.696 32.4002 11.188 32.4185C11.4083 32.4347 11.6293 32.397 11.8296 32.3093C12.0299 32.2215 12.2026 32.0865 12.331 31.9175V32.3471H13.131V30.6287ZM10.16 30.6287C10.1498 30.4865 10.1708 30.3438 10.2217 30.2096C10.2726 30.0753 10.3523 29.9523 10.4559 29.8482C10.5594 29.744 10.6847 29.661 10.8238 29.6043C10.9629 29.5475 11.1129 29.5182 11.2645 29.5182C11.4162 29.5182 11.5662 29.5475 11.7053 29.6043C11.8444 29.661 11.9696 29.744 12.0731 29.8482C12.1767 29.9523 12.2564 30.0753 12.3073 30.2096C12.3582 30.3438 12.3792 30.4865 12.369 30.6287C12.3792 30.771 12.3582 30.9136 12.3073 31.0479C12.2564 31.1822 12.1767 31.3052 12.0731 31.4093C11.9696 31.5134 11.8444 31.5964 11.7053 31.6532C11.5662 31.7099 11.4162 31.7392 11.2645 31.7392C11.1129 31.7392 10.9629 31.7099 10.8238 31.6532C10.6847 31.5964 10.5594 31.5134 10.4559 31.4093C10.3523 31.3052 10.2726 31.1822 10.2217 31.0479C10.1708 30.9136 10.1498 30.771 10.16 30.6287Z" fill="white"/>
<path d="M28.7373 2.81519H16.7383V23.0818H28.7373V2.81519Z" fill="#FF5F00"/>
<path d="M17.5001 12.9477C17.5005 10.998 17.9703 9.07368 18.8741 7.31882C19.7779 5.56395 21.0924 4.02404 22.7191 2.81442C21.0001 1.54671 18.9836 0.683607 16.8378 0.297058C14.692 -0.0894911 12.4789 0.0117129 10.3832 0.592234C8.28738 1.17276 6.36958 2.21578 4.78961 3.63435C3.20965 5.05293 2.0133 6.80596 1.30029 8.74733C0.587275 10.6887 0.378255 12.7621 0.690651 14.7949C1.00305 16.8276 1.82781 18.7606 3.09619 20.4329C4.36457 22.1052 6.03982 23.4683 7.98229 24.4085C9.92477 25.3488 12.0782 25.8389 14.2631 25.8381C17.3315 25.8401 20.3109 24.8687 22.7191 23.0811C21.0892 21.8741 19.7725 20.3347 18.8684 18.5793C17.9642 16.8238 17.4964 14.8981 17.5001 12.9477Z" fill="#EB001B"/>
<path d="M44.9249 12.9482C44.927 15.3658 44.2051 17.7351 42.8418 19.7851C41.4785 21.8351 39.5289 23.483 37.2159 24.5403C34.903 25.5975 32.3202 26.0214 29.763 25.7634C27.2058 25.5054 24.7775 24.576 22.7559 23.0815C24.3829 21.8721 25.6975 20.3323 26.6013 18.5774C27.5052 16.8224 27.9747 14.898 27.9747 12.9482C27.9747 10.9984 27.5052 9.07394 26.6013 7.31901C25.6975 5.56407 24.3829 4.02422 22.7559 2.81486C24.7775 1.32036 27.2058 0.390957 29.763 0.132983C32.3202 -0.124992 34.903 0.298882 37.2159 1.35611C39.5289 2.41334 41.4785 4.06122 42.8418 6.11123C44.2051 8.16124 44.927 10.5306 44.9249 12.9482Z" fill="#F79E1B"/>
</svg>
