<svg width="111" height="26" viewBox="0 0 111 26" fill="none" xmlns="http://www.w3.org/2000/svg">
<g clip-path="url(#clip0_376_35368)">
<path fill-rule="evenodd" clip-rule="evenodd" d="M9.68588 6.03363H17.2708C21.3433 6.03363 22.8763 7.97942 22.6394 10.8381C22.2479 15.5575 19.2248 18.1685 15.215 18.1685H13.1905C12.6404 18.1685 12.2703 18.5122 12.1215 19.4435L11.262 24.8577C11.2052 25.2088 11.0094 25.4121 10.7157 25.4398H5.95018C5.50182 25.4398 5.34323 25.1164 5.4607 24.4161L8.36625 7.05919C8.47981 6.3644 8.88313 6.03363 9.68588 6.03363Z" fill="#009EE3"/>
<path fill-rule="evenodd" clip-rule="evenodd" d="M42.6158 5.71234C45.1748 5.71234 47.5361 7.02247 47.213 10.2876C46.8214 14.1681 44.6188 16.3153 41.1435 16.3246H38.1068C37.6701 16.3246 37.4587 16.6609 37.3451 17.3501L36.7578 20.874C36.6697 21.4062 36.3799 21.6686 35.9531 21.6686H33.1278C32.6775 21.6686 32.5208 21.3969 32.6207 20.789L34.9526 6.66584C35.0681 5.97104 35.3441 5.71234 35.8473 5.71234H42.61H42.6158ZM38.0147 13.2738H40.3153C41.7544 13.222 42.7098 12.2815 42.8057 10.5851C42.8645 9.5374 42.1146 8.78717 40.9222 8.79271L38.7568 8.80196L38.0147 13.2738ZM54.8939 20.5876C55.1524 20.3658 55.4147 20.2513 55.3775 20.5248L55.2855 21.1789C55.2385 21.5207 55.3814 21.7018 55.7182 21.7018H58.2282C58.6512 21.7018 58.8567 21.5411 58.9605 20.9239L60.5072 11.7622C60.5856 11.3021 60.4661 11.0767 60.0961 11.0767H57.3354C57.0868 11.0767 56.9654 11.2079 56.9008 11.5663L56.799 12.1299C56.7461 12.4237 56.6032 12.4755 56.47 12.1798C56.0021 11.1339 54.8078 10.6646 53.1416 10.7016C49.2708 10.7773 46.6609 13.5509 46.3809 17.1062C46.1655 19.8558 48.2527 22.016 51.0055 22.016C53.0026 22.016 53.8954 21.4616 54.9017 20.5931L54.8939 20.5876ZM52.7911 19.1777C51.1249 19.1777 49.9639 17.923 50.2047 16.3856C50.4455 14.8481 52.004 13.5934 53.6702 13.5934C55.3364 13.5934 56.4974 14.8481 56.2566 16.3856C56.0158 17.923 54.4593 19.1777 52.7911 19.1777ZM65.4197 11.0471H62.8744C62.3496 11.0471 62.1362 11.4167 62.3027 11.8712L65.4627 20.6042L62.3634 24.76C62.103 25.1074 62.3046 25.4234 62.6707 25.4234H65.5313C65.698 25.4416 65.8667 25.4142 66.0174 25.3444C66.168 25.2746 66.2942 25.1654 66.381 25.0298L76.1001 11.8731C76.3996 11.4684 76.2587 11.0434 75.7672 11.0434H73.0594C72.5954 11.0434 72.4094 11.2171 72.1431 11.5811L68.0903 17.1247L66.2792 11.5682C66.1735 11.2319 65.9091 11.0471 65.4216 11.0471H65.4197Z" fill="#113984"/>
<path fill-rule="evenodd" clip-rule="evenodd" d="M86.2105 5.71238C88.7695 5.71238 91.1308 7.02251 90.8077 10.2877C90.4162 14.1682 88.2135 16.3154 84.7382 16.3246H81.7034C81.2668 16.3246 81.0554 16.6609 80.9418 17.3502L80.3544 20.874C80.2663 21.4062 79.9766 21.6686 79.5497 21.6686H76.7245C76.2741 21.6686 76.1175 21.397 76.2174 20.789L78.5532 6.66217C78.6687 5.96738 78.9447 5.70868 79.4479 5.70868H86.2105V5.71238ZM81.6095 13.2738H83.91C85.3491 13.2221 86.3045 12.2815 86.4005 10.5852C86.4592 9.53744 85.7093 8.78721 84.517 8.79275L82.3515 8.80199L81.6095 13.2738ZM98.4886 20.5876C98.7471 20.3659 99.0094 20.2513 98.9722 20.5248L98.8802 21.1789C98.8332 21.5208 98.9761 21.7019 99.3129 21.7019H101.823C102.246 21.7019 102.451 21.5411 102.555 20.9239L104.102 11.7623C104.18 11.3021 104.061 11.0767 103.691 11.0767H100.934C100.685 11.0767 100.564 11.2079 100.499 11.5664L100.398 12.13C100.345 12.4238 100.202 12.4755 100.069 12.1799C99.6007 11.134 98.4064 10.6646 96.7402 10.7016C92.8694 10.7774 90.2595 13.551 89.9795 17.1063C89.7642 19.8559 91.8513 22.016 94.6041 22.016C96.6012 22.016 97.494 21.4617 98.5004 20.5932L98.4886 20.5876ZM96.3878 19.1777C94.7216 19.1777 93.5606 17.923 93.8014 16.3856C94.0422 14.8482 95.6007 13.5935 97.2669 13.5935C98.9331 13.5935 100.094 14.8482 99.8533 16.3856C99.6125 17.923 98.054 19.1777 96.3878 19.1777ZM107.965 21.7167H105.067C105.017 21.7188 104.967 21.7104 104.92 21.692C104.873 21.6737 104.832 21.6459 104.798 21.6106C104.764 21.5753 104.739 21.5334 104.724 21.4878C104.709 21.4423 104.706 21.3942 104.713 21.3471L107.258 6.12815C107.282 6.02428 107.343 5.93123 107.431 5.86413C107.518 5.79703 107.627 5.75983 107.74 5.75857H110.637C110.688 5.75645 110.738 5.76485 110.785 5.78318C110.831 5.80152 110.873 5.82933 110.907 5.86464C110.941 5.89994 110.966 5.94187 110.981 5.98742C110.995 6.03297 110.999 6.08102 110.992 6.12815L108.447 21.3471C108.423 21.4516 108.363 21.5455 108.275 21.6134C108.188 21.6812 108.078 21.7189 107.965 21.7204V21.7167Z" fill="#009EE3"/>
<path fill-rule="evenodd" clip-rule="evenodd" d="M4.94193 0.0594482H12.5347C14.6728 0.0594482 17.2102 0.124123 18.9058 1.53773C20.0394 2.48199 20.6346 3.98429 20.4976 5.60301C20.0316 11.0745 16.5641 14.1401 11.9121 14.1401H8.16857C7.53029 14.1401 7.10934 14.5392 6.92921 15.6184L5.88369 21.9011C5.81516 22.3076 5.62916 22.5478 5.29631 22.5774H0.611028C0.0921812 22.5774 -0.0918644 22.2078 0.0432316 21.3911L3.41084 1.25316C3.54594 0.443801 4.0178 0.0594482 4.94193 0.0594482Z" fill="#113984"/>
<path fill-rule="evenodd" clip-rule="evenodd" d="M7.03857 14.981L8.36408 7.05921C8.4796 6.36442 8.88293 6.0318 9.68567 6.0318H17.2706C18.5257 6.0318 19.5418 6.21659 20.3367 6.55844C19.5751 11.4294 16.2369 14.1346 11.8668 14.1346H8.12913C7.62791 14.1365 7.25982 14.373 7.03857 14.981Z" fill="#172C70"/>
</g>
<defs>
<clipPath id="clip0_376_35368">
<rect width="111" height="25.3803" fill="white" transform="translate(0 0.0594482)"/>
</clipPath>
</defs>
</svg>
