<svg width="80" height="25" viewBox="0 0 80 25" fill="none" xmlns="http://www.w3.org/2000/svg">
<g clip-path="url(#clip0_376_35365)">
<path d="M41.3741 7.84204C41.3284 11.2329 44.5811 13.1253 47.0314 14.2503C49.549 15.4047 50.3946 16.1449 50.385 17.1771C50.3657 18.7571 48.3767 19.4543 46.5149 19.4814C43.2671 19.529 41.3789 18.6552 39.8775 17.9942L38.7076 23.153C40.2138 23.8071 43.0028 24.3776 45.8951 24.4025C52.6839 24.4025 57.1257 21.2448 57.1497 16.3486C57.1761 10.1351 48.0283 9.79099 48.0908 7.01357C48.1124 6.17151 48.9652 5.27286 50.8342 5.04424C51.7591 4.9288 54.3127 4.84052 57.2074 6.09681L58.3436 1.10559C56.787 0.571386 54.7859 0.0598145 52.2948 0.0598145C45.9047 0.0598145 41.4101 3.26053 41.3741 7.84204ZM69.2619 0.489897C68.0223 0.489897 66.9774 1.17124 66.5113 2.21702L56.8134 24.0358H63.5974L64.9474 20.5204H73.2376L74.0208 24.0358H80L74.7823 0.489897H69.2619ZM70.2108 6.85059L72.1686 15.6922H66.8068L70.2108 6.85059ZM33.1488 0.489897L27.8013 24.0358H34.2658L39.6108 0.489897H33.1488ZM23.5854 0.489897L16.8566 16.5161L14.1349 2.8893C13.8154 1.36817 12.5542 0.489897 11.1537 0.489897H0.153745L0 1.1735C2.25812 1.63527 4.82373 2.38 6.378 3.17678C7.32929 3.66345 7.60074 4.08901 7.91304 5.2457L13.0683 24.0358H19.9003L30.3742 0.489897H23.5854Z" fill="url(#paint0_linear_376_35365)"/>
</g>
<defs>
<linearGradient id="paint0_linear_376_35365" x1="36.7794" y1="24.8908" x2="37.4433" y2="-0.111693" gradientUnits="userSpaceOnUse">
<stop stop-color="#222357"/>
<stop offset="1" stop-color="#254AA5"/>
</linearGradient>
<clipPath id="clip0_376_35365">
<rect width="80" height="24.4403" fill="white" transform="translate(0 0.0594482)"/>
</clipPath>
</defs>
</svg>
